<svg width="142" height="54" viewBox="0 0 142 54" fill="none" xmlns="http://www.w3.org/2000/svg">
<g clip-path="url(#clip0_34_3084)">
<path d="M32.6855 2.34814H37.3201V7.00006C38.2555 8.28142 39.0478 9.66596 39.6804 11.132V0H28.6504C29.0548 0.179515 29.4541 0.371411 29.8461 0.576718C30.8458 1.09669 31.7926 1.69095 32.6866 2.34814H32.6855Z" fill="white"/>
<path d="M2.36031 2.34814H6.98966C7.88255 1.69198 8.82937 1.09669 9.82908 0.575686C10.22 0.371411 10.6183 0.179515 11.0227 0H0V11.1186C0.631558 9.65461 1.42489 8.27317 2.36031 6.99284V2.34814Z" fill="white"/>
<path d="M37.32 35.2768C37.32 38.3017 35.7903 41.079 33.2278 42.7081L28.9863 45.4029V39.1168C26.1987 40.4022 23.098 41.1182 19.8406 41.1182C16.5833 41.1182 13.4794 40.4022 10.6908 39.1168V45.4008L6.45345 42.7081C3.89092 41.0801 2.36128 38.3017 2.36128 35.2768V32.2849C1.43417 31.0107 0.636683 29.6303 0.000976562 28.1498V35.2768C0.000976562 39.1064 1.93817 42.6245 5.18307 44.6869L11.2342 48.532C11.2342 48.532 11.2342 48.532 11.2352 48.533L19.2049 53.5966L19.8396 54L34.4982 44.6869C37.7431 42.6245 39.6803 39.1064 39.6803 35.2768V28.1405C39.0456 29.6221 38.2471 31.0035 37.32 32.2787V35.2768Z" fill="white"/>
<path d="M37.8269 15.5229C36.625 10.2778 33.184 5.84353 28.3846 3.34889C25.7308 1.96229 22.8562 1.2597 19.8404 1.2597C16.8247 1.2597 13.9054 1.98292 11.29 3.34785C6.49164 5.84662 3.05489 10.2736 1.85607 15.4981C1.53666 16.828 1.37695 18.2136 1.37695 19.628C1.37695 21.0425 1.53666 22.428 1.85296 23.7435C3.77978 32.1363 11.1749 37.9881 19.8404 37.9881C28.506 37.9881 35.9001 32.1301 37.8248 23.7414C38.138 22.4126 38.2956 21.0311 38.2956 19.629C38.2956 18.227 38.138 16.8455 37.8269 15.5239V15.5229ZM17.4252 5.90852C17.6367 5.57013 18.0868 5.46489 18.428 5.67639L21.4831 7.5644L8.04098 20.9362L17.4252 5.90852ZM33.2763 16.6825L15.797 34.0728C15.7503 34.1192 15.6881 34.143 15.6259 34.143C15.5637 34.143 15.5035 34.1192 15.4548 34.0728L13.6545 32.2818C13.5653 32.193 13.5591 32.0496 13.6431 31.9558C14.9041 30.5382 14.8543 28.3696 13.4896 27.0129C12.7813 26.3072 11.8521 25.9554 10.9229 25.9554C10.0642 25.9554 9.20558 26.2577 8.52009 26.8602C8.4755 26.8994 8.42054 26.918 8.36454 26.918C8.30232 26.918 8.24113 26.8953 8.19343 26.8489L6.39312 25.0568C6.29771 24.9629 6.29771 24.8113 6.39312 24.7184L23.8735 7.32814C23.9202 7.28171 23.9824 7.25901 24.0446 7.25901C24.1068 7.25901 24.168 7.28171 24.2157 7.32814L26.016 9.12019C26.1052 9.20789 26.1114 9.35129 26.0274 9.44518C24.7664 10.8627 24.8162 13.0324 26.1809 14.3901C26.8892 15.0947 27.8174 15.4466 28.7455 15.4466C29.6063 15.4466 30.4649 15.1443 31.1504 14.5407C31.195 14.5015 31.25 14.4829 31.306 14.4829C31.3682 14.4829 31.4294 14.5067 31.4771 14.5541L33.2774 16.3452C33.3728 16.439 33.3728 16.5907 33.2774 16.6836L33.2763 16.6825Z" fill="white"/>
<path d="M59.7541 27.5855C57.9434 27.5855 56.111 27.2543 54.2567 26.592C52.4025 25.9296 50.8314 25.0568 49.5444 23.9715L52.7841 19.1039C53.7766 19.9509 54.9059 20.6288 56.1711 21.1384C57.4363 21.6491 58.6196 21.9039 59.722 21.9039C60.5288 21.9039 61.2163 21.7739 61.7836 21.5129C62.3509 21.2529 62.635 20.9053 62.635 20.4709C62.635 20.0696 62.3509 19.7436 61.7836 19.4939C61.2163 19.2442 60.2073 18.9409 58.7565 18.5819C53.2591 17.2252 50.5099 14.6697 50.5099 10.9153C50.5099 8.76632 51.3582 7.03823 53.0548 5.73107C54.7514 4.42391 57.0059 3.76982 59.8205 3.76982C61.5772 3.76982 63.1909 4.02774 64.6635 4.54359C66.1361 5.05944 67.3463 5.7352 68.2962 6.56984L65.3842 11.4363C64.6749 10.8287 63.8079 10.3428 62.7823 9.9796C61.7566 9.61644 60.7476 9.43486 59.7551 9.43486C58.9587 9.43486 58.3126 9.54835 57.8159 9.77635C57.3191 10.0044 57.0713 10.3025 57.0713 10.6719C57.0713 11.3992 58.2328 12.0224 60.5568 12.5434C60.9602 12.63 61.3283 12.7198 61.6612 12.8116C61.9941 12.9045 62.4763 13.0582 63.1089 13.2759C63.7415 13.4936 64.3036 13.7267 64.7941 13.9764C65.2846 14.2261 65.8198 14.5593 66.3974 14.9771C66.975 15.395 67.4583 15.8427 67.8451 16.3204C68.2319 16.7981 68.5565 17.3727 68.8189 18.0454C69.0802 18.7181 69.2119 19.4402 69.2119 20.2099C69.2119 21.6429 68.795 22.9233 67.9602 24.0519C67.1254 25.1806 65.9909 26.0514 64.5566 26.6642C63.1224 27.277 61.5212 27.5845 59.7541 27.5845V27.5855Z" fill="white"/>
<path d="M88.274 4.17734V10.1839H82.3836V27.178H75.9861V10.1839H70.0791V4.17734H88.274Z" fill="white"/>
<path d="M100.806 27.5855C99.0829 27.5855 97.461 27.2791 95.9386 26.6652C94.4172 26.0524 93.1106 25.2198 92.0196 24.1664C90.9286 23.1141 90.07 21.8524 89.4426 20.3822C88.8151 18.912 88.502 17.3407 88.502 15.6694C88.502 13.4451 89.036 11.424 90.1052 9.60612C91.1744 7.78827 92.6501 6.36144 94.5313 5.32458C96.4135 4.28876 98.5042 3.76982 100.806 3.76982C103.109 3.76982 105.197 4.28773 107.073 5.32458C108.949 6.36144 110.422 7.78827 111.491 9.60612C112.56 11.424 113.094 13.4451 113.094 15.6694C113.094 17.8937 112.56 19.9179 111.491 21.7409C110.422 23.5639 108.949 24.9939 107.073 26.0297C105.197 27.0665 103.108 27.5845 100.806 27.5845V27.5855ZM96.7247 19.7962C97.8208 20.898 99.1814 21.4479 100.807 21.4479C102.434 21.4479 103.794 20.897 104.89 19.7962C105.986 18.6943 106.535 17.3191 106.535 15.6694C106.535 14.0197 105.99 12.6476 104.899 11.5509C103.808 10.4552 102.444 9.90738 100.807 9.90738C99.171 9.90738 97.8073 10.4552 96.7174 11.5509C95.6264 12.6476 95.0809 14.0197 95.0809 15.6694C95.0809 17.3191 95.6295 18.6943 96.7257 19.7962H96.7247Z" fill="white"/>
<path d="M133.908 4.17734H141.713V27.178H135.315V14.5139L130.586 23.8415H126.97L122.241 14.5139V27.178H115.844V4.17734H123.747L128.836 14.1714L133.908 4.17734Z" fill="white"/>
<path d="M60.6241 34.1729V35.7514H56.5391V46.8472H54.8623V35.7514H50.7773V34.1729H60.6241Z" fill="white"/>
<path d="M65.8101 46.8473V34.1718H67.5056V46.8473H65.8101Z" fill="white"/>
<path d="M79.6166 47.0722C78.6791 47.0722 77.7976 46.903 76.9742 46.5656C76.1508 46.2282 75.4446 45.7691 74.8555 45.1883C74.2665 44.6085 73.8019 43.9131 73.4628 43.1022C73.1227 42.2923 72.9536 41.4267 72.9536 40.5054C72.9536 39.2798 73.2419 38.1655 73.8195 37.1638C74.3961 36.162 75.1947 35.3758 76.213 34.8053C77.2324 34.2337 78.367 33.949 79.6166 33.949C80.7771 33.949 81.8442 34.2049 82.818 34.7166C83.7917 35.2273 84.5788 35.9226 85.1803 36.8016L83.7191 37.6982C83.2805 37.0348 82.7028 36.5138 81.9883 36.1372C81.2728 35.7606 80.4825 35.5718 79.6166 35.5718C78.9249 35.5718 78.2747 35.6977 77.6649 35.9484C77.0551 36.1991 76.5335 36.5437 76.1 36.9801C75.6676 37.4165 75.3243 37.9396 75.0723 38.5504C74.8203 39.1601 74.6938 39.8121 74.6938 40.5054C74.6938 41.4267 74.9074 42.2655 75.3336 43.0217C75.7598 43.778 76.351 44.3712 77.1059 44.8024C77.8599 45.2327 78.6967 45.4483 79.6166 45.4483C80.4825 45.4483 81.2728 45.2595 81.9883 44.8829C82.7039 44.5063 83.2805 43.9864 83.7191 43.3219L85.1803 44.2185C84.5788 45.0975 83.7917 45.7929 82.818 46.3046C81.8442 46.8153 80.7771 47.0711 79.6166 47.0711V47.0722Z" fill="white"/>
<path d="M98.8233 46.8473L93.6661 41.501L92.1697 43.0434V46.8473H90.4741V34.1718H92.1697V40.7468L98.6522 34.1718H100.834L94.811 40.3434L101.032 46.8473H98.8233Z" fill="white"/>
<path d="M107.21 45.2688H113.955V46.8473H105.516V34.1718H113.865V35.7503H107.21V39.679H113.251V41.2575H107.21V45.2677V45.2688Z" fill="white"/>
<path d="M128.41 34.1729V35.7514H124.325V46.8472H122.648V35.7514H118.563V34.1729H128.41Z" fill="white"/>
<path d="M137.257 47.0722C136.307 47.0722 135.384 46.8916 134.489 46.5295C133.593 46.1674 132.849 45.6794 132.253 45.0635L133.155 43.7986C133.647 44.3248 134.26 44.7509 134.994 45.0769C135.727 45.4029 136.482 45.5659 137.257 45.5659C138.104 45.5659 138.817 45.3699 139.394 44.9789C139.971 44.5868 140.26 44.0895 140.26 43.485C140.26 43.3178 140.233 43.1579 140.18 43.0052C140.126 42.8525 140.062 42.7184 139.99 42.6018C139.917 42.4852 139.809 42.3718 139.665 42.2614C139.521 42.151 139.397 42.0592 139.291 41.988C139.186 41.9158 139.03 41.8404 138.826 41.7589C138.622 41.6785 138.467 41.6186 138.362 41.5794C138.256 41.5402 138.088 41.4897 137.857 41.4267C137.625 41.3638 137.473 41.3236 137.401 41.306C137.33 41.2885 137.181 41.2555 136.96 41.207C136.502 41.111 136.077 40.9965 135.684 40.8614C135.29 40.7272 134.903 40.5539 134.521 40.3414C134.14 40.1289 133.815 39.8926 133.548 39.6326C133.28 39.3726 133.065 39.0569 132.903 38.6865C132.74 38.3162 132.659 37.9148 132.659 37.4846C132.659 36.4323 133.081 35.5801 133.926 34.9281C134.77 34.276 135.86 33.95 137.195 33.95C138.072 33.95 138.876 34.0934 139.607 34.3802C140.337 34.6671 140.93 35.056 141.388 35.5461L140.576 36.8016C140.227 36.4189 139.745 36.099 139.128 35.8422C138.512 35.5853 137.862 35.4563 137.176 35.4563C136.37 35.4563 135.705 35.6399 135.179 36.0083C134.653 36.3755 134.39 36.847 134.39 37.4207C134.39 38.4616 135.405 39.191 137.438 39.6089C137.66 39.6512 137.875 39.6986 138.083 39.7523C138.29 39.8059 138.554 39.8864 138.876 39.9947C139.197 40.102 139.492 40.2207 139.76 40.3496C140.027 40.4786 140.304 40.6447 140.589 40.8469C140.874 41.0502 141.117 41.2699 141.315 41.5062C141.513 41.7424 141.677 42.0251 141.807 42.3542C141.936 42.6833 142.001 43.0362 142.001 43.4127C142.001 44.4836 141.548 45.3606 140.643 46.0456C139.739 46.7307 138.609 47.0732 137.257 47.0732V47.0722Z" fill="white"/>
</g>
<defs>
<clipPath id="clip0_34_3084">
<rect width="142" height="54" fill="white"/>
</clipPath>
</defs>
</svg>
