<?xml version="1.0" encoding="UTF-8"?>
<svg id="Layer_1" xmlns="http://www.w3.org/2000/svg" version="1.1" viewBox="0 0 897 962">
  <!-- Generator: Adobe Illustrator 30.0.0, SVG Export Plug-In . SVG Version: 2.1.1 Build 123)  -->
  <defs>
    <style>
      .st0 {
        fill-rule: evenodd;
      }

      .st0, .st1 {
        fill: #313131;
      }
    </style>
  </defs>
  <g id="General_1">
    <rect class="st1" x="244.5" y="71.3" width="369" height="36" rx="12" ry="12"/>
  </g>
  <g id="General_2">
    <rect class="st1" y="238.8" width="36" height="389" rx="12" ry="12"/>
  </g>
  <g id="General_3">
    <rect class="st1" x="134" y="768.3" width="199" height="36" rx="12" ry="12"/>
  </g>
  <g id="MV_x5F_1">
    <path class="st0" d="M667.3,257.5c.2.2.2.6.2,1.4v4.4c0,.8,0,1.2-.2,1.4-.2.2-.6.2-1.4.2h-6.7c-.8,0-1.2,0-1.4-.2-.2-.2-.2-.6-.2-1.4v-4.4c0-.8,0-1.2.2-1.4.2-.2.6-.2,1.4-.2h6.7c.8,0,1.2,0,1.4.2ZM665.4,267.3c.8,0,1.5-.7,1.5-1.5s0-.2-.2-.2h-8.6c0,0-.2,0-.2.2,0,.8.7,1.5,1.5,1.5h5.9Z"/>
    <path class="st0" d="M682.3,257.5c.2.2.2.6.2,1.4v4.4c0,.8,0,1.2-.2,1.4-.2.2-.6.2-1.4.2h-6.7c-.8,0-1.2,0-1.4-.2-.2-.2-.2-.6-.2-1.4v-4.4c0-.8,0-1.2.2-1.4.2-.2.6-.2,1.4-.2h6.7c.8,0,1.2,0,1.4.2ZM680.4,267.3c.8,0,1.5-.7,1.5-1.5s0-.2-.2-.2h-8.6c0,0-.2,0-.2.2,0,.8.7,1.5,1.5,1.5h5.9Z"/>
    <path class="st0" d="M640.2,277c.2-.2.6-.2,1.4-.2h4.4c.8,0,1.2,0,1.4.2.2.2.2.6.2,1.4v6.7c0,.8,0,1.2-.2,1.4-.2.2-.6.2-1.4.2h-4.4c-.8,0-1.2,0-1.4-.2-.2-.2-.2-.6-.2-1.4v-6.7c0-.8,0-1.2.2-1.4ZM650,278.8c0-.8-.7-1.5-1.5-1.5s-.2,0-.2.2v8.6c0,0,0,.2.2.2.8,0,1.5-.7,1.5-1.5v-5.9Z"/>
    <path class="st0" d="M640.2,292c.2-.2.6-.2,1.4-.2h4.4c.8,0,1.2,0,1.4.2.2.2.2.6.2,1.4v6.7c0,.8,0,1.2-.2,1.4-.2.2-.6.2-1.4.2h-4.4c-.8,0-1.2,0-1.4-.2-.2-.2-.2-.6-.2-1.4v-6.7c0-.8,0-1.2.2-1.4ZM650,293.8c0-.8-.7-1.5-1.5-1.5s-.2,0-.2.2v8.6c0,0,0,.2.2.2.8,0,1.5-.7,1.5-1.5v-5.9Z"/>
    <rect class="st1" x="655" y="274.3" width="30" height="30" rx="2" ry="2"/>
    <path class="st0" d="M699.8,286.5c-.2.2-.6.2-1.4.2h-4.4c-.8,0-1.2,0-1.4-.2-.2-.2-.2-.6-.2-1.4v-6.7c0-.8,0-1.2.2-1.4.2-.2.6-.2,1.4-.2h4.4c.8,0,1.2,0,1.4.2.2.2.2.6.2,1.4v6.7c0,.8,0,1.2-.2,1.4ZM690,284.7c0,.8.7,1.5,1.5,1.5s.2,0,.2-.2v-8.6c0,0,0-.2-.2-.2-.8,0-1.5.7-1.5,1.5v5.9Z"/>
    <path class="st0" d="M699.8,301.5c-.2.2-.6.2-1.4.2h-4.4c-.8,0-1.2,0-1.4-.2-.2-.2-.2-.6-.2-1.4v-6.7c0-.8,0-1.2.2-1.4.2-.2.6-.2,1.4-.2h4.4c.8,0,1.2,0,1.4.2.2.2.2.6.2,1.4v6.7c0,.8,0,1.2-.2,1.4ZM690,299.7c0,.8.7,1.5,1.5,1.5s.2,0,.2-.2v-8.6c0,0,0-.2-.2-.2-.8,0-1.5.7-1.5,1.5v5.9Z"/>
    <path class="st0" d="M657.7,321c-.2-.2-.2-.6-.2-1.4v-4.4c0-.8,0-1.2.2-1.4.2-.2.6-.2,1.4-.2h6.7c.8,0,1.2,0,1.4.2.2.2.2.6.2,1.4v4.4c0,.8,0,1.2-.2,1.4-.2.2-.6.2-1.4.2h-6.7c-.8,0-1.2,0-1.4-.2ZM659.6,311.3c-.8,0-1.5.7-1.5,1.5s0,.2.2.2h8.6c0,0,.2,0,.2-.2,0-.8-.7-1.5-1.5-1.5h-5.9Z"/>
    <path class="st0" d="M672.7,321c-.2-.2-.2-.6-.2-1.4v-4.4c0-.8,0-1.2.2-1.4.2-.2.6-.2,1.4-.2h6.7c.8,0,1.2,0,1.4.2.2.2.2.6.2,1.4v4.4c0,.8,0,1.2-.2,1.4-.2.2-.6.2-1.4.2h-6.7c-.8,0-1.2,0-1.4-.2ZM674.6,311.3c-.8,0-1.5.7-1.5,1.5s0,.2.2.2h8.6c0,0,.2,0,.2-.2,0-.8-.7-1.5-1.5-1.5h-5.9Z"/>
  </g>
  <g id="MV_x5F_2">
    <path class="st0" d="M667.3,353.5c.2.2.2.6.2,1.4v4.4c0,.8,0,1.2-.2,1.4-.2.2-.6.2-1.4.2h-6.7c-.8,0-1.2,0-1.4-.2-.2-.2-.2-.6-.2-1.4v-4.4c0-.8,0-1.2.2-1.4.2-.2.6-.2,1.4-.2h6.7c.8,0,1.2,0,1.4.2ZM665.4,363.3c.8,0,1.5-.7,1.5-1.5s0-.2-.2-.2h-8.6c0,0-.2,0-.2.2,0,.8.7,1.5,1.5,1.5h5.9Z"/>
    <path class="st0" d="M682.3,353.5c.2.2.2.6.2,1.4v4.4c0,.8,0,1.2-.2,1.4-.2.2-.6.2-1.4.2h-6.7c-.8,0-1.2,0-1.4-.2-.2-.2-.2-.6-.2-1.4v-4.4c0-.8,0-1.2.2-1.4.2-.2.6-.2,1.4-.2h6.7c.8,0,1.2,0,1.4.2ZM680.4,363.3c.8,0,1.5-.7,1.5-1.5s0-.2-.2-.2h-8.6c0,0-.2,0-.2.2,0,.8.7,1.5,1.5,1.5h5.9Z"/>
    <path class="st0" d="M640.2,373c.2-.2.6-.2,1.4-.2h4.4c.8,0,1.2,0,1.4.2.2.2.2.6.2,1.4v6.7c0,.8,0,1.2-.2,1.4-.2.2-.6.2-1.4.2h-4.4c-.8,0-1.2,0-1.4-.2-.2-.2-.2-.6-.2-1.4v-6.7c0-.8,0-1.2.2-1.4ZM650,374.8c0-.8-.7-1.5-1.5-1.5s-.2,0-.2.2v8.6c0,0,0,.2.2.2.8,0,1.5-.7,1.5-1.5v-5.9Z"/>
    <path class="st0" d="M640.2,388c.2-.2.6-.2,1.4-.2h4.4c.8,0,1.2,0,1.4.2.2.2.2.6.2,1.4v6.7c0,.8,0,1.2-.2,1.4-.2.2-.6.2-1.4.2h-4.4c-.8,0-1.2,0-1.4-.2-.2-.2-.2-.6-.2-1.4v-6.7c0-.8,0-1.2.2-1.4ZM650,389.8c0-.8-.7-1.5-1.5-1.5s-.2,0-.2.2v8.6c0,0,0,.2.2.2.8,0,1.5-.7,1.5-1.5v-5.9Z"/>
    <rect class="st1" x="655" y="370.3" width="30" height="30" rx="2" ry="2"/>
    <path class="st0" d="M699.8,382.5c-.2.2-.6.2-1.4.2h-4.4c-.8,0-1.2,0-1.4-.2-.2-.2-.2-.6-.2-1.4v-6.7c0-.8,0-1.2.2-1.4.2-.2.6-.2,1.4-.2h4.4c.8,0,1.2,0,1.4.2.2.2.2.6.2,1.4v6.7c0,.8,0,1.2-.2,1.4ZM690,380.7c0,.8.7,1.5,1.5,1.5s.2,0,.2-.2v-8.6c0,0,0-.2-.2-.2-.8,0-1.5.7-1.5,1.5v5.9Z"/>
    <path class="st0" d="M699.8,397.5c-.2.2-.6.2-1.4.2h-4.4c-.8,0-1.2,0-1.4-.2-.2-.2-.2-.6-.2-1.4v-6.7c0-.8,0-1.2.2-1.4.2-.2.6-.2,1.4-.2h4.4c.8,0,1.2,0,1.4.2.2.2.2.6.2,1.4v6.7c0,.8,0,1.2-.2,1.4ZM690,395.7c0,.8.7,1.5,1.5,1.5s.2,0,.2-.2v-8.6c0,0,0-.2-.2-.2-.8,0-1.5.7-1.5,1.5v5.9Z"/>
    <path class="st0" d="M657.7,417c-.2-.2-.2-.6-.2-1.4v-4.4c0-.8,0-1.2.2-1.4.2-.2.6-.2,1.4-.2h6.7c.8,0,1.2,0,1.4.2.2.2.2.6.2,1.4v4.4c0,.8,0,1.2-.2,1.4-.2.2-.6.2-1.4.2h-6.7c-.8,0-1.2,0-1.4-.2ZM659.6,407.3c-.8,0-1.5.7-1.5,1.5s0,.2.2.2h8.6c0,0,.2,0,.2-.2,0-.8-.7-1.5-1.5-1.5h-5.9Z"/>
    <path class="st0" d="M672.7,417c-.2-.2-.2-.6-.2-1.4v-4.4c0-.8,0-1.2.2-1.4.2-.2.6-.2,1.4-.2h6.7c.8,0,1.2,0,1.4.2.2.2.2.6.2,1.4v4.4c0,.8,0,1.2-.2,1.4-.2.2-.6.2-1.4.2h-6.7c-.8,0-1.2,0-1.4-.2ZM674.6,407.3c-.8,0-1.5.7-1.5,1.5s0,.2.2.2h8.6c0,0,.2,0,.2-.2,0-.8-.7-1.5-1.5-1.5h-5.9Z"/>
  </g>
  <g id="MV_x5F_3">
    <path class="st0" d="M667.3,449.5c.2.2.2.6.2,1.4v4.4c0,.8,0,1.2-.2,1.4-.2.2-.6.2-1.4.2h-6.7c-.8,0-1.2,0-1.4-.2-.2-.2-.2-.6-.2-1.4v-4.4c0-.8,0-1.2.2-1.4.2-.2.6-.2,1.4-.2h6.7c.8,0,1.2,0,1.4.2ZM665.4,459.3c.8,0,1.5-.7,1.5-1.5s0-.2-.2-.2h-8.6c0,0-.2,0-.2.2,0,.8.7,1.5,1.5,1.5h5.9Z"/>
    <path class="st0" d="M682.3,449.5c.2.2.2.6.2,1.4v4.4c0,.8,0,1.2-.2,1.4-.2.2-.6.2-1.4.2h-6.7c-.8,0-1.2,0-1.4-.2-.2-.2-.2-.6-.2-1.4v-4.4c0-.8,0-1.2.2-1.4.2-.2.6-.2,1.4-.2h6.7c.8,0,1.2,0,1.4.2ZM680.4,459.3c.8,0,1.5-.7,1.5-1.5s0-.2-.2-.2h-8.6c0,0-.2,0-.2.2,0,.8.7,1.5,1.5,1.5h5.9Z"/>
    <path class="st0" d="M640.2,469c.2-.2.6-.2,1.4-.2h4.4c.8,0,1.2,0,1.4.2.2.2.2.6.2,1.4v6.7c0,.8,0,1.2-.2,1.4-.2.2-.6.2-1.4.2h-4.4c-.8,0-1.2,0-1.4-.2-.2-.2-.2-.6-.2-1.4v-6.7c0-.8,0-1.2.2-1.4ZM650,470.8c0-.8-.7-1.5-1.5-1.5s-.2,0-.2.2v8.6c0,0,0,.2.2.2.8,0,1.5-.7,1.5-1.5v-5.9Z"/>
    <path class="st0" d="M640.2,484c.2-.2.6-.2,1.4-.2h4.4c.8,0,1.2,0,1.4.2.2.2.2.6.2,1.4v6.7c0,.8,0,1.2-.2,1.4-.2.2-.6.2-1.4.2h-4.4c-.8,0-1.2,0-1.4-.2-.2-.2-.2-.6-.2-1.4v-6.7c0-.8,0-1.2.2-1.4ZM650,485.8c0-.8-.7-1.5-1.5-1.5s-.2,0-.2.2v8.6c0,0,0,.2.2.2.8,0,1.5-.7,1.5-1.5v-5.9Z"/>
    <rect class="st1" x="655" y="466.3" width="30" height="30" rx="2" ry="2"/>
    <path class="st0" d="M699.8,478.5c-.2.2-.6.2-1.4.2h-4.4c-.8,0-1.2,0-1.4-.2-.2-.2-.2-.6-.2-1.4v-6.7c0-.8,0-1.2.2-1.4.2-.2.6-.2,1.4-.2h4.4c.8,0,1.2,0,1.4.2.2.2.2.6.2,1.4v6.7c0,.8,0,1.2-.2,1.4ZM690,476.7c0,.8.7,1.5,1.5,1.5s.2,0,.2-.2v-8.6c0,0,0-.2-.2-.2-.8,0-1.5.7-1.5,1.5v5.9Z"/>
    <path class="st0" d="M699.8,493.5c-.2.2-.6.2-1.4.2h-4.4c-.8,0-1.2,0-1.4-.2-.2-.2-.2-.6-.2-1.4v-6.7c0-.8,0-1.2.2-1.4.2-.2.6-.2,1.4-.2h4.4c.8,0,1.2,0,1.4.2.2.2.2.6.2,1.4v6.7c0,.8,0,1.2-.2,1.4ZM690,491.7c0,.8.7,1.5,1.5,1.5s.2,0,.2-.2v-8.6c0,0,0-.2-.2-.2-.8,0-1.5.7-1.5,1.5v5.9Z"/>
    <path class="st0" d="M657.7,513c-.2-.2-.2-.6-.2-1.4v-4.4c0-.8,0-1.2.2-1.4.2-.2.6-.2,1.4-.2h6.7c.8,0,1.2,0,1.4.2.2.2.2.6.2,1.4v4.4c0,.8,0,1.2-.2,1.4s-.6.2-1.4.2h-6.7c-.8,0-1.2,0-1.4-.2ZM659.6,503.3c-.8,0-1.5.7-1.5,1.5s0,.2.2.2h8.6c0,0,.2,0,.2-.2,0-.8-.7-1.5-1.5-1.5h-5.9Z"/>
    <path class="st0" d="M672.7,513c-.2-.2-.2-.6-.2-1.4v-4.4c0-.8,0-1.2.2-1.4.2-.2.6-.2,1.4-.2h6.7c.8,0,1.2,0,1.4.2.2.2.2.6.2,1.4v4.4c0,.8,0,1.2-.2,1.4s-.6.2-1.4.2h-6.7c-.8,0-1.2,0-1.4-.2ZM674.6,503.3c-.8,0-1.5.7-1.5,1.5s0,.2.2.2h8.6c0,0,.2,0,.2-.2,0-.8-.7-1.5-1.5-1.5h-5.9Z"/>
  </g>
  <g id="MV_x5F_4">
    <path class="st0" d="M667.3,545.5c.2.2.2.6.2,1.4v4.4c0,.8,0,1.2-.2,1.4s-.6.2-1.4.2h-6.7c-.8,0-1.2,0-1.4-.2s-.2-.6-.2-1.4v-4.4c0-.8,0-1.2.2-1.4.2-.2.6-.2,1.4-.2h6.7c.8,0,1.2,0,1.4.2ZM665.4,555.3c.8,0,1.5-.7,1.5-1.5s0-.2-.2-.2h-8.6c0,0-.2,0-.2.2,0,.8.7,1.5,1.5,1.5h5.9Z"/>
    <path class="st0" d="M682.3,545.5c.2.2.2.6.2,1.4v4.4c0,.8,0,1.2-.2,1.4s-.6.2-1.4.2h-6.7c-.8,0-1.2,0-1.4-.2s-.2-.6-.2-1.4v-4.4c0-.8,0-1.2.2-1.4.2-.2.6-.2,1.4-.2h6.7c.8,0,1.2,0,1.4.2ZM680.4,555.3c.8,0,1.5-.7,1.5-1.5s0-.2-.2-.2h-8.6c0,0-.2,0-.2.2,0,.8.7,1.5,1.5,1.5h5.9Z"/>
    <path class="st0" d="M640.2,565c.2-.2.6-.2,1.4-.2h4.4c.8,0,1.2,0,1.4.2s.2.6.2,1.4v6.7c0,.8,0,1.2-.2,1.4-.2.2-.6.2-1.4.2h-4.4c-.8,0-1.2,0-1.4-.2s-.2-.6-.2-1.4v-6.7c0-.8,0-1.2.2-1.4ZM650,566.8c0-.8-.7-1.5-1.5-1.5s-.2,0-.2.2v8.6c0,0,0,.2.2.2.8,0,1.5-.7,1.5-1.5v-5.9Z"/>
    <path class="st0" d="M640.2,580c.2-.2.6-.2,1.4-.2h4.4c.8,0,1.2,0,1.4.2s.2.6.2,1.4v6.7c0,.8,0,1.2-.2,1.4-.2.2-.6.2-1.4.2h-4.4c-.8,0-1.2,0-1.4-.2s-.2-.6-.2-1.4v-6.7c0-.8,0-1.2.2-1.4ZM650,581.8c0-.8-.7-1.5-1.5-1.5s-.2,0-.2.2v8.6c0,0,0,.2.2.2.8,0,1.5-.7,1.5-1.5v-5.9Z"/>
    <rect class="st1" x="655" y="562.3" width="30" height="30" rx="2" ry="2"/>
    <path class="st0" d="M699.8,574.5c-.2.2-.6.2-1.4.2h-4.4c-.8,0-1.2,0-1.4-.2-.2-.2-.2-.6-.2-1.4v-6.7c0-.8,0-1.2.2-1.4s.6-.2,1.4-.2h4.4c.8,0,1.2,0,1.4.2.2.2.2.6.2,1.4v6.7c0,.8,0,1.2-.2,1.4ZM690,572.7c0,.8.7,1.5,1.5,1.5s.2,0,.2-.2v-8.6c0,0,0-.2-.2-.2-.8,0-1.5.7-1.5,1.5v5.9Z"/>
    <path class="st0" d="M699.8,589.5c-.2.2-.6.2-1.4.2h-4.4c-.8,0-1.2,0-1.4-.2-.2-.2-.2-.6-.2-1.4v-6.7c0-.8,0-1.2.2-1.4s.6-.2,1.4-.2h4.4c.8,0,1.2,0,1.4.2.2.2.2.6.2,1.4v6.7c0,.8,0,1.2-.2,1.4ZM690,587.7c0,.8.7,1.5,1.5,1.5s.2,0,.2-.2v-8.6c0,0,0-.2-.2-.2-.8,0-1.5.7-1.5,1.5v5.9Z"/>
    <path class="st0" d="M657.7,609c-.2-.2-.2-.6-.2-1.4v-4.4c0-.8,0-1.2.2-1.4s.6-.2,1.4-.2h6.7c.8,0,1.2,0,1.4.2s.2.6.2,1.4v4.4c0,.8,0,1.2-.2,1.4s-.6.2-1.4.2h-6.7c-.8,0-1.2,0-1.4-.2ZM659.6,599.3c-.8,0-1.5.7-1.5,1.5s0,.2.2.2h8.6c0,0,.2,0,.2-.2,0-.8-.7-1.5-1.5-1.5h-5.9Z"/>
    <path class="st0" d="M672.7,609c-.2-.2-.2-.6-.2-1.4v-4.4c0-.8,0-1.2.2-1.4s.6-.2,1.4-.2h6.7c.8,0,1.2,0,1.4.2s.2.6.2,1.4v4.4c0,.8,0,1.2-.2,1.4s-.6.2-1.4.2h-6.7c-.8,0-1.2,0-1.4-.2ZM674.6,599.3c-.8,0-1.5.7-1.5,1.5s0,.2.2.2h8.6c0,0,.2,0,.2-.2,0-.8-.7-1.5-1.5-1.5h-5.9Z"/>
  </g>
  <g id="MV_x5F_5">
    <path class="st0" d="M633.3,705.5c.2.2.2.6.2,1.4v4.4c0,.8,0,1.2-.2,1.4s-.6.2-1.4.2h-6.7c-.8,0-1.2,0-1.4-.2s-.2-.6-.2-1.4v-4.4c0-.8,0-1.2.2-1.4.2-.2.6-.2,1.4-.2h6.7c.8,0,1.2,0,1.4.2ZM631.4,715.3c.8,0,1.5-.7,1.5-1.5s0-.2-.2-.2h-8.6c0,0-.2,0-.2.2,0,.8.7,1.5,1.5,1.5h5.9Z"/>
    <path class="st0" d="M648.3,705.5c.2.2.2.6.2,1.4v4.4c0,.8,0,1.2-.2,1.4s-.6.2-1.4.2h-6.7c-.8,0-1.2,0-1.4-.2s-.2-.6-.2-1.4v-4.4c0-.8,0-1.2.2-1.4.2-.2.6-.2,1.4-.2h6.7c.8,0,1.2,0,1.4.2ZM646.4,715.3c.8,0,1.5-.7,1.5-1.5s0-.2-.2-.2h-8.6c0,0-.2,0-.2.2,0,.8.7,1.5,1.5,1.5h5.9Z"/>
    <path class="st0" d="M606.2,725c.2-.2.6-.2,1.4-.2h4.4c.8,0,1.2,0,1.4.2s.2.6.2,1.4v6.7c0,.8,0,1.2-.2,1.4-.2.2-.6.2-1.4.2h-4.4c-.8,0-1.2,0-1.4-.2s-.2-.6-.2-1.4v-6.7c0-.8,0-1.2.2-1.4ZM616,726.8c0-.8-.7-1.5-1.5-1.5s-.2,0-.2.2v8.6c0,0,0,.2.2.2.8,0,1.5-.7,1.5-1.5v-5.9Z"/>
    <path class="st0" d="M606.2,740c.2-.2.6-.2,1.4-.2h4.4c.8,0,1.2,0,1.4.2s.2.6.2,1.4v6.7c0,.8,0,1.2-.2,1.4-.2.2-.6.2-1.4.2h-4.4c-.8,0-1.2,0-1.4-.2s-.2-.6-.2-1.4v-6.7c0-.8,0-1.2.2-1.4ZM616,741.8c0-.8-.7-1.5-1.5-1.5s-.2,0-.2.2v8.6c0,0,0,.2.2.2.8,0,1.5-.7,1.5-1.5v-5.9Z"/>
    <rect class="st1" x="621" y="722.3" width="30" height="30" rx="2" ry="2"/>
    <path class="st0" d="M665.8,734.5c-.2.2-.6.2-1.4.2h-4.4c-.8,0-1.2,0-1.4-.2-.2-.2-.2-.6-.2-1.4v-6.7c0-.8,0-1.2.2-1.4s.6-.2,1.4-.2h4.4c.8,0,1.2,0,1.4.2.2.2.2.6.2,1.4v6.7c0,.8,0,1.2-.2,1.4ZM656,732.7c0,.8.7,1.5,1.5,1.5s.2,0,.2-.2v-8.6c0,0,0-.2-.2-.2-.8,0-1.5.7-1.5,1.5v5.9Z"/>
    <path class="st0" d="M665.8,749.5c-.2.2-.6.2-1.4.2h-4.4c-.8,0-1.2,0-1.4-.2-.2-.2-.2-.6-.2-1.4v-6.7c0-.8,0-1.2.2-1.4s.6-.2,1.4-.2h4.4c.8,0,1.2,0,1.4.2.2.2.2.6.2,1.4v6.7c0,.8,0,1.2-.2,1.4ZM656,747.7c0,.8.7,1.5,1.5,1.5s.2,0,.2-.2v-8.6c0,0,0-.2-.2-.2-.8,0-1.5.7-1.5,1.5v5.9Z"/>
    <path class="st0" d="M623.7,769c-.2-.2-.2-.6-.2-1.4v-4.4c0-.8,0-1.2.2-1.4s.6-.2,1.4-.2h6.7c.8,0,1.2,0,1.4.2s.2.6.2,1.4v4.4c0,.8,0,1.2-.2,1.4s-.6.2-1.4.2h-6.7c-.8,0-1.2,0-1.4-.2ZM625.6,759.3c-.8,0-1.5.7-1.5,1.5s0,.2.2.2h8.6c0,0,.2,0,.2-.2,0-.8-.7-1.5-1.5-1.5h-5.9Z"/>
    <path class="st0" d="M638.7,769c-.2-.2-.2-.6-.2-1.4v-4.4c0-.8,0-1.2.2-1.4s.6-.2,1.4-.2h6.7c.8,0,1.2,0,1.4.2s.2.6.2,1.4v4.4c0,.8,0,1.2-.2,1.4s-.6.2-1.4.2h-6.7c-.8,0-1.2,0-1.4-.2ZM640.6,759.3c-.8,0-1.5.7-1.5,1.5s0,.2.2.2h8.6c0,0,.2,0,.2-.2,0-.8-.7-1.5-1.5-1.5h-5.9Z"/>
  </g>
  <g id="MV_x5F_6">
    <path class="st0" d="M554.3,705.5c.2.2.2.6.2,1.4v4.4c0,.8,0,1.2-.2,1.4s-.6.2-1.4.2h-6.7c-.8,0-1.2,0-1.4-.2s-.2-.6-.2-1.4v-4.4c0-.8,0-1.2.2-1.4.2-.2.6-.2,1.4-.2h6.7c.8,0,1.2,0,1.4.2ZM552.4,715.3c.8,0,1.5-.7,1.5-1.5s0-.2-.2-.2h-8.6c0,0-.2,0-.2.2,0,.8.7,1.5,1.5,1.5h5.9Z"/>
    <path class="st0" d="M569.3,705.5c.2.2.2.6.2,1.4v4.4c0,.8,0,1.2-.2,1.4s-.6.2-1.4.2h-6.7c-.8,0-1.2,0-1.4-.2s-.2-.6-.2-1.4v-4.4c0-.8,0-1.2.2-1.4.2-.2.6-.2,1.4-.2h6.7c.8,0,1.2,0,1.4.2ZM567.4,715.3c.8,0,1.5-.7,1.5-1.5s0-.2-.2-.2h-8.6c0,0-.2,0-.2.2,0,.8.7,1.5,1.5,1.5h5.9Z"/>
    <path class="st0" d="M527.2,725c.2-.2.6-.2,1.4-.2h4.4c.8,0,1.2,0,1.4.2s.2.6.2,1.4v6.7c0,.8,0,1.2-.2,1.4-.2.2-.6.2-1.4.2h-4.4c-.8,0-1.2,0-1.4-.2s-.2-.6-.2-1.4v-6.7c0-.8,0-1.2.2-1.4ZM537,726.8c0-.8-.7-1.5-1.5-1.5s-.2,0-.2.2v8.6c0,0,0,.2.2.2.8,0,1.5-.7,1.5-1.5v-5.9Z"/>
    <path class="st0" d="M527.2,740c.2-.2.6-.2,1.4-.2h4.4c.8,0,1.2,0,1.4.2s.2.6.2,1.4v6.7c0,.8,0,1.2-.2,1.4-.2.2-.6.2-1.4.2h-4.4c-.8,0-1.2,0-1.4-.2s-.2-.6-.2-1.4v-6.7c0-.8,0-1.2.2-1.4ZM537,741.8c0-.8-.7-1.5-1.5-1.5s-.2,0-.2.2v8.6c0,0,0,.2.2.2.8,0,1.5-.7,1.5-1.5v-5.9Z"/>
    <rect class="st1" x="542" y="722.3" width="30" height="30" rx="2" ry="2"/>
    <path class="st0" d="M586.8,734.5c-.2.2-.6.2-1.4.2h-4.4c-.8,0-1.2,0-1.4-.2-.2-.2-.2-.6-.2-1.4v-6.7c0-.8,0-1.2.2-1.4s.6-.2,1.4-.2h4.4c.8,0,1.2,0,1.4.2.2.2.2.6.2,1.4v6.7c0,.8,0,1.2-.2,1.4ZM577,732.7c0,.8.7,1.5,1.5,1.5s.2,0,.2-.2v-8.6c0,0,0-.2-.2-.2-.8,0-1.5.7-1.5,1.5v5.9Z"/>
    <path class="st0" d="M586.8,749.5c-.2.2-.6.2-1.4.2h-4.4c-.8,0-1.2,0-1.4-.2-.2-.2-.2-.6-.2-1.4v-6.7c0-.8,0-1.2.2-1.4s.6-.2,1.4-.2h4.4c.8,0,1.2,0,1.4.2.2.2.2.6.2,1.4v6.7c0,.8,0,1.2-.2,1.4ZM577,747.7c0,.8.7,1.5,1.5,1.5s.2,0,.2-.2v-8.6c0,0,0-.2-.2-.2-.8,0-1.5.7-1.5,1.5v5.9Z"/>
    <path class="st0" d="M544.7,769c-.2-.2-.2-.6-.2-1.4v-4.4c0-.8,0-1.2.2-1.4s.6-.2,1.4-.2h6.7c.8,0,1.2,0,1.4.2s.2.6.2,1.4v4.4c0,.8,0,1.2-.2,1.4s-.6.2-1.4.2h-6.7c-.8,0-1.2,0-1.4-.2ZM546.6,759.3c-.8,0-1.5.7-1.5,1.5s0,.2.2.2h8.6c0,0,.2,0,.2-.2,0-.8-.7-1.5-1.5-1.5h-5.9Z"/>
    <path class="st0" d="M559.7,769c-.2-.2-.2-.6-.2-1.4v-4.4c0-.8,0-1.2.2-1.4s.6-.2,1.4-.2h6.7c.8,0,1.2,0,1.4.2s.2.6.2,1.4v4.4c0,.8,0,1.2-.2,1.4s-.6.2-1.4.2h-6.7c-.8,0-1.2,0-1.4-.2ZM561.6,759.3c-.8,0-1.5.7-1.5,1.5s0,.2.2.2h8.6c0,0,.2,0,.2-.2,0-.8-.7-1.5-1.5-1.5h-5.9Z"/>
  </g>
  <g id="MV_x5F_7">
    <path class="st0" d="M746.3,161.5c.2.2.2.6.2,1.4v4.4c0,.8,0,1.2-.2,1.4-.2.2-.6.2-1.4.2h-6.7c-.8,0-1.2,0-1.4-.2-.2-.2-.2-.6-.2-1.4v-4.4c0-.8,0-1.2.2-1.4.2-.2.6-.2,1.4-.2h6.7c.8,0,1.2,0,1.4.2ZM744.4,171.3c.8,0,1.5-.7,1.5-1.5s0-.2-.2-.2h-8.6c0,0-.2,0-.2.2,0,.8.7,1.5,1.5,1.5h5.9Z"/>
    <path class="st0" d="M761.3,161.5c.2.2.2.6.2,1.4v4.4c0,.8,0,1.2-.2,1.4-.2.2-.6.2-1.4.2h-6.7c-.8,0-1.2,0-1.4-.2-.2-.2-.2-.6-.2-1.4v-4.4c0-.8,0-1.2.2-1.4.2-.2.6-.2,1.4-.2h6.7c.8,0,1.2,0,1.4.2ZM759.4,171.3c.8,0,1.5-.7,1.5-1.5s0-.2-.2-.2h-8.6c0,0-.2,0-.2.2,0,.8.7,1.5,1.5,1.5h5.9Z"/>
    <path class="st0" d="M719.2,181c.2-.2.6-.2,1.4-.2h4.4c.8,0,1.2,0,1.4.2.2.2.2.6.2,1.4v6.7c0,.8,0,1.2-.2,1.4s-.6.2-1.4.2h-4.4c-.8,0-1.2,0-1.4-.2-.2-.2-.2-.6-.2-1.4v-6.7c0-.8,0-1.2.2-1.4ZM729,182.8c0-.8-.7-1.5-1.5-1.5s-.2,0-.2.2v8.6c0,0,0,.2.2.2.8,0,1.5-.7,1.5-1.5v-5.9Z"/>
    <path class="st0" d="M719.2,196c.2-.2.6-.2,1.4-.2h4.4c.8,0,1.2,0,1.4.2.2.2.2.6.2,1.4v6.7c0,.8,0,1.2-.2,1.4s-.6.2-1.4.2h-4.4c-.8,0-1.2,0-1.4-.2-.2-.2-.2-.6-.2-1.4v-6.7c0-.8,0-1.2.2-1.4ZM729,197.8c0-.8-.7-1.5-1.5-1.5s-.2,0-.2.2v8.6c0,0,0,.2.2.2.8,0,1.5-.7,1.5-1.5v-5.9Z"/>
    <rect class="st1" x="734" y="178.3" width="30" height="30" rx="2" ry="2"/>
    <path class="st0" d="M778.8,190.5c-.2.2-.6.2-1.4.2h-4.4c-.8,0-1.2,0-1.4-.2s-.2-.6-.2-1.4v-6.7c0-.8,0-1.2.2-1.4.2-.2.6-.2,1.4-.2h4.4c.8,0,1.2,0,1.4.2.2.2.2.6.2,1.4v6.7c0,.8,0,1.2-.2,1.4ZM769,188.7c0,.8.7,1.5,1.5,1.5s.2,0,.2-.2v-8.6c0,0,0-.2-.2-.2-.8,0-1.5.7-1.5,1.5v5.9Z"/>
    <path class="st0" d="M778.8,205.5c-.2.2-.6.2-1.4.2h-4.4c-.8,0-1.2,0-1.4-.2s-.2-.6-.2-1.4v-6.7c0-.8,0-1.2.2-1.4.2-.2.6-.2,1.4-.2h4.4c.8,0,1.2,0,1.4.2.2.2.2.6.2,1.4v6.7c0,.8,0,1.2-.2,1.4ZM769,203.7c0,.8.7,1.5,1.5,1.5s.2,0,.2-.2v-8.6c0,0,0-.2-.2-.2-.8,0-1.5.7-1.5,1.5v5.9Z"/>
    <path class="st0" d="M736.7,225c-.2-.2-.2-.6-.2-1.4v-4.4c0-.8,0-1.2.2-1.4.2-.2.6-.2,1.4-.2h6.7c.8,0,1.2,0,1.4.2.2.2.2.6.2,1.4v4.4c0,.8,0,1.2-.2,1.4-.2.2-.6.2-1.4.2h-6.7c-.8,0-1.2,0-1.4-.2ZM738.6,215.3c-.8,0-1.5.7-1.5,1.5s0,.2.2.2h8.6c0,0,.2,0,.2-.2,0-.8-.7-1.5-1.5-1.5h-5.9Z"/>
    <path class="st0" d="M751.7,225c-.2-.2-.2-.6-.2-1.4v-4.4c0-.8,0-1.2.2-1.4.2-.2.6-.2,1.4-.2h6.7c.8,0,1.2,0,1.4.2.2.2.2.6.2,1.4v4.4c0,.8,0,1.2-.2,1.4-.2.2-.6.2-1.4.2h-6.7c-.8,0-1.2,0-1.4-.2ZM753.6,215.3c-.8,0-1.5.7-1.5,1.5s0,.2.2.2h8.6c0,0,.2,0,.2-.2,0-.8-.7-1.5-1.5-1.5h-5.9Z"/>
  </g>
  <g id="MV_x5F_8">
    <path class="st0" d="M746.3,257.5c.2.2.2.6.2,1.4v4.4c0,.8,0,1.2-.2,1.4-.2.2-.6.2-1.4.2h-6.7c-.8,0-1.2,0-1.4-.2-.2-.2-.2-.6-.2-1.4v-4.4c0-.8,0-1.2.2-1.4.2-.2.6-.2,1.4-.2h6.7c.8,0,1.2,0,1.4.2ZM744.4,267.3c.8,0,1.5-.7,1.5-1.5s0-.2-.2-.2h-8.6c0,0-.2,0-.2.2,0,.8.7,1.5,1.5,1.5h5.9Z"/>
    <path class="st0" d="M761.3,257.5c.2.2.2.6.2,1.4v4.4c0,.8,0,1.2-.2,1.4-.2.2-.6.2-1.4.2h-6.7c-.8,0-1.2,0-1.4-.2-.2-.2-.2-.6-.2-1.4v-4.4c0-.8,0-1.2.2-1.4.2-.2.6-.2,1.4-.2h6.7c.8,0,1.2,0,1.4.2ZM759.4,267.3c.8,0,1.5-.7,1.5-1.5s0-.2-.2-.2h-8.6c0,0-.2,0-.2.2,0,.8.7,1.5,1.5,1.5h5.9Z"/>
    <path class="st0" d="M719.2,277c.2-.2.6-.2,1.4-.2h4.4c.8,0,1.2,0,1.4.2.2.2.2.6.2,1.4v6.7c0,.8,0,1.2-.2,1.4-.2.2-.6.2-1.4.2h-4.4c-.8,0-1.2,0-1.4-.2-.2-.2-.2-.6-.2-1.4v-6.7c0-.8,0-1.2.2-1.4ZM729,278.8c0-.8-.7-1.5-1.5-1.5s-.2,0-.2.2v8.6c0,0,0,.2.2.2.8,0,1.5-.7,1.5-1.5v-5.9Z"/>
    <path class="st0" d="M719.2,292c.2-.2.6-.2,1.4-.2h4.4c.8,0,1.2,0,1.4.2.2.2.2.6.2,1.4v6.7c0,.8,0,1.2-.2,1.4-.2.2-.6.2-1.4.2h-4.4c-.8,0-1.2,0-1.4-.2-.2-.2-.2-.6-.2-1.4v-6.7c0-.8,0-1.2.2-1.4ZM729,293.8c0-.8-.7-1.5-1.5-1.5s-.2,0-.2.2v8.6c0,0,0,.2.2.2.8,0,1.5-.7,1.5-1.5v-5.9Z"/>
    <rect class="st1" x="734" y="274.3" width="30" height="30" rx="2" ry="2"/>
    <path class="st0" d="M778.8,286.5c-.2.2-.6.2-1.4.2h-4.4c-.8,0-1.2,0-1.4-.2-.2-.2-.2-.6-.2-1.4v-6.7c0-.8,0-1.2.2-1.4.2-.2.6-.2,1.4-.2h4.4c.8,0,1.2,0,1.4.2.2.2.2.6.2,1.4v6.7c0,.8,0,1.2-.2,1.4ZM769,284.7c0,.8.7,1.5,1.5,1.5s.2,0,.2-.2v-8.6c0,0,0-.2-.2-.2-.8,0-1.5.7-1.5,1.5v5.9Z"/>
    <path class="st0" d="M778.8,301.5c-.2.2-.6.2-1.4.2h-4.4c-.8,0-1.2,0-1.4-.2-.2-.2-.2-.6-.2-1.4v-6.7c0-.8,0-1.2.2-1.4.2-.2.6-.2,1.4-.2h4.4c.8,0,1.2,0,1.4.2.2.2.2.6.2,1.4v6.7c0,.8,0,1.2-.2,1.4ZM769,299.7c0,.8.7,1.5,1.5,1.5s.2,0,.2-.2v-8.6c0,0,0-.2-.2-.2-.8,0-1.5.7-1.5,1.5v5.9Z"/>
    <path class="st0" d="M736.7,321c-.2-.2-.2-.6-.2-1.4v-4.4c0-.8,0-1.2.2-1.4.2-.2.6-.2,1.4-.2h6.7c.8,0,1.2,0,1.4.2.2.2.2.6.2,1.4v4.4c0,.8,0,1.2-.2,1.4-.2.2-.6.2-1.4.2h-6.7c-.8,0-1.2,0-1.4-.2ZM738.6,311.3c-.8,0-1.5.7-1.5,1.5s0,.2.2.2h8.6c0,0,.2,0,.2-.2,0-.8-.7-1.5-1.5-1.5h-5.9Z"/>
    <path class="st0" d="M751.7,321c-.2-.2-.2-.6-.2-1.4v-4.4c0-.8,0-1.2.2-1.4.2-.2.6-.2,1.4-.2h6.7c.8,0,1.2,0,1.4.2.2.2.2.6.2,1.4v4.4c0,.8,0,1.2-.2,1.4-.2.2-.6.2-1.4.2h-6.7c-.8,0-1.2,0-1.4-.2ZM753.6,311.3c-.8,0-1.5.7-1.5,1.5s0,.2.2.2h8.6c0,0,.2,0,.2-.2,0-.8-.7-1.5-1.5-1.5h-5.9Z"/>
  </g>
  <g id="MV_x5F_9">
    <path class="st0" d="M746.3,353.5c.2.2.2.6.2,1.4v4.4c0,.8,0,1.2-.2,1.4-.2.2-.6.2-1.4.2h-6.7c-.8,0-1.2,0-1.4-.2-.2-.2-.2-.6-.2-1.4v-4.4c0-.8,0-1.2.2-1.4.2-.2.6-.2,1.4-.2h6.7c.8,0,1.2,0,1.4.2ZM744.4,363.3c.8,0,1.5-.7,1.5-1.5s0-.2-.2-.2h-8.6c0,0-.2,0-.2.2,0,.8.7,1.5,1.5,1.5h5.9Z"/>
    <path class="st0" d="M761.3,353.5c.2.2.2.6.2,1.4v4.4c0,.8,0,1.2-.2,1.4-.2.2-.6.2-1.4.2h-6.7c-.8,0-1.2,0-1.4-.2-.2-.2-.2-.6-.2-1.4v-4.4c0-.8,0-1.2.2-1.4.2-.2.6-.2,1.4-.2h6.7c.8,0,1.2,0,1.4.2ZM759.4,363.3c.8,0,1.5-.7,1.5-1.5s0-.2-.2-.2h-8.6c0,0-.2,0-.2.2,0,.8.7,1.5,1.5,1.5h5.9Z"/>
    <path class="st0" d="M719.2,373c.2-.2.6-.2,1.4-.2h4.4c.8,0,1.2,0,1.4.2.2.2.2.6.2,1.4v6.7c0,.8,0,1.2-.2,1.4-.2.2-.6.2-1.4.2h-4.4c-.8,0-1.2,0-1.4-.2-.2-.2-.2-.6-.2-1.4v-6.7c0-.8,0-1.2.2-1.4ZM729,374.8c0-.8-.7-1.5-1.5-1.5s-.2,0-.2.2v8.6c0,0,0,.2.2.2.8,0,1.5-.7,1.5-1.5v-5.9Z"/>
    <path class="st0" d="M719.2,388c.2-.2.6-.2,1.4-.2h4.4c.8,0,1.2,0,1.4.2.2.2.2.6.2,1.4v6.7c0,.8,0,1.2-.2,1.4-.2.2-.6.2-1.4.2h-4.4c-.8,0-1.2,0-1.4-.2-.2-.2-.2-.6-.2-1.4v-6.7c0-.8,0-1.2.2-1.4ZM729,389.8c0-.8-.7-1.5-1.5-1.5s-.2,0-.2.2v8.6c0,0,0,.2.2.2.8,0,1.5-.7,1.5-1.5v-5.9Z"/>
    <rect class="st1" x="734" y="370.3" width="30" height="30" rx="2" ry="2"/>
    <path class="st0" d="M778.8,382.5c-.2.2-.6.2-1.4.2h-4.4c-.8,0-1.2,0-1.4-.2-.2-.2-.2-.6-.2-1.4v-6.7c0-.8,0-1.2.2-1.4.2-.2.6-.2,1.4-.2h4.4c.8,0,1.2,0,1.4.2.2.2.2.6.2,1.4v6.7c0,.8,0,1.2-.2,1.4ZM769,380.7c0,.8.7,1.5,1.5,1.5s.2,0,.2-.2v-8.6c0,0,0-.2-.2-.2-.8,0-1.5.7-1.5,1.5v5.9Z"/>
    <path class="st0" d="M778.8,397.5c-.2.2-.6.2-1.4.2h-4.4c-.8,0-1.2,0-1.4-.2-.2-.2-.2-.6-.2-1.4v-6.7c0-.8,0-1.2.2-1.4.2-.2.6-.2,1.4-.2h4.4c.8,0,1.2,0,1.4.2.2.2.2.6.2,1.4v6.7c0,.8,0,1.2-.2,1.4ZM769,395.7c0,.8.7,1.5,1.5,1.5s.2,0,.2-.2v-8.6c0,0,0-.2-.2-.2-.8,0-1.5.7-1.5,1.5v5.9Z"/>
    <path class="st0" d="M736.7,417c-.2-.2-.2-.6-.2-1.4v-4.4c0-.8,0-1.2.2-1.4.2-.2.6-.2,1.4-.2h6.7c.8,0,1.2,0,1.4.2.2.2.2.6.2,1.4v4.4c0,.8,0,1.2-.2,1.4-.2.2-.6.2-1.4.2h-6.7c-.8,0-1.2,0-1.4-.2ZM738.6,407.3c-.8,0-1.5.7-1.5,1.5s0,.2.2.2h8.6c0,0,.2,0,.2-.2,0-.8-.7-1.5-1.5-1.5h-5.9Z"/>
    <path class="st0" d="M751.7,417c-.2-.2-.2-.6-.2-1.4v-4.4c0-.8,0-1.2.2-1.4.2-.2.6-.2,1.4-.2h6.7c.8,0,1.2,0,1.4.2.2.2.2.6.2,1.4v4.4c0,.8,0,1.2-.2,1.4-.2.2-.6.2-1.4.2h-6.7c-.8,0-1.2,0-1.4-.2ZM753.6,407.3c-.8,0-1.5.7-1.5,1.5s0,.2.2.2h8.6c0,0,.2,0,.2-.2,0-.8-.7-1.5-1.5-1.5h-5.9Z"/>
  </g>
  <g id="MV_x5F_10">
    <path class="st0" d="M746.3,449.5c.2.2.2.6.2,1.4v4.4c0,.8,0,1.2-.2,1.4-.2.2-.6.2-1.4.2h-6.7c-.8,0-1.2,0-1.4-.2-.2-.2-.2-.6-.2-1.4v-4.4c0-.8,0-1.2.2-1.4.2-.2.6-.2,1.4-.2h6.7c.8,0,1.2,0,1.4.2ZM744.4,459.3c.8,0,1.5-.7,1.5-1.5s0-.2-.2-.2h-8.6c0,0-.2,0-.2.2,0,.8.7,1.5,1.5,1.5h5.9Z"/>
    <path class="st0" d="M761.3,449.5c.2.2.2.6.2,1.4v4.4c0,.8,0,1.2-.2,1.4-.2.2-.6.2-1.4.2h-6.7c-.8,0-1.2,0-1.4-.2-.2-.2-.2-.6-.2-1.4v-4.4c0-.8,0-1.2.2-1.4.2-.2.6-.2,1.4-.2h6.7c.8,0,1.2,0,1.4.2ZM759.4,459.3c.8,0,1.5-.7,1.5-1.5s0-.2-.2-.2h-8.6c0,0-.2,0-.2.2,0,.8.7,1.5,1.5,1.5h5.9Z"/>
    <path class="st0" d="M719.2,469c.2-.2.6-.2,1.4-.2h4.4c.8,0,1.2,0,1.4.2.2.2.2.6.2,1.4v6.7c0,.8,0,1.2-.2,1.4-.2.2-.6.2-1.4.2h-4.4c-.8,0-1.2,0-1.4-.2-.2-.2-.2-.6-.2-1.4v-6.7c0-.8,0-1.2.2-1.4ZM729,470.8c0-.8-.7-1.5-1.5-1.5s-.2,0-.2.2v8.6c0,0,0,.2.2.2.8,0,1.5-.7,1.5-1.5v-5.9Z"/>
    <path class="st0" d="M719.2,484c.2-.2.6-.2,1.4-.2h4.4c.8,0,1.2,0,1.4.2.2.2.2.6.2,1.4v6.7c0,.8,0,1.2-.2,1.4-.2.2-.6.2-1.4.2h-4.4c-.8,0-1.2,0-1.4-.2-.2-.2-.2-.6-.2-1.4v-6.7c0-.8,0-1.2.2-1.4ZM729,485.8c0-.8-.7-1.5-1.5-1.5s-.2,0-.2.2v8.6c0,0,0,.2.2.2.8,0,1.5-.7,1.5-1.5v-5.9Z"/>
    <rect class="st1" x="734" y="466.3" width="30" height="30" rx="2" ry="2"/>
    <path class="st0" d="M778.8,478.5c-.2.2-.6.2-1.4.2h-4.4c-.8,0-1.2,0-1.4-.2-.2-.2-.2-.6-.2-1.4v-6.7c0-.8,0-1.2.2-1.4.2-.2.6-.2,1.4-.2h4.4c.8,0,1.2,0,1.4.2.2.2.2.6.2,1.4v6.7c0,.8,0,1.2-.2,1.4ZM769,476.7c0,.8.7,1.5,1.5,1.5s.2,0,.2-.2v-8.6c0,0,0-.2-.2-.2-.8,0-1.5.7-1.5,1.5v5.9Z"/>
    <path class="st0" d="M778.8,493.5c-.2.2-.6.2-1.4.2h-4.4c-.8,0-1.2,0-1.4-.2-.2-.2-.2-.6-.2-1.4v-6.7c0-.8,0-1.2.2-1.4.2-.2.6-.2,1.4-.2h4.4c.8,0,1.2,0,1.4.2.2.2.2.6.2,1.4v6.7c0,.8,0,1.2-.2,1.4ZM769,491.7c0,.8.7,1.5,1.5,1.5s.2,0,.2-.2v-8.6c0,0,0-.2-.2-.2-.8,0-1.5.7-1.5,1.5v5.9Z"/>
    <path class="st0" d="M736.7,513c-.2-.2-.2-.6-.2-1.4v-4.4c0-.8,0-1.2.2-1.4.2-.2.6-.2,1.4-.2h6.7c.8,0,1.2,0,1.4.2.2.2.2.6.2,1.4v4.4c0,.8,0,1.2-.2,1.4s-.6.2-1.4.2h-6.7c-.8,0-1.2,0-1.4-.2ZM738.6,503.3c-.8,0-1.5.7-1.5,1.5s0,.2.2.2h8.6c0,0,.2,0,.2-.2,0-.8-.7-1.5-1.5-1.5h-5.9Z"/>
    <path class="st0" d="M751.7,513c-.2-.2-.2-.6-.2-1.4v-4.4c0-.8,0-1.2.2-1.4.2-.2.6-.2,1.4-.2h6.7c.8,0,1.2,0,1.4.2.2.2.2.6.2,1.4v4.4c0,.8,0,1.2-.2,1.4s-.6.2-1.4.2h-6.7c-.8,0-1.2,0-1.4-.2ZM753.6,503.3c-.8,0-1.5.7-1.5,1.5s0,.2.2.2h8.6c0,0,.2,0,.2-.2,0-.8-.7-1.5-1.5-1.5h-5.9Z"/>
  </g>
  <g id="MV_x5F_11">
    <path class="st0" d="M746.3,545.5c.2.2.2.6.2,1.4v4.4c0,.8,0,1.2-.2,1.4s-.6.2-1.4.2h-6.7c-.8,0-1.2,0-1.4-.2s-.2-.6-.2-1.4v-4.4c0-.8,0-1.2.2-1.4.2-.2.6-.2,1.4-.2h6.7c.8,0,1.2,0,1.4.2ZM744.4,555.3c.8,0,1.5-.7,1.5-1.5s0-.2-.2-.2h-8.6c0,0-.2,0-.2.2,0,.8.7,1.5,1.5,1.5h5.9Z"/>
    <path class="st0" d="M761.3,545.5c.2.2.2.6.2,1.4v4.4c0,.8,0,1.2-.2,1.4s-.6.2-1.4.2h-6.7c-.8,0-1.2,0-1.4-.2s-.2-.6-.2-1.4v-4.4c0-.8,0-1.2.2-1.4.2-.2.6-.2,1.4-.2h6.7c.8,0,1.2,0,1.4.2ZM759.4,555.3c.8,0,1.5-.7,1.5-1.5s0-.2-.2-.2h-8.6c0,0-.2,0-.2.2,0,.8.7,1.5,1.5,1.5h5.9Z"/>
    <path class="st0" d="M719.2,565c.2-.2.6-.2,1.4-.2h4.4c.8,0,1.2,0,1.4.2s.2.6.2,1.4v6.7c0,.8,0,1.2-.2,1.4-.2.2-.6.2-1.4.2h-4.4c-.8,0-1.2,0-1.4-.2s-.2-.6-.2-1.4v-6.7c0-.8,0-1.2.2-1.4ZM729,566.8c0-.8-.7-1.5-1.5-1.5s-.2,0-.2.2v8.6c0,0,0,.2.2.2.8,0,1.5-.7,1.5-1.5v-5.9Z"/>
    <path class="st0" d="M719.2,580c.2-.2.6-.2,1.4-.2h4.4c.8,0,1.2,0,1.4.2s.2.6.2,1.4v6.7c0,.8,0,1.2-.2,1.4-.2.2-.6.2-1.4.2h-4.4c-.8,0-1.2,0-1.4-.2s-.2-.6-.2-1.4v-6.7c0-.8,0-1.2.2-1.4ZM729,581.8c0-.8-.7-1.5-1.5-1.5s-.2,0-.2.2v8.6c0,0,0,.2.2.2.8,0,1.5-.7,1.5-1.5v-5.9Z"/>
    <rect class="st1" x="734" y="562.3" width="30" height="30" rx="2" ry="2"/>
    <path class="st0" d="M778.8,574.5c-.2.2-.6.2-1.4.2h-4.4c-.8,0-1.2,0-1.4-.2-.2-.2-.2-.6-.2-1.4v-6.7c0-.8,0-1.2.2-1.4s.6-.2,1.4-.2h4.4c.8,0,1.2,0,1.4.2.2.2.2.6.2,1.4v6.7c0,.8,0,1.2-.2,1.4ZM769,572.7c0,.8.7,1.5,1.5,1.5s.2,0,.2-.2v-8.6c0,0,0-.2-.2-.2-.8,0-1.5.7-1.5,1.5v5.9Z"/>
    <path class="st0" d="M778.8,589.5c-.2.2-.6.2-1.4.2h-4.4c-.8,0-1.2,0-1.4-.2-.2-.2-.2-.6-.2-1.4v-6.7c0-.8,0-1.2.2-1.4s.6-.2,1.4-.2h4.4c.8,0,1.2,0,1.4.2.2.2.2.6.2,1.4v6.7c0,.8,0,1.2-.2,1.4ZM769,587.7c0,.8.7,1.5,1.5,1.5s.2,0,.2-.2v-8.6c0,0,0-.2-.2-.2-.8,0-1.5.7-1.5,1.5v5.9Z"/>
    <path class="st0" d="M736.7,609c-.2-.2-.2-.6-.2-1.4v-4.4c0-.8,0-1.2.2-1.4s.6-.2,1.4-.2h6.7c.8,0,1.2,0,1.4.2s.2.6.2,1.4v4.4c0,.8,0,1.2-.2,1.4s-.6.2-1.4.2h-6.7c-.8,0-1.2,0-1.4-.2ZM738.6,599.3c-.8,0-1.5.7-1.5,1.5s0,.2.2.2h8.6c0,0,.2,0,.2-.2,0-.8-.7-1.5-1.5-1.5h-5.9Z"/>
    <path class="st0" d="M751.7,609c-.2-.2-.2-.6-.2-1.4v-4.4c0-.8,0-1.2.2-1.4s.6-.2,1.4-.2h6.7c.8,0,1.2,0,1.4.2s.2.6.2,1.4v4.4c0,.8,0,1.2-.2,1.4s-.6.2-1.4.2h-6.7c-.8,0-1.2,0-1.4-.2ZM753.6,599.3c-.8,0-1.5.7-1.5,1.5s0,.2.2.2h8.6c0,0,.2,0,.2-.2,0-.8-.7-1.5-1.5-1.5h-5.9Z"/>
  </g>
  <g id="MV_x5F_12">
    <path class="st0" d="M746.3,641.5c.2.2.2.6.2,1.4v4.4c0,.8,0,1.2-.2,1.4s-.6.2-1.4.2h-6.7c-.8,0-1.2,0-1.4-.2s-.2-.6-.2-1.4v-4.4c0-.8,0-1.2.2-1.4.2-.2.6-.2,1.4-.2h6.7c.8,0,1.2,0,1.4.2ZM744.4,651.3c.8,0,1.5-.7,1.5-1.5s0-.2-.2-.2h-8.6c0,0-.2,0-.2.2,0,.8.7,1.5,1.5,1.5h5.9Z"/>
    <path class="st0" d="M761.3,641.5c.2.2.2.6.2,1.4v4.4c0,.8,0,1.2-.2,1.4s-.6.2-1.4.2h-6.7c-.8,0-1.2,0-1.4-.2s-.2-.6-.2-1.4v-4.4c0-.8,0-1.2.2-1.4.2-.2.6-.2,1.4-.2h6.7c.8,0,1.2,0,1.4.2ZM759.4,651.3c.8,0,1.5-.7,1.5-1.5s0-.2-.2-.2h-8.6c0,0-.2,0-.2.2,0,.8.7,1.5,1.5,1.5h5.9Z"/>
    <path class="st0" d="M719.2,661c.2-.2.6-.2,1.4-.2h4.4c.8,0,1.2,0,1.4.2s.2.6.2,1.4v6.7c0,.8,0,1.2-.2,1.4-.2.2-.6.2-1.4.2h-4.4c-.8,0-1.2,0-1.4-.2s-.2-.6-.2-1.4v-6.7c0-.8,0-1.2.2-1.4ZM729,662.8c0-.8-.7-1.5-1.5-1.5s-.2,0-.2.2v8.6c0,0,0,.2.2.2.8,0,1.5-.7,1.5-1.5v-5.9Z"/>
    <path class="st0" d="M719.2,676c.2-.2.6-.2,1.4-.2h4.4c.8,0,1.2,0,1.4.2s.2.6.2,1.4v6.7c0,.8,0,1.2-.2,1.4-.2.2-.6.2-1.4.2h-4.4c-.8,0-1.2,0-1.4-.2s-.2-.6-.2-1.4v-6.7c0-.8,0-1.2.2-1.4ZM729,677.8c0-.8-.7-1.5-1.5-1.5s-.2,0-.2.2v8.6c0,0,0,.2.2.2.8,0,1.5-.7,1.5-1.5v-5.9Z"/>
    <rect class="st1" x="734" y="658.3" width="30" height="30" rx="2" ry="2"/>
    <path class="st0" d="M778.8,670.5c-.2.2-.6.2-1.4.2h-4.4c-.8,0-1.2,0-1.4-.2-.2-.2-.2-.6-.2-1.4v-6.7c0-.8,0-1.2.2-1.4s.6-.2,1.4-.2h4.4c.8,0,1.2,0,1.4.2.2.2.2.6.2,1.4v6.7c0,.8,0,1.2-.2,1.4ZM769,668.7c0,.8.7,1.5,1.5,1.5s.2,0,.2-.2v-8.6c0,0,0-.2-.2-.2-.8,0-1.5.7-1.5,1.5v5.9Z"/>
    <path class="st0" d="M778.8,685.5c-.2.2-.6.2-1.4.2h-4.4c-.8,0-1.2,0-1.4-.2-.2-.2-.2-.6-.2-1.4v-6.7c0-.8,0-1.2.2-1.4s.6-.2,1.4-.2h4.4c.8,0,1.2,0,1.4.2.2.2.2.6.2,1.4v6.7c0,.8,0,1.2-.2,1.4ZM769,683.7c0,.8.7,1.5,1.5,1.5s.2,0,.2-.2v-8.6c0,0,0-.2-.2-.2-.8,0-1.5.7-1.5,1.5v5.9Z"/>
    <path class="st0" d="M736.7,705c-.2-.2-.2-.6-.2-1.4v-4.4c0-.8,0-1.2.2-1.4s.6-.2,1.4-.2h6.7c.8,0,1.2,0,1.4.2s.2.6.2,1.4v4.4c0,.8,0,1.2-.2,1.4s-.6.2-1.4.2h-6.7c-.8,0-1.2,0-1.4-.2ZM738.6,695.3c-.8,0-1.5.7-1.5,1.5s0,.2.2.2h8.6c0,0,.2,0,.2-.2,0-.8-.7-1.5-1.5-1.5h-5.9Z"/>
    <path class="st0" d="M751.7,705c-.2-.2-.2-.6-.2-1.4v-4.4c0-.8,0-1.2.2-1.4s.6-.2,1.4-.2h6.7c.8,0,1.2,0,1.4.2s.2.6.2,1.4v4.4c0,.8,0,1.2-.2,1.4s-.6.2-1.4.2h-6.7c-.8,0-1.2,0-1.4-.2ZM753.6,695.3c-.8,0-1.5.7-1.5,1.5s0,.2.2.2h8.6c0,0,.2,0,.2-.2,0-.8-.7-1.5-1.5-1.5h-5.9Z"/>
  </g>
  <g id="MV_x5F_13">
    <path class="st0" d="M633.3,801.5c.2.2.2.6.2,1.4v4.4c0,.8,0,1.2-.2,1.4s-.6.2-1.4.2h-6.7c-.8,0-1.2,0-1.4-.2s-.2-.6-.2-1.4v-4.4c0-.8,0-1.2.2-1.4.2-.2.6-.2,1.4-.2h6.7c.8,0,1.2,0,1.4.2ZM631.4,811.3c.8,0,1.5-.7,1.5-1.5s0-.2-.2-.2h-8.6c0,0-.2,0-.2.2,0,.8.7,1.5,1.5,1.5h5.9Z"/>
    <path class="st0" d="M648.3,801.5c.2.2.2.6.2,1.4v4.4c0,.8,0,1.2-.2,1.4s-.6.2-1.4.2h-6.7c-.8,0-1.2,0-1.4-.2s-.2-.6-.2-1.4v-4.4c0-.8,0-1.2.2-1.4.2-.2.6-.2,1.4-.2h6.7c.8,0,1.2,0,1.4.2ZM646.4,811.3c.8,0,1.5-.7,1.5-1.5s0-.2-.2-.2h-8.6c0,0-.2,0-.2.2,0,.8.7,1.5,1.5,1.5h5.9Z"/>
    <path class="st0" d="M606.2,821c.2-.2.6-.2,1.4-.2h4.4c.8,0,1.2,0,1.4.2s.2.6.2,1.4v6.7c0,.8,0,1.2-.2,1.4-.2.2-.6.2-1.4.2h-4.4c-.8,0-1.2,0-1.4-.2s-.2-.6-.2-1.4v-6.7c0-.8,0-1.2.2-1.4ZM616,822.8c0-.8-.7-1.5-1.5-1.5s-.2,0-.2.2v8.6c0,0,0,.2.2.2.8,0,1.5-.7,1.5-1.5v-5.9Z"/>
    <path class="st0" d="M606.2,836c.2-.2.6-.2,1.4-.2h4.4c.8,0,1.2,0,1.4.2s.2.6.2,1.4v6.7c0,.8,0,1.2-.2,1.4-.2.2-.6.2-1.4.2h-4.4c-.8,0-1.2,0-1.4-.2s-.2-.6-.2-1.4v-6.7c0-.8,0-1.2.2-1.4ZM616,837.8c0-.8-.7-1.5-1.5-1.5s-.2,0-.2.2v8.6c0,0,0,.2.2.2.8,0,1.5-.7,1.5-1.5v-5.9Z"/>
    <rect class="st1" x="621" y="818.3" width="30" height="30" rx="2" ry="2"/>
    <path class="st0" d="M665.8,830.5c-.2.2-.6.2-1.4.2h-4.4c-.8,0-1.2,0-1.4-.2-.2-.2-.2-.6-.2-1.4v-6.7c0-.8,0-1.2.2-1.4s.6-.2,1.4-.2h4.4c.8,0,1.2,0,1.4.2.2.2.2.6.2,1.4v6.7c0,.8,0,1.2-.2,1.4ZM656,828.7c0,.8.7,1.5,1.5,1.5s.2,0,.2-.2v-8.6c0,0,0-.2-.2-.2-.8,0-1.5.7-1.5,1.5v5.9Z"/>
    <path class="st0" d="M665.8,845.5c-.2.2-.6.2-1.4.2h-4.4c-.8,0-1.2,0-1.4-.2-.2-.2-.2-.6-.2-1.4v-6.7c0-.8,0-1.2.2-1.4s.6-.2,1.4-.2h4.4c.8,0,1.2,0,1.4.2.2.2.2.6.2,1.4v6.7c0,.8,0,1.2-.2,1.4ZM656,843.7c0,.8.7,1.5,1.5,1.5s.2,0,.2-.2v-8.6c0,0,0-.2-.2-.2-.8,0-1.5.7-1.5,1.5v5.9Z"/>
    <path class="st0" d="M623.7,865c-.2-.2-.2-.6-.2-1.4v-4.4c0-.8,0-1.2.2-1.4s.6-.2,1.4-.2h6.7c.8,0,1.2,0,1.4.2s.2.6.2,1.4v4.4c0,.8,0,1.2-.2,1.4s-.6.2-1.4.2h-6.7c-.8,0-1.2,0-1.4-.2ZM625.6,855.3c-.8,0-1.5.7-1.5,1.5s0,.2.2.2h8.6c0,0,.2,0,.2-.2,0-.8-.7-1.5-1.5-1.5h-5.9Z"/>
    <path class="st0" d="M638.7,865c-.2-.2-.2-.6-.2-1.4v-4.4c0-.8,0-1.2.2-1.4s.6-.2,1.4-.2h6.7c.8,0,1.2,0,1.4.2s.2.6.2,1.4v4.4c0,.8,0,1.2-.2,1.4s-.6.2-1.4.2h-6.7c-.8,0-1.2,0-1.4-.2ZM640.6,855.3c-.8,0-1.5.7-1.5,1.5s0,.2.2.2h8.6c0,0,.2,0,.2-.2,0-.8-.7-1.5-1.5-1.5h-5.9Z"/>
  </g>
  <g id="MV_x5F_14">
    <path class="st0" d="M554.3,801.5c.2.2.2.6.2,1.4v4.4c0,.8,0,1.2-.2,1.4s-.6.2-1.4.2h-6.7c-.8,0-1.2,0-1.4-.2s-.2-.6-.2-1.4v-4.4c0-.8,0-1.2.2-1.4.2-.2.6-.2,1.4-.2h6.7c.8,0,1.2,0,1.4.2ZM552.4,811.3c.8,0,1.5-.7,1.5-1.5s0-.2-.2-.2h-8.6c0,0-.2,0-.2.2,0,.8.7,1.5,1.5,1.5h5.9Z"/>
    <path class="st0" d="M569.3,801.5c.2.2.2.6.2,1.4v4.4c0,.8,0,1.2-.2,1.4s-.6.2-1.4.2h-6.7c-.8,0-1.2,0-1.4-.2s-.2-.6-.2-1.4v-4.4c0-.8,0-1.2.2-1.4.2-.2.6-.2,1.4-.2h6.7c.8,0,1.2,0,1.4.2ZM567.4,811.3c.8,0,1.5-.7,1.5-1.5s0-.2-.2-.2h-8.6c0,0-.2,0-.2.2,0,.8.7,1.5,1.5,1.5h5.9Z"/>
    <path class="st0" d="M527.2,821c.2-.2.6-.2,1.4-.2h4.4c.8,0,1.2,0,1.4.2s.2.6.2,1.4v6.7c0,.8,0,1.2-.2,1.4-.2.2-.6.2-1.4.2h-4.4c-.8,0-1.2,0-1.4-.2s-.2-.6-.2-1.4v-6.7c0-.8,0-1.2.2-1.4ZM537,822.8c0-.8-.7-1.5-1.5-1.5s-.2,0-.2.2v8.6c0,0,0,.2.2.2.8,0,1.5-.7,1.5-1.5v-5.9Z"/>
    <path class="st0" d="M527.2,836c.2-.2.6-.2,1.4-.2h4.4c.8,0,1.2,0,1.4.2s.2.6.2,1.4v6.7c0,.8,0,1.2-.2,1.4-.2.2-.6.2-1.4.2h-4.4c-.8,0-1.2,0-1.4-.2s-.2-.6-.2-1.4v-6.7c0-.8,0-1.2.2-1.4ZM537,837.8c0-.8-.7-1.5-1.5-1.5s-.2,0-.2.2v8.6c0,0,0,.2.2.2.8,0,1.5-.7,1.5-1.5v-5.9Z"/>
    <path class="st0" d="M586.8,845.5c-.2.2-.6.2-1.4.2h-4.4c-.8,0-1.2,0-1.4-.2s-.2-.6-.2-1.4v-6.7c0-.8,0-1.2.2-1.4.2-.2.6-.2,1.4-.2h4.4c.8,0,1.2,0,1.4.2s.2.6.2,1.4v6.7c0,.8,0,1.2-.2,1.4ZM577,843.7c0,.8.7,1.5,1.5,1.5s.2,0,.2-.2v-8.6c0,0,0-.2-.2-.2-.8,0-1.5.7-1.5,1.5v5.9Z"/>
    <path class="st0" d="M586.8,830.5c-.2.2-.6.2-1.4.2h-4.4c-.8,0-1.2,0-1.4-.2s-.2-.6-.2-1.4v-6.7c0-.8,0-1.2.2-1.4.2-.2.6-.2,1.4-.2h4.4c.8,0,1.2,0,1.4.2s.2.6.2,1.4v6.7c0,.8,0,1.2-.2,1.4ZM577,828.7c0,.8.7,1.5,1.5,1.5s.2,0,.2-.2v-8.6c0,0,0-.2-.2-.2-.8,0-1.5.7-1.5,1.5v5.9Z"/>
    <rect class="st1" x="542" y="818.3" width="30" height="30" rx="2" ry="2"/>
    <path class="st0" d="M544.7,865c-.2-.2-.2-.6-.2-1.4v-4.4c0-.8,0-1.2.2-1.4s.6-.2,1.4-.2h6.7c.8,0,1.2,0,1.4.2s.2.6.2,1.4v4.4c0,.8,0,1.2-.2,1.4s-.6.2-1.4.2h-6.7c-.8,0-1.2,0-1.4-.2ZM546.6,855.3c-.8,0-1.5.7-1.5,1.5s0,.2.2.2h8.6c0,0,.2,0,.2-.2,0-.8-.7-1.5-1.5-1.5h-5.9Z"/>
    <path class="st0" d="M559.7,865c-.2-.2-.2-.6-.2-1.4v-4.4c0-.8,0-1.2.2-1.4s.6-.2,1.4-.2h6.7c.8,0,1.2,0,1.4.2s.2.6.2,1.4v4.4c0,.8,0,1.2-.2,1.4s-.6.2-1.4.2h-6.7c-.8,0-1.2,0-1.4-.2ZM561.6,855.3c-.8,0-1.5.7-1.5,1.5s0,.2.2.2h8.6c0,0,.2,0,.2-.2,0-.8-.7-1.5-1.5-1.5h-5.9Z"/>
  </g>
  <g id="MV_x5F_15">
    <path class="st0" d="M475.3,801.5c.2.2.2.6.2,1.4v4.4c0,.8,0,1.2-.2,1.4-.2.2-.6.2-1.4.2h-6.7c-.8,0-1.2,0-1.4-.2-.2-.2-.2-.6-.2-1.4v-4.4c0-.8,0-1.2.2-1.4.2-.2.6-.2,1.4-.2h6.7c.8,0,1.2,0,1.4.2ZM473.4,811.3c.8,0,1.5-.7,1.5-1.5s0-.2-.2-.2h-8.6c0,0-.2,0-.2.2,0,.8.7,1.5,1.5,1.5h5.9Z"/>
    <path class="st0" d="M490.3,801.5c.2.2.2.6.2,1.4v4.4c0,.8,0,1.2-.2,1.4-.2.2-.6.2-1.4.2h-6.7c-.8,0-1.2,0-1.4-.2-.2-.2-.2-.6-.2-1.4v-4.4c0-.8,0-1.2.2-1.4.2-.2.6-.2,1.4-.2h6.7c.8,0,1.2,0,1.4.2ZM488.4,811.3c.8,0,1.5-.7,1.5-1.5s0-.2-.2-.2h-8.6c0,0-.2,0-.2.2,0,.8.7,1.5,1.5,1.5h5.9Z"/>
    <path class="st0" d="M448.2,821c.2-.2.6-.2,1.4-.2h4.4c.8,0,1.2,0,1.4.2.2.2.2.6.2,1.4v6.7c0,.8,0,1.2-.2,1.4-.2.2-.6.2-1.4.2h-4.4c-.8,0-1.2,0-1.4-.2-.2-.2-.2-.6-.2-1.4v-6.7c0-.8,0-1.2.2-1.4ZM458,822.8c0-.8-.7-1.5-1.5-1.5s-.2,0-.2.2v8.6c0,0,0,.2.2.2.8,0,1.5-.7,1.5-1.5v-5.9Z"/>
    <path class="st0" d="M448.2,836c.2-.2.6-.2,1.4-.2h4.4c.8,0,1.2,0,1.4.2.2.2.2.6.2,1.4v6.7c0,.8,0,1.2-.2,1.4-.2.2-.6.2-1.4.2h-4.4c-.8,0-1.2,0-1.4-.2-.2-.2-.2-.6-.2-1.4v-6.7c0-.8,0-1.2.2-1.4ZM458,837.8c0-.8-.7-1.5-1.5-1.5s-.2,0-.2.2v8.6c0,0,0,.2.2.2.8,0,1.5-.7,1.5-1.5v-5.9Z"/>
    <rect class="st1" x="463" y="818.3" width="30" height="30" rx="2" ry="2"/>
    <path class="st0" d="M507.8,830.5c-.2.2-.6.2-1.4.2h-4.4c-.8,0-1.2,0-1.4-.2-.2-.2-.2-.6-.2-1.4v-6.7c0-.8,0-1.2.2-1.4.2-.2.6-.2,1.4-.2h4.4c.8,0,1.2,0,1.4.2.2.2.2.6.2,1.4v6.7c0,.8,0,1.2-.2,1.4ZM498,828.7c0,.8.7,1.5,1.5,1.5s.2,0,.2-.2v-8.6c0,0,0-.2-.2-.2-.8,0-1.5.7-1.5,1.5v5.9Z"/>
    <path class="st0" d="M507.8,845.5c-.2.2-.6.2-1.4.2h-4.4c-.8,0-1.2,0-1.4-.2-.2-.2-.2-.6-.2-1.4v-6.7c0-.8,0-1.2.2-1.4.2-.2.6-.2,1.4-.2h4.4c.8,0,1.2,0,1.4.2.2.2.2.6.2,1.4v6.7c0,.8,0,1.2-.2,1.4ZM498,843.7c0,.8.7,1.5,1.5,1.5s.2,0,.2-.2v-8.6c0,0,0-.2-.2-.2-.8,0-1.5.7-1.5,1.5v5.9Z"/>
    <path class="st0" d="M465.7,865c-.2-.2-.2-.6-.2-1.4v-4.4c0-.8,0-1.2.2-1.4.2-.2.6-.2,1.4-.2h6.7c.8,0,1.2,0,1.4.2.2.2.2.6.2,1.4v4.4c0,.8,0,1.2-.2,1.4-.2.2-.6.2-1.4.2h-6.7c-.8,0-1.2,0-1.4-.2ZM467.6,855.3c-.8,0-1.5.7-1.5,1.5s0,.2.2.2h8.6c0,0,.2,0,.2-.2,0-.8-.7-1.5-1.5-1.5h-5.9Z"/>
    <path class="st0" d="M480.7,865c-.2-.2-.2-.6-.2-1.4v-4.4c0-.8,0-1.2.2-1.4.2-.2.6-.2,1.4-.2h6.7c.8,0,1.2,0,1.4.2.2.2.2.6.2,1.4v4.4c0,.8,0,1.2-.2,1.4-.2.2-.6.2-1.4.2h-6.7c-.8,0-1.2,0-1.4-.2ZM482.6,855.3c-.8,0-1.5.7-1.5,1.5s0,.2.2.2h8.6c0,0,.2,0,.2-.2,0-.8-.7-1.5-1.5-1.5h-5.9Z"/>
  </g>
  <g id="MV_x5F_16">
    <path class="st0" d="M825.3,161.5c.2.2.2.6.2,1.4v4.4c0,.8,0,1.2-.2,1.4-.2.2-.6.2-1.4.2h-6.7c-.8,0-1.2,0-1.4-.2-.2-.2-.2-.6-.2-1.4v-4.4c0-.8,0-1.2.2-1.4.2-.2.6-.2,1.4-.2h6.7c.8,0,1.2,0,1.4.2ZM823.4,171.3c.8,0,1.5-.7,1.5-1.5s0-.2-.2-.2h-8.6c0,0-.2,0-.2.2,0,.8.7,1.5,1.5,1.5h5.9Z"/>
    <path class="st0" d="M840.3,161.5c.2.2.2.6.2,1.4v4.4c0,.8,0,1.2-.2,1.4-.2.2-.6.2-1.4.2h-6.7c-.8,0-1.2,0-1.4-.2-.2-.2-.2-.6-.2-1.4v-4.4c0-.8,0-1.2.2-1.4.2-.2.6-.2,1.4-.2h6.7c.8,0,1.2,0,1.4.2ZM838.4,171.3c.8,0,1.5-.7,1.5-1.5s0-.2-.2-.2h-8.6c0,0-.2,0-.2.2,0,.8.7,1.5,1.5,1.5h5.9Z"/>
    <path class="st0" d="M798.2,181c.2-.2.6-.2,1.4-.2h4.4c.8,0,1.2,0,1.4.2.2.2.2.6.2,1.4v6.7c0,.8,0,1.2-.2,1.4s-.6.2-1.4.2h-4.4c-.8,0-1.2,0-1.4-.2-.2-.2-.2-.6-.2-1.4v-6.7c0-.8,0-1.2.2-1.4ZM808,182.8c0-.8-.7-1.5-1.5-1.5s-.2,0-.2.2v8.6c0,0,0,.2.2.2.8,0,1.5-.7,1.5-1.5v-5.9Z"/>
    <path class="st0" d="M798.2,196c.2-.2.6-.2,1.4-.2h4.4c.8,0,1.2,0,1.4.2.2.2.2.6.2,1.4v6.7c0,.8,0,1.2-.2,1.4s-.6.2-1.4.2h-4.4c-.8,0-1.2,0-1.4-.2-.2-.2-.2-.6-.2-1.4v-6.7c0-.8,0-1.2.2-1.4ZM808,197.8c0-.8-.7-1.5-1.5-1.5s-.2,0-.2.2v8.6c0,0,0,.2.2.2.8,0,1.5-.7,1.5-1.5v-5.9Z"/>
    <rect class="st1" x="813" y="178.3" width="30" height="30" rx="2" ry="2"/>
    <path class="st0" d="M857.8,190.5c-.2.2-.6.2-1.4.2h-4.4c-.8,0-1.2,0-1.4-.2s-.2-.6-.2-1.4v-6.7c0-.8,0-1.2.2-1.4.2-.2.6-.2,1.4-.2h4.4c.8,0,1.2,0,1.4.2.2.2.2.6.2,1.4v6.7c0,.8,0,1.2-.2,1.4ZM848,188.7c0,.8.7,1.5,1.5,1.5s.2,0,.2-.2v-8.6c0,0,0-.2-.2-.2-.8,0-1.5.7-1.5,1.5v5.9Z"/>
    <path class="st0" d="M857.8,205.5c-.2.2-.6.2-1.4.2h-4.4c-.8,0-1.2,0-1.4-.2s-.2-.6-.2-1.4v-6.7c0-.8,0-1.2.2-1.4.2-.2.6-.2,1.4-.2h4.4c.8,0,1.2,0,1.4.2.2.2.2.6.2,1.4v6.7c0,.8,0,1.2-.2,1.4ZM848,203.7c0,.8.7,1.5,1.5,1.5s.2,0,.2-.2v-8.6c0,0,0-.2-.2-.2-.8,0-1.5.7-1.5,1.5v5.9Z"/>
    <path class="st0" d="M815.7,225c-.2-.2-.2-.6-.2-1.4v-4.4c0-.8,0-1.2.2-1.4.2-.2.6-.2,1.4-.2h6.7c.8,0,1.2,0,1.4.2.2.2.2.6.2,1.4v4.4c0,.8,0,1.2-.2,1.4-.2.2-.6.2-1.4.2h-6.7c-.8,0-1.2,0-1.4-.2ZM817.6,215.3c-.8,0-1.5.7-1.5,1.5s0,.2.2.2h8.6c0,0,.2,0,.2-.2,0-.8-.7-1.5-1.5-1.5h-5.9Z"/>
    <path class="st0" d="M830.7,225c-.2-.2-.2-.6-.2-1.4v-4.4c0-.8,0-1.2.2-1.4.2-.2.6-.2,1.4-.2h6.7c.8,0,1.2,0,1.4.2.2.2.2.6.2,1.4v4.4c0,.8,0,1.2-.2,1.4-.2.2-.6.2-1.4.2h-6.7c-.8,0-1.2,0-1.4-.2ZM832.6,215.3c-.8,0-1.5.7-1.5,1.5s0,.2.2.2h8.6c0,0,.2,0,.2-.2,0-.8-.7-1.5-1.5-1.5h-5.9Z"/>
  </g>
  <g id="MV_x5F_17">
    <path class="st0" d="M825.3,257.5c.2.2.2.6.2,1.4v4.4c0,.8,0,1.2-.2,1.4-.2.2-.6.2-1.4.2h-6.7c-.8,0-1.2,0-1.4-.2-.2-.2-.2-.6-.2-1.4v-4.4c0-.8,0-1.2.2-1.4.2-.2.6-.2,1.4-.2h6.7c.8,0,1.2,0,1.4.2ZM823.4,267.3c.8,0,1.5-.7,1.5-1.5s0-.2-.2-.2h-8.6c0,0-.2,0-.2.2,0,.8.7,1.5,1.5,1.5h5.9Z"/>
    <path class="st0" d="M840.3,257.5c.2.2.2.6.2,1.4v4.4c0,.8,0,1.2-.2,1.4-.2.2-.6.2-1.4.2h-6.7c-.8,0-1.2,0-1.4-.2-.2-.2-.2-.6-.2-1.4v-4.4c0-.8,0-1.2.2-1.4.2-.2.6-.2,1.4-.2h6.7c.8,0,1.2,0,1.4.2ZM838.4,267.3c.8,0,1.5-.7,1.5-1.5s0-.2-.2-.2h-8.6c0,0-.2,0-.2.2,0,.8.7,1.5,1.5,1.5h5.9Z"/>
    <path class="st0" d="M798.2,277c.2-.2.6-.2,1.4-.2h4.4c.8,0,1.2,0,1.4.2.2.2.2.6.2,1.4v6.7c0,.8,0,1.2-.2,1.4-.2.2-.6.2-1.4.2h-4.4c-.8,0-1.2,0-1.4-.2-.2-.2-.2-.6-.2-1.4v-6.7c0-.8,0-1.2.2-1.4ZM808,278.8c0-.8-.7-1.5-1.5-1.5s-.2,0-.2.2v8.6c0,0,0,.2.2.2.8,0,1.5-.7,1.5-1.5v-5.9Z"/>
    <path class="st0" d="M798.2,292c.2-.2.6-.2,1.4-.2h4.4c.8,0,1.2,0,1.4.2.2.2.2.6.2,1.4v6.7c0,.8,0,1.2-.2,1.4-.2.2-.6.2-1.4.2h-4.4c-.8,0-1.2,0-1.4-.2-.2-.2-.2-.6-.2-1.4v-6.7c0-.8,0-1.2.2-1.4ZM808,293.8c0-.8-.7-1.5-1.5-1.5s-.2,0-.2.2v8.6c0,0,0,.2.2.2.8,0,1.5-.7,1.5-1.5v-5.9Z"/>
    <rect class="st1" x="813" y="274.3" width="30" height="30" rx="2" ry="2"/>
    <path class="st0" d="M857.8,286.5c-.2.2-.6.2-1.4.2h-4.4c-.8,0-1.2,0-1.4-.2-.2-.2-.2-.6-.2-1.4v-6.7c0-.8,0-1.2.2-1.4.2-.2.6-.2,1.4-.2h4.4c.8,0,1.2,0,1.4.2.2.2.2.6.2,1.4v6.7c0,.8,0,1.2-.2,1.4ZM848,284.7c0,.8.7,1.5,1.5,1.5s.2,0,.2-.2v-8.6c0,0,0-.2-.2-.2-.8,0-1.5.7-1.5,1.5v5.9Z"/>
    <path class="st0" d="M857.8,301.5c-.2.2-.6.2-1.4.2h-4.4c-.8,0-1.2,0-1.4-.2-.2-.2-.2-.6-.2-1.4v-6.7c0-.8,0-1.2.2-1.4.2-.2.6-.2,1.4-.2h4.4c.8,0,1.2,0,1.4.2.2.2.2.6.2,1.4v6.7c0,.8,0,1.2-.2,1.4ZM848,299.7c0,.8.7,1.5,1.5,1.5s.2,0,.2-.2v-8.6c0,0,0-.2-.2-.2-.8,0-1.5.7-1.5,1.5v5.9Z"/>
    <path class="st0" d="M815.7,321c-.2-.2-.2-.6-.2-1.4v-4.4c0-.8,0-1.2.2-1.4.2-.2.6-.2,1.4-.2h6.7c.8,0,1.2,0,1.4.2.2.2.2.6.2,1.4v4.4c0,.8,0,1.2-.2,1.4-.2.2-.6.2-1.4.2h-6.7c-.8,0-1.2,0-1.4-.2ZM817.6,311.3c-.8,0-1.5.7-1.5,1.5s0,.2.2.2h8.6c0,0,.2,0,.2-.2,0-.8-.7-1.5-1.5-1.5h-5.9Z"/>
    <path class="st0" d="M830.7,321c-.2-.2-.2-.6-.2-1.4v-4.4c0-.8,0-1.2.2-1.4.2-.2.6-.2,1.4-.2h6.7c.8,0,1.2,0,1.4.2.2.2.2.6.2,1.4v4.4c0,.8,0,1.2-.2,1.4-.2.2-.6.2-1.4.2h-6.7c-.8,0-1.2,0-1.4-.2ZM832.6,311.3c-.8,0-1.5.7-1.5,1.5s0,.2.2.2h8.6c0,0,.2,0,.2-.2,0-.8-.7-1.5-1.5-1.5h-5.9Z"/>
  </g>
  <g id="MV_x5F_18">
    <path class="st0" d="M825.3,353.5c.2.2.2.6.2,1.4v4.4c0,.8,0,1.2-.2,1.4-.2.2-.6.2-1.4.2h-6.7c-.8,0-1.2,0-1.4-.2-.2-.2-.2-.6-.2-1.4v-4.4c0-.8,0-1.2.2-1.4.2-.2.6-.2,1.4-.2h6.7c.8,0,1.2,0,1.4.2ZM823.4,363.3c.8,0,1.5-.7,1.5-1.5s0-.2-.2-.2h-8.6c0,0-.2,0-.2.2,0,.8.7,1.5,1.5,1.5h5.9Z"/>
    <path class="st0" d="M840.3,353.5c.2.2.2.6.2,1.4v4.4c0,.8,0,1.2-.2,1.4-.2.2-.6.2-1.4.2h-6.7c-.8,0-1.2,0-1.4-.2-.2-.2-.2-.6-.2-1.4v-4.4c0-.8,0-1.2.2-1.4.2-.2.6-.2,1.4-.2h6.7c.8,0,1.2,0,1.4.2ZM838.4,363.3c.8,0,1.5-.7,1.5-1.5s0-.2-.2-.2h-8.6c0,0-.2,0-.2.2,0,.8.7,1.5,1.5,1.5h5.9Z"/>
    <path class="st0" d="M798.2,373c.2-.2.6-.2,1.4-.2h4.4c.8,0,1.2,0,1.4.2.2.2.2.6.2,1.4v6.7c0,.8,0,1.2-.2,1.4-.2.2-.6.2-1.4.2h-4.4c-.8,0-1.2,0-1.4-.2-.2-.2-.2-.6-.2-1.4v-6.7c0-.8,0-1.2.2-1.4ZM808,374.8c0-.8-.7-1.5-1.5-1.5s-.2,0-.2.2v8.6c0,0,0,.2.2.2.8,0,1.5-.7,1.5-1.5v-5.9Z"/>
    <path class="st0" d="M798.2,388c.2-.2.6-.2,1.4-.2h4.4c.8,0,1.2,0,1.4.2.2.2.2.6.2,1.4v6.7c0,.8,0,1.2-.2,1.4-.2.2-.6.2-1.4.2h-4.4c-.8,0-1.2,0-1.4-.2-.2-.2-.2-.6-.2-1.4v-6.7c0-.8,0-1.2.2-1.4ZM808,389.8c0-.8-.7-1.5-1.5-1.5s-.2,0-.2.2v8.6c0,0,0,.2.2.2.8,0,1.5-.7,1.5-1.5v-5.9Z"/>
    <rect class="st1" x="813" y="370.3" width="30" height="30" rx="2" ry="2"/>
    <path class="st0" d="M857.8,382.5c-.2.2-.6.2-1.4.2h-4.4c-.8,0-1.2,0-1.4-.2-.2-.2-.2-.6-.2-1.4v-6.7c0-.8,0-1.2.2-1.4.2-.2.6-.2,1.4-.2h4.4c.8,0,1.2,0,1.4.2.2.2.2.6.2,1.4v6.7c0,.8,0,1.2-.2,1.4ZM848,380.7c0,.8.7,1.5,1.5,1.5s.2,0,.2-.2v-8.6c0,0,0-.2-.2-.2-.8,0-1.5.7-1.5,1.5v5.9Z"/>
    <path class="st0" d="M857.8,397.5c-.2.2-.6.2-1.4.2h-4.4c-.8,0-1.2,0-1.4-.2-.2-.2-.2-.6-.2-1.4v-6.7c0-.8,0-1.2.2-1.4.2-.2.6-.2,1.4-.2h4.4c.8,0,1.2,0,1.4.2.2.2.2.6.2,1.4v6.7c0,.8,0,1.2-.2,1.4ZM848,395.7c0,.8.7,1.5,1.5,1.5s.2,0,.2-.2v-8.6c0,0,0-.2-.2-.2-.8,0-1.5.7-1.5,1.5v5.9Z"/>
    <path class="st0" d="M815.7,417c-.2-.2-.2-.6-.2-1.4v-4.4c0-.8,0-1.2.2-1.4.2-.2.6-.2,1.4-.2h6.7c.8,0,1.2,0,1.4.2.2.2.2.6.2,1.4v4.4c0,.8,0,1.2-.2,1.4-.2.2-.6.2-1.4.2h-6.7c-.8,0-1.2,0-1.4-.2ZM817.6,407.3c-.8,0-1.5.7-1.5,1.5s0,.2.2.2h8.6c0,0,.2,0,.2-.2,0-.8-.7-1.5-1.5-1.5h-5.9Z"/>
    <path class="st0" d="M830.7,417c-.2-.2-.2-.6-.2-1.4v-4.4c0-.8,0-1.2.2-1.4.2-.2.6-.2,1.4-.2h6.7c.8,0,1.2,0,1.4.2.2.2.2.6.2,1.4v4.4c0,.8,0,1.2-.2,1.4-.2.2-.6.2-1.4.2h-6.7c-.8,0-1.2,0-1.4-.2ZM832.6,407.3c-.8,0-1.5.7-1.5,1.5s0,.2.2.2h8.6c0,0,.2,0,.2-.2,0-.8-.7-1.5-1.5-1.5h-5.9Z"/>
  </g>
  <g id="MV_x5F_19">
    <path class="st0" d="M825.3,449.5c.2.2.2.6.2,1.4v4.4c0,.8,0,1.2-.2,1.4-.2.2-.6.2-1.4.2h-6.7c-.8,0-1.2,0-1.4-.2-.2-.2-.2-.6-.2-1.4v-4.4c0-.8,0-1.2.2-1.4.2-.2.6-.2,1.4-.2h6.7c.8,0,1.2,0,1.4.2ZM823.4,459.3c.8,0,1.5-.7,1.5-1.5s0-.2-.2-.2h-8.6c0,0-.2,0-.2.2,0,.8.7,1.5,1.5,1.5h5.9Z"/>
    <path class="st0" d="M840.3,449.5c.2.2.2.6.2,1.4v4.4c0,.8,0,1.2-.2,1.4-.2.2-.6.2-1.4.2h-6.7c-.8,0-1.2,0-1.4-.2-.2-.2-.2-.6-.2-1.4v-4.4c0-.8,0-1.2.2-1.4.2-.2.6-.2,1.4-.2h6.7c.8,0,1.2,0,1.4.2ZM838.4,459.3c.8,0,1.5-.7,1.5-1.5s0-.2-.2-.2h-8.6c0,0-.2,0-.2.2,0,.8.7,1.5,1.5,1.5h5.9Z"/>
    <path class="st0" d="M798.2,469c.2-.2.6-.2,1.4-.2h4.4c.8,0,1.2,0,1.4.2.2.2.2.6.2,1.4v6.7c0,.8,0,1.2-.2,1.4-.2.2-.6.2-1.4.2h-4.4c-.8,0-1.2,0-1.4-.2-.2-.2-.2-.6-.2-1.4v-6.7c0-.8,0-1.2.2-1.4ZM808,470.8c0-.8-.7-1.5-1.5-1.5s-.2,0-.2.2v8.6c0,0,0,.2.2.2.8,0,1.5-.7,1.5-1.5v-5.9Z"/>
    <path class="st0" d="M798.2,484c.2-.2.6-.2,1.4-.2h4.4c.8,0,1.2,0,1.4.2.2.2.2.6.2,1.4v6.7c0,.8,0,1.2-.2,1.4-.2.2-.6.2-1.4.2h-4.4c-.8,0-1.2,0-1.4-.2-.2-.2-.2-.6-.2-1.4v-6.7c0-.8,0-1.2.2-1.4ZM808,485.8c0-.8-.7-1.5-1.5-1.5s-.2,0-.2.2v8.6c0,0,0,.2.2.2.8,0,1.5-.7,1.5-1.5v-5.9Z"/>
    <rect class="st1" x="813" y="466.3" width="30" height="30" rx="2" ry="2"/>
    <path class="st0" d="M857.8,478.5c-.2.2-.6.2-1.4.2h-4.4c-.8,0-1.2,0-1.4-.2-.2-.2-.2-.6-.2-1.4v-6.7c0-.8,0-1.2.2-1.4.2-.2.6-.2,1.4-.2h4.4c.8,0,1.2,0,1.4.2.2.2.2.6.2,1.4v6.7c0,.8,0,1.2-.2,1.4ZM848,476.7c0,.8.7,1.5,1.5,1.5s.2,0,.2-.2v-8.6c0,0,0-.2-.2-.2-.8,0-1.5.7-1.5,1.5v5.9Z"/>
    <path class="st0" d="M857.8,493.5c-.2.2-.6.2-1.4.2h-4.4c-.8,0-1.2,0-1.4-.2-.2-.2-.2-.6-.2-1.4v-6.7c0-.8,0-1.2.2-1.4.2-.2.6-.2,1.4-.2h4.4c.8,0,1.2,0,1.4.2.2.2.2.6.2,1.4v6.7c0,.8,0,1.2-.2,1.4ZM848,491.7c0,.8.7,1.5,1.5,1.5s.2,0,.2-.2v-8.6c0,0,0-.2-.2-.2-.8,0-1.5.7-1.5,1.5v5.9Z"/>
    <path class="st0" d="M815.7,513c-.2-.2-.2-.6-.2-1.4v-4.4c0-.8,0-1.2.2-1.4.2-.2.6-.2,1.4-.2h6.7c.8,0,1.2,0,1.4.2.2.2.2.6.2,1.4v4.4c0,.8,0,1.2-.2,1.4s-.6.2-1.4.2h-6.7c-.8,0-1.2,0-1.4-.2ZM817.6,503.3c-.8,0-1.5.7-1.5,1.5s0,.2.2.2h8.6c0,0,.2,0,.2-.2,0-.8-.7-1.5-1.5-1.5h-5.9Z"/>
    <path class="st0" d="M830.7,513c-.2-.2-.2-.6-.2-1.4v-4.4c0-.8,0-1.2.2-1.4.2-.2.6-.2,1.4-.2h6.7c.8,0,1.2,0,1.4.2.2.2.2.6.2,1.4v4.4c0,.8,0,1.2-.2,1.4s-.6.2-1.4.2h-6.7c-.8,0-1.2,0-1.4-.2ZM832.6,503.3c-.8,0-1.5.7-1.5,1.5s0,.2.2.2h8.6c0,0,.2,0,.2-.2,0-.8-.7-1.5-1.5-1.5h-5.9Z"/>
  </g>
  <g id="MV_x5F_20">
    <path class="st0" d="M825.3,545.5c.2.2.2.6.2,1.4v4.4c0,.8,0,1.2-.2,1.4s-.6.2-1.4.2h-6.7c-.8,0-1.2,0-1.4-.2s-.2-.6-.2-1.4v-4.4c0-.8,0-1.2.2-1.4.2-.2.6-.2,1.4-.2h6.7c.8,0,1.2,0,1.4.2ZM823.4,555.3c.8,0,1.5-.7,1.5-1.5s0-.2-.2-.2h-8.6c0,0-.2,0-.2.2,0,.8.7,1.5,1.5,1.5h5.9Z"/>
    <path class="st0" d="M840.3,545.5c.2.2.2.6.2,1.4v4.4c0,.8,0,1.2-.2,1.4s-.6.2-1.4.2h-6.7c-.8,0-1.2,0-1.4-.2s-.2-.6-.2-1.4v-4.4c0-.8,0-1.2.2-1.4.2-.2.6-.2,1.4-.2h6.7c.8,0,1.2,0,1.4.2ZM838.4,555.3c.8,0,1.5-.7,1.5-1.5s0-.2-.2-.2h-8.6c0,0-.2,0-.2.2,0,.8.7,1.5,1.5,1.5h5.9Z"/>
    <path class="st0" d="M798.2,565c.2-.2.6-.2,1.4-.2h4.4c.8,0,1.2,0,1.4.2s.2.6.2,1.4v6.7c0,.8,0,1.2-.2,1.4-.2.2-.6.2-1.4.2h-4.4c-.8,0-1.2,0-1.4-.2s-.2-.6-.2-1.4v-6.7c0-.8,0-1.2.2-1.4ZM808,566.8c0-.8-.7-1.5-1.5-1.5s-.2,0-.2.2v8.6c0,0,0,.2.2.2.8,0,1.5-.7,1.5-1.5v-5.9Z"/>
    <path class="st0" d="M798.2,580c.2-.2.6-.2,1.4-.2h4.4c.8,0,1.2,0,1.4.2s.2.6.2,1.4v6.7c0,.8,0,1.2-.2,1.4-.2.2-.6.2-1.4.2h-4.4c-.8,0-1.2,0-1.4-.2s-.2-.6-.2-1.4v-6.7c0-.8,0-1.2.2-1.4ZM808,581.8c0-.8-.7-1.5-1.5-1.5s-.2,0-.2.2v8.6c0,0,0,.2.2.2.8,0,1.5-.7,1.5-1.5v-5.9Z"/>
    <rect class="st1" x="813" y="562.3" width="30" height="30" rx="2" ry="2"/>
    <path class="st0" d="M857.8,574.5c-.2.2-.6.2-1.4.2h-4.4c-.8,0-1.2,0-1.4-.2-.2-.2-.2-.6-.2-1.4v-6.7c0-.8,0-1.2.2-1.4s.6-.2,1.4-.2h4.4c.8,0,1.2,0,1.4.2.2.2.2.6.2,1.4v6.7c0,.8,0,1.2-.2,1.4ZM848,572.7c0,.8.7,1.5,1.5,1.5s.2,0,.2-.2v-8.6c0,0,0-.2-.2-.2-.8,0-1.5.7-1.5,1.5v5.9Z"/>
    <path class="st0" d="M857.8,589.5c-.2.2-.6.2-1.4.2h-4.4c-.8,0-1.2,0-1.4-.2-.2-.2-.2-.6-.2-1.4v-6.7c0-.8,0-1.2.2-1.4s.6-.2,1.4-.2h4.4c.8,0,1.2,0,1.4.2.2.2.2.6.2,1.4v6.7c0,.8,0,1.2-.2,1.4ZM848,587.7c0,.8.7,1.5,1.5,1.5s.2,0,.2-.2v-8.6c0,0,0-.2-.2-.2-.8,0-1.5.7-1.5,1.5v5.9Z"/>
    <path class="st0" d="M815.7,609c-.2-.2-.2-.6-.2-1.4v-4.4c0-.8,0-1.2.2-1.4s.6-.2,1.4-.2h6.7c.8,0,1.2,0,1.4.2s.2.6.2,1.4v4.4c0,.8,0,1.2-.2,1.4s-.6.2-1.4.2h-6.7c-.8,0-1.2,0-1.4-.2ZM817.6,599.3c-.8,0-1.5.7-1.5,1.5s0,.2.2.2h8.6c0,0,.2,0,.2-.2,0-.8-.7-1.5-1.5-1.5h-5.9Z"/>
    <path class="st0" d="M830.7,609c-.2-.2-.2-.6-.2-1.4v-4.4c0-.8,0-1.2.2-1.4s.6-.2,1.4-.2h6.7c.8,0,1.2,0,1.4.2s.2.6.2,1.4v4.4c0,.8,0,1.2-.2,1.4s-.6.2-1.4.2h-6.7c-.8,0-1.2,0-1.4-.2ZM832.6,599.3c-.8,0-1.5.7-1.5,1.5s0,.2.2.2h8.6c0,0,.2,0,.2-.2,0-.8-.7-1.5-1.5-1.5h-5.9Z"/>
  </g>
  <g id="MV_x5F_21">
    <path class="st0" d="M825.3,641.5c.2.2.2.6.2,1.4v4.4c0,.8,0,1.2-.2,1.4s-.6.2-1.4.2h-6.7c-.8,0-1.2,0-1.4-.2s-.2-.6-.2-1.4v-4.4c0-.8,0-1.2.2-1.4.2-.2.6-.2,1.4-.2h6.7c.8,0,1.2,0,1.4.2ZM823.4,651.3c.8,0,1.5-.7,1.5-1.5s0-.2-.2-.2h-8.6c0,0-.2,0-.2.2,0,.8.7,1.5,1.5,1.5h5.9Z"/>
    <path class="st0" d="M840.3,641.5c.2.2.2.6.2,1.4v4.4c0,.8,0,1.2-.2,1.4s-.6.2-1.4.2h-6.7c-.8,0-1.2,0-1.4-.2s-.2-.6-.2-1.4v-4.4c0-.8,0-1.2.2-1.4.2-.2.6-.2,1.4-.2h6.7c.8,0,1.2,0,1.4.2ZM838.4,651.3c.8,0,1.5-.7,1.5-1.5s0-.2-.2-.2h-8.6c0,0-.2,0-.2.2,0,.8.7,1.5,1.5,1.5h5.9Z"/>
    <path class="st0" d="M798.2,661c.2-.2.6-.2,1.4-.2h4.4c.8,0,1.2,0,1.4.2s.2.6.2,1.4v6.7c0,.8,0,1.2-.2,1.4-.2.2-.6.2-1.4.2h-4.4c-.8,0-1.2,0-1.4-.2s-.2-.6-.2-1.4v-6.7c0-.8,0-1.2.2-1.4ZM808,662.8c0-.8-.7-1.5-1.5-1.5s-.2,0-.2.2v8.6c0,0,0,.2.2.2.8,0,1.5-.7,1.5-1.5v-5.9Z"/>
    <path class="st0" d="M798.2,676c.2-.2.6-.2,1.4-.2h4.4c.8,0,1.2,0,1.4.2s.2.6.2,1.4v6.7c0,.8,0,1.2-.2,1.4-.2.2-.6.2-1.4.2h-4.4c-.8,0-1.2,0-1.4-.2s-.2-.6-.2-1.4v-6.7c0-.8,0-1.2.2-1.4ZM808,677.8c0-.8-.7-1.5-1.5-1.5s-.2,0-.2.2v8.6c0,0,0,.2.2.2.8,0,1.5-.7,1.5-1.5v-5.9Z"/>
    <rect class="st1" x="813" y="658.3" width="30" height="30" rx="2" ry="2"/>
    <path class="st0" d="M857.8,670.5c-.2.2-.6.2-1.4.2h-4.4c-.8,0-1.2,0-1.4-.2-.2-.2-.2-.6-.2-1.4v-6.7c0-.8,0-1.2.2-1.4s.6-.2,1.4-.2h4.4c.8,0,1.2,0,1.4.2.2.2.2.6.2,1.4v6.7c0,.8,0,1.2-.2,1.4ZM848,668.7c0,.8.7,1.5,1.5,1.5s.2,0,.2-.2v-8.6c0,0,0-.2-.2-.2-.8,0-1.5.7-1.5,1.5v5.9Z"/>
    <path class="st0" d="M857.8,685.5c-.2.2-.6.2-1.4.2h-4.4c-.8,0-1.2,0-1.4-.2-.2-.2-.2-.6-.2-1.4v-6.7c0-.8,0-1.2.2-1.4s.6-.2,1.4-.2h4.4c.8,0,1.2,0,1.4.2.2.2.2.6.2,1.4v6.7c0,.8,0,1.2-.2,1.4ZM848,683.7c0,.8.7,1.5,1.5,1.5s.2,0,.2-.2v-8.6c0,0,0-.2-.2-.2-.8,0-1.5.7-1.5,1.5v5.9Z"/>
    <path class="st0" d="M815.7,705c-.2-.2-.2-.6-.2-1.4v-4.4c0-.8,0-1.2.2-1.4s.6-.2,1.4-.2h6.7c.8,0,1.2,0,1.4.2s.2.6.2,1.4v4.4c0,.8,0,1.2-.2,1.4s-.6.2-1.4.2h-6.7c-.8,0-1.2,0-1.4-.2ZM817.6,695.3c-.8,0-1.5.7-1.5,1.5s0,.2.2.2h8.6c0,0,.2,0,.2-.2,0-.8-.7-1.5-1.5-1.5h-5.9Z"/>
    <path class="st0" d="M830.7,705c-.2-.2-.2-.6-.2-1.4v-4.4c0-.8,0-1.2.2-1.4s.6-.2,1.4-.2h6.7c.8,0,1.2,0,1.4.2s.2.6.2,1.4v4.4c0,.8,0,1.2-.2,1.4s-.6.2-1.4.2h-6.7c-.8,0-1.2,0-1.4-.2ZM832.6,695.3c-.8,0-1.5.7-1.5,1.5s0,.2.2.2h8.6c0,0,.2,0,.2-.2,0-.8-.7-1.5-1.5-1.5h-5.9Z"/>
  </g>
  <g id="MV_x5F_22">
    <path class="st0" d="M633.3,897.5c.2.2.2.6.2,1.4v4.4c0,.8,0,1.2-.2,1.4s-.6.2-1.4.2h-6.7c-.8,0-1.2,0-1.4-.2s-.2-.6-.2-1.4v-4.4c0-.8,0-1.2.2-1.4.2-.2.6-.2,1.4-.2h6.7c.8,0,1.2,0,1.4.2ZM631.4,907.3c.8,0,1.5-.7,1.5-1.5s0-.2-.2-.2h-8.6c0,0-.2,0-.2.2,0,.8.7,1.5,1.5,1.5h5.9Z"/>
    <path class="st0" d="M648.3,897.5c.2.2.2.6.2,1.4v4.4c0,.8,0,1.2-.2,1.4s-.6.2-1.4.2h-6.7c-.8,0-1.2,0-1.4-.2s-.2-.6-.2-1.4v-4.4c0-.8,0-1.2.2-1.4.2-.2.6-.2,1.4-.2h6.7c.8,0,1.2,0,1.4.2ZM646.4,907.3c.8,0,1.5-.7,1.5-1.5s0-.2-.2-.2h-8.6c0,0-.2,0-.2.2,0,.8.7,1.5,1.5,1.5h5.9Z"/>
    <path class="st0" d="M606.2,917c.2-.2.6-.2,1.4-.2h4.4c.8,0,1.2,0,1.4.2s.2.6.2,1.4v6.7c0,.8,0,1.2-.2,1.4-.2.2-.6.2-1.4.2h-4.4c-.8,0-1.2,0-1.4-.2s-.2-.6-.2-1.4v-6.7c0-.8,0-1.2.2-1.4ZM616,918.8c0-.8-.7-1.5-1.5-1.5s-.2,0-.2.2v8.6c0,0,0,.2.2.2.8,0,1.5-.7,1.5-1.5v-5.9Z"/>
    <path class="st0" d="M606.2,932c.2-.2.6-.2,1.4-.2h4.4c.8,0,1.2,0,1.4.2s.2.6.2,1.4v6.7c0,.8,0,1.2-.2,1.4-.2.2-.6.2-1.4.2h-4.4c-.8,0-1.2,0-1.4-.2s-.2-.6-.2-1.4v-6.7c0-.8,0-1.2.2-1.4ZM616,933.8c0-.8-.7-1.5-1.5-1.5s-.2,0-.2.2v8.6c0,0,0,.2.2.2.8,0,1.5-.7,1.5-1.5v-5.9Z"/>
    <rect class="st1" x="621" y="914.3" width="30" height="30" rx="2" ry="2"/>
    <path class="st0" d="M665.8,926.5c-.2.2-.6.2-1.4.2h-4.4c-.8,0-1.2,0-1.4-.2-.2-.2-.2-.6-.2-1.4v-6.7c0-.8,0-1.2.2-1.4s.6-.2,1.4-.2h4.4c.8,0,1.2,0,1.4.2.2.2.2.6.2,1.4v6.7c0,.8,0,1.2-.2,1.4ZM656,924.7c0,.8.7,1.5,1.5,1.5s.2,0,.2-.2v-8.6c0,0,0-.2-.2-.2-.8,0-1.5.7-1.5,1.5v5.9Z"/>
    <path class="st0" d="M665.8,941.5c-.2.2-.6.2-1.4.2h-4.4c-.8,0-1.2,0-1.4-.2-.2-.2-.2-.6-.2-1.4v-6.7c0-.8,0-1.2.2-1.4s.6-.2,1.4-.2h4.4c.8,0,1.2,0,1.4.2.2.2.2.6.2,1.4v6.7c0,.8,0,1.2-.2,1.4ZM656,939.7c0,.8.7,1.5,1.5,1.5s.2,0,.2-.2v-8.6c0,0,0-.2-.2-.2-.8,0-1.5.7-1.5,1.5v5.9Z"/>
    <path class="st0" d="M623.7,961c-.2-.2-.2-.6-.2-1.4v-4.4c0-.8,0-1.2.2-1.4s.6-.2,1.4-.2h6.7c.8,0,1.2,0,1.4.2s.2.6.2,1.4v4.4c0,.8,0,1.2-.2,1.4s-.6.2-1.4.2h-6.7c-.8,0-1.2,0-1.4-.2ZM625.6,951.3c-.8,0-1.5.7-1.5,1.5s0,.2.2.2h8.6c0,0,.2,0,.2-.2,0-.8-.7-1.5-1.5-1.5h-5.9Z"/>
    <path class="st0" d="M638.7,961c-.2-.2-.2-.6-.2-1.4v-4.4c0-.8,0-1.2.2-1.4s.6-.2,1.4-.2h6.7c.8,0,1.2,0,1.4.2s.2.6.2,1.4v4.4c0,.8,0,1.2-.2,1.4s-.6.2-1.4.2h-6.7c-.8,0-1.2,0-1.4-.2ZM640.6,951.3c-.8,0-1.5.7-1.5,1.5s0,.2.2.2h8.6c0,0,.2,0,.2-.2,0-.8-.7-1.5-1.5-1.5h-5.9Z"/>
  </g>
  <g id="MV_x5F_23">
    <path class="st0" d="M554.3,897.5c.2.2.2.6.2,1.4v4.4c0,.8,0,1.2-.2,1.4s-.6.2-1.4.2h-6.7c-.8,0-1.2,0-1.4-.2s-.2-.6-.2-1.4v-4.4c0-.8,0-1.2.2-1.4.2-.2.6-.2,1.4-.2h6.7c.8,0,1.2,0,1.4.2ZM552.4,907.3c.8,0,1.5-.7,1.5-1.5s0-.2-.2-.2h-8.6c0,0-.2,0-.2.2,0,.8.7,1.5,1.5,1.5h5.9Z"/>
    <path class="st0" d="M569.3,897.5c.2.2.2.6.2,1.4v4.4c0,.8,0,1.2-.2,1.4s-.6.2-1.4.2h-6.7c-.8,0-1.2,0-1.4-.2s-.2-.6-.2-1.4v-4.4c0-.8,0-1.2.2-1.4.2-.2.6-.2,1.4-.2h6.7c.8,0,1.2,0,1.4.2ZM567.4,907.3c.8,0,1.5-.7,1.5-1.5s0-.2-.2-.2h-8.6c0,0-.2,0-.2.2,0,.8.7,1.5,1.5,1.5h5.9Z"/>
    <path class="st0" d="M527.2,917c.2-.2.6-.2,1.4-.2h4.4c.8,0,1.2,0,1.4.2s.2.6.2,1.4v6.7c0,.8,0,1.2-.2,1.4-.2.2-.6.2-1.4.2h-4.4c-.8,0-1.2,0-1.4-.2s-.2-.6-.2-1.4v-6.7c0-.8,0-1.2.2-1.4ZM537,918.8c0-.8-.7-1.5-1.5-1.5s-.2,0-.2.2v8.6c0,0,0,.2.2.2.8,0,1.5-.7,1.5-1.5v-5.9Z"/>
    <path class="st0" d="M527.2,932c.2-.2.6-.2,1.4-.2h4.4c.8,0,1.2,0,1.4.2s.2.6.2,1.4v6.7c0,.8,0,1.2-.2,1.4-.2.2-.6.2-1.4.2h-4.4c-.8,0-1.2,0-1.4-.2s-.2-.6-.2-1.4v-6.7c0-.8,0-1.2.2-1.4ZM537,933.8c0-.8-.7-1.5-1.5-1.5s-.2,0-.2.2v8.6c0,0,0,.2.2.2.8,0,1.5-.7,1.5-1.5v-5.9Z"/>
    <rect class="st1" x="542" y="914.3" width="30" height="30" rx="2" ry="2"/>
    <path class="st0" d="M586.8,926.5c-.2.2-.6.2-1.4.2h-4.4c-.8,0-1.2,0-1.4-.2-.2-.2-.2-.6-.2-1.4v-6.7c0-.8,0-1.2.2-1.4s.6-.2,1.4-.2h4.4c.8,0,1.2,0,1.4.2.2.2.2.6.2,1.4v6.7c0,.8,0,1.2-.2,1.4ZM577,924.7c0,.8.7,1.5,1.5,1.5s.2,0,.2-.2v-8.6c0,0,0-.2-.2-.2-.8,0-1.5.7-1.5,1.5v5.9Z"/>
    <path class="st0" d="M586.8,941.5c-.2.2-.6.2-1.4.2h-4.4c-.8,0-1.2,0-1.4-.2-.2-.2-.2-.6-.2-1.4v-6.7c0-.8,0-1.2.2-1.4s.6-.2,1.4-.2h4.4c.8,0,1.2,0,1.4.2.2.2.2.6.2,1.4v6.7c0,.8,0,1.2-.2,1.4ZM577,939.7c0,.8.7,1.5,1.5,1.5s.2,0,.2-.2v-8.6c0,0,0-.2-.2-.2-.8,0-1.5.7-1.5,1.5v5.9Z"/>
    <path class="st0" d="M544.7,961c-.2-.2-.2-.6-.2-1.4v-4.4c0-.8,0-1.2.2-1.4s.6-.2,1.4-.2h6.7c.8,0,1.2,0,1.4.2s.2.6.2,1.4v4.4c0,.8,0,1.2-.2,1.4s-.6.2-1.4.2h-6.7c-.8,0-1.2,0-1.4-.2ZM546.6,951.3c-.8,0-1.5.7-1.5,1.5s0,.2.2.2h8.6c0,0,.2,0,.2-.2,0-.8-.7-1.5-1.5-1.5h-5.9Z"/>
    <path class="st0" d="M559.7,961c-.2-.2-.2-.6-.2-1.4v-4.4c0-.8,0-1.2.2-1.4s.6-.2,1.4-.2h6.7c.8,0,1.2,0,1.4.2s.2.6.2,1.4v4.4c0,.8,0,1.2-.2,1.4s-.6.2-1.4.2h-6.7c-.8,0-1.2,0-1.4-.2ZM561.6,951.3c-.8,0-1.5.7-1.5,1.5s0,.2.2.2h8.6c0,0,.2,0,.2-.2,0-.8-.7-1.5-1.5-1.5h-5.9Z"/>
  </g>
  <g id="MV_x5F_24">
    <path class="st0" d="M475.3,897.5c.2.2.2.6.2,1.4v4.4c0,.8,0,1.2-.2,1.4-.2.2-.6.2-1.4.2h-6.7c-.8,0-1.2,0-1.4-.2-.2-.2-.2-.6-.2-1.4v-4.4c0-.8,0-1.2.2-1.4.2-.2.6-.2,1.4-.2h6.7c.8,0,1.2,0,1.4.2ZM473.4,907.3c.8,0,1.5-.7,1.5-1.5s0-.2-.2-.2h-8.6c0,0-.2,0-.2.2,0,.8.7,1.5,1.5,1.5h5.9Z"/>
    <path class="st0" d="M490.3,897.5c.2.2.2.6.2,1.4v4.4c0,.8,0,1.2-.2,1.4-.2.2-.6.2-1.4.2h-6.7c-.8,0-1.2,0-1.4-.2-.2-.2-.2-.6-.2-1.4v-4.4c0-.8,0-1.2.2-1.4.2-.2.6-.2,1.4-.2h6.7c.8,0,1.2,0,1.4.2ZM488.4,907.3c.8,0,1.5-.7,1.5-1.5s0-.2-.2-.2h-8.6c0,0-.2,0-.2.2,0,.8.7,1.5,1.5,1.5h5.9Z"/>
    <path class="st0" d="M448.2,917c.2-.2.6-.2,1.4-.2h4.4c.8,0,1.2,0,1.4.2.2.2.2.6.2,1.4v6.7c0,.8,0,1.2-.2,1.4-.2.2-.6.2-1.4.2h-4.4c-.8,0-1.2,0-1.4-.2-.2-.2-.2-.6-.2-1.4v-6.7c0-.8,0-1.2.2-1.4ZM458,918.8c0-.8-.7-1.5-1.5-1.5s-.2,0-.2.2v8.6c0,0,0,.2.2.2.8,0,1.5-.7,1.5-1.5v-5.9Z"/>
    <path class="st0" d="M448.2,932c.2-.2.6-.2,1.4-.2h4.4c.8,0,1.2,0,1.4.2.2.2.2.6.2,1.4v6.7c0,.8,0,1.2-.2,1.4-.2.2-.6.2-1.4.2h-4.4c-.8,0-1.2,0-1.4-.2-.2-.2-.2-.6-.2-1.4v-6.7c0-.8,0-1.2.2-1.4ZM458,933.8c0-.8-.7-1.5-1.5-1.5s-.2,0-.2.2v8.6c0,0,0,.2.2.2.8,0,1.5-.7,1.5-1.5v-5.9Z"/>
    <rect class="st1" x="463" y="914.3" width="30" height="30" rx="2" ry="2"/>
    <path class="st0" d="M507.8,926.5c-.2.2-.6.2-1.4.2h-4.4c-.8,0-1.2,0-1.4-.2-.2-.2-.2-.6-.2-1.4v-6.7c0-.8,0-1.2.2-1.4.2-.2.6-.2,1.4-.2h4.4c.8,0,1.2,0,1.4.2.2.2.2.6.2,1.4v6.7c0,.8,0,1.2-.2,1.4ZM498,924.7c0,.8.7,1.5,1.5,1.5s.2,0,.2-.2v-8.6c0,0,0-.2-.2-.2-.8,0-1.5.7-1.5,1.5v5.9Z"/>
    <path class="st0" d="M507.8,941.5c-.2.2-.6.2-1.4.2h-4.4c-.8,0-1.2,0-1.4-.2-.2-.2-.2-.6-.2-1.4v-6.7c0-.8,0-1.2.2-1.4.2-.2.6-.2,1.4-.2h4.4c.8,0,1.2,0,1.4.2.2.2.2.6.2,1.4v6.7c0,.8,0,1.2-.2,1.4ZM498,939.7c0,.8.7,1.5,1.5,1.5s.2,0,.2-.2v-8.6c0,0,0-.2-.2-.2-.8,0-1.5.7-1.5,1.5v5.9Z"/>
    <path class="st0" d="M465.7,961c-.2-.2-.2-.6-.2-1.4v-4.4c0-.8,0-1.2.2-1.4.2-.2.6-.2,1.4-.2h6.7c.8,0,1.2,0,1.4.2.2.2.2.6.2,1.4v4.4c0,.8,0,1.2-.2,1.4-.2.2-.6.2-1.4.2h-6.7c-.8,0-1.2,0-1.4-.2ZM467.6,951.3c-.8,0-1.5.7-1.5,1.5s0,.2.2.2h8.6c0,0,.2,0,.2-.2,0-.8-.7-1.5-1.5-1.5h-5.9Z"/>
    <path class="st0" d="M480.7,961c-.2-.2-.2-.6-.2-1.4v-4.4c0-.8,0-1.2.2-1.4.2-.2.6-.2,1.4-.2h6.7c.8,0,1.2,0,1.4.2.2.2.2.6.2,1.4v4.4c0,.8,0,1.2-.2,1.4-.2.2-.6.2-1.4.2h-6.7c-.8,0-1.2,0-1.4-.2ZM482.6,951.3c-.8,0-1.5.7-1.5,1.5s0,.2.2.2h8.6c0,0,.2,0,.2-.2,0-.8-.7-1.5-1.5-1.5h-5.9Z"/>
  </g>
  <path id="F1_x5F_1" class="st0" d="M575.2,150.1c.3.3.3.8.3,1.8v5.8c0,1,0,1.5-.3,1.8-.3.3-.8.3-1.8.3h-8.7c-1,0-1.5,0-1.8-.3-.3-.3-.3-.8-.3-1.8v-5.8c0-1,0-1.5.3-1.8.3-.3.8-.3,1.8-.3h8.7c1,0,1.5,0,1.8.3ZM572.8,162.8c1.1,0,2-.9,2-2s0-.2-.2-.2h-11.2c-.1,0-.2,0-.2.2,0,1.1.9,2,2,2h7.6Z"/>
  <path id="F1_x5F_2" class="st0" d="M558.2,150.1c.3.3.3.8.3,1.8v5.8c0,1,0,1.5-.3,1.8-.3.3-.9.3-2,.3h-9.3c-1.1,0-1.7,0-2-.3-.3-.3-.3-.8-.3-1.8v-5.8c0-1,0-1.5.3-1.8.3-.3.9-.3,2-.3h9.3c1.1,0,1.7,0,2,.3ZM555.6,162.8c1.2,0,2.1-.9,2.1-2s0-.2-.2-.2h-12c-.1,0-.2,0-.2.2,0,1.1.9,2,2.1,2h8.2Z"/>
  <path id="F1_x5F_3" class="st0" d="M540.2,150.1c.3.3.3.8.3,1.8v5.8c0,1,0,1.5-.3,1.8-.3.3-.9.3-2,.3h-9.3c-1.1,0-1.7,0-2-.3-.3-.3-.3-.8-.3-1.8v-5.8c0-1,0-1.5.3-1.8.3-.3.9-.3,2-.3h9.3c1.1,0,1.7,0,2,.3ZM537.6,162.8c1.2,0,2.1-.9,2.1-2s0-.2-.2-.2h-12c-.1,0-.2,0-.2.2,0,1.1.9,2,2.1,2h8.2Z"/>
  <path id="F1_x5F_4" class="st0" d="M522.1,150.1c.4.3.4.8.4,1.8v5.8c0,1,0,1.5-.4,1.8-.4.3-1,.3-2.1.3h-10c-1.2,0-1.8,0-2.1-.3s-.4-.8-.4-1.8v-5.8c0-1,0-1.5.4-1.8.4-.3,1-.3,2.1-.3h10c1.2,0,1.8,0,2.1.3ZM519.4,162.8c1.3,0,2.3-.9,2.3-2s-.1-.2-.2-.2h-12.9c-.1,0-.2,0-.2.2,0,1.1,1,2,2.3,2h8.8Z"/>
  <path id="F1_x5F_5" class="st0" d="M503.1,150.1c.4.3.4.8.4,1.8v5.8c0,1,0,1.5-.4,1.8s-1,.3-2.1.3h-10c-1.2,0-1.8,0-2.1-.3s-.4-.8-.4-1.8v-5.8c0-1,0-1.5.4-1.8.4-.3,1-.3,2.1-.3h10c1.2,0,1.8,0,2.1.3ZM500.4,162.8c1.3,0,2.3-.9,2.3-2s-.1-.2-.2-.2h-12.9c-.1,0-.2,0-.2.2,0,1.1,1,2,2.3,2h8.8Z"/>
  <path id="F1_x5F_6" class="st0" d="M484.1,150.1c.4.3.4.8.4,1.8v5.8c0,1,0,1.5-.4,1.8s-1,.3-2.1.3h-10c-1.2,0-1.8,0-2.1-.3s-.4-.8-.4-1.8v-5.8c0-1,0-1.5.4-1.8.4-.3,1-.3,2.1-.3h10c1.2,0,1.8,0,2.1.3ZM481.4,162.8c1.3,0,2.3-.9,2.3-2s-.1-.2-.2-.2h-12.9c-.1,0-.2,0-.2.2,0,1.1,1,2,2.3,2h8.8Z"/>
  <path id="F1_x5F_7" class="st0" d="M465.2,150.1c.3.3.3.8.3,1.8v5.8c0,1,0,1.5-.3,1.8-.3.3-.9.3-2,.3h-9.3c-1.1,0-1.6,0-2-.3-.3-.3-.3-.8-.3-1.8v-5.8c0-1,0-1.5.3-1.8.3-.3.9-.3,2-.3h9.3c1.1,0,1.6,0,2,.3ZM462.6,162.8c1.2,0,2.1-.9,2.1-2s0-.2-.2-.2h-12c-.1,0-.2,0-.2.2,0,1.1.9,2,2.1,2h8.2Z"/>
  <path id="F1_x5F_8" class="st0" d="M447.2,150.1c.3.3.3.8.3,1.8v5.8c0,1,0,1.5-.3,1.8-.3.3-.8.3-1.9.3h-8.7c-1,0-1.5,0-1.9-.3-.3-.3-.3-.8-.3-1.8v-5.8c0-1,0-1.5.3-1.8.3-.3.8-.3,1.9-.3h8.7c1,0,1.5,0,1.9.3ZM444.8,162.8c1.1,0,2-.9,2-2s0-.2-.2-.2h-11.2c-.1,0-.2,0-.2.2,0,1.1.9,2,2,2h7.6Z"/>
  <path id="F1_x5F_9" class="st0" d="M430.1,150.1c.4.3.4.8.4,1.8v5.8c0,1,0,1.5-.4,1.8s-1,.3-2.1.3h-10c-1.2,0-1.8,0-2.1-.3s-.4-.8-.4-1.8v-5.8c0-1,0-1.5.4-1.8.4-.3,1-.3,2.1-.3h10c1.2,0,1.8,0,2.1.3ZM427.4,162.8c1.3,0,2.3-.9,2.3-2s-.1-.2-.2-.2h-12.9c-.1,0-.2,0-.2.2,0,1.1,1,2,2.3,2h8.8Z"/>
  <path id="F1_x5F_10" class="st0" d="M411.1,150.1c.4.3.4.8.4,1.8v5.8c0,1,0,1.5-.4,1.8s-1,.3-2.1.3h-10c-1.2,0-1.8,0-2.1-.3s-.4-.8-.4-1.8v-5.8c0-1,0-1.5.4-1.8.4-.3,1-.3,2.1-.3h10c1.2,0,1.8,0,2.1.3ZM408.4,162.8c1.3,0,2.3-.9,2.3-2s-.1-.2-.2-.2h-12.9c-.1,0-.2,0-.2.2,0,1.1,1,2,2.3,2h8.8Z"/>
  <path id="F1_x5F_11" class="st0" d="M392.1,150.1c.4.3.4.8.4,1.8v5.8c0,1,0,1.5-.4,1.8s-1,.3-2.1.3h-10c-1.2,0-1.8,0-2.1-.3s-.4-.8-.4-1.8v-5.8c0-1,0-1.5.4-1.8.4-.3,1-.3,2.1-.3h10c1.2,0,1.8,0,2.1.3ZM389.4,162.8c1.3,0,2.3-.9,2.3-2s-.1-.2-.2-.2h-12.9c-.1,0-.2,0-.2.2,0,1.1,1,2,2.3,2h8.8Z"/>
  <path id="F1_x5F_12" class="st0" d="M373.1,150.1c.4.3.4.8.4,1.8v5.8c0,1,0,1.5-.4,1.8s-1,.3-2.1.3h-10c-1.2,0-1.8,0-2.1-.3s-.4-.8-.4-1.8v-5.8c0-1,0-1.5.4-1.8.4-.3,1-.3,2.1-.3h10c1.2,0,1.8,0,2.1.3ZM370.4,162.8c1.3,0,2.3-.9,2.3-2s-.1-.2-.2-.2h-12.9c-.1,0-.2,0-.2.2,0,1.1,1,2,2.3,2h8.8Z"/>
  <path id="F1_x5F_13" class="st0" d="M354.1,150.1c.4.3.4.8.4,1.8v5.8c0,1,0,1.5-.4,1.8s-1,.3-2.1.3h-10c-1.2,0-1.8,0-2.1-.3s-.4-.8-.4-1.8v-5.8c0-1,0-1.5.4-1.8.4-.3,1-.3,2.1-.3h10c1.2,0,1.8,0,2.1.3ZM351.4,162.8c1.3,0,2.3-.9,2.3-2s-.1-.2-.2-.2h-12.9c-.1,0-.2,0-.2.2,0,1.1,1,2,2.3,2h8.8Z"/>
  <path id="F1_x5F_14" class="st0" d="M335.1,150.1c.4.3.4.8.4,1.8v5.8c0,1,0,1.5-.4,1.8s-1,.3-2.1.3h-10c-1.2,0-1.8,0-2.1-.3s-.4-.8-.4-1.8v-5.8c0-1,0-1.5.4-1.8.4-.3,1-.3,2.1-.3h10c1.2,0,1.8,0,2.1.3ZM332.4,162.8c1.3,0,2.3-.9,2.3-2s-.1-.2-.2-.2h-12.9c-.1,0-.2,0-.2.2,0,1.1,1,2,2.3,2h8.8Z"/>
  <path id="F1_x5F_15" class="st0" d="M316.1,150.1c.4.3.4.8.4,1.8v5.8c0,1,0,1.5-.4,1.8s-1,.3-2.1.3h-10c-1.2,0-1.8,0-2.1-.3s-.4-.8-.4-1.8v-5.8c0-1,0-1.5.4-1.8.4-.3,1-.3,2.1-.3h10c1.2,0,1.8,0,2.1.3ZM313.4,162.8c1.3,0,2.3-.9,2.3-2s-.1-.2-.2-.2h-12.9c-.1,0-.2,0-.2.2,0,1.1,1,2,2.3,2h8.8Z"/>
  <path id="F1_x5F_16" class="st0" d="M297.1,150.1c.4.3.4.8.4,1.8v5.8c0,1,0,1.5-.4,1.8s-1,.3-2.1.3h-10c-1.2,0-1.8,0-2.1-.3s-.4-.8-.4-1.8v-5.8c0-1,0-1.5.4-1.8.4-.3,1-.3,2.1-.3h10c1.2,0,1.8,0,2.1.3ZM294.4,162.8c1.3,0,2.3-.9,2.3-2s-.1-.2-.2-.2h-12.9c-.1,0-.2,0-.2.2,0,1.1,1,2,2.3,2h8.8Z"/>
  <path id="F1_x5F_17" class="st0" d="M91.2,301.4c-.3.4-.8.4-1.8.4h-5.8c-1,0-1.5,0-1.8-.4s-.3-1-.3-2.1v-10c0-1.2,0-1.8.3-2.1s.8-.4,1.8-.4h5.8c1,0,1.5,0,1.8.4s.3,1,.3,2.1v10c0,1.2,0,1.8-.3,2.1ZM78.5,298.7c0,1.3.9,2.3,2,2.3s.2-.1.2-.2v-12.9c0-.1,0-.2-.2-.2-1.1,0-2,1-2,2.3v8.8Z"/>
  <path id="F1_x5F_18" class="st0" d="M91.2,320.4c-.3.4-.8.4-1.8.4h-5.8c-1,0-1.5,0-1.8-.4s-.3-1-.3-2.1v-10c0-1.2,0-1.8.3-2.1s.8-.4,1.8-.4h5.8c1,0,1.5,0,1.8.4s.3,1,.3,2.1v10c0,1.2,0,1.8-.3,2.1ZM78.5,317.7c0,1.3.9,2.3,2,2.3s.2-.1.2-.2v-12.9c0-.1,0-.2-.2-.2-1.1,0-2,1-2,2.3v8.8Z"/>
  <path id="F1_x5F_19" class="st0" d="M91.2,339.4c-.3.4-.8.4-1.8.4h-5.8c-1,0-1.5,0-1.8-.4s-.3-1-.3-2.1v-10c0-1.2,0-1.8.3-2.1s.8-.4,1.8-.4h5.8c1,0,1.5,0,1.8.4s.3,1,.3,2.1v10c0,1.2,0,1.8-.3,2.1ZM78.5,336.7c0,1.3.9,2.3,2,2.3s.2-.1.2-.2v-12.9c0-.1,0-.2-.2-.2-1.1,0-2,1-2,2.3v8.8Z"/>
  <path id="F1_x5F_20" class="st0" d="M91.2,358.4c-.3.4-.8.4-1.8.4h-5.8c-1,0-1.5,0-1.8-.4s-.3-1-.3-2.1v-10c0-1.2,0-1.8.3-2.1s.8-.4,1.8-.4h5.8c1,0,1.5,0,1.8.4s.3,1,.3,2.1v10c0,1.2,0,1.8-.3,2.1ZM78.5,355.7c0,1.3.9,2.3,2,2.3s.2-.1.2-.2v-12.9c0-.1,0-.2-.2-.2-1.1,0-2,1-2,2.3v8.8Z"/>
  <path id="F1_x5F_21" class="st0" d="M91.2,377.4c-.3.4-.8.4-1.8.4h-5.8c-1,0-1.5,0-1.8-.4s-.3-1-.3-2.1v-10c0-1.2,0-1.8.3-2.1s.8-.4,1.8-.4h5.8c1,0,1.5,0,1.8.4s.3,1,.3,2.1v10c0,1.2,0,1.8-.3,2.1ZM78.5,374.7c0,1.3.9,2.3,2,2.3s.2-.1.2-.2v-12.9c0-.1,0-.2-.2-.2-1.1,0-2,1-2,2.3v8.8Z"/>
  <path id="F1_x5F_22" class="st0" d="M91.2,396.4c-.3.4-.8.4-1.8.4h-5.8c-1,0-1.5,0-1.8-.4s-.3-1-.3-2.1v-10c0-1.2,0-1.8.3-2.1s.8-.4,1.8-.4h5.8c1,0,1.5,0,1.8.4s.3,1,.3,2.1v10c0,1.2,0,1.8-.3,2.1ZM78.5,393.7c0,1.3.9,2.3,2,2.3s.2-.1.2-.2v-12.9c0-.1,0-.2-.2-.2-1.1,0-2,1-2,2.3v8.8Z"/>
  <path id="F1_x5F_23" class="st0" d="M91.2,415.4c-.3.4-.8.4-1.8.4h-5.8c-1,0-1.5,0-1.8-.4s-.3-1-.3-2.1v-10c0-1.2,0-1.8.3-2.1s.8-.4,1.8-.4h5.8c1,0,1.5,0,1.8.4s.3,1,.3,2.1v10c0,1.2,0,1.8-.3,2.1ZM78.5,412.7c0,1.3.9,2.3,2,2.3s.2-.1.2-.2v-12.9c0-.1,0-.2-.2-.2-1.1,0-2,1-2,2.3v8.8Z"/>
  <path id="F1_x5F_24" class="st0" d="M91.2,434.4c-.3.4-.8.4-1.8.4h-5.8c-1,0-1.5,0-1.8-.4s-.3-1-.3-2.1v-10c0-1.2,0-1.8.3-2.1s.8-.4,1.8-.4h5.8c1,0,1.5,0,1.8.4s.3,1,.3,2.1v10c0,1.2,0,1.8-.3,2.1ZM78.5,431.7c0,1.3.9,2.3,2,2.3s.2-.1.2-.2v-12.9c0-.1,0-.2-.2-.2-1.1,0-2,1-2,2.3v8.8Z"/>
  <path id="F1_x5F_25" class="st0" d="M91.2,451.5c-.3.3-.8.3-1.8.3h-5.8c-1,0-1.5,0-1.8-.3-.3-.3-.3-.8-.3-1.8v-8.7c0-1,0-1.5.3-1.9.3-.3.8-.3,1.8-.3h5.8c1,0,1.5,0,1.8.3.3.3.3.8.3,1.9v8.7c0,1,0,1.5-.3,1.8ZM78.5,449.1c0,1.1.9,2,2,2s.2,0,.2-.2v-11.2c0-.1,0-.2-.2-.2-1.1,0-2,.9-2,2v7.6Z"/>
  <path id="F1_x5F_26" class="st0" d="M91.2,469.4c-.3.3-.8.3-1.8.3h-5.8c-1,0-1.5,0-1.8-.3-.3-.3-.3-.9-.3-2v-9.3c0-1.1,0-1.7.3-2,.3-.3.8-.3,1.8-.3h5.8c1,0,1.5,0,1.8.3.3.3.3.9.3,2v9.3c0,1.1,0,1.6-.3,2ZM78.5,466.9c0,1.2.9,2.1,2,2.1s.2,0,.2-.2v-12c0-.1,0-.2-.2-.2-1.1,0-2,1-2,2.1v8.2Z"/>
  <path id="F1_x5F_27" class="st0" d="M91.2,488.4c-.3.4-.8.4-1.8.4h-5.8c-1,0-1.5,0-1.8-.4s-.3-1-.3-2.1v-10c0-1.2,0-1.8.3-2.1s.8-.4,1.8-.4h5.8c1,0,1.5,0,1.8.4s.3,1,.3,2.1v10c0,1.2,0,1.8-.3,2.1ZM78.5,485.7c0,1.3.9,2.3,2,2.3s.2-.1.2-.2v-12.9c0-.1,0-.2-.2-.2-1.1,0-2,1-2,2.3v8.8Z"/>
  <path id="F1_x5F_28" class="st0" d="M91.2,507.4c-.3.4-.8.4-1.8.4h-5.8c-1,0-1.5,0-1.8-.4s-.3-1-.3-2.1v-10c0-1.2,0-1.8.3-2.1s.8-.4,1.8-.4h5.8c1,0,1.5,0,1.8.4s.3,1,.3,2.1v10c0,1.2,0,1.8-.3,2.1ZM78.5,504.7c0,1.3.9,2.3,2,2.3s.2-.1.2-.2v-12.9c0-.1,0-.2-.2-.2-1.1,0-2,1-2,2.3v8.8Z"/>
  <path id="F1_x5F_29" class="st0" d="M91.2,526.4c-.3.4-.8.4-1.8.4h-5.8c-1,0-1.5,0-1.8-.4-.3-.4-.3-1-.3-2.1v-10c0-1.2,0-1.8.3-2.1.3-.4.8-.4,1.8-.4h5.8c1,0,1.5,0,1.8.4.3.4.3,1,.3,2.1v10c0,1.2,0,1.8-.3,2.1ZM78.5,523.7c0,1.3.9,2.3,2,2.3s.2-.1.2-.2v-12.9c0-.1,0-.2-.2-.2-1.1,0-2,1-2,2.3v8.8Z"/>
  <path id="F1_x5F_30" class="st0" d="M91.2,544.4c-.3.3-.8.3-1.8.3h-5.8c-1,0-1.5,0-1.8-.3-.3-.3-.3-.9-.3-2v-9.3c0-1.1,0-1.6.3-2,.3-.3.8-.3,1.8-.3h5.8c1,0,1.5,0,1.8.3.3.3.3.9.3,2v9.3c0,1.1,0,1.6-.3,2ZM78.5,541.9c0,1.2.9,2.1,2,2.1s.2,0,.2-.2v-12c0-.1,0-.2-.2-.2-1.1,0-2,1-2,2.1v8.2Z"/>
  <path id="F1_x5F_31" class="st0" d="M91.2,562.4c-.3.3-.8.3-1.8.3h-5.8c-1,0-1.5,0-1.8-.3-.3-.3-.3-.9-.3-2v-9.3c0-1.1,0-1.6.3-2,.3-.3.8-.3,1.8-.3h5.8c1,0,1.5,0,1.8.3.3.3.3.9.3,2v9.3c0,1.1,0,1.6-.3,2ZM78.5,559.9c0,1.2.9,2.1,2,2.1s.2,0,.2-.2v-12c0-.1,0-.2-.2-.2-1.1,0-2,1-2,2.1v8.2Z"/>
  <path id="F1_x5F_32" class="st0" d="M91.2,579.5c-.3.3-.8.3-1.8.3h-5.8c-1,0-1.5,0-1.8-.3-.3-.3-.3-.8-.3-1.9v-8.7c0-1,0-1.5.3-1.9.3-.3.8-.3,1.8-.3h5.8c1,0,1.5,0,1.8.3.3.3.3.8.3,1.9v8.7c0,1,0,1.5-.3,1.9ZM78.5,577.1c0,1.1.9,2,2,2s.2,0,.2-.2v-11.2c0-.1,0-.2-.2-.2-1.1,0-2,.9-2,2v7.6Z"/>
  <path id="F1_x5F_33" class="st0" d="M168.3,718c-.3-.3-.3-.8-.3-1.9v-5.8c0-1,0-1.5.3-1.8.3-.3.8-.3,1.9-.3h8.7c1,0,1.5,0,1.9.3.3.3.3.8.3,1.8v5.8c0,1,0,1.5-.3,1.9-.3.3-.8.3-1.9.3h-8.7c-1,0-1.5,0-1.9-.3ZM170.7,705.3c-1.1,0-2,.9-2,2s0,.2.2.2h11.2c.1,0,.2,0,.2-.2,0-1.1-.9-2-2-2h-7.6Z"/>
  <path id="F1_x5F_34" class="st0" d="M185.4,718c-.4-.3-.4-.8-.4-1.9v-5.8c0-1,0-1.5.4-1.8.4-.3,1-.3,2.1-.3h10c1.2,0,1.8,0,2.1.3.4.3.4.8.4,1.8v5.8c0,1,0,1.5-.4,1.9-.4.3-1,.3-2.1.3h-10c-1.2,0-1.8,0-2.1-.3ZM188.1,705.3c-1.3,0-2.3.9-2.3,2s.1.2.2.2h12.9c.1,0,.2,0,.2-.2,0-1.1-1-2-2.3-2h-8.8Z"/>
  <path id="F1_x5F_35" class="st0" d="M204.4,718c-.4-.3-.4-.8-.4-1.9v-5.8c0-1,0-1.5.4-1.8.4-.3,1-.3,2.1-.3h10c1.2,0,1.8,0,2.1.3.4.3.4.8.4,1.8v5.8c0,1,0,1.5-.4,1.9-.4.3-1,.3-2.1.3h-10c-1.2,0-1.8,0-2.1-.3ZM207.1,705.3c-1.3,0-2.3.9-2.3,2s.1.2.2.2h12.9c.1,0,.2,0,.2-.2,0-1.1-1-2-2.3-2h-8.8Z"/>
  <path id="F1_x5F_36" class="st0" d="M223.4,718c-.4-.3-.4-.8-.4-1.9v-5.8c0-1,0-1.5.4-1.8.4-.3,1-.3,2.1-.3h10c1.2,0,1.8,0,2.1.3.4.3.4.8.4,1.8v5.8c0,1,0,1.5-.4,1.9-.4.3-1,.3-2.1.3h-10c-1.2,0-1.8,0-2.1-.3ZM226.1,705.3c-1.3,0-2.3.9-2.3,2s.1.2.2.2h12.9c.1,0,.2,0,.2-.2,0-1.1-1-2-2.3-2h-8.8Z"/>
  <path id="F1_x5F_37" class="st0" d="M242.4,718c-.4-.3-.4-.8-.4-1.9v-5.8c0-1,0-1.5.4-1.8.4-.3,1-.3,2.1-.3h10c1.2,0,1.8,0,2.1.3.4.3.4.8.4,1.8v5.8c0,1,0,1.5-.4,1.9-.4.3-1,.3-2.1.3h-10c-1.2,0-1.8,0-2.1-.3ZM245.1,705.3c-1.3,0-2.3.9-2.3,2s.1.2.2.2h12.9c.1,0,.2,0,.2-.2,0-1.1-1-2-2.3-2h-8.8Z"/>
  <path id="F1_x5F_38" class="st0" d="M261.4,718c-.4-.3-.4-.8-.4-1.9v-5.8c0-1,0-1.5.4-1.8.4-.3,1-.3,2.1-.3h10c1.2,0,1.8,0,2.1.3.4.3.4.8.4,1.8v5.8c0,1,0,1.5-.4,1.9-.4.3-1,.3-2.1.3h-10c-1.2,0-1.8,0-2.1-.3ZM264.1,705.3c-1.3,0-2.3.9-2.3,2s.1.2.2.2h12.9c.1,0,.2,0,.2-.2,0-1.1-1-2-2.3-2h-8.8Z"/>
  <path id="F1_x5F_39" class="st0" d="M280.4,718c-.4-.3-.4-.8-.4-1.9v-5.8c0-1,0-1.5.4-1.8.4-.3,1-.3,2.1-.3h10c1.2,0,1.8,0,2.1.3.4.3.4.8.4,1.8v5.8c0,1,0,1.5-.4,1.9-.4.3-1,.3-2.1.3h-10c-1.2,0-1.8,0-2.1-.3ZM283.1,705.3c-1.3,0-2.3.9-2.3,2s.1.2.2.2h12.9c.1,0,.2,0,.2-.2,0-1.1-1-2-2.3-2h-8.8Z"/>
  <path id="F1_x5F_40" class="st0" d="M299.4,718c-.4-.3-.4-.8-.4-1.9v-5.8c0-1,0-1.5.4-1.8.4-.3,1-.3,2.1-.3h10c1.2,0,1.8,0,2.1.3.4.3.4.8.4,1.8v5.8c0,1,0,1.5-.4,1.9-.4.3-1,.3-2.1.3h-10c-1.2,0-1.8,0-2.1-.3ZM302.1,705.3c-1.3,0-2.3.9-2.3,2s.1.2.2.2h12.9c.1,0,.2,0,.2-.2,0-1.1-1-2-2.3-2h-8.8Z"/>
  <path id="F1_x5F_41" class="st0" d="M318.4,718c-.4-.3-.4-.8-.4-1.9v-5.8c0-1,0-1.5.4-1.8.4-.3,1-.3,2.1-.3h10c1.2,0,1.8,0,2.1.3.4.3.4.8.4,1.8v5.8c0,1,0,1.5-.4,1.9-.4.3-1,.3-2.1.3h-10c-1.2,0-1.8,0-2.1-.3ZM321.1,705.3c-1.3,0-2.3.9-2.3,2s.1.2.2.2h12.9c.1,0,.2,0,.2-.2,0-1.1-1-2-2.3-2h-8.8Z"/>
  <path id="F2_x5F_1" class="st0" d="M613.2,132.1c.3.3.3.8.3,1.8v5.8c0,1,0,1.5-.3,1.8-.3.3-.8.3-1.8.3h-8.7c-1,0-1.5,0-1.8-.3-.3-.3-.3-.8-.3-1.8v-5.8c0-1,0-1.5.3-1.8.3-.3.8-.3,1.8-.3h8.7c1,0,1.5,0,1.8.3ZM610.8,144.8c1.1,0,2-.9,2-2s0-.2-.2-.2h-11.2c-.1,0-.2,0-.2.2,0,1.1.9,2,2,2h7.6Z"/>
  <path id="F2_x5F_2" class="st0" d="M596.2,132.1c.3.3.3.8.3,1.8v5.8c0,1,0,1.5-.3,1.8-.3.3-.9.3-2,.3h-9.3c-1.1,0-1.7,0-2-.3-.3-.3-.3-.8-.3-1.8v-5.8c0-1,0-1.5.3-1.8.3-.3.9-.3,2-.3h9.3c1.1,0,1.7,0,2,.3ZM593.6,144.8c1.2,0,2.1-.9,2.1-2s0-.2-.2-.2h-12c-.1,0-.2,0-.2.2,0,1.1.9,2,2.1,2h8.2Z"/>
  <path id="F2_x5F_3" class="st0" d="M578.2,132.1c.3.3.3.8.3,1.8v5.8c0,1,0,1.5-.3,1.8-.3.3-.9.3-2,.3h-9.3c-1.1,0-1.7,0-2-.3-.3-.3-.3-.8-.3-1.8v-5.8c0-1,0-1.5.3-1.8.3-.3.9-.3,2-.3h9.3c1.1,0,1.7,0,2,.3ZM575.6,144.8c1.2,0,2.1-.9,2.1-2s0-.2-.2-.2h-12c-.1,0-.2,0-.2.2,0,1.1.9,2,2.1,2h8.2Z"/>
  <path id="F2_x5F_4" class="st0" d="M560.1,132.1c.4.3.4.8.4,1.8v5.8c0,1,0,1.5-.4,1.8-.4.3-1,.3-2.1.3h-10c-1.2,0-1.8,0-2.1-.3-.4-.3-.4-.8-.4-1.8v-5.8c0-1,0-1.5.4-1.8.4-.3,1-.3,2.1-.3h10c1.2,0,1.8,0,2.1.3ZM557.4,144.8c1.3,0,2.3-.9,2.3-2s-.1-.2-.2-.2h-12.9c-.1,0-.2,0-.2.2,0,1.1,1,2,2.3,2h8.8Z"/>
  <path id="F2_x5F_5" class="st0" d="M541.1,132.1c.4.3.4.8.4,1.8v5.8c0,1,0,1.5-.4,1.8-.4.3-1,.3-2.1.3h-10c-1.2,0-1.8,0-2.1-.3-.4-.3-.4-.8-.4-1.8v-5.8c0-1,0-1.5.4-1.8.4-.3,1-.3,2.1-.3h10c1.2,0,1.8,0,2.1.3ZM538.4,144.8c1.3,0,2.3-.9,2.3-2s-.1-.2-.2-.2h-12.9c-.1,0-.2,0-.2.2,0,1.1,1,2,2.3,2h8.8Z"/>
  <path id="F2_x5F_6" class="st0" d="M522.1,132.1c.4.3.4.8.4,1.8v5.8c0,1,0,1.5-.4,1.8-.4.3-1,.3-2.1.3h-10c-1.2,0-1.8,0-2.1-.3s-.4-.8-.4-1.8v-5.8c0-1,0-1.5.4-1.8.4-.3,1-.3,2.1-.3h10c1.2,0,1.8,0,2.1.3ZM519.4,144.8c1.3,0,2.3-.9,2.3-2s-.1-.2-.2-.2h-12.9c-.1,0-.2,0-.2.2,0,1.1,1,2,2.3,2h8.8Z"/>
  <path id="F2_x5F_7" class="st0" d="M503.2,132.1c.3.3.3.8.3,1.8v5.8c0,1,0,1.5-.3,1.8-.3.3-.9.3-2,.3h-9.3c-1.1,0-1.6,0-2-.3-.3-.3-.3-.8-.3-1.8v-5.8c0-1,0-1.5.3-1.8.3-.3.9-.3,2-.3h9.3c1.1,0,1.6,0,2,.3ZM500.6,144.8c1.2,0,2.1-.9,2.1-2s0-.2-.2-.2h-12c-.1,0-.2,0-.2.2,0,1.1.9,2,2.1,2h8.2Z"/>
  <path id="F2_x5F_8" class="st0" d="M485.2,132.1c.3.3.3.8.3,1.8v5.8c0,1,0,1.5-.3,1.8-.3.3-.8.3-1.9.3h-8.7c-1,0-1.5,0-1.9-.3-.3-.3-.3-.8-.3-1.8v-5.8c0-1,0-1.5.3-1.8.3-.3.8-.3,1.9-.3h8.7c1,0,1.5,0,1.9.3ZM482.8,144.8c1.1,0,2-.9,2-2s0-.2-.2-.2h-11.2c-.1,0-.2,0-.2.2,0,1.1.9,2,2,2h7.6Z"/>
  <path id="F2_x5F_9" class="st0" d="M468.1,132.1c.4.3.4.8.4,1.8v5.8c0,1,0,1.5-.4,1.8s-1,.3-2.1.3h-10c-1.2,0-1.8,0-2.1-.3s-.4-.8-.4-1.8v-5.8c0-1,0-1.5.4-1.8.4-.3,1-.3,2.1-.3h10c1.2,0,1.8,0,2.1.3ZM465.4,144.8c1.3,0,2.3-.9,2.3-2s-.1-.2-.2-.2h-12.9c-.1,0-.2,0-.2.2,0,1.1,1,2,2.3,2h8.8Z"/>
  <path id="F2_x5F_10" class="st0" d="M449.1,132.1c.4.3.4.8.4,1.8v5.8c0,1,0,1.5-.4,1.8s-1,.3-2.1.3h-10c-1.2,0-1.8,0-2.1-.3s-.4-.8-.4-1.8v-5.8c0-1,0-1.5.4-1.8.4-.3,1-.3,2.1-.3h10c1.2,0,1.8,0,2.1.3ZM446.4,144.8c1.3,0,2.3-.9,2.3-2s-.1-.2-.2-.2h-12.9c-.1,0-.2,0-.2.2,0,1.1,1,2,2.3,2h8.8Z"/>
  <path id="F2_x5F_11" class="st0" d="M430.1,132.1c.4.3.4.8.4,1.8v5.8c0,1,0,1.5-.4,1.8s-1,.3-2.1.3h-10c-1.2,0-1.8,0-2.1-.3s-.4-.8-.4-1.8v-5.8c0-1,0-1.5.4-1.8.4-.3,1-.3,2.1-.3h10c1.2,0,1.8,0,2.1.3ZM427.4,144.8c1.3,0,2.3-.9,2.3-2s-.1-.2-.2-.2h-12.9c-.1,0-.2,0-.2.2,0,1.1,1,2,2.3,2h8.8Z"/>
  <path id="F2_x5F_12" class="st0" d="M411.1,132.1c.4.3.4.8.4,1.8v5.8c0,1,0,1.5-.4,1.8s-1,.3-2.1.3h-10c-1.2,0-1.8,0-2.1-.3s-.4-.8-.4-1.8v-5.8c0-1,0-1.5.4-1.8.4-.3,1-.3,2.1-.3h10c1.2,0,1.8,0,2.1.3ZM408.4,144.8c1.3,0,2.3-.9,2.3-2s-.1-.2-.2-.2h-12.9c-.1,0-.2,0-.2.2,0,1.1,1,2,2.3,2h8.8Z"/>
  <path id="F2_x5F_13" class="st0" d="M392.1,132.1c.4.3.4.8.4,1.8v5.8c0,1,0,1.5-.4,1.8s-1,.3-2.1.3h-10c-1.2,0-1.8,0-2.1-.3s-.4-.8-.4-1.8v-5.8c0-1,0-1.5.4-1.8.4-.3,1-.3,2.1-.3h10c1.2,0,1.8,0,2.1.3ZM389.4,144.8c1.3,0,2.3-.9,2.3-2s-.1-.2-.2-.2h-12.9c-.1,0-.2,0-.2.2,0,1.1,1,2,2.3,2h8.8Z"/>
  <path id="F2_x5F_14" class="st0" d="M373.1,132.1c.4.3.4.8.4,1.8v5.8c0,1,0,1.5-.4,1.8s-1,.3-2.1.3h-10c-1.2,0-1.8,0-2.1-.3s-.4-.8-.4-1.8v-5.8c0-1,0-1.5.4-1.8.4-.3,1-.3,2.1-.3h10c1.2,0,1.8,0,2.1.3ZM370.4,144.8c1.3,0,2.3-.9,2.3-2s-.1-.2-.2-.2h-12.9c-.1,0-.2,0-.2.2,0,1.1,1,2,2.3,2h8.8Z"/>
  <path id="F2_x5F_15" class="st0" d="M354.1,132.1c.4.3.4.8.4,1.8v5.8c0,1,0,1.5-.4,1.8s-1,.3-2.1.3h-10c-1.2,0-1.8,0-2.1-.3s-.4-.8-.4-1.8v-5.8c0-1,0-1.5.4-1.8.4-.3,1-.3,2.1-.3h10c1.2,0,1.8,0,2.1.3ZM351.4,144.8c1.3,0,2.3-.9,2.3-2s-.1-.2-.2-.2h-12.9c-.1,0-.2,0-.2.2,0,1.1,1,2,2.3,2h8.8Z"/>
  <path id="F2_x5F_16" class="st0" d="M335.1,132.1c.4.3.4.8.4,1.8v5.8c0,1,0,1.5-.4,1.8s-1,.3-2.1.3h-10c-1.2,0-1.8,0-2.1-.3s-.4-.8-.4-1.8v-5.8c0-1,0-1.5.4-1.8.4-.3,1-.3,2.1-.3h10c1.2,0,1.8,0,2.1.3ZM332.4,144.8c1.3,0,2.3-.9,2.3-2s-.1-.2-.2-.2h-12.9c-.1,0-.2,0-.2.2,0,1.1,1,2,2.3,2h8.8Z"/>
  <path id="F2_x5F_17" class="st0" d="M316.1,132.1c.4.3.4.8.4,1.8v5.8c0,1,0,1.5-.4,1.8s-1,.3-2.1.3h-10c-1.2,0-1.8,0-2.1-.3s-.4-.8-.4-1.8v-5.8c0-1,0-1.5.4-1.8.4-.3,1-.3,2.1-.3h10c1.2,0,1.8,0,2.1.3ZM313.4,144.8c1.3,0,2.3-.9,2.3-2s-.1-.2-.2-.2h-12.9c-.1,0-.2,0-.2.2,0,1.1,1,2,2.3,2h8.8Z"/>
  <path id="F2_x5F_18" class="st0" d="M297.1,132.1c.4.3.4.8.4,1.8v5.8c0,1,0,1.5-.4,1.8s-1,.3-2.1.3h-10c-1.2,0-1.8,0-2.1-.3s-.4-.8-.4-1.8v-5.8c0-1,0-1.5.4-1.8.4-.3,1-.3,2.1-.3h10c1.2,0,1.8,0,2.1.3ZM294.4,144.8c1.3,0,2.3-.9,2.3-2s-.1-.2-.2-.2h-12.9c-.1,0-.2,0-.2.2,0,1.1,1,2,2.3,2h8.8Z"/>
  <path id="F2_x5F_19" class="st0" d="M278.1,132.1c.4.3.4.8.4,1.8v5.8c0,1,0,1.5-.4,1.8s-1,.3-2.1.3h-10c-1.2,0-1.8,0-2.1-.3s-.4-.8-.4-1.8v-5.8c0-1,0-1.5.4-1.8.4-.3,1-.3,2.1-.3h10c1.2,0,1.8,0,2.1.3ZM275.4,144.8c1.3,0,2.3-.9,2.3-2s-.1-.2-.2-.2h-12.9c-.1,0-.2,0-.2.2,0,1.1,1,2,2.3,2h8.8Z"/>
  <path id="F2_x5F_20" class="st0" d="M259.1,132.1c.4.3.4.8.4,1.8v5.8c0,1,0,1.5-.4,1.8s-1,.3-2.1.3h-10c-1.2,0-1.8,0-2.1-.3s-.4-.8-.4-1.8v-5.8c0-1,0-1.5.4-1.8.4-.3,1-.3,2.1-.3h10c1.2,0,1.8,0,2.1.3ZM256.4,144.8c1.3,0,2.3-.9,2.3-2s-.1-.2-.2-.2h-12.9c-.1,0-.2,0-.2.2,0,1.1,1,2,2.3,2h8.8Z"/>
  <path id="F2_x5F_21" class="st0" d="M73.2,263.4c-.3.4-.8.4-1.8.4h-5.8c-1,0-1.5,0-1.8-.4s-.3-1-.3-2.1v-10c0-1.2,0-1.8.3-2.1s.8-.4,1.8-.4h5.8c1,0,1.5,0,1.8.4s.3,1,.3,2.1v10c0,1.2,0,1.8-.3,2.1ZM60.5,260.7c0,1.3.9,2.3,2,2.3s.2-.1.2-.2v-12.9c0-.1,0-.2-.2-.2-1.1,0-2,1-2,2.3v8.8Z"/>
  <path id="F2_x5F_22" class="st0" d="M73.2,282.4c-.3.4-.8.4-1.8.4h-5.8c-1,0-1.5,0-1.8-.4s-.3-1-.3-2.1v-10c0-1.2,0-1.8.3-2.1s.8-.4,1.8-.4h5.8c1,0,1.5,0,1.8.4s.3,1,.3,2.1v10c0,1.2,0,1.8-.3,2.1ZM60.5,279.7c0,1.3.9,2.3,2,2.3s.2-.1.2-.2v-12.9c0-.1,0-.2-.2-.2-1.1,0-2,1-2,2.3v8.8Z"/>
  <path id="F2_x5F_23" class="st0" d="M73.2,301.4c-.3.4-.8.4-1.8.4h-5.8c-1,0-1.5,0-1.8-.4s-.3-1-.3-2.1v-10c0-1.2,0-1.8.3-2.1s.8-.4,1.8-.4h5.8c1,0,1.5,0,1.8.4s.3,1,.3,2.1v10c0,1.2,0,1.8-.3,2.1ZM60.5,298.7c0,1.3.9,2.3,2,2.3s.2-.1.2-.2v-12.9c0-.1,0-.2-.2-.2-1.1,0-2,1-2,2.3v8.8Z"/>
  <path id="F2_x5F_24" class="st0" d="M73.2,320.4c-.3.4-.8.4-1.8.4h-5.8c-1,0-1.5,0-1.8-.4s-.3-1-.3-2.1v-10c0-1.2,0-1.8.3-2.1s.8-.4,1.8-.4h5.8c1,0,1.5,0,1.8.4s.3,1,.3,2.1v10c0,1.2,0,1.8-.3,2.1ZM60.5,317.7c0,1.3.9,2.3,2,2.3s.2-.1.2-.2v-12.9c0-.1,0-.2-.2-.2-1.1,0-2,1-2,2.3v8.8Z"/>
  <path id="F2_x5F_25" class="st0" d="M73.2,339.4c-.3.4-.8.4-1.8.4h-5.8c-1,0-1.5,0-1.8-.4s-.3-1-.3-2.1v-10c0-1.2,0-1.8.3-2.1s.8-.4,1.8-.4h5.8c1,0,1.5,0,1.8.4s.3,1,.3,2.1v10c0,1.2,0,1.8-.3,2.1ZM60.5,336.7c0,1.3.9,2.3,2,2.3s.2-.1.2-.2v-12.9c0-.1,0-.2-.2-.2-1.1,0-2,1-2,2.3v8.8Z"/>
  <path id="F2_x5F_26" class="st0" d="M73.2,358.4c-.3.4-.8.4-1.8.4h-5.8c-1,0-1.5,0-1.8-.4s-.3-1-.3-2.1v-10c0-1.2,0-1.8.3-2.1s.8-.4,1.8-.4h5.8c1,0,1.5,0,1.8.4s.3,1,.3,2.1v10c0,1.2,0,1.8-.3,2.1ZM60.5,355.7c0,1.3.9,2.3,2,2.3s.2-.1.2-.2v-12.9c0-.1,0-.2-.2-.2-1.1,0-2,1-2,2.3v8.8Z"/>
  <path id="F2_x5F_27" class="st0" d="M73.2,377.4c-.3.4-.8.4-1.8.4h-5.8c-1,0-1.5,0-1.8-.4s-.3-1-.3-2.1v-10c0-1.2,0-1.8.3-2.1s.8-.4,1.8-.4h5.8c1,0,1.5,0,1.8.4s.3,1,.3,2.1v10c0,1.2,0,1.8-.3,2.1ZM60.5,374.7c0,1.3.9,2.3,2,2.3s.2-.1.2-.2v-12.9c0-.1,0-.2-.2-.2-1.1,0-2,1-2,2.3v8.8Z"/>
  <path id="F2_x5F_28" class="st0" d="M73.2,396.4c-.3.4-.8.4-1.8.4h-5.8c-1,0-1.5,0-1.8-.4s-.3-1-.3-2.1v-10c0-1.2,0-1.8.3-2.1s.8-.4,1.8-.4h5.8c1,0,1.5,0,1.8.4s.3,1,.3,2.1v10c0,1.2,0,1.8-.3,2.1ZM60.5,393.7c0,1.3.9,2.3,2,2.3s.2-.1.2-.2v-12.9c0-.1,0-.2-.2-.2-1.1,0-2,1-2,2.3v8.8Z"/>
  <path id="F2_x5F_29" class="st0" d="M73.2,415.4c-.3.4-.8.4-1.8.4h-5.8c-1,0-1.5,0-1.8-.4s-.3-1-.3-2.1v-10c0-1.2,0-1.8.3-2.1s.8-.4,1.8-.4h5.8c1,0,1.5,0,1.8.4s.3,1,.3,2.1v10c0,1.2,0,1.8-.3,2.1ZM60.5,412.7c0,1.3.9,2.3,2,2.3s.2-.1.2-.2v-12.9c0-.1,0-.2-.2-.2-1.1,0-2,1-2,2.3v8.8Z"/>
  <path id="F2_x5F_30" class="st0" d="M73.2,434.4c-.3.4-.8.4-1.8.4h-5.8c-1,0-1.5,0-1.8-.4s-.3-1-.3-2.1v-10c0-1.2,0-1.8.3-2.1s.8-.4,1.8-.4h5.8c1,0,1.5,0,1.8.4s.3,1,.3,2.1v10c0,1.2,0,1.8-.3,2.1ZM60.5,431.7c0,1.3.9,2.3,2,2.3s.2-.1.2-.2v-12.9c0-.1,0-.2-.2-.2-1.1,0-2,1-2,2.3v8.8Z"/>
  <path id="F2_x5F_31" class="st0" d="M73.2,453.4c-.3.4-.8.4-1.8.4h-5.8c-1,0-1.5,0-1.8-.4s-.3-1-.3-2.1v-10c0-1.2,0-1.8.3-2.1s.8-.4,1.8-.4h5.8c1,0,1.5,0,1.8.4s.3,1,.3,2.1v10c0,1.2,0,1.8-.3,2.1ZM60.5,450.7c0,1.3.9,2.3,2,2.3s.2-.1.2-.2v-12.9c0-.1,0-.2-.2-.2-1.1,0-2,1-2,2.3v8.8Z"/>
  <path id="F2_x5F_32" class="st0" d="M73.2,472.4c-.3.4-.8.4-1.8.4h-5.8c-1,0-1.5,0-1.8-.4s-.3-1-.3-2.1v-10c0-1.2,0-1.8.3-2.1s.8-.4,1.8-.4h5.8c1,0,1.5,0,1.8.4s.3,1,.3,2.1v10c0,1.2,0,1.8-.3,2.1ZM60.5,469.7c0,1.3.9,2.3,2,2.3s.2-.1.2-.2v-12.9c0-.1,0-.2-.2-.2-1.1,0-2,1-2,2.3v8.8Z"/>
  <path id="F2_x5F_33" class="st0" d="M73.2,489.5c-.3.3-.8.3-1.8.3h-5.8c-1,0-1.5,0-1.8-.3-.3-.3-.3-.8-.3-1.8v-8.7c0-1,0-1.5.3-1.9.3-.3.8-.3,1.8-.3h5.8c1,0,1.5,0,1.8.3.3.3.3.8.3,1.9v8.7c0,1,0,1.5-.3,1.8ZM60.5,487.1c0,1.1.9,2,2,2s.2,0,.2-.2v-11.2c0-.1,0-.2-.2-.2-1.1,0-2,.9-2,2v7.6Z"/>
  <path id="F2_x5F_34" class="st0" d="M73.2,507.4c-.3.3-.8.3-1.8.3h-5.8c-1,0-1.5,0-1.8-.3-.3-.3-.3-.9-.3-2v-9.3c0-1.1,0-1.7.3-2,.3-.3.8-.3,1.8-.3h5.8c1,0,1.5,0,1.8.3.3.3.3.9.3,2v9.3c0,1.1,0,1.6-.3,2ZM60.5,504.9c0,1.2.9,2.1,2,2.1s.2,0,.2-.2v-12c0-.1,0-.2-.2-.2-1.1,0-2,1-2,2.1v8.2Z"/>
  <path id="F2_x5F_35" class="st0" d="M73.2,526.4c-.3.4-.8.4-1.8.4h-5.8c-1,0-1.5,0-1.8-.4-.3-.4-.3-1-.3-2.1v-10c0-1.2,0-1.8.3-2.1.3-.4.8-.4,1.8-.4h5.8c1,0,1.5,0,1.8.4.3.4.3,1,.3,2.1v10c0,1.2,0,1.8-.3,2.1ZM60.5,523.7c0,1.3.9,2.3,2,2.3s.2-.1.2-.2v-12.9c0-.1,0-.2-.2-.2-1.1,0-2,1-2,2.3v8.8Z"/>
  <path id="F2_x5F_36" class="st0" d="M73.2,545.4c-.3.4-.8.4-1.8.4h-5.8c-1,0-1.5,0-1.8-.4-.3-.4-.3-1-.3-2.1v-10c0-1.2,0-1.8.3-2.1s.8-.4,1.8-.4h5.8c1,0,1.5,0,1.8.4s.3,1,.3,2.1v10c0,1.2,0,1.8-.3,2.1ZM60.5,542.7c0,1.3.9,2.3,2,2.3s.2-.1.2-.2v-12.9c0-.1,0-.2-.2-.2-1.1,0-2,1-2,2.3v8.8Z"/>
  <path id="F2_x5F_37" class="st0" d="M73.2,564.4c-.3.4-.8.4-1.8.4h-5.8c-1,0-1.5,0-1.8-.4-.3-.4-.3-1-.3-2.1v-10c0-1.2,0-1.8.3-2.1s.8-.4,1.8-.4h5.8c1,0,1.5,0,1.8.4s.3,1,.3,2.1v10c0,1.2,0,1.8-.3,2.1ZM60.5,561.7c0,1.3.9,2.3,2,2.3s.2-.1.2-.2v-12.9c0-.1,0-.2-.2-.2-1.1,0-2,1-2,2.3v8.8Z"/>
  <path id="F2_x5F_38" class="st0" d="M73.2,582.4c-.3.3-.8.3-1.8.3h-5.8c-1,0-1.5,0-1.8-.3-.3-.3-.3-.9-.3-2v-9.3c0-1.1,0-1.6.3-2,.3-.3.8-.3,1.8-.3h5.8c1,0,1.5,0,1.8.3.3.3.3.9.3,2v9.3c0,1.1,0,1.6-.3,2ZM60.5,579.9c0,1.2.9,2.1,2,2.1s.2,0,.2-.2v-12c0-.1,0-.2-.2-.2-1.1,0-2,1-2,2.1v8.2Z"/>
  <path id="F2_x5F_39" class="st0" d="M73.2,600.4c-.3.3-.8.3-1.8.3h-5.8c-1,0-1.5,0-1.8-.3-.3-.3-.3-.9-.3-2v-9.3c0-1.1,0-1.6.3-2,.3-.3.8-.3,1.8-.3h5.8c1,0,1.5,0,1.8.3.3.3.3.9.3,2v9.3c0,1.1,0,1.6-.3,2ZM60.5,597.9c0,1.2.9,2.1,2,2.1s.2,0,.2-.2v-12c0-.1,0-.2-.2-.2-1.1,0-2,1-2,2.1v8.2Z"/>
  <path id="F2_x5F_40" class="st0" d="M73.2,617.5c-.3.3-.8.3-1.8.3h-5.8c-1,0-1.5,0-1.8-.3-.3-.3-.3-.8-.3-1.9v-8.7c0-1,0-1.5.3-1.9.3-.3.8-.3,1.8-.3h5.8c1,0,1.5,0,1.8.3.3.3.3.8.3,1.9v8.7c0,1,0,1.5-.3,1.9ZM60.5,615.1c0,1.1.9,2,2,2s.2,0,.2-.2v-11.2c0-.1,0-.2-.2-.2-1.1,0-2,.9-2,2v7.6Z"/>
  <path id="F2_x5F_41" class="st0" d="M134.3,739c-.3-.3-.3-.8-.3-1.9v-5.8c0-1,0-1.5.3-1.8.3-.3.8-.3,1.9-.3h8.7c1,0,1.5,0,1.9.3.3.3.3.8.3,1.8v5.8c0,1,0,1.5-.3,1.9-.3.3-.8.3-1.9.3h-8.7c-1,0-1.5,0-1.9-.3ZM136.7,726.3c-1.1,0-2,.9-2,2s0,.2.2.2h11.2c.1,0,.2,0,.2-.2,0-1.1-.9-2-2-2h-7.6Z"/>
  <path id="F2_x5F_42" class="st0" d="M151.3,739c-.3-.3-.3-.8-.3-1.9v-5.8c0-1,0-1.5.3-1.8.3-.3.8-.3,1.9-.3h8.7c1,0,1.5,0,1.9.3.3.3.3.8.3,1.8v5.8c0,1,0,1.5-.3,1.9-.3.3-.8.3-1.9.3h-8.7c-1,0-1.5,0-1.9-.3ZM153.7,726.3c-1.1,0-2,.9-2,2s0,.2.2.2h11.2c.1,0,.2,0,.2-.2,0-1.1-.9-2-2-2h-7.6Z"/>
  <path id="F2_x5F_43" class="st0" d="M168.3,739c-.3-.3-.3-.8-.3-1.9v-5.8c0-1,0-1.5.3-1.8.3-.3.8-.3,1.9-.3h8.7c1,0,1.5,0,1.9.3.3.3.3.8.3,1.8v5.8c0,1,0,1.5-.3,1.9-.3.3-.8.3-1.9.3h-8.7c-1,0-1.5,0-1.9-.3ZM170.7,726.3c-1.1,0-2,.9-2,2s0,.2.2.2h11.2c.1,0,.2,0,.2-.2,0-1.1-.9-2-2-2h-7.6Z"/>
  <path id="F2_x5F_44" class="st0" d="M185.4,739c-.4-.3-.4-.8-.4-1.9v-5.8c0-1,0-1.5.4-1.8.4-.3,1-.3,2.1-.3h10c1.2,0,1.8,0,2.1.3.4.3.4.8.4,1.8v5.8c0,1,0,1.5-.4,1.9-.4.3-1,.3-2.1.3h-10c-1.2,0-1.8,0-2.1-.3ZM188.1,726.3c-1.3,0-2.3.9-2.3,2s.1.2.2.2h12.9c.1,0,.2,0,.2-.2,0-1.1-1-2-2.3-2h-8.8Z"/>
  <path id="F2_x5F_45" class="st0" d="M204.4,739c-.4-.3-.4-.8-.4-1.9v-5.8c0-1,0-1.5.4-1.8.4-.3,1-.3,2.1-.3h10c1.2,0,1.8,0,2.1.3.4.3.4.8.4,1.8v5.8c0,1,0,1.5-.4,1.9-.4.3-1,.3-2.1.3h-10c-1.2,0-1.8,0-2.1-.3ZM207.1,726.3c-1.3,0-2.3.9-2.3,2s.1.2.2.2h12.9c.1,0,.2,0,.2-.2,0-1.1-1-2-2.3-2h-8.8Z"/>
  <path id="F2_x5F_46" class="st0" d="M223.4,739c-.4-.3-.4-.8-.4-1.9v-5.8c0-1,0-1.5.4-1.8.4-.3,1-.3,2.1-.3h10c1.2,0,1.8,0,2.1.3.4.3.4.8.4,1.8v5.8c0,1,0,1.5-.4,1.9-.4.3-1,.3-2.1.3h-10c-1.2,0-1.8,0-2.1-.3ZM226.1,726.3c-1.3,0-2.3.9-2.3,2s.1.2.2.2h12.9c.1,0,.2,0,.2-.2,0-1.1-1-2-2.3-2h-8.8Z"/>
  <path id="F2_x5F_47" class="st0" d="M242.4,739c-.4-.3-.4-.8-.4-1.9v-5.8c0-1,0-1.5.4-1.8.4-.3,1-.3,2.1-.3h10c1.2,0,1.8,0,2.1.3.4.3.4.8.4,1.8v5.8c0,1,0,1.5-.4,1.9-.4.3-1,.3-2.1.3h-10c-1.2,0-1.8,0-2.1-.3ZM245.1,726.3c-1.3,0-2.3.9-2.3,2s.1.2.2.2h12.9c.1,0,.2,0,.2-.2,0-1.1-1-2-2.3-2h-8.8Z"/>
  <path id="F2_x5F_48" class="st0" d="M261.4,739c-.4-.3-.4-.8-.4-1.9v-5.8c0-1,0-1.5.4-1.8.4-.3,1-.3,2.1-.3h10c1.2,0,1.8,0,2.1.3.4.3.4.8.4,1.8v5.8c0,1,0,1.5-.4,1.9-.4.3-1,.3-2.1.3h-10c-1.2,0-1.8,0-2.1-.3ZM264.1,726.3c-1.3,0-2.3.9-2.3,2s.1.2.2.2h12.9c.1,0,.2,0,.2-.2,0-1.1-1-2-2.3-2h-8.8Z"/>
  <path id="F2_x5F_49" class="st0" d="M280.4,739c-.4-.3-.4-.8-.4-1.9v-5.8c0-1,0-1.5.4-1.8.4-.3,1-.3,2.1-.3h10c1.2,0,1.8,0,2.1.3.4.3.4.8.4,1.8v5.8c0,1,0,1.5-.4,1.9-.4.3-1,.3-2.1.3h-10c-1.2,0-1.8,0-2.1-.3ZM283.1,726.3c-1.3,0-2.3.9-2.3,2s.1.2.2.2h12.9c.1,0,.2,0,.2-.2,0-1.1-1-2-2.3-2h-8.8Z"/>
  <path id="F2_x5F_50" class="st0" d="M299.4,739c-.4-.3-.4-.8-.4-1.9v-5.8c0-1,0-1.5.4-1.8.4-.3,1-.3,2.1-.3h10c1.2,0,1.8,0,2.1.3.4.3.4.8.4,1.8v5.8c0,1,0,1.5-.4,1.9-.4.3-1,.3-2.1.3h-10c-1.2,0-1.8,0-2.1-.3ZM302.1,726.3c-1.3,0-2.3.9-2.3,2s.1.2.2.2h12.9c.1,0,.2,0,.2-.2,0-1.1-1-2-2.3-2h-8.8Z"/>
  <path id="F2_x5F_51" class="st0" d="M318.4,739c-.4-.3-.4-.8-.4-1.9v-5.8c0-1,0-1.5.4-1.8.4-.3,1-.3,2.1-.3h10c1.2,0,1.8,0,2.1.3.4.3.4.8.4,1.8v5.8c0,1,0,1.5-.4,1.9-.4.3-1,.3-2.1.3h-10c-1.2,0-1.8,0-2.1-.3ZM321.1,726.3c-1.3,0-2.3.9-2.3,2s.1.2.2.2h12.9c.1,0,.2,0,.2-.2,0-1.1-1-2-2.3-2h-8.8Z"/>
  <path id="F3_x5F_1" class="st0" d="M613.2,114.1c.3.3.3.8.3,1.9v5.8c0,1,0,1.5-.3,1.8-.3.3-.8.3-1.8.3h-8.7c-1,0-1.5,0-1.8-.3-.3-.3-.3-.8-.3-1.8v-5.8c0-1,0-1.5.3-1.9.3-.3.8-.3,1.8-.3h8.7c1,0,1.5,0,1.8.3ZM610.8,126.8c1.1,0,2-.9,2-2s0-.2-.2-.2h-11.2c-.1,0-.2,0-.2.2,0,1.1.9,2,2,2h7.6Z"/>
  <path id="F3_x5F_2" class="st0" d="M596.2,114.1c.3.3.3.8.3,1.9v5.8c0,1,0,1.5-.3,1.8-.3.3-.9.3-2,.3h-9.3c-1.1,0-1.7,0-2-.3-.3-.3-.3-.8-.3-1.8v-5.8c0-1,0-1.5.3-1.9.3-.3.9-.3,2-.3h9.3c1.1,0,1.7,0,2,.3ZM593.6,126.8c1.2,0,2.1-.9,2.1-2s0-.2-.2-.2h-12c-.1,0-.2,0-.2.2,0,1.1.9,2,2.1,2h8.2Z"/>
  <path id="F3_x5F_3" class="st0" d="M578.2,114.1c.3.3.3.8.3,1.9v5.8c0,1,0,1.5-.3,1.8-.3.3-.9.3-2,.3h-9.3c-1.1,0-1.7,0-2-.3-.3-.3-.3-.8-.3-1.8v-5.8c0-1,0-1.5.3-1.9.3-.3.9-.3,2-.3h9.3c1.1,0,1.7,0,2,.3ZM575.6,126.8c1.2,0,2.1-.9,2.1-2s0-.2-.2-.2h-12c-.1,0-.2,0-.2.2,0,1.1.9,2,2.1,2h8.2Z"/>
  <path id="F3_x5F_4" class="st0" d="M560.1,114.1c.4.3.4.8.4,1.9v5.8c0,1,0,1.5-.4,1.8-.4.3-1,.3-2.1.3h-10c-1.2,0-1.8,0-2.1-.3-.4-.3-.4-.8-.4-1.8v-5.8c0-1,0-1.5.4-1.9.4-.3,1-.3,2.1-.3h10c1.2,0,1.8,0,2.1.3ZM557.4,126.8c1.3,0,2.3-.9,2.3-2s-.1-.2-.2-.2h-12.9c-.1,0-.2,0-.2.2,0,1.1,1,2,2.3,2h8.8Z"/>
  <path id="F3_x5F_5" class="st0" d="M541.1,114.1c.4.3.4.8.4,1.9v5.8c0,1,0,1.5-.4,1.8-.4.3-1,.3-2.1.3h-10c-1.2,0-1.8,0-2.1-.3-.4-.3-.4-.8-.4-1.8v-5.8c0-1,0-1.5.4-1.9.4-.3,1-.3,2.1-.3h10c1.2,0,1.8,0,2.1.3ZM538.4,126.8c1.3,0,2.3-.9,2.3-2s-.1-.2-.2-.2h-12.9c-.1,0-.2,0-.2.2,0,1.1,1,2,2.3,2h8.8Z"/>
  <path id="F3_x5F_6" class="st0" d="M522.1,114.1c.4.3.4.8.4,1.9v5.8c0,1,0,1.5-.4,1.8-.4.3-1,.3-2.1.3h-10c-1.2,0-1.8,0-2.1-.3s-.4-.8-.4-1.8v-5.8c0-1,0-1.5.4-1.9.4-.3,1-.3,2.1-.3h10c1.2,0,1.8,0,2.1.3ZM519.4,126.8c1.3,0,2.3-.9,2.3-2s-.1-.2-.2-.2h-12.9c-.1,0-.2,0-.2.2,0,1.1,1,2,2.3,2h8.8Z"/>
  <path id="F3_x5F_7" class="st0" d="M503.2,114.1c.3.3.3.8.3,1.9v5.8c0,1,0,1.5-.3,1.8-.3.3-.9.3-2,.3h-9.3c-1.1,0-1.6,0-2-.3-.3-.3-.3-.8-.3-1.8v-5.8c0-1,0-1.5.3-1.9.3-.3.9-.3,2-.3h9.3c1.1,0,1.6,0,2,.3ZM500.6,126.8c1.2,0,2.1-.9,2.1-2s0-.2-.2-.2h-12c-.1,0-.2,0-.2.2,0,1.1.9,2,2.1,2h8.2Z"/>
  <path id="F3_x5F_8" class="st0" d="M485.2,114.1c.3.3.3.8.3,1.9v5.8c0,1,0,1.5-.3,1.8-.3.3-.8.3-1.9.3h-8.7c-1,0-1.5,0-1.9-.3-.3-.3-.3-.8-.3-1.8v-5.8c0-1,0-1.5.3-1.9.3-.3.8-.3,1.9-.3h8.7c1,0,1.5,0,1.9.3ZM482.8,126.8c1.1,0,2-.9,2-2s0-.2-.2-.2h-11.2c-.1,0-.2,0-.2.2,0,1.1.9,2,2,2h7.6Z"/>
  <path id="F3_x5F_9" class="st0" d="M468.1,114.1c.4.3.4.8.4,1.9v5.8c0,1,0,1.5-.4,1.8s-1,.3-2.1.3h-10c-1.2,0-1.8,0-2.1-.3s-.4-.8-.4-1.8v-5.8c0-1,0-1.5.4-1.9.4-.3,1-.3,2.1-.3h10c1.2,0,1.8,0,2.1.3ZM465.4,126.8c1.3,0,2.3-.9,2.3-2s-.1-.2-.2-.2h-12.9c-.1,0-.2,0-.2.2,0,1.1,1,2,2.3,2h8.8Z"/>
  <path id="F3_x5F_10" class="st0" d="M449.1,114.1c.4.3.4.8.4,1.9v5.8c0,1,0,1.5-.4,1.8s-1,.3-2.1.3h-10c-1.2,0-1.8,0-2.1-.3s-.4-.8-.4-1.8v-5.8c0-1,0-1.5.4-1.9.4-.3,1-.3,2.1-.3h10c1.2,0,1.8,0,2.1.3ZM446.4,126.8c1.3,0,2.3-.9,2.3-2s-.1-.2-.2-.2h-12.9c-.1,0-.2,0-.2.2,0,1.1,1,2,2.3,2h8.8Z"/>
  <path id="F3_x5F_11" class="st0" d="M430.1,114.1c.4.3.4.8.4,1.9v5.8c0,1,0,1.5-.4,1.8s-1,.3-2.1.3h-10c-1.2,0-1.8,0-2.1-.3s-.4-.8-.4-1.8v-5.8c0-1,0-1.5.4-1.9.4-.3,1-.3,2.1-.3h10c1.2,0,1.8,0,2.1.3ZM427.4,126.8c1.3,0,2.3-.9,2.3-2s-.1-.2-.2-.2h-12.9c-.1,0-.2,0-.2.2,0,1.1,1,2,2.3,2h8.8Z"/>
  <path id="F3_x5F_12" class="st0" d="M411.1,114.1c.4.3.4.8.4,1.9v5.8c0,1,0,1.5-.4,1.8s-1,.3-2.1.3h-10c-1.2,0-1.8,0-2.1-.3s-.4-.8-.4-1.8v-5.8c0-1,0-1.5.4-1.9.4-.3,1-.3,2.1-.3h10c1.2,0,1.8,0,2.1.3ZM408.4,126.8c1.3,0,2.3-.9,2.3-2s-.1-.2-.2-.2h-12.9c-.1,0-.2,0-.2.2,0,1.1,1,2,2.3,2h8.8Z"/>
  <path id="F3_x5F_13" class="st0" d="M392.1,114.1c.4.3.4.8.4,1.9v5.8c0,1,0,1.5-.4,1.8s-1,.3-2.1.3h-10c-1.2,0-1.8,0-2.1-.3s-.4-.8-.4-1.8v-5.8c0-1,0-1.5.4-1.9.4-.3,1-.3,2.1-.3h10c1.2,0,1.8,0,2.1.3ZM389.4,126.8c1.3,0,2.3-.9,2.3-2s-.1-.2-.2-.2h-12.9c-.1,0-.2,0-.2.2,0,1.1,1,2,2.3,2h8.8Z"/>
  <path id="F3_x5F_14" class="st0" d="M373.1,114.1c.4.3.4.8.4,1.9v5.8c0,1,0,1.5-.4,1.8s-1,.3-2.1.3h-10c-1.2,0-1.8,0-2.1-.3s-.4-.8-.4-1.8v-5.8c0-1,0-1.5.4-1.9.4-.3,1-.3,2.1-.3h10c1.2,0,1.8,0,2.1.3ZM370.4,126.8c1.3,0,2.3-.9,2.3-2s-.1-.2-.2-.2h-12.9c-.1,0-.2,0-.2.2,0,1.1,1,2,2.3,2h8.8Z"/>
  <path id="F3_x5F_15" class="st0" d="M354.1,114.1c.4.3.4.8.4,1.9v5.8c0,1,0,1.5-.4,1.8s-1,.3-2.1.3h-10c-1.2,0-1.8,0-2.1-.3s-.4-.8-.4-1.8v-5.8c0-1,0-1.5.4-1.9.4-.3,1-.3,2.1-.3h10c1.2,0,1.8,0,2.1.3ZM351.4,126.8c1.3,0,2.3-.9,2.3-2s-.1-.2-.2-.2h-12.9c-.1,0-.2,0-.2.2,0,1.1,1,2,2.3,2h8.8Z"/>
  <path id="F3_x5F_16" class="st0" d="M335.1,114.1c.4.3.4.8.4,1.9v5.8c0,1,0,1.5-.4,1.8s-1,.3-2.1.3h-10c-1.2,0-1.8,0-2.1-.3s-.4-.8-.4-1.8v-5.8c0-1,0-1.5.4-1.9.4-.3,1-.3,2.1-.3h10c1.2,0,1.8,0,2.1.3ZM332.4,126.8c1.3,0,2.3-.9,2.3-2s-.1-.2-.2-.2h-12.9c-.1,0-.2,0-.2.2,0,1.1,1,2,2.3,2h8.8Z"/>
  <path id="F3_x5F_17" class="st0" d="M316.1,114.1c.4.3.4.8.4,1.9v5.8c0,1,0,1.5-.4,1.8s-1,.3-2.1.3h-10c-1.2,0-1.8,0-2.1-.3s-.4-.8-.4-1.8v-5.8c0-1,0-1.5.4-1.9.4-.3,1-.3,2.1-.3h10c1.2,0,1.8,0,2.1.3ZM313.4,126.8c1.3,0,2.3-.9,2.3-2s-.1-.2-.2-.2h-12.9c-.1,0-.2,0-.2.2,0,1.1,1,2,2.3,2h8.8Z"/>
  <path id="F3_x5F_18" class="st0" d="M297.1,114.1c.4.3.4.8.4,1.9v5.8c0,1,0,1.5-.4,1.8s-1,.3-2.1.3h-10c-1.2,0-1.8,0-2.1-.3s-.4-.8-.4-1.8v-5.8c0-1,0-1.5.4-1.9.4-.3,1-.3,2.1-.3h10c1.2,0,1.8,0,2.1.3ZM294.4,126.8c1.3,0,2.3-.9,2.3-2s-.1-.2-.2-.2h-12.9c-.1,0-.2,0-.2.2,0,1.1,1,2,2.3,2h8.8Z"/>
  <path id="F3_x5F_19" class="st0" d="M278.1,114.1c.4.3.4.8.4,1.9v5.8c0,1,0,1.5-.4,1.8s-1,.3-2.1.3h-10c-1.2,0-1.8,0-2.1-.3s-.4-.8-.4-1.8v-5.8c0-1,0-1.5.4-1.9.4-.3,1-.3,2.1-.3h10c1.2,0,1.8,0,2.1.3ZM275.4,126.8c1.3,0,2.3-.9,2.3-2s-.1-.2-.2-.2h-12.9c-.1,0-.2,0-.2.2,0,1.1,1,2,2.3,2h8.8Z"/>
  <path id="F3_x5F_20" class="st0" d="M259.1,114.1c.4.3.4.8.4,1.9v5.8c0,1,0,1.5-.4,1.8s-1,.3-2.1.3h-10c-1.2,0-1.8,0-2.1-.3s-.4-.8-.4-1.8v-5.8c0-1,0-1.5.4-1.9.4-.3,1-.3,2.1-.3h10c1.2,0,1.8,0,2.1.3ZM256.4,126.8c1.3,0,2.3-.9,2.3-2s-.1-.2-.2-.2h-12.9c-.1,0-.2,0-.2.2,0,1.1,1,2,2.3,2h8.8Z"/>
  <path id="F3_x5F_21" class="st0" d="M55.2,263.4c-.3.4-.8.4-1.8.4h-5.8c-1,0-1.5,0-1.8-.4s-.3-1-.3-2.1v-10c0-1.2,0-1.8.3-2.1s.8-.4,1.8-.4h5.8c1,0,1.5,0,1.8.4.3.4.3,1,.3,2.1v10c0,1.2,0,1.8-.3,2.1ZM42.5,260.7c0,1.3.9,2.3,2,2.3s.2-.1.2-.2v-12.9c0-.1,0-.2-.2-.2-1.1,0-2,1-2,2.3v8.8Z"/>
  <path id="F3_x5F_22" class="st0" d="M55.2,282.4c-.3.4-.8.4-1.8.4h-5.8c-1,0-1.5,0-1.8-.4s-.3-1-.3-2.1v-10c0-1.2,0-1.8.3-2.1s.8-.4,1.8-.4h5.8c1,0,1.5,0,1.8.4.3.4.3,1,.3,2.1v10c0,1.2,0,1.8-.3,2.1ZM42.5,279.7c0,1.3.9,2.3,2,2.3s.2-.1.2-.2v-12.9c0-.1,0-.2-.2-.2-1.1,0-2,1-2,2.3v8.8Z"/>
  <path id="F3_x5F_23" class="st0" d="M55.2,301.4c-.3.4-.8.4-1.8.4h-5.8c-1,0-1.5,0-1.8-.4s-.3-1-.3-2.1v-10c0-1.2,0-1.8.3-2.1s.8-.4,1.8-.4h5.8c1,0,1.5,0,1.8.4.3.4.3,1,.3,2.1v10c0,1.2,0,1.8-.3,2.1ZM42.5,298.7c0,1.3.9,2.3,2,2.3s.2-.1.2-.2v-12.9c0-.1,0-.2-.2-.2-1.1,0-2,1-2,2.3v8.8Z"/>
  <path id="F3_x5F_24" class="st0" d="M55.2,320.4c-.3.4-.8.4-1.8.4h-5.8c-1,0-1.5,0-1.8-.4s-.3-1-.3-2.1v-10c0-1.2,0-1.8.3-2.1s.8-.4,1.8-.4h5.8c1,0,1.5,0,1.8.4.3.4.3,1,.3,2.1v10c0,1.2,0,1.8-.3,2.1ZM42.5,317.7c0,1.3.9,2.3,2,2.3s.2-.1.2-.2v-12.9c0-.1,0-.2-.2-.2-1.1,0-2,1-2,2.3v8.8Z"/>
  <path id="F3_x5F_25" class="st0" d="M55.2,339.4c-.3.4-.8.4-1.8.4h-5.8c-1,0-1.5,0-1.8-.4s-.3-1-.3-2.1v-10c0-1.2,0-1.8.3-2.1s.8-.4,1.8-.4h5.8c1,0,1.5,0,1.8.4.3.4.3,1,.3,2.1v10c0,1.2,0,1.8-.3,2.1ZM42.5,336.7c0,1.3.9,2.3,2,2.3s.2-.1.2-.2v-12.9c0-.1,0-.2-.2-.2-1.1,0-2,1-2,2.3v8.8Z"/>
  <path id="F3_x5F_26" class="st0" d="M55.2,358.4c-.3.4-.8.4-1.8.4h-5.8c-1,0-1.5,0-1.8-.4s-.3-1-.3-2.1v-10c0-1.2,0-1.8.3-2.1s.8-.4,1.8-.4h5.8c1,0,1.5,0,1.8.4.3.4.3,1,.3,2.1v10c0,1.2,0,1.8-.3,2.1ZM42.5,355.7c0,1.3.9,2.3,2,2.3s.2-.1.2-.2v-12.9c0-.1,0-.2-.2-.2-1.1,0-2,1-2,2.3v8.8Z"/>
  <path id="F3_x5F_27" class="st0" d="M55.2,377.4c-.3.4-.8.4-1.8.4h-5.8c-1,0-1.5,0-1.8-.4s-.3-1-.3-2.1v-10c0-1.2,0-1.8.3-2.1s.8-.4,1.8-.4h5.8c1,0,1.5,0,1.8.4.3.4.3,1,.3,2.1v10c0,1.2,0,1.8-.3,2.1ZM42.5,374.7c0,1.3.9,2.3,2,2.3s.2-.1.2-.2v-12.9c0-.1,0-.2-.2-.2-1.1,0-2,1-2,2.3v8.8Z"/>
  <path id="F3_x5F_28" class="st0" d="M55.2,396.4c-.3.4-.8.4-1.8.4h-5.8c-1,0-1.5,0-1.8-.4s-.3-1-.3-2.1v-10c0-1.2,0-1.8.3-2.1s.8-.4,1.8-.4h5.8c1,0,1.5,0,1.8.4.3.4.3,1,.3,2.1v10c0,1.2,0,1.8-.3,2.1ZM42.5,393.7c0,1.3.9,2.3,2,2.3s.2-.1.2-.2v-12.9c0-.1,0-.2-.2-.2-1.1,0-2,1-2,2.3v8.8Z"/>
  <path id="F3_x5F_29" class="st0" d="M55.2,415.4c-.3.4-.8.4-1.8.4h-5.8c-1,0-1.5,0-1.8-.4s-.3-1-.3-2.1v-10c0-1.2,0-1.8.3-2.1s.8-.4,1.8-.4h5.8c1,0,1.5,0,1.8.4.3.4.3,1,.3,2.1v10c0,1.2,0,1.8-.3,2.1ZM42.5,412.7c0,1.3.9,2.3,2,2.3s.2-.1.2-.2v-12.9c0-.1,0-.2-.2-.2-1.1,0-2,1-2,2.3v8.8Z"/>
  <path id="F3_x5F_30" class="st0" d="M55.2,434.4c-.3.4-.8.4-1.8.4h-5.8c-1,0-1.5,0-1.8-.4s-.3-1-.3-2.1v-10c0-1.2,0-1.8.3-2.1s.8-.4,1.8-.4h5.8c1,0,1.5,0,1.8.4.3.4.3,1,.3,2.1v10c0,1.2,0,1.8-.3,2.1ZM42.5,431.7c0,1.3.9,2.3,2,2.3s.2-.1.2-.2v-12.9c0-.1,0-.2-.2-.2-1.1,0-2,1-2,2.3v8.8Z"/>
  <path id="F3_x5F_31" class="st0" d="M55.2,453.4c-.3.4-.8.4-1.8.4h-5.8c-1,0-1.5,0-1.8-.4s-.3-1-.3-2.1v-10c0-1.2,0-1.8.3-2.1s.8-.4,1.8-.4h5.8c1,0,1.5,0,1.8.4.3.4.3,1,.3,2.1v10c0,1.2,0,1.8-.3,2.1ZM42.5,450.7c0,1.3.9,2.3,2,2.3s.2-.1.2-.2v-12.9c0-.1,0-.2-.2-.2-1.1,0-2,1-2,2.3v8.8Z"/>
  <path id="F3_x5F_32" class="st0" d="M55.2,472.4c-.3.4-.8.4-1.8.4h-5.8c-1,0-1.5,0-1.8-.4s-.3-1-.3-2.1v-10c0-1.2,0-1.8.3-2.1s.8-.4,1.8-.4h5.8c1,0,1.5,0,1.8.4.3.4.3,1,.3,2.1v10c0,1.2,0,1.8-.3,2.1ZM42.5,469.7c0,1.3.9,2.3,2,2.3s.2-.1.2-.2v-12.9c0-.1,0-.2-.2-.2-1.1,0-2,1-2,2.3v8.8Z"/>
  <path id="F3_x5F_33" class="st0" d="M55.2,489.5c-.3.3-.8.3-1.8.3h-5.8c-1,0-1.5,0-1.8-.3-.3-.3-.3-.8-.3-1.8v-8.7c0-1,0-1.5.3-1.9.3-.3.8-.3,1.8-.3h5.8c1,0,1.5,0,1.8.3.3.3.3.8.3,1.9v8.7c0,1,0,1.5-.3,1.8ZM42.5,487.1c0,1.1.9,2,2,2s.2,0,.2-.2v-11.2c0-.1,0-.2-.2-.2-1.1,0-2,.9-2,2v7.6Z"/>
  <path id="F3_x5F_34" class="st0" d="M55.2,507.4c-.3.3-.8.3-1.8.3h-5.8c-1,0-1.5,0-1.8-.3-.3-.3-.3-.9-.3-2v-9.3c0-1.1,0-1.7.3-2,.3-.3.8-.3,1.8-.3h5.8c1,0,1.5,0,1.8.3.3.3.3.9.3,2v9.3c0,1.1,0,1.6-.3,2ZM42.5,504.9c0,1.2.9,2.1,2,2.1s.2,0,.2-.2v-12c0-.1,0-.2-.2-.2-1.1,0-2,1-2,2.1v8.2Z"/>
  <path id="F3_x5F_35" class="st0" d="M55.2,526.4c-.3.4-.8.4-1.8.4h-5.8c-1,0-1.5,0-1.8-.4-.3-.4-.3-1-.3-2.1v-10c0-1.2,0-1.8.3-2.1.3-.4.8-.4,1.8-.4h5.8c1,0,1.5,0,1.8.4.3.4.3,1,.3,2.1v10c0,1.2,0,1.8-.3,2.1ZM42.5,523.7c0,1.3.9,2.3,2,2.3s.2-.1.2-.2v-12.9c0-.1,0-.2-.2-.2-1.1,0-2,1-2,2.3v8.8Z"/>
  <path id="F3_x5F_36" class="st0" d="M55.2,545.4c-.3.4-.8.4-1.8.4h-5.8c-1,0-1.5,0-1.8-.4-.3-.4-.3-1-.3-2.1v-10c0-1.2,0-1.8.3-2.1s.8-.4,1.8-.4h5.8c1,0,1.5,0,1.8.4.3.4.3,1,.3,2.1v10c0,1.2,0,1.8-.3,2.1ZM42.5,542.7c0,1.3.9,2.3,2,2.3s.2-.1.2-.2v-12.9c0-.1,0-.2-.2-.2-1.1,0-2,1-2,2.3v8.8Z"/>
  <path id="F3_x5F_37" class="st0" d="M55.2,564.4c-.3.4-.8.4-1.8.4h-5.8c-1,0-1.5,0-1.8-.4-.3-.4-.3-1-.3-2.1v-10c0-1.2,0-1.8.3-2.1s.8-.4,1.8-.4h5.8c1,0,1.5,0,1.8.4.3.4.3,1,.3,2.1v10c0,1.2,0,1.8-.3,2.1ZM42.5,561.7c0,1.3.9,2.3,2,2.3s.2-.1.2-.2v-12.9c0-.1,0-.2-.2-.2-1.1,0-2,1-2,2.3v8.8Z"/>
  <path id="F3_x5F_38" class="st0" d="M55.2,582.4c-.3.3-.8.3-1.8.3h-5.8c-1,0-1.5,0-1.8-.3-.3-.3-.3-.9-.3-2v-9.3c0-1.1,0-1.6.3-2,.3-.3.8-.3,1.8-.3h5.8c1,0,1.5,0,1.8.3.3.3.3.9.3,2v9.3c0,1.1,0,1.6-.3,2ZM42.5,579.9c0,1.2.9,2.1,2,2.1s.2,0,.2-.2v-12c0-.1,0-.2-.2-.2-1.1,0-2,1-2,2.1v8.2Z"/>
  <path id="F3_x5F_39" class="st0" d="M55.2,600.4c-.3.3-.8.3-1.8.3h-5.8c-1,0-1.5,0-1.8-.3-.3-.3-.3-.9-.3-2v-9.3c0-1.1,0-1.6.3-2,.3-.3.8-.3,1.8-.3h5.8c1,0,1.5,0,1.8.3.3.3.3.9.3,2v9.3c0,1.1,0,1.6-.3,2ZM42.5,597.9c0,1.2.9,2.1,2,2.1s.2,0,.2-.2v-12c0-.1,0-.2-.2-.2-1.1,0-2,1-2,2.1v8.2Z"/>
  <path id="F3_x5F_40" class="st0" d="M55.2,617.5c-.3.3-.8.3-1.8.3h-5.8c-1,0-1.5,0-1.8-.3-.3-.3-.3-.8-.3-1.9v-8.7c0-1,0-1.5.3-1.9.3-.3.8-.3,1.8-.3h5.8c1,0,1.5,0,1.8.3.3.3.3.8.3,1.9v8.7c0,1,0,1.5-.3,1.9ZM42.5,615.1c0,1.1.9,2,2,2s.2,0,.2-.2v-11.2c0-.1,0-.2-.2-.2-1.1,0-2,.9-2,2v7.6Z"/>
  <path id="F3_x5F_41" class="st0" d="M134.3,760c-.3-.3-.3-.8-.3-1.9v-5.8c0-1,0-1.5.3-1.8.3-.3.8-.3,1.9-.3h8.7c1,0,1.5,0,1.9.3.3.3.3.8.3,1.8v5.8c0,1,0,1.5-.3,1.9-.3.3-.8.3-1.9.3h-8.7c-1,0-1.5,0-1.9-.3ZM136.7,747.3c-1.1,0-2,.9-2,2s0,.2.2.2h11.2c.1,0,.2,0,.2-.2,0-1.1-.9-2-2-2h-7.6Z"/>
  <path id="F3_x5F_42" class="st0" d="M151.3,760c-.3-.3-.3-.8-.3-1.9v-5.8c0-1,0-1.5.3-1.8.3-.3.8-.3,1.9-.3h8.7c1,0,1.5,0,1.9.3.3.3.3.8.3,1.8v5.8c0,1,0,1.5-.3,1.9-.3.3-.8.3-1.9.3h-8.7c-1,0-1.5,0-1.9-.3ZM153.7,747.3c-1.1,0-2,.9-2,2s0,.2.2.2h11.2c.1,0,.2,0,.2-.2,0-1.1-.9-2-2-2h-7.6Z"/>
  <path id="F3_x5F_43" class="st0" d="M168.3,760c-.3-.3-.3-.8-.3-1.9v-5.8c0-1,0-1.5.3-1.8.3-.3.8-.3,1.9-.3h8.7c1,0,1.5,0,1.9.3.3.3.3.8.3,1.8v5.8c0,1,0,1.5-.3,1.9-.3.3-.8.3-1.9.3h-8.7c-1,0-1.5,0-1.9-.3ZM170.7,747.3c-1.1,0-2,.9-2,2s0,.2.2.2h11.2c.1,0,.2,0,.2-.2,0-1.1-.9-2-2-2h-7.6Z"/>
  <path id="F3_x5F_44" class="st0" d="M185.4,760c-.4-.3-.4-.8-.4-1.9v-5.8c0-1,0-1.5.4-1.8.4-.3,1-.3,2.1-.3h10c1.2,0,1.8,0,2.1.3.4.3.4.8.4,1.8v5.8c0,1,0,1.5-.4,1.9-.4.3-1,.3-2.1.3h-10c-1.2,0-1.8,0-2.1-.3ZM188.1,747.3c-1.3,0-2.3.9-2.3,2s.1.2.2.2h12.9c.1,0,.2,0,.2-.2,0-1.1-1-2-2.3-2h-8.8Z"/>
  <path id="F3_x5F_45" class="st0" d="M204.4,760c-.4-.3-.4-.8-.4-1.9v-5.8c0-1,0-1.5.4-1.8.4-.3,1-.3,2.1-.3h10c1.2,0,1.8,0,2.1.3.4.3.4.8.4,1.8v5.8c0,1,0,1.5-.4,1.9-.4.3-1,.3-2.1.3h-10c-1.2,0-1.8,0-2.1-.3ZM207.1,747.3c-1.3,0-2.3.9-2.3,2s.1.2.2.2h12.9c.1,0,.2,0,.2-.2,0-1.1-1-2-2.3-2h-8.8Z"/>
  <path id="F3_x5F_46" class="st0" d="M223.4,760c-.4-.3-.4-.8-.4-1.9v-5.8c0-1,0-1.5.4-1.8.4-.3,1-.3,2.1-.3h10c1.2,0,1.8,0,2.1.3.4.3.4.8.4,1.8v5.8c0,1,0,1.5-.4,1.9-.4.3-1,.3-2.1.3h-10c-1.2,0-1.8,0-2.1-.3ZM226.1,747.3c-1.3,0-2.3.9-2.3,2s.1.2.2.2h12.9c.1,0,.2,0,.2-.2,0-1.1-1-2-2.3-2h-8.8Z"/>
  <path id="F3_x5F_47" class="st0" d="M242.4,760c-.4-.3-.4-.8-.4-1.9v-5.8c0-1,0-1.5.4-1.8.4-.3,1-.3,2.1-.3h10c1.2,0,1.8,0,2.1.3.4.3.4.8.4,1.8v5.8c0,1,0,1.5-.4,1.9-.4.3-1,.3-2.1.3h-10c-1.2,0-1.8,0-2.1-.3ZM245.1,747.3c-1.3,0-2.3.9-2.3,2s.1.2.2.2h12.9c.1,0,.2,0,.2-.2,0-1.1-1-2-2.3-2h-8.8Z"/>
  <path id="F3_x5F_48" class="st0" d="M261.4,760c-.4-.3-.4-.8-.4-1.9v-5.8c0-1,0-1.5.4-1.8.4-.3,1-.3,2.1-.3h10c1.2,0,1.8,0,2.1.3.4.3.4.8.4,1.8v5.8c0,1,0,1.5-.4,1.9-.4.3-1,.3-2.1.3h-10c-1.2,0-1.8,0-2.1-.3ZM264.1,747.3c-1.3,0-2.3.9-2.3,2s.1.2.2.2h12.9c.1,0,.2,0,.2-.2,0-1.1-1-2-2.3-2h-8.8Z"/>
  <path id="F3_x5F_49" class="st0" d="M280.4,760c-.4-.3-.4-.8-.4-1.9v-5.8c0-1,0-1.5.4-1.8.4-.3,1-.3,2.1-.3h10c1.2,0,1.8,0,2.1.3.4.3.4.8.4,1.8v5.8c0,1,0,1.5-.4,1.9-.4.3-1,.3-2.1.3h-10c-1.2,0-1.8,0-2.1-.3ZM283.1,747.3c-1.3,0-2.3.9-2.3,2s.1.2.2.2h12.9c.1,0,.2,0,.2-.2,0-1.1-1-2-2.3-2h-8.8Z"/>
  <path id="F3_x5F_50" class="st0" d="M299.4,760c-.4-.3-.4-.8-.4-1.9v-5.8c0-1,0-1.5.4-1.8.4-.3,1-.3,2.1-.3h10c1.2,0,1.8,0,2.1.3.4.3.4.8.4,1.8v5.8c0,1,0,1.5-.4,1.9-.4.3-1,.3-2.1.3h-10c-1.2,0-1.8,0-2.1-.3ZM302.1,747.3c-1.3,0-2.3.9-2.3,2s.1.2.2.2h12.9c.1,0,.2,0,.2-.2,0-1.1-1-2-2.3-2h-8.8Z"/>
  <path id="F3_x5F_51" class="st0" d="M318.4,760c-.4-.3-.4-.8-.4-1.9v-5.8c0-1,0-1.5.4-1.8.4-.3,1-.3,2.1-.3h10c1.2,0,1.8,0,2.1.3.4.3.4.8.4,1.8v5.8c0,1,0,1.5-.4,1.9-.4.3-1,.3-2.1.3h-10c-1.2,0-1.8,0-2.1-.3ZM321.1,747.3c-1.3,0-2.3.9-2.3,2s.1.2.2.2h12.9c.1,0,.2,0,.2-.2,0-1.1-1-2-2.3-2h-8.8Z"/>
</svg>