<?xml version="1.0" encoding="UTF-8"?>
<svg id="Layer_1" xmlns="http://www.w3.org/2000/svg" version="1.1" viewBox="0 0 897 962">
  <!-- Generator: Adobe Illustrator 30.0.0, SVG Export Plug-In . SVG Version: 2.1.1 Build 123)  -->
  <defs>
    <style>
      .st0 {
        fill-rule: evenodd;
      }

      .st0, .st1 {
        fill: #313131;
      }
    </style>
  </defs>
  <g id="General_1">
    <rect class="st1" x="212.1" y="100.9" width="369" height="84.5" rx="12" ry="12"/>
  </g>
  <g id="General_2">
    <rect class="st1" x="80" y="268.8" width="74.5" height="389" rx="12" ry="12"/>
  </g>
  <g id="General_3">
    <rect class="st1" x="253" y="740.4" width="199" height="72.1" rx="12" ry="12"/>
  </g>
  <g id="VIP_Adicional">
    <rect class="st1" x="679" y="700.4" width="134.6" height="188.9" rx="12" ry="12"/>
  </g>
  <path id="F1_x5F_1" class="st0" d="M542.8,228.2c.3.3.3.8.3,1.8v5.8c0,1,0,1.5-.3,1.8s-.8.3-1.8.3h-8.7c-1,0-1.5,0-1.8-.3s-.3-.8-.3-1.8v-5.8c0-1,0-1.5.3-1.8s.8-.3,1.8-.3h8.7c1,0,1.5,0,1.8.3ZM540.4,240.9c1.1,0,2-.9,2-2s0-.2-.2-.2h-11.2c0,0-.2,0-.2.2,0,1.1.9,2,2,2h7.6Z"/>
  <path id="F1_x5F_2" class="st0" d="M525.7,228.2c.3.3.3.8.3,1.8v5.8c0,1,0,1.5-.3,1.8s-.9.3-2,.3h-9.3c-1.1,0-1.7,0-2-.3s-.3-.8-.3-1.8v-5.8c0-1,0-1.5.3-1.8s.9-.3,2-.3h9.3c1.1,0,1.7,0,2,.3ZM523.2,240.9c1.2,0,2.1-.9,2.1-2s0-.2-.2-.2h-12c0,0-.2,0-.2.2,0,1.1.9,2,2.1,2h8.2Z"/>
  <path id="F1_x5F_3" class="st0" d="M507.7,228.2c.3.3.3.8.3,1.8v5.8c0,1,0,1.5-.3,1.8s-.9.3-2,.3h-9.3c-1.1,0-1.7,0-2-.3s-.3-.8-.3-1.8v-5.8c0-1,0-1.5.3-1.8s.9-.3,2-.3h9.3c1.1,0,1.7,0,2,.3ZM505.2,240.9c1.2,0,2.1-.9,2.1-2s0-.2-.2-.2h-12c-.1,0-.2,0-.2.2,0,1.1.9,2,2.1,2h8.2Z"/>
  <path id="F1_x5F_4" class="st0" d="M489.7,228.2c.4.3.4.8.4,1.8v5.8c0,1,0,1.5-.4,1.8s-1,.3-2.1.3h-10c-1.2,0-1.8,0-2.1-.3s-.4-.8-.4-1.8v-5.8c0-1,0-1.5.4-1.8s1-.3,2.1-.3h10c1.2,0,1.8,0,2.1.3ZM487,240.9c1.3,0,2.3-.9,2.3-2s-.1-.2-.2-.2h-12.9c-.1,0-.2,0-.2.2,0,1.1,1,2,2.3,2h8.8,0Z"/>
  <path id="F1_x5F_5" class="st0" d="M470.7,228.2c.4.3.4.8.4,1.8v5.8c0,1,0,1.5-.4,1.8s-1,.3-2.1.3h-10c-1.2,0-1.8,0-2.1-.3s-.4-.8-.4-1.8v-5.8c0-1,0-1.5.4-1.8s1-.3,2.1-.3h10c1.2,0,1.8,0,2.1.3ZM468,240.9c1.3,0,2.3-.9,2.3-2s-.1-.2-.2-.2h-12.9c-.1,0-.2,0-.2.2,0,1.1,1,2,2.3,2h8.8,0Z"/>
  <path id="F1_x5F_6" class="st0" d="M451.7,228.2c.4.3.4.8.4,1.8v5.8c0,1,0,1.5-.4,1.8s-1,.3-2.1.3h-10c-1.2,0-1.8,0-2.1-.3s-.4-.8-.4-1.8v-5.8c0-1,0-1.5.4-1.8s1-.3,2.1-.3h10c1.2,0,1.8,0,2.1.3ZM449,240.9c1.3,0,2.3-.9,2.3-2s-.1-.2-.2-.2h-12.9c-.1,0-.2,0-.2.2,0,1.1,1,2,2.3,2h8.8,0Z"/>
  <path id="F1_x5F_7" class="st0" d="M432.7,228.2c.3.3.3.8.3,1.8v5.8c0,1,0,1.5-.3,1.8s-.9.3-2,.3h-9.3c-1.1,0-1.6,0-2-.3-.3-.3-.3-.8-.3-1.8v-5.8c0-1,0-1.5.3-1.8s.9-.3,2-.3h9.3c1.1,0,1.6,0,2,.3ZM430.2,240.9c1.2,0,2.1-.9,2.1-2s0-.2-.2-.2h-12c-.1,0-.2,0-.2.2,0,1.1.9,2,2.1,2h8.2Z"/>
  <path id="F1_x5F_8" class="st0" d="M414.8,228.2c.3.3.3.8.3,1.8v5.8c0,1,0,1.5-.3,1.8s-.8.3-1.9.3h-8.7c-1,0-1.5,0-1.9-.3-.3-.3-.3-.8-.3-1.8v-5.8c0-1,0-1.5.3-1.8s.8-.3,1.9-.3h8.7c1,0,1.5,0,1.9.3ZM412.4,240.9c1.1,0,2-.9,2-2s0-.2-.2-.2h-11.2c-.1,0-.2,0-.2.2,0,1.1.9,2,2,2h7.6Z"/>
  <path id="F1_x5F_9" class="st0" d="M397.7,228.2c.4.3.4.8.4,1.8v5.8c0,1,0,1.5-.4,1.8s-1,.3-2.1.3h-10c-1.2,0-1.8,0-2.1-.3s-.4-.8-.4-1.8v-5.8c0-1,0-1.5.4-1.8s1-.3,2.1-.3h10c1.2,0,1.8,0,2.1.3ZM395,240.9c1.3,0,2.3-.9,2.3-2s-.1-.2-.2-.2h-12.9c-.1,0-.2,0-.2.2,0,1.1,1,2,2.3,2h8.8,0Z"/>
  <path id="F1_x5F_10" class="st0" d="M378.7,228.2c.4.3.4.8.4,1.8v5.8c0,1,0,1.5-.4,1.8s-1,.3-2.1.3h-10c-1.2,0-1.8,0-2.1-.3s-.4-.8-.4-1.8v-5.8c0-1,0-1.5.4-1.8s1-.3,2.1-.3h10c1.2,0,1.8,0,2.1.3ZM376,240.9c1.3,0,2.3-.9,2.3-2s-.1-.2-.2-.2h-12.9c-.1,0-.2,0-.2.2,0,1.1,1,2,2.3,2h8.8,0Z"/>
  <path id="F1_x5F_11" class="st0" d="M359.7,228.2c.4.3.4.8.4,1.8v5.8c0,1,0,1.5-.4,1.8s-1,.3-2.1.3h-10c-1.2,0-1.8,0-2.1-.3s-.4-.8-.4-1.8v-5.8c0-1,0-1.5.4-1.8s1-.3,2.1-.3h10c1.2,0,1.8,0,2.1.3ZM357,240.9c1.3,0,2.3-.9,2.3-2s-.1-.2-.2-.2h-12.9c-.1,0-.2,0-.2.2,0,1.1,1,2,2.3,2h8.8,0Z"/>
  <path id="F1_x5F_12" class="st0" d="M340.7,228.2c.4.3.4.8.4,1.8v5.8c0,1,0,1.5-.4,1.8s-1,.3-2.1.3h-10c-1.2,0-1.8,0-2.1-.3s-.4-.8-.4-1.8v-5.8c0-1,0-1.5.4-1.8s1-.3,2.1-.3h10c1.2,0,1.8,0,2.1.3ZM338,240.9c1.3,0,2.3-.9,2.3-2s-.1-.2-.2-.2h-12.9c-.1,0-.2,0-.2.2,0,1.1,1,2,2.3,2h8.8,0Z"/>
  <path id="F1_x5F_13" class="st0" d="M321.7,228.2c.4.3.4.8.4,1.8v5.8c0,1,0,1.5-.4,1.8s-1,.3-2.1.3h-10c-1.2,0-1.8,0-2.1-.3s-.4-.8-.4-1.8v-5.8c0-1,0-1.5.4-1.8s1-.3,2.1-.3h10c1.2,0,1.8,0,2.1.3ZM319,240.9c1.3,0,2.3-.9,2.3-2s-.1-.2-.2-.2h-12.9c-.1,0-.2,0-.2.2,0,1.1,1,2,2.3,2h8.8,0Z"/>
  <path id="F1_x5F_14" class="st0" d="M302.7,228.2c.4.3.4.8.4,1.8v5.8c0,1,0,1.5-.4,1.8s-1,.3-2.1.3h-10c-1.2,0-1.8,0-2.1-.3s-.4-.8-.4-1.8v-5.8c0-1,0-1.5.4-1.8s1-.3,2.1-.3h10c1.2,0,1.8,0,2.1.3ZM300,240.9c1.3,0,2.3-.9,2.3-2s-.1-.2-.2-.2h-12.9c-.1,0-.2,0-.2.2,0,1.1,1,2,2.3,2h8.8,0Z"/>
  <path id="F1_x5F_15" class="st0" d="M283.7,228.2c.4.3.4.8.4,1.8v5.8c0,1,0,1.5-.4,1.8s-1,.3-2.1.3h-10c-1.2,0-1.8,0-2.1-.3s-.4-.8-.4-1.8v-5.8c0-1,0-1.5.4-1.8s1-.3,2.1-.3h10c1.2,0,1.8,0,2.1.3ZM281,240.9c1.3,0,2.3-.9,2.3-2s-.1-.2-.2-.2h-12.9c-.1,0-.2,0-.2.2,0,1.1,1,2,2.3,2h8.8,0Z"/>
  <path id="F1_x5F_16" class="st0" d="M264.7,228.2c.4.3.4.8.4,1.8v5.8c0,1,0,1.5-.4,1.8s-1,.3-2.1.3h-10c-1.2,0-1.8,0-2.1-.3s-.4-.8-.4-1.8v-5.8c0-1,0-1.5.4-1.8s1-.3,2.1-.3h10c1.2,0,1.8,0,2.1.3ZM262,240.9c1.3,0,2.3-.9,2.3-2s-.1-.2-.2-.2h-12.9c-.1,0-.2,0-.2.2,0,1.1,1,2,2.3,2h8.8,0Z"/>
  <path id="F1_x5F_17" class="st0" d="M209.7,331.4c-.3.4-.8.4-1.8.4h-5.8c-1,0-1.5,0-1.8-.4s-.3-1-.3-2.1v-10c0-1.2,0-1.8.3-2.1s.8-.4,1.8-.4h5.8c1,0,1.5,0,1.8.4s.3,1,.3,2.1v10c0,1.2,0,1.8-.3,2.1ZM197,328.7c0,1.3.9,2.3,2,2.3s.2-.1.2-.2v-12.9c0-.1,0-.2-.2-.2-1.1,0-2,1-2,2.3v8.8h0Z"/>
  <path id="F1_x5F_18" class="st0" d="M209.7,350.4c-.3.4-.8.4-1.8.4h-5.8c-1,0-1.5,0-1.8-.4s-.3-1-.3-2.1v-10c0-1.2,0-1.8.3-2.1s.8-.4,1.8-.4h5.8c1,0,1.5,0,1.8.4s.3,1,.3,2.1v10c0,1.2,0,1.8-.3,2.1ZM197,347.7c0,1.3.9,2.3,2,2.3s.2-.1.2-.2v-12.9c0-.1,0-.2-.2-.2-1.1,0-2,1-2,2.3v8.8h0Z"/>
  <path id="F1_x5F_19" class="st0" d="M209.7,369.4c-.3.4-.8.4-1.8.4h-5.8c-1,0-1.5,0-1.8-.4s-.3-1-.3-2.1v-10c0-1.2,0-1.8.3-2.1s.8-.4,1.8-.4h5.8c1,0,1.5,0,1.8.4s.3,1,.3,2.1v10c0,1.2,0,1.8-.3,2.1ZM197,366.7c0,1.3.9,2.3,2,2.3s.2-.1.2-.2v-12.9c0-.1,0-.2-.2-.2-1.1,0-2,1-2,2.3v8.8h0Z"/>
  <path id="F1_x5F_20" class="st0" d="M209.7,388.4c-.3.4-.8.4-1.8.4h-5.8c-1,0-1.5,0-1.8-.4s-.3-1-.3-2.1v-10c0-1.2,0-1.8.3-2.1s.8-.4,1.8-.4h5.8c1,0,1.5,0,1.8.4s.3,1,.3,2.1v10c0,1.2,0,1.8-.3,2.1ZM197,385.7c0,1.3.9,2.3,2,2.3s.2-.1.2-.2v-12.9c0-.1,0-.2-.2-.2-1.1,0-2,1-2,2.3v8.8h0Z"/>
  <path id="F1_x5F_21" class="st0" d="M209.7,407.4c-.3.4-.8.4-1.8.4h-5.8c-1,0-1.5,0-1.8-.4s-.3-1-.3-2.1v-10c0-1.2,0-1.8.3-2.1s.8-.4,1.8-.4h5.8c1,0,1.5,0,1.8.4s.3,1,.3,2.1v10c0,1.2,0,1.8-.3,2.1ZM197,404.7c0,1.3.9,2.3,2,2.3s.2-.1.2-.2v-12.9c0-.1,0-.2-.2-.2-1.1,0-2,1-2,2.3v8.8h0Z"/>
  <path id="F1_x5F_22" class="st0" d="M209.7,426.4c-.3.4-.8.4-1.8.4h-5.8c-1,0-1.5,0-1.8-.4s-.3-1-.3-2.1v-10c0-1.2,0-1.8.3-2.1s.8-.4,1.8-.4h5.8c1,0,1.5,0,1.8.4s.3,1,.3,2.1v10c0,1.2,0,1.8-.3,2.1ZM197,423.7c0,1.3.9,2.3,2,2.3s.2-.1.2-.2v-12.9c0-.1,0-.2-.2-.2-1.1,0-2,1-2,2.3v8.8h0Z"/>
  <path id="F1_x5F_23" class="st0" d="M209.7,445.4c-.3.4-.8.4-1.8.4h-5.8c-1,0-1.5,0-1.8-.4s-.3-1-.3-2.1v-10c0-1.2,0-1.8.3-2.1s.8-.4,1.8-.4h5.8c1,0,1.5,0,1.8.4s.3,1,.3,2.1v10c0,1.2,0,1.8-.3,2.1ZM197,442.7c0,1.3.9,2.3,2,2.3s.2-.1.2-.2v-12.9c0-.1,0-.2-.2-.2-1.1,0-2,1-2,2.3v8.8h0Z"/>
  <path id="F1_x5F_24" class="st0" d="M209.7,464.4c-.3.4-.8.4-1.8.4h-5.8c-1,0-1.5,0-1.8-.4s-.3-1-.3-2.1v-10c0-1.2,0-1.8.3-2.1s.8-.4,1.8-.4h5.8c1,0,1.5,0,1.8.4s.3,1,.3,2.1v10c0,1.2,0,1.8-.3,2.1ZM197,461.7c0,1.3.9,2.3,2,2.3s.2-.1.2-.2v-12.9c0-.1,0-.2-.2-.2-1.1,0-2,1-2,2.3v8.8h0Z"/>
  <path id="F1_x5F_25" class="st0" d="M209.7,481.5c-.3.3-.8.3-1.8.3h-5.8c-1,0-1.5,0-1.8-.3s-.3-.8-.3-1.8v-8.7c0-1,0-1.5.3-1.9.3-.3.8-.3,1.8-.3h5.8c1,0,1.5,0,1.8.3s.3.8.3,1.9v8.7c0,1,0,1.5-.3,1.8ZM197,479.1c0,1.1.9,2,2,2s.2,0,.2-.2v-11.2c0-.1,0-.2-.2-.2-1.1,0-2,.9-2,2v7.6h0Z"/>
  <path id="F1_x5F_26" class="st0" d="M209.7,499.4c-.3.3-.8.3-1.8.3h-5.8c-1,0-1.5,0-1.8-.3s-.3-.9-.3-2v-9.3c0-1.1,0-1.7.3-2s.8-.3,1.8-.3h5.8c1,0,1.5,0,1.8.3s.3.9.3,2v9.3c0,1.1,0,1.6-.3,2ZM197,496.9c0,1.2.9,2.1,2,2.1s.2,0,.2-.2v-12c0-.1,0-.2-.2-.2-1.1,0-2,1-2,2.1v8.2Z"/>
  <path id="F1_x5F_27" class="st0" d="M209.7,518.4c-.3.4-.8.4-1.8.4h-5.8c-1,0-1.5,0-1.8-.4s-.3-1-.3-2.1v-10c0-1.2,0-1.8.3-2.1s.8-.4,1.8-.4h5.8c1,0,1.5,0,1.8.4s.3,1,.3,2.1v10c0,1.2,0,1.8-.3,2.1ZM197,515.7c0,1.3.9,2.3,2,2.3s.2,0,.2-.2v-12.9c0-.1,0-.2-.2-.2-1.1,0-2,1-2,2.3v8.8h0Z"/>
  <path id="F1_x5F_28" class="st0" d="M209.7,537.4c-.3.4-.8.4-1.8.4h-5.8c-1,0-1.5,0-1.8-.4s-.3-1-.3-2.1v-10c0-1.2,0-1.8.3-2.1s.8-.4,1.8-.4h5.8c1,0,1.5,0,1.8.4s.3,1,.3,2.1v10c0,1.2,0,1.8-.3,2.1ZM197,534.7c0,1.3.9,2.3,2,2.3s.2,0,.2-.2v-12.9c0,0,0-.2-.2-.2-1.1,0-2,1-2,2.3v8.8h0Z"/>
  <path id="F1_x5F_29" class="st0" d="M209.7,556.4c-.3.4-.8.4-1.8.4h-5.8c-1,0-1.5,0-1.8-.4s-.3-1-.3-2.1v-10c0-1.2,0-1.8.3-2.1.3-.4.8-.4,1.8-.4h5.8c1,0,1.5,0,1.8.4s.3,1,.3,2.1v10c0,1.2,0,1.8-.3,2.1ZM197,553.7c0,1.3.9,2.3,2,2.3s.2,0,.2-.2v-12.9c0,0,0-.2-.2-.2-1.1,0-2,1-2,2.3v8.8h0Z"/>
  <path id="F1_x5F_30" class="st0" d="M209.7,574.4c-.3.3-.8.3-1.8.3h-5.8c-1,0-1.5,0-1.8-.3s-.3-.9-.3-2v-9.3c0-1.1,0-1.6.3-2,.3-.3.8-.3,1.8-.3h5.8c1,0,1.5,0,1.8.3s.3.9.3,2v9.3c0,1.1,0,1.6-.3,2ZM197,571.9c0,1.2.9,2.1,2,2.1s.2,0,.2-.2v-12c0,0,0-.2-.2-.2-1.1,0-2,1-2,2.1v8.2h0Z"/>
  <path id="F1_x5F_31" class="st0" d="M209.7,592.4c-.3.3-.8.3-1.8.3h-5.8c-1,0-1.5,0-1.8-.3s-.3-.9-.3-2v-9.3c0-1.1,0-1.6.3-2,.3-.3.8-.3,1.8-.3h5.8c1,0,1.5,0,1.8.3s.3.9.3,2v9.3c0,1.1,0,1.6-.3,2ZM197,589.9c0,1.2.9,2.1,2,2.1s.2,0,.2-.2v-12c0,0,0-.2-.2-.2-1.1,0-2,1-2,2.1v8.2h0Z"/>
  <path id="F1_x5F_32" class="st0" d="M209.7,609.5c-.3.3-.8.3-1.8.3h-5.8c-1,0-1.5,0-1.8-.3s-.3-.8-.3-1.9v-8.7c0-1,0-1.5.3-1.9.3-.3.8-.3,1.8-.3h5.8c1,0,1.5,0,1.8.3s.3.8.3,1.9v8.7c0,1,0,1.5-.3,1.9ZM197,607.1c0,1.1.9,2,2,2s.2,0,.2-.2v-11.2c0,0,0-.2-.2-.2-1.1,0-2,.9-2,2v7.6h0Z"/>
  <path id="F1_x5F_33" class="st0" d="M287.3,690.1c-.3-.3-.3-.8-.3-1.9v-5.8c0-1,0-1.5.3-1.8s.8-.3,1.9-.3h8.7c1,0,1.5,0,1.9.3.3.3.3.8.3,1.8v5.8c0,1,0,1.5-.3,1.9-.3.3-.8.3-1.9.3h-8.7c-1,0-1.5,0-1.9-.3ZM289.7,677.4c-1.1,0-2,.9-2,2s0,.2.2.2h11.2c.1,0,.2,0,.2-.2,0-1.1-.9-2-2-2h-7.6Z"/>
  <path id="F1_x5F_34" class="st0" d="M304.4,690.1c-.4-.3-.4-.8-.4-1.9v-5.8c0-1,0-1.5.4-1.8s1-.3,2.1-.3h10c1.2,0,1.8,0,2.1.3.4.3.4.8.4,1.8v5.8c0,1,0,1.5-.4,1.9-.4.3-1,.3-2.1.3h-10c-1.2,0-1.8,0-2.1-.3ZM307.1,677.4c-1.3,0-2.3.9-2.3,2s.1.2.2.2h12.9c.1,0,.2,0,.2-.2,0-1.1-1-2-2.3-2h-8.8,0Z"/>
  <path id="F1_x5F_35" class="st0" d="M323.4,690.1c-.4-.3-.4-.8-.4-1.9v-5.8c0-1,0-1.5.4-1.8s1-.3,2.1-.3h10c1.2,0,1.8,0,2.1.3.4.3.4.8.4,1.8v5.8c0,1,0,1.5-.4,1.9-.4.3-1,.3-2.1.3h-10c-1.2,0-1.8,0-2.1-.3ZM326.1,677.4c-1.3,0-2.3.9-2.3,2s.1.2.2.2h12.9c.1,0,.2,0,.2-.2,0-1.1-1-2-2.3-2h-8.8,0Z"/>
  <path id="F1_x5F_36" class="st0" d="M342.4,690.1c-.4-.3-.4-.8-.4-1.9v-5.8c0-1,0-1.5.4-1.8s1-.3,2.1-.3h10c1.2,0,1.8,0,2.1.3.4.3.4.8.4,1.8v5.8c0,1,0,1.5-.4,1.9-.4.3-1,.3-2.1.3h-10c-1.2,0-1.8,0-2.1-.3ZM345.1,677.4c-1.3,0-2.3.9-2.3,2s.1.2.2.2h12.9c.1,0,.2,0,.2-.2,0-1.1-1-2-2.3-2h-8.8,0Z"/>
  <path id="F1_x5F_37" class="st0" d="M361.4,690.1c-.4-.3-.4-.8-.4-1.9v-5.8c0-1,0-1.5.4-1.8s1-.3,2.1-.3h10c1.2,0,1.8,0,2.1.3.4.3.4.8.4,1.8v5.8c0,1,0,1.5-.4,1.9-.4.3-1,.3-2.1.3h-10c-1.2,0-1.8,0-2.1-.3ZM364.1,677.4c-1.3,0-2.3.9-2.3,2s.1.2.2.2h12.9c.1,0,.2,0,.2-.2,0-1.1-1-2-2.3-2h-8.8,0Z"/>
  <path id="F1_x5F_38" class="st0" d="M380.4,690.1c-.4-.3-.4-.8-.4-1.9v-5.8c0-1,0-1.5.4-1.8s1-.3,2.1-.3h10c1.2,0,1.8,0,2.1.3.4.3.4.8.4,1.8v5.8c0,1,0,1.5-.4,1.9-.4.3-1,.3-2.1.3h-10c-1.2,0-1.8,0-2.1-.3ZM383.1,677.4c-1.3,0-2.3.9-2.3,2s.1.2.2.2h12.9c.1,0,.2,0,.2-.2,0-1.1-1-2-2.3-2h-8.8,0Z"/>
  <path id="F1_x5F_39" class="st0" d="M399.4,690.1c-.4-.3-.4-.8-.4-1.9v-5.8c0-1,0-1.5.4-1.8s1-.3,2.1-.3h10c1.2,0,1.8,0,2.1.3.4.3.4.8.4,1.8v5.8c0,1,0,1.5-.4,1.9-.4.3-1,.3-2.1.3h-10c-1.2,0-1.8,0-2.1-.3ZM402.1,677.4c-1.3,0-2.3.9-2.3,2s.1.2.2.2h12.9c.1,0,.2,0,.2-.2,0-1.1-1-2-2.3-2h-8.8,0Z"/>
  <path id="F1_x5F_40" class="st0" d="M418.4,690.1c-.4-.3-.4-.8-.4-1.9v-5.8c0-1,0-1.5.4-1.8s1-.3,2.1-.3h10c1.2,0,1.8,0,2.1.3.4.3.4.8.4,1.8v5.8c0,1,0,1.5-.4,1.9-.4.3-1,.3-2.1.3h-10c-1.2,0-1.8,0-2.1-.3ZM421.1,677.4c-1.3,0-2.3.9-2.3,2s.1.2.2.2h12.9c.1,0,.2,0,.2-.2,0-1.1-1-2-2.3-2h-8.8,0Z"/>
  <path id="F1_x5F_41" class="st0" d="M437.4,690.1c-.4-.3-.4-.8-.4-1.9v-5.8c0-1,0-1.5.4-1.8s1-.3,2.1-.3h10c1.2,0,1.8,0,2.1.3.4.3.4.8.4,1.8v5.8c0,1,0,1.5-.4,1.9-.4.3-1,.3-2.1.3h-10c-1.2,0-1.8,0-2.1-.3ZM440.1,677.4c-1.3,0-2.3.9-2.3,2s.1.2.2.2h12.9c.1,0,.2,0,.2-.2,0-1.1-1-2-2.3-2h-8.8,0Z"/>
  <path id="F2_x5F_1" class="st0" d="M580.8,210.2c.3.3.3.8.3,1.8v5.8c0,1,0,1.5-.3,1.8s-.8.3-1.8.3h-8.7c-1,0-1.5,0-1.8-.3s-.3-.8-.3-1.8v-5.8c0-1,0-1.5.3-1.8s.8-.3,1.8-.3h8.7c1,0,1.5,0,1.8.3ZM578.4,222.9c1.1,0,2-.9,2-2s0-.2-.2-.2h-11.2c0,0-.2,0-.2.2,0,1.1.9,2,2,2h7.6Z"/>
  <path id="F2_x5F_2" class="st0" d="M563.7,210.2c.3.3.3.8.3,1.8v5.8c0,1,0,1.5-.3,1.8s-.9.3-2,.3h-9.3c-1.1,0-1.7,0-2-.3s-.3-.8-.3-1.8v-5.8c0-1,0-1.5.3-1.8s.9-.3,2-.3h9.3c1.1,0,1.7,0,2,.3ZM561.2,222.9c1.2,0,2.1-.9,2.1-2s0-.2-.2-.2h-12c0,0-.2,0-.2.2,0,1.1.9,2,2.1,2h8.2Z"/>
  <path id="F2_x5F_3" class="st0" d="M545.7,210.2c.3.3.3.8.3,1.8v5.8c0,1,0,1.5-.3,1.8s-.9.3-2,.3h-9.3c-1.1,0-1.7,0-2-.3s-.3-.8-.3-1.8v-5.8c0-1,0-1.5.3-1.8s.9-.3,2-.3h9.3c1.1,0,1.7,0,2,.3ZM543.2,222.9c1.2,0,2.1-.9,2.1-2s0-.2-.2-.2h-12c0,0-.2,0-.2.2,0,1.1.9,2,2.1,2h8.2Z"/>
  <path id="F2_x5F_4" class="st0" d="M527.7,210.2c.4.3.4.8.4,1.8v5.8c0,1,0,1.5-.4,1.8s-1,.3-2.1.3h-10c-1.2,0-1.8,0-2.1-.3-.4-.3-.4-.8-.4-1.8v-5.8c0-1,0-1.5.4-1.8s1-.3,2.1-.3h10c1.2,0,1.8,0,2.1.3ZM525,222.9c1.3,0,2.3-.9,2.3-2s0-.2-.2-.2h-12.9c0,0-.2,0-.2.2,0,1.1,1,2,2.3,2h8.8,0Z"/>
  <path id="F2_x5F_5" class="st0" d="M508.7,210.2c.4.3.4.8.4,1.8v5.8c0,1,0,1.5-.4,1.8s-1,.3-2.1.3h-10c-1.2,0-1.8,0-2.1-.3-.4-.3-.4-.8-.4-1.8v-5.8c0-1,0-1.5.4-1.8s1-.3,2.1-.3h10c1.2,0,1.8,0,2.1.3ZM506,222.9c1.3,0,2.3-.9,2.3-2s-.1-.2-.2-.2h-12.9c-.1,0-.2,0-.2.2,0,1.1,1,2,2.3,2h8.8,0Z"/>
  <path id="F2_x5F_6" class="st0" d="M489.7,210.2c.4.3.4.8.4,1.8v5.8c0,1,0,1.5-.4,1.8s-1,.3-2.1.3h-10c-1.2,0-1.8,0-2.1-.3s-.4-.8-.4-1.8v-5.8c0-1,0-1.5.4-1.8s1-.3,2.1-.3h10c1.2,0,1.8,0,2.1.3ZM487,222.9c1.3,0,2.3-.9,2.3-2s-.1-.2-.2-.2h-12.9c-.1,0-.2,0-.2.2,0,1.1,1,2,2.3,2h8.8,0Z"/>
  <path id="F2_x5F_7" class="st0" d="M470.7,210.2c.3.3.3.8.3,1.8v5.8c0,1,0,1.5-.3,1.8s-.9.3-2,.3h-9.3c-1.1,0-1.6,0-2-.3-.3-.3-.3-.8-.3-1.8v-5.8c0-1,0-1.5.3-1.8s.9-.3,2-.3h9.3c1.1,0,1.6,0,2,.3ZM468.2,222.9c1.2,0,2.1-.9,2.1-2s0-.2-.2-.2h-12c-.1,0-.2,0-.2.2,0,1.1.9,2,2.1,2h8.2Z"/>
  <path id="F2_x5F_8" class="st0" d="M452.8,210.2c.3.3.3.8.3,1.8v5.8c0,1,0,1.5-.3,1.8s-.8.3-1.9.3h-8.7c-1,0-1.5,0-1.9-.3-.3-.3-.3-.8-.3-1.8v-5.8c0-1,0-1.5.3-1.8s.8-.3,1.9-.3h8.7c1,0,1.5,0,1.9.3ZM450.4,222.9c1.1,0,2-.9,2-2s0-.2-.2-.2h-11.2c-.1,0-.2,0-.2.2,0,1.1.9,2,2,2h7.6Z"/>
  <path id="F2_x5F_9" class="st0" d="M435.7,210.2c.4.3.4.8.4,1.8v5.8c0,1,0,1.5-.4,1.8s-1,.3-2.1.3h-10c-1.2,0-1.8,0-2.1-.3s-.4-.8-.4-1.8v-5.8c0-1,0-1.5.4-1.8s1-.3,2.1-.3h10c1.2,0,1.8,0,2.1.3ZM433,222.9c1.3,0,2.3-.9,2.3-2s-.1-.2-.2-.2h-12.9c-.1,0-.2,0-.2.2,0,1.1,1,2,2.3,2h8.8,0Z"/>
  <path id="F2_x5F_10" class="st0" d="M416.7,210.2c.4.3.4.8.4,1.8v5.8c0,1,0,1.5-.4,1.8s-1,.3-2.1.3h-10c-1.2,0-1.8,0-2.1-.3s-.4-.8-.4-1.8v-5.8c0-1,0-1.5.4-1.8s1-.3,2.1-.3h10c1.2,0,1.8,0,2.1.3ZM414,222.9c1.3,0,2.3-.9,2.3-2s-.1-.2-.2-.2h-12.9c-.1,0-.2,0-.2.2,0,1.1,1,2,2.3,2h8.8,0Z"/>
  <path id="F2_x5F_11" class="st0" d="M397.7,210.2c.4.3.4.8.4,1.8v5.8c0,1,0,1.5-.4,1.8s-1,.3-2.1.3h-10c-1.2,0-1.8,0-2.1-.3s-.4-.8-.4-1.8v-5.8c0-1,0-1.5.4-1.8s1-.3,2.1-.3h10c1.2,0,1.8,0,2.1.3ZM395,222.9c1.3,0,2.3-.9,2.3-2s-.1-.2-.2-.2h-12.9c-.1,0-.2,0-.2.2,0,1.1,1,2,2.3,2h8.8,0Z"/>
  <path id="F2_x5F_12" class="st0" d="M378.7,210.2c.4.3.4.8.4,1.8v5.8c0,1,0,1.5-.4,1.8s-1,.3-2.1.3h-10c-1.2,0-1.8,0-2.1-.3s-.4-.8-.4-1.8v-5.8c0-1,0-1.5.4-1.8s1-.3,2.1-.3h10c1.2,0,1.8,0,2.1.3ZM376,222.9c1.3,0,2.3-.9,2.3-2s-.1-.2-.2-.2h-12.9c-.1,0-.2,0-.2.2,0,1.1,1,2,2.3,2h8.8,0Z"/>
  <path id="F2_x5F_13" class="st0" d="M359.7,210.2c.4.3.4.8.4,1.8v5.8c0,1,0,1.5-.4,1.8s-1,.3-2.1.3h-10c-1.2,0-1.8,0-2.1-.3s-.4-.8-.4-1.8v-5.8c0-1,0-1.5.4-1.8s1-.3,2.1-.3h10c1.2,0,1.8,0,2.1.3ZM357,222.9c1.3,0,2.3-.9,2.3-2s-.1-.2-.2-.2h-12.9c-.1,0-.2,0-.2.2,0,1.1,1,2,2.3,2h8.8,0Z"/>
  <path id="F2_x5F_14" class="st0" d="M340.7,210.2c.4.3.4.8.4,1.8v5.8c0,1,0,1.5-.4,1.8s-1,.3-2.1.3h-10c-1.2,0-1.8,0-2.1-.3s-.4-.8-.4-1.8v-5.8c0-1,0-1.5.4-1.8s1-.3,2.1-.3h10c1.2,0,1.8,0,2.1.3ZM338,222.9c1.3,0,2.3-.9,2.3-2s-.1-.2-.2-.2h-12.9c-.1,0-.2,0-.2.2,0,1.1,1,2,2.3,2h8.8,0Z"/>
  <path id="F2_x5F_15" class="st0" d="M321.7,210.2c.4.3.4.8.4,1.8v5.8c0,1,0,1.5-.4,1.8s-1,.3-2.1.3h-10c-1.2,0-1.8,0-2.1-.3s-.4-.8-.4-1.8v-5.8c0-1,0-1.5.4-1.8s1-.3,2.1-.3h10c1.2,0,1.8,0,2.1.3ZM319,222.9c1.3,0,2.3-.9,2.3-2s-.1-.2-.2-.2h-12.9c-.1,0-.2,0-.2.2,0,1.1,1,2,2.3,2h8.8,0Z"/>
  <path id="F2_x5F_16" class="st0" d="M302.7,210.2c.4.3.4.8.4,1.8v5.8c0,1,0,1.5-.4,1.8s-1,.3-2.1.3h-10c-1.2,0-1.8,0-2.1-.3s-.4-.8-.4-1.8v-5.8c0-1,0-1.5.4-1.8s1-.3,2.1-.3h10c1.2,0,1.8,0,2.1.3ZM300,222.9c1.3,0,2.3-.9,2.3-2s-.1-.2-.2-.2h-12.9c-.1,0-.2,0-.2.2,0,1.1,1,2,2.3,2h8.8,0Z"/>
  <path id="F2_x5F_17" class="st0" d="M283.7,210.2c.4.3.4.8.4,1.8v5.8c0,1,0,1.5-.4,1.8s-1,.3-2.1.3h-10c-1.2,0-1.8,0-2.1-.3s-.4-.8-.4-1.8v-5.8c0-1,0-1.5.4-1.8s1-.3,2.1-.3h10c1.2,0,1.8,0,2.1.3ZM281,222.9c1.3,0,2.3-.9,2.3-2s-.1-.2-.2-.2h-12.9c-.1,0-.2,0-.2.2,0,1.1,1,2,2.3,2h8.8,0Z"/>
  <path id="F2_x5F_18" class="st0" d="M264.7,210.2c.4.3.4.8.4,1.8v5.8c0,1,0,1.5-.4,1.8s-1,.3-2.1.3h-10c-1.2,0-1.8,0-2.1-.3s-.4-.8-.4-1.8v-5.8c0-1,0-1.5.4-1.8s1-.3,2.1-.3h10c1.2,0,1.8,0,2.1.3ZM262,222.9c1.3,0,2.3-.9,2.3-2s-.1-.2-.2-.2h-12.9c-.1,0-.2,0-.2.2,0,1.1,1,2,2.3,2h8.8,0Z"/>
  <path id="F2_x5F_19" class="st0" d="M245.7,210.2c.4.3.4.8.4,1.8v5.8c0,1,0,1.5-.4,1.8s-1,.3-2.1.3h-10c-1.2,0-1.8,0-2.1-.3s-.4-.8-.4-1.8v-5.8c0-1,0-1.5.4-1.8s1-.3,2.1-.3h10c1.2,0,1.8,0,2.1.3ZM243,222.9c1.3,0,2.3-.9,2.3-2s-.1-.2-.2-.2h-12.9c-.1,0-.2,0-.2.2,0,1.1,1,2,2.3,2h8.8-.1Z"/>
  <path id="F2_x5F_20" class="st0" d="M226.7,210.2c.4.3.4.8.4,1.8v5.8c0,1,0,1.5-.4,1.8s-1,.3-2.1.3h-10c-1.2,0-1.8,0-2.1-.3s-.4-.8-.4-1.8v-5.8c0-1,0-1.5.4-1.8s1-.3,2.1-.3h10c1.2,0,1.8,0,2.1.3ZM224,222.9c1.3,0,2.3-.9,2.3-2s-.1-.2-.2-.2h-12.9c-.1,0-.2,0-.2.2,0,1.1,1,2,2.3,2h8.8-.1Z"/>
  <path id="F2_x5F_21" class="st0" d="M191.7,293.4c-.3.4-.8.4-1.8.4h-5.8c-1,0-1.5,0-1.8-.4s-.3-1-.3-2.1v-10c0-1.2,0-1.8.3-2.1s.8-.4,1.8-.4h5.8c1,0,1.5,0,1.8.4s.3,1,.3,2.1v10c0,1.2,0,1.8-.3,2.1ZM179,290.7c0,1.3.9,2.3,2,2.3s.2-.1.2-.2v-12.9c0-.1,0-.2-.2-.2-1.1,0-2,1-2,2.3v8.8h0Z"/>
  <path id="F2_x5F_22" class="st0" d="M191.7,312.4c-.3.4-.8.4-1.8.4h-5.8c-1,0-1.5,0-1.8-.4s-.3-1-.3-2.1v-10c0-1.2,0-1.8.3-2.1s.8-.4,1.8-.4h5.8c1,0,1.5,0,1.8.4s.3,1,.3,2.1v10c0,1.2,0,1.8-.3,2.1ZM179,309.7c0,1.3.9,2.3,2,2.3s.2-.1.2-.2v-12.9c0-.1,0-.2-.2-.2-1.1,0-2,1-2,2.3v8.8h0Z"/>
  <path id="F2_x5F_23" class="st0" d="M191.7,331.4c-.3.4-.8.4-1.8.4h-5.8c-1,0-1.5,0-1.8-.4s-.3-1-.3-2.1v-10c0-1.2,0-1.8.3-2.1s.8-.4,1.8-.4h5.8c1,0,1.5,0,1.8.4s.3,1,.3,2.1v10c0,1.2,0,1.8-.3,2.1ZM179,328.7c0,1.3.9,2.3,2,2.3s.2-.1.2-.2v-12.9c0-.1,0-.2-.2-.2-1.1,0-2,1-2,2.3v8.8h0Z"/>
  <path id="F2_x5F_24" class="st0" d="M191.7,350.4c-.3.4-.8.4-1.8.4h-5.8c-1,0-1.5,0-1.8-.4s-.3-1-.3-2.1v-10c0-1.2,0-1.8.3-2.1s.8-.4,1.8-.4h5.8c1,0,1.5,0,1.8.4s.3,1,.3,2.1v10c0,1.2,0,1.8-.3,2.1ZM179,347.7c0,1.3.9,2.3,2,2.3s.2-.1.2-.2v-12.9c0-.1,0-.2-.2-.2-1.1,0-2,1-2,2.3v8.8h0Z"/>
  <path id="F2_x5F_25" class="st0" d="M191.7,369.4c-.3.4-.8.4-1.8.4h-5.8c-1,0-1.5,0-1.8-.4s-.3-1-.3-2.1v-10c0-1.2,0-1.8.3-2.1s.8-.4,1.8-.4h5.8c1,0,1.5,0,1.8.4s.3,1,.3,2.1v10c0,1.2,0,1.8-.3,2.1ZM179,366.7c0,1.3.9,2.3,2,2.3s.2-.1.2-.2v-12.9c0-.1,0-.2-.2-.2-1.1,0-2,1-2,2.3v8.8h0Z"/>
  <path id="F2_x5F_26" class="st0" d="M191.7,388.4c-.3.4-.8.4-1.8.4h-5.8c-1,0-1.5,0-1.8-.4s-.3-1-.3-2.1v-10c0-1.2,0-1.8.3-2.1s.8-.4,1.8-.4h5.8c1,0,1.5,0,1.8.4s.3,1,.3,2.1v10c0,1.2,0,1.8-.3,2.1ZM179,385.7c0,1.3.9,2.3,2,2.3s.2-.1.2-.2v-12.9c0-.1,0-.2-.2-.2-1.1,0-2,1-2,2.3v8.8h0Z"/>
  <path id="F2_x5F_27" class="st0" d="M191.7,407.4c-.3.4-.8.4-1.8.4h-5.8c-1,0-1.5,0-1.8-.4s-.3-1-.3-2.1v-10c0-1.2,0-1.8.3-2.1s.8-.4,1.8-.4h5.8c1,0,1.5,0,1.8.4s.3,1,.3,2.1v10c0,1.2,0,1.8-.3,2.1ZM179,404.7c0,1.3.9,2.3,2,2.3s.2-.1.2-.2v-12.9c0-.1,0-.2-.2-.2-1.1,0-2,1-2,2.3v8.8h0Z"/>
  <path id="F2_x5F_28" class="st0" d="M191.7,426.4c-.3.4-.8.4-1.8.4h-5.8c-1,0-1.5,0-1.8-.4s-.3-1-.3-2.1v-10c0-1.2,0-1.8.3-2.1s.8-.4,1.8-.4h5.8c1,0,1.5,0,1.8.4s.3,1,.3,2.1v10c0,1.2,0,1.8-.3,2.1ZM179,423.7c0,1.3.9,2.3,2,2.3s.2-.1.2-.2v-12.9c0-.1,0-.2-.2-.2-1.1,0-2,1-2,2.3v8.8h0Z"/>
  <path id="F2_x5F_29" class="st0" d="M191.7,445.4c-.3.4-.8.4-1.8.4h-5.8c-1,0-1.5,0-1.8-.4s-.3-1-.3-2.1v-10c0-1.2,0-1.8.3-2.1s.8-.4,1.8-.4h5.8c1,0,1.5,0,1.8.4s.3,1,.3,2.1v10c0,1.2,0,1.8-.3,2.1ZM179,442.7c0,1.3.9,2.3,2,2.3s.2-.1.2-.2v-12.9c0-.1,0-.2-.2-.2-1.1,0-2,1-2,2.3v8.8h0Z"/>
  <path id="F2_x5F_30" class="st0" d="M191.7,464.4c-.3.4-.8.4-1.8.4h-5.8c-1,0-1.5,0-1.8-.4s-.3-1-.3-2.1v-10c0-1.2,0-1.8.3-2.1s.8-.4,1.8-.4h5.8c1,0,1.5,0,1.8.4s.3,1,.3,2.1v10c0,1.2,0,1.8-.3,2.1ZM179,461.7c0,1.3.9,2.3,2,2.3s.2-.1.2-.2v-12.9c0-.1,0-.2-.2-.2-1.1,0-2,1-2,2.3v8.8h0Z"/>
  <path id="F2_x5F_31" class="st0" d="M191.7,483.4c-.3.4-.8.4-1.8.4h-5.8c-1,0-1.5,0-1.8-.4s-.3-1-.3-2.1v-10c0-1.2,0-1.8.3-2.1s.8-.4,1.8-.4h5.8c1,0,1.5,0,1.8.4s.3,1,.3,2.1v10c0,1.2,0,1.8-.3,2.1ZM179,480.7c0,1.3.9,2.3,2,2.3s.2-.1.2-.2v-12.9c0-.1,0-.2-.2-.2-1.1,0-2,1-2,2.3v8.8h0Z"/>
  <path id="F2_x5F_32" class="st0" d="M191.7,502.4c-.3.4-.8.4-1.8.4h-5.8c-1,0-1.5,0-1.8-.4s-.3-1-.3-2.1v-10c0-1.2,0-1.8.3-2.1s.8-.4,1.8-.4h5.8c1,0,1.5,0,1.8.4s.3,1,.3,2.1v10c0,1.2,0,1.8-.3,2.1ZM179,499.7c0,1.3.9,2.3,2,2.3s.2-.1.2-.2v-12.9c0-.1,0-.2-.2-.2-1.1,0-2,1-2,2.3v8.8h0Z"/>
  <path id="F2_x5F_33" class="st0" d="M191.7,519.5c-.3.3-.8.3-1.8.3h-5.8c-1,0-1.5,0-1.8-.3s-.3-.8-.3-1.8v-8.7c0-1,0-1.5.3-1.9.3-.3.8-.3,1.8-.3h5.8c1,0,1.5,0,1.8.3s.3.8.3,1.9v8.7c0,1,0,1.5-.3,1.8ZM179,517.1c0,1.1.9,2,2,2s.2,0,.2-.2v-11.2c0-.1,0-.2-.2-.2-1.1,0-2,.9-2,2v7.6h0Z"/>
  <path id="F2_x5F_34" class="st0" d="M191.7,537.4c-.3.3-.8.3-1.8.3h-5.8c-1,0-1.5,0-1.8-.3s-.3-.9-.3-2v-9.3c0-1.1,0-1.7.3-2s.8-.3,1.8-.3h5.8c1,0,1.5,0,1.8.3s.3.9.3,2v9.3c0,1.1,0,1.6-.3,2ZM179,534.9c0,1.2.9,2.1,2,2.1s.2,0,.2-.2v-12c0,0,0-.2-.2-.2-1.1,0-2,1-2,2.1v8.2h0Z"/>
  <path id="F2_x5F_35" class="st0" d="M191.7,556.4c-.3.4-.8.4-1.8.4h-5.8c-1,0-1.5,0-1.8-.4s-.3-1-.3-2.1v-10c0-1.2,0-1.8.3-2.1.3-.4.8-.4,1.8-.4h5.8c1,0,1.5,0,1.8.4s.3,1,.3,2.1v10c0,1.2,0,1.8-.3,2.1ZM179,553.7c0,1.3.9,2.3,2,2.3s.2,0,.2-.2v-12.9c0,0,0-.2-.2-.2-1.1,0-2,1-2,2.3v8.8h0Z"/>
  <path id="F2_x5F_36" class="st0" d="M191.7,575.4c-.3.4-.8.4-1.8.4h-5.8c-1,0-1.5,0-1.8-.4s-.3-1-.3-2.1v-10c0-1.2,0-1.8.3-2.1s.8-.4,1.8-.4h5.8c1,0,1.5,0,1.8.4s.3,1,.3,2.1v10c0,1.2,0,1.8-.3,2.1ZM179,572.7c0,1.3.9,2.3,2,2.3s.2,0,.2-.2v-12.9c0,0,0-.2-.2-.2-1.1,0-2,1-2,2.3v8.8h0Z"/>
  <path id="F2_x5F_37" class="st0" d="M191.7,594.4c-.3.4-.8.4-1.8.4h-5.8c-1,0-1.5,0-1.8-.4s-.3-1-.3-2.1v-10c0-1.2,0-1.8.3-2.1s.8-.4,1.8-.4h5.8c1,0,1.5,0,1.8.4s.3,1,.3,2.1v10c0,1.2,0,1.8-.3,2.1ZM179,591.7c0,1.3.9,2.3,2,2.3s.2,0,.2-.2v-12.9c0,0,0-.2-.2-.2-1.1,0-2,1-2,2.3v8.8h0Z"/>
  <path id="F2_x5F_38" class="st0" d="M191.7,612.4c-.3.3-.8.3-1.8.3h-5.8c-1,0-1.5,0-1.8-.3s-.3-.9-.3-2v-9.3c0-1.1,0-1.6.3-2,.3-.3.8-.3,1.8-.3h5.8c1,0,1.5,0,1.8.3s.3.9.3,2v9.3c0,1.1,0,1.6-.3,2ZM179,609.9c0,1.2.9,2.1,2,2.1s.2,0,.2-.2v-12c0,0,0-.2-.2-.2-1.1,0-2,1-2,2.1v8.2h0Z"/>
  <path id="F2_x5F_39" class="st0" d="M191.7,630.4c-.3.3-.8.3-1.8.3h-5.8c-1,0-1.5,0-1.8-.3s-.3-.9-.3-2v-9.3c0-1.1,0-1.6.3-2,.3-.3.8-.3,1.8-.3h5.8c1,0,1.5,0,1.8.3s.3.9.3,2v9.3c0,1.1,0,1.6-.3,2ZM179,627.9c0,1.2.9,2.1,2,2.1s.2,0,.2-.2v-12c0,0,0-.2-.2-.2-1.1,0-2,1-2,2.1v8.2h0Z"/>
  <path id="F2_x5F_40" class="st0" d="M191.7,647.5c-.3.3-.8.3-1.8.3h-5.8c-1,0-1.5,0-1.8-.3s-.3-.8-.3-1.9v-8.7c0-1,0-1.5.3-1.9.3-.3.8-.3,1.8-.3h5.8c1,0,1.5,0,1.8.3s.3.8.3,1.9v8.7c0,1,0,1.5-.3,1.9ZM179,645.1c0,1.1.9,2,2,2s.2,0,.2-.2v-11.2c0,0,0-.2-.2-.2-1.1,0-2,.9-2,2v7.6h0Z"/>
  <path id="F2_x5F_41" class="st0" d="M253.3,711.1c-.3-.3-.3-.8-.3-1.9v-5.8c0-1,0-1.5.3-1.8s.8-.3,1.9-.3h8.7c1,0,1.5,0,1.9.3.3.3.3.8.3,1.8v5.8c0,1,0,1.5-.3,1.9-.3.3-.8.3-1.9.3h-8.7c-1,0-1.5,0-1.9-.3ZM255.7,698.4c-1.1,0-2,.9-2,2s0,.2.2.2h11.2c.1,0,.2,0,.2-.2,0-1.1-.9-2-2-2h-7.6Z"/>
  <path id="F2_x5F_42" class="st0" d="M270.3,711.1c-.3-.3-.3-.8-.3-1.9v-5.8c0-1,0-1.5.3-1.8s.8-.3,1.9-.3h8.7c1,0,1.5,0,1.9.3.3.3.3.8.3,1.8v5.8c0,1,0,1.5-.3,1.9-.3.3-.8.3-1.9.3h-8.7c-1,0-1.5,0-1.9-.3ZM272.7,698.4c-1.1,0-2,.9-2,2s0,.2.2.2h11.2c.1,0,.2,0,.2-.2,0-1.1-.9-2-2-2h-7.6Z"/>
  <path id="F2_x5F_43" class="st0" d="M287.3,711.1c-.3-.3-.3-.8-.3-1.9v-5.8c0-1,0-1.5.3-1.8s.8-.3,1.9-.3h8.7c1,0,1.5,0,1.9.3.3.3.3.8.3,1.8v5.8c0,1,0,1.5-.3,1.9-.3.3-.8.3-1.9.3h-8.7c-1,0-1.5,0-1.9-.3ZM289.7,698.4c-1.1,0-2,.9-2,2s0,.2.2.2h11.2c.1,0,.2,0,.2-.2,0-1.1-.9-2-2-2h-7.6Z"/>
  <path id="F2_x5F_44" class="st0" d="M304.4,711.1c-.4-.3-.4-.8-.4-1.9v-5.8c0-1,0-1.5.4-1.8s1-.3,2.1-.3h10c1.2,0,1.8,0,2.1.3.4.3.4.8.4,1.8v5.8c0,1,0,1.5-.4,1.9-.4.3-1,.3-2.1.3h-10c-1.2,0-1.8,0-2.1-.3ZM307.1,698.4c-1.3,0-2.3.9-2.3,2s.1.2.2.2h12.9c.1,0,.2,0,.2-.2,0-1.1-1-2-2.3-2h-8.8,0Z"/>
  <path id="F2_x5F_45" class="st0" d="M323.4,711.1c-.4-.3-.4-.8-.4-1.9v-5.8c0-1,0-1.5.4-1.8s1-.3,2.1-.3h10c1.2,0,1.8,0,2.1.3.4.3.4.8.4,1.8v5.8c0,1,0,1.5-.4,1.9-.4.3-1,.3-2.1.3h-10c-1.2,0-1.8,0-2.1-.3ZM326.1,698.4c-1.3,0-2.3.9-2.3,2s.1.2.2.2h12.9c.1,0,.2,0,.2-.2,0-1.1-1-2-2.3-2h-8.8,0Z"/>
  <path id="F2_x5F_46" class="st0" d="M342.4,711.1c-.4-.3-.4-.8-.4-1.9v-5.8c0-1,0-1.5.4-1.8s1-.3,2.1-.3h10c1.2,0,1.8,0,2.1.3.4.3.4.8.4,1.8v5.8c0,1,0,1.5-.4,1.9-.4.3-1,.3-2.1.3h-10c-1.2,0-1.8,0-2.1-.3ZM345.1,698.4c-1.3,0-2.3.9-2.3,2s.1.2.2.2h12.9c.1,0,.2,0,.2-.2,0-1.1-1-2-2.3-2h-8.8,0Z"/>
  <path id="F2_x5F_47" class="st0" d="M361.4,711.1c-.4-.3-.4-.8-.4-1.9v-5.8c0-1,0-1.5.4-1.8s1-.3,2.1-.3h10c1.2,0,1.8,0,2.1.3.4.3.4.8.4,1.8v5.8c0,1,0,1.5-.4,1.9-.4.3-1,.3-2.1.3h-10c-1.2,0-1.8,0-2.1-.3ZM364.1,698.4c-1.3,0-2.3.9-2.3,2s.1.2.2.2h12.9c.1,0,.2,0,.2-.2,0-1.1-1-2-2.3-2h-8.8,0Z"/>
  <path id="F2_x5F_48" class="st0" d="M380.4,711.1c-.4-.3-.4-.8-.4-1.9v-5.8c0-1,0-1.5.4-1.8s1-.3,2.1-.3h10c1.2,0,1.8,0,2.1.3.4.3.4.8.4,1.8v5.8c0,1,0,1.5-.4,1.9-.4.3-1,.3-2.1.3h-10c-1.2,0-1.8,0-2.1-.3ZM383.1,698.4c-1.3,0-2.3.9-2.3,2s.1.2.2.2h12.9c.1,0,.2,0,.2-.2,0-1.1-1-2-2.3-2h-8.8,0Z"/>
  <path id="F2_x5F_49" class="st0" d="M399.4,711.1c-.4-.3-.4-.8-.4-1.9v-5.8c0-1,0-1.5.4-1.8s1-.3,2.1-.3h10c1.2,0,1.8,0,2.1.3.4.3.4.8.4,1.8v5.8c0,1,0,1.5-.4,1.9-.4.3-1,.3-2.1.3h-10c-1.2,0-1.8,0-2.1-.3ZM402.1,698.4c-1.3,0-2.3.9-2.3,2s.1.2.2.2h12.9c.1,0,.2,0,.2-.2,0-1.1-1-2-2.3-2h-8.8,0Z"/>
  <path id="F2_x5F_50" class="st0" d="M418.4,711.1c-.4-.3-.4-.8-.4-1.9v-5.8c0-1,0-1.5.4-1.8s1-.3,2.1-.3h10c1.2,0,1.8,0,2.1.3.4.3.4.8.4,1.8v5.8c0,1,0,1.5-.4,1.9-.4.3-1,.3-2.1.3h-10c-1.2,0-1.8,0-2.1-.3ZM421.1,698.4c-1.3,0-2.3.9-2.3,2s.1.2.2.2h12.9c.1,0,.2,0,.2-.2,0-1.1-1-2-2.3-2h-8.8,0Z"/>
  <path id="F2_x5F_51" class="st0" d="M437.4,711.1c-.4-.3-.4-.8-.4-1.9v-5.8c0-1,0-1.5.4-1.8s1-.3,2.1-.3h10c1.2,0,1.8,0,2.1.3.4.3.4.8.4,1.8v5.8c0,1,0,1.5-.4,1.9-.4.3-1,.3-2.1.3h-10c-1.2,0-1.8,0-2.1-.3ZM440.1,698.4c-1.3,0-2.3.9-2.3,2s.1.2.2.2h12.9c.1,0,.2,0,.2-.2,0-1.1-1-2-2.3-2h-8.8,0Z"/>
  <path id="F3_x5F_1" class="st0" d="M580.8,192.2c.3.3.3.8.3,1.9v5.8c0,1,0,1.5-.3,1.8s-.8.3-1.8.3h-8.7c-1,0-1.5,0-1.8-.3s-.3-.8-.3-1.8v-5.8c0-1,0-1.5.3-1.9.3-.3.8-.3,1.8-.3h8.7c1,0,1.5,0,1.8.3ZM578.4,204.9c1.1,0,2-.9,2-2s0-.2-.2-.2h-11.2c0,0-.2,0-.2.2,0,1.1.9,2,2,2h7.6Z"/>
  <path id="F3_x5F_2" class="st0" d="M563.7,192.2c.3.3.3.8.3,1.9v5.8c0,1,0,1.5-.3,1.8s-.9.3-2,.3h-9.3c-1.1,0-1.7,0-2-.3s-.3-.8-.3-1.8v-5.8c0-1,0-1.5.3-1.9.3-.3.9-.3,2-.3h9.3c1.1,0,1.7,0,2,.3ZM561.2,204.9c1.2,0,2.1-.9,2.1-2s0-.2-.2-.2h-12c0,0-.2,0-.2.2,0,1.1.9,2,2.1,2h8.2Z"/>
  <path id="F3_x5F_3" class="st0" d="M545.7,192.2c.3.3.3.8.3,1.9v5.8c0,1,0,1.5-.3,1.8s-.9.3-2,.3h-9.3c-1.1,0-1.7,0-2-.3s-.3-.8-.3-1.8v-5.8c0-1,0-1.5.3-1.9.3-.3.9-.3,2-.3h9.3c1.1,0,1.7,0,2,.3ZM543.2,204.9c1.2,0,2.1-.9,2.1-2s0-.2-.2-.2h-12c0,0-.2,0-.2.2,0,1.1.9,2,2.1,2h8.2Z"/>
  <path id="F3_x5F_4" class="st0" d="M527.7,192.2c.4.3.4.8.4,1.9v5.8c0,1,0,1.5-.4,1.8s-1,.3-2.1.3h-10c-1.2,0-1.8,0-2.1-.3-.4-.3-.4-.8-.4-1.8v-5.8c0-1,0-1.5.4-1.9.4-.3,1-.3,2.1-.3h10c1.2,0,1.8,0,2.1.3ZM525,204.9c1.3,0,2.3-.9,2.3-2s0-.2-.2-.2h-12.9c0,0-.2,0-.2.2,0,1.1,1,2,2.3,2h8.8,0Z"/>
  <path id="F3_x5F_5" class="st0" d="M508.7,192.2c.4.3.4.8.4,1.9v5.8c0,1,0,1.5-.4,1.8s-1,.3-2.1.3h-10c-1.2,0-1.8,0-2.1-.3-.4-.3-.4-.8-.4-1.8v-5.8c0-1,0-1.5.4-1.9.4-.3,1-.3,2.1-.3h10c1.2,0,1.8,0,2.1.3ZM506,204.9c1.3,0,2.3-.9,2.3-2s-.1-.2-.2-.2h-12.9c-.1,0-.2,0-.2.2,0,1.1,1,2,2.3,2h8.8,0Z"/>
  <path id="F3_x5F_6" class="st0" d="M489.7,192.2c.4.3.4.8.4,1.9v5.8c0,1,0,1.5-.4,1.8s-1,.3-2.1.3h-10c-1.2,0-1.8,0-2.1-.3s-.4-.8-.4-1.8v-5.8c0-1,0-1.5.4-1.9.4-.3,1-.3,2.1-.3h10c1.2,0,1.8,0,2.1.3ZM487,204.9c1.3,0,2.3-.9,2.3-2s-.1-.2-.2-.2h-12.9c-.1,0-.2,0-.2.2,0,1.1,1,2,2.3,2h8.8,0Z"/>
  <path id="F3_x5F_7" class="st0" d="M470.7,192.2c.3.3.3.8.3,1.9v5.8c0,1,0,1.5-.3,1.8s-.9.3-2,.3h-9.3c-1.1,0-1.6,0-2-.3-.3-.3-.3-.8-.3-1.8v-5.8c0-1,0-1.5.3-1.9.3-.3.9-.3,2-.3h9.3c1.1,0,1.6,0,2,.3ZM468.2,204.9c1.2,0,2.1-.9,2.1-2s0-.2-.2-.2h-12c-.1,0-.2,0-.2.2,0,1.1.9,2,2.1,2h8.2Z"/>
  <path id="F3_x5F_8" class="st0" d="M452.8,192.2c.3.3.3.8.3,1.9v5.8c0,1,0,1.5-.3,1.8s-.8.3-1.9.3h-8.7c-1,0-1.5,0-1.9-.3-.3-.3-.3-.8-.3-1.8v-5.8c0-1,0-1.5.3-1.9.3-.3.8-.3,1.9-.3h8.7c1,0,1.5,0,1.9.3ZM450.4,204.9c1.1,0,2-.9,2-2s0-.2-.2-.2h-11.2c-.1,0-.2,0-.2.2,0,1.1.9,2,2,2h7.6Z"/>
  <path id="F3_x5F_9" class="st0" d="M435.7,192.2c.4.3.4.8.4,1.9v5.8c0,1,0,1.5-.4,1.8s-1,.3-2.1.3h-10c-1.2,0-1.8,0-2.1-.3s-.4-.8-.4-1.8v-5.8c0-1,0-1.5.4-1.9.4-.3,1-.3,2.1-.3h10c1.2,0,1.8,0,2.1.3ZM433,204.9c1.3,0,2.3-.9,2.3-2s-.1-.2-.2-.2h-12.9c-.1,0-.2,0-.2.2,0,1.1,1,2,2.3,2h8.8,0Z"/>
  <path id="F3_x5F_10" class="st0" d="M416.7,192.2c.4.3.4.8.4,1.9v5.8c0,1,0,1.5-.4,1.8s-1,.3-2.1.3h-10c-1.2,0-1.8,0-2.1-.3s-.4-.8-.4-1.8v-5.8c0-1,0-1.5.4-1.9.4-.3,1-.3,2.1-.3h10c1.2,0,1.8,0,2.1.3ZM414,204.9c1.3,0,2.3-.9,2.3-2s-.1-.2-.2-.2h-12.9c-.1,0-.2,0-.2.2,0,1.1,1,2,2.3,2h8.8,0Z"/>
  <path id="F3_x5F_11" class="st0" d="M397.7,192.2c.4.3.4.8.4,1.9v5.8c0,1,0,1.5-.4,1.8s-1,.3-2.1.3h-10c-1.2,0-1.8,0-2.1-.3s-.4-.8-.4-1.8v-5.8c0-1,0-1.5.4-1.9.4-.3,1-.3,2.1-.3h10c1.2,0,1.8,0,2.1.3ZM395,204.9c1.3,0,2.3-.9,2.3-2s-.1-.2-.2-.2h-12.9c-.1,0-.2,0-.2.2,0,1.1,1,2,2.3,2h8.8,0Z"/>
  <path id="F3_x5F_12" class="st0" d="M378.7,192.2c.4.3.4.8.4,1.9v5.8c0,1,0,1.5-.4,1.8s-1,.3-2.1.3h-10c-1.2,0-1.8,0-2.1-.3s-.4-.8-.4-1.8v-5.8c0-1,0-1.5.4-1.9.4-.3,1-.3,2.1-.3h10c1.2,0,1.8,0,2.1.3ZM376,204.9c1.3,0,2.3-.9,2.3-2s-.1-.2-.2-.2h-12.9c-.1,0-.2,0-.2.2,0,1.1,1,2,2.3,2h8.8,0Z"/>
  <path id="F3_x5F_13" class="st0" d="M359.7,192.2c.4.3.4.8.4,1.9v5.8c0,1,0,1.5-.4,1.8s-1,.3-2.1.3h-10c-1.2,0-1.8,0-2.1-.3s-.4-.8-.4-1.8v-5.8c0-1,0-1.5.4-1.9.4-.3,1-.3,2.1-.3h10c1.2,0,1.8,0,2.1.3ZM357,204.9c1.3,0,2.3-.9,2.3-2s-.1-.2-.2-.2h-12.9c-.1,0-.2,0-.2.2,0,1.1,1,2,2.3,2h8.8,0Z"/>
  <path id="F3_x5F_14" class="st0" d="M340.7,192.2c.4.3.4.8.4,1.9v5.8c0,1,0,1.5-.4,1.8s-1,.3-2.1.3h-10c-1.2,0-1.8,0-2.1-.3s-.4-.8-.4-1.8v-5.8c0-1,0-1.5.4-1.9.4-.3,1-.3,2.1-.3h10c1.2,0,1.8,0,2.1.3ZM338,204.9c1.3,0,2.3-.9,2.3-2s-.1-.2-.2-.2h-12.9c-.1,0-.2,0-.2.2,0,1.1,1,2,2.3,2h8.8,0Z"/>
  <path id="F3_x5F_15" class="st0" d="M321.7,192.2c.4.3.4.8.4,1.9v5.8c0,1,0,1.5-.4,1.8s-1,.3-2.1.3h-10c-1.2,0-1.8,0-2.1-.3s-.4-.8-.4-1.8v-5.8c0-1,0-1.5.4-1.9.4-.3,1-.3,2.1-.3h10c1.2,0,1.8,0,2.1.3ZM319,204.9c1.3,0,2.3-.9,2.3-2s-.1-.2-.2-.2h-12.9c-.1,0-.2,0-.2.2,0,1.1,1,2,2.3,2h8.8,0Z"/>
  <path id="F3_x5F_16" class="st0" d="M302.7,192.2c.4.3.4.8.4,1.9v5.8c0,1,0,1.5-.4,1.8s-1,.3-2.1.3h-10c-1.2,0-1.8,0-2.1-.3s-.4-.8-.4-1.8v-5.8c0-1,0-1.5.4-1.9.4-.3,1-.3,2.1-.3h10c1.2,0,1.8,0,2.1.3ZM300,204.9c1.3,0,2.3-.9,2.3-2s-.1-.2-.2-.2h-12.9c-.1,0-.2,0-.2.2,0,1.1,1,2,2.3,2h8.8,0Z"/>
  <path id="F3_x5F_17" class="st0" d="M283.7,192.2c.4.3.4.8.4,1.9v5.8c0,1,0,1.5-.4,1.8s-1,.3-2.1.3h-10c-1.2,0-1.8,0-2.1-.3s-.4-.8-.4-1.8v-5.8c0-1,0-1.5.4-1.9.4-.3,1-.3,2.1-.3h10c1.2,0,1.8,0,2.1.3ZM281,204.9c1.3,0,2.3-.9,2.3-2s-.1-.2-.2-.2h-12.9c-.1,0-.2,0-.2.2,0,1.1,1,2,2.3,2h8.8,0Z"/>
  <path id="F3_x5F_18" class="st0" d="M264.7,192.2c.4.3.4.8.4,1.9v5.8c0,1,0,1.5-.4,1.8s-1,.3-2.1.3h-10c-1.2,0-1.8,0-2.1-.3s-.4-.8-.4-1.8v-5.8c0-1,0-1.5.4-1.9.4-.3,1-.3,2.1-.3h10c1.2,0,1.8,0,2.1.3ZM262,204.9c1.3,0,2.3-.9,2.3-2s-.1-.2-.2-.2h-12.9c-.1,0-.2,0-.2.2,0,1.1,1,2,2.3,2h8.8,0Z"/>
  <path id="F3_x5F_19" class="st0" d="M245.7,192.2c.4.3.4.8.4,1.9v5.8c0,1,0,1.5-.4,1.8s-1,.3-2.1.3h-10c-1.2,0-1.8,0-2.1-.3s-.4-.8-.4-1.8v-5.8c0-1,0-1.5.4-1.9.4-.3,1-.3,2.1-.3h10c1.2,0,1.8,0,2.1.3ZM243,204.9c1.3,0,2.3-.9,2.3-2s-.1-.2-.2-.2h-12.9c-.1,0-.2,0-.2.2,0,1.1,1,2,2.3,2h8.8-.1Z"/>
  <path id="F3_x5F_20" class="st0" d="M226.7,192.2c.4.3.4.8.4,1.9v5.8c0,1,0,1.5-.4,1.8s-1,.3-2.1.3h-10c-1.2,0-1.8,0-2.1-.3s-.4-.8-.4-1.8v-5.8c0-1,0-1.5.4-1.9.4-.3,1-.3,2.1-.3h10c1.2,0,1.8,0,2.1.3ZM224,204.9c1.3,0,2.3-.9,2.3-2s-.1-.2-.2-.2h-12.9c-.1,0-.2,0-.2.2,0,1.1,1,2,2.3,2h8.8-.1Z"/>
  <path id="F3_x5F_21" class="st0" d="M173.7,293.4c-.3.4-.8.4-1.8.4h-5.8c-1,0-1.5,0-1.8-.4s-.3-1-.3-2.1v-10c0-1.2,0-1.8.3-2.1s.8-.4,1.8-.4h5.8c1,0,1.5,0,1.8.4s.3,1,.3,2.1v10c0,1.2,0,1.8-.3,2.1ZM161,290.7c0,1.3.9,2.3,2,2.3s.2-.1.2-.2v-12.9c0-.1,0-.2-.2-.2-1.1,0-2,1-2,2.3v8.8h0Z"/>
  <path id="F3_x5F_22" class="st0" d="M173.7,312.4c-.3.4-.8.4-1.8.4h-5.8c-1,0-1.5,0-1.8-.4s-.3-1-.3-2.1v-10c0-1.2,0-1.8.3-2.1s.8-.4,1.8-.4h5.8c1,0,1.5,0,1.8.4s.3,1,.3,2.1v10c0,1.2,0,1.8-.3,2.1ZM161,309.7c0,1.3.9,2.3,2,2.3s.2-.1.2-.2v-12.9c0-.1,0-.2-.2-.2-1.1,0-2,1-2,2.3v8.8h0Z"/>
  <path id="F3_x5F_23" class="st0" d="M173.7,331.4c-.3.4-.8.4-1.8.4h-5.8c-1,0-1.5,0-1.8-.4s-.3-1-.3-2.1v-10c0-1.2,0-1.8.3-2.1s.8-.4,1.8-.4h5.8c1,0,1.5,0,1.8.4s.3,1,.3,2.1v10c0,1.2,0,1.8-.3,2.1ZM161,328.7c0,1.3.9,2.3,2,2.3s.2-.1.2-.2v-12.9c0-.1,0-.2-.2-.2-1.1,0-2,1-2,2.3v8.8h0Z"/>
  <path id="F3_x5F_24" class="st0" d="M173.7,350.4c-.3.4-.8.4-1.8.4h-5.8c-1,0-1.5,0-1.8-.4s-.3-1-.3-2.1v-10c0-1.2,0-1.8.3-2.1s.8-.4,1.8-.4h5.8c1,0,1.5,0,1.8.4s.3,1,.3,2.1v10c0,1.2,0,1.8-.3,2.1ZM161,347.7c0,1.3.9,2.3,2,2.3s.2-.1.2-.2v-12.9c0-.1,0-.2-.2-.2-1.1,0-2,1-2,2.3v8.8h0Z"/>
  <path id="F3_x5F_25" class="st0" d="M173.7,369.4c-.3.4-.8.4-1.8.4h-5.8c-1,0-1.5,0-1.8-.4s-.3-1-.3-2.1v-10c0-1.2,0-1.8.3-2.1s.8-.4,1.8-.4h5.8c1,0,1.5,0,1.8.4s.3,1,.3,2.1v10c0,1.2,0,1.8-.3,2.1ZM161,366.7c0,1.3.9,2.3,2,2.3s.2-.1.2-.2v-12.9c0-.1,0-.2-.2-.2-1.1,0-2,1-2,2.3v8.8h0Z"/>
  <path id="F3_x5F_26" class="st0" d="M173.7,388.4c-.3.4-.8.4-1.8.4h-5.8c-1,0-1.5,0-1.8-.4s-.3-1-.3-2.1v-10c0-1.2,0-1.8.3-2.1s.8-.4,1.8-.4h5.8c1,0,1.5,0,1.8.4s.3,1,.3,2.1v10c0,1.2,0,1.8-.3,2.1ZM161,385.7c0,1.3.9,2.3,2,2.3s.2-.1.2-.2v-12.9c0-.1,0-.2-.2-.2-1.1,0-2,1-2,2.3v8.8h0Z"/>
  <path id="F3_x5F_27" class="st0" d="M173.7,407.4c-.3.4-.8.4-1.8.4h-5.8c-1,0-1.5,0-1.8-.4s-.3-1-.3-2.1v-10c0-1.2,0-1.8.3-2.1s.8-.4,1.8-.4h5.8c1,0,1.5,0,1.8.4s.3,1,.3,2.1v10c0,1.2,0,1.8-.3,2.1ZM161,404.7c0,1.3.9,2.3,2,2.3s.2-.1.2-.2v-12.9c0-.1,0-.2-.2-.2-1.1,0-2,1-2,2.3v8.8h0Z"/>
  <path id="F3_x5F_28" class="st0" d="M173.7,426.4c-.3.4-.8.4-1.8.4h-5.8c-1,0-1.5,0-1.8-.4s-.3-1-.3-2.1v-10c0-1.2,0-1.8.3-2.1s.8-.4,1.8-.4h5.8c1,0,1.5,0,1.8.4s.3,1,.3,2.1v10c0,1.2,0,1.8-.3,2.1ZM161,423.7c0,1.3.9,2.3,2,2.3s.2-.1.2-.2v-12.9c0-.1,0-.2-.2-.2-1.1,0-2,1-2,2.3v8.8h0Z"/>
  <path id="F3_x5F_29" class="st0" d="M173.7,445.4c-.3.4-.8.4-1.8.4h-5.8c-1,0-1.5,0-1.8-.4s-.3-1-.3-2.1v-10c0-1.2,0-1.8.3-2.1s.8-.4,1.8-.4h5.8c1,0,1.5,0,1.8.4s.3,1,.3,2.1v10c0,1.2,0,1.8-.3,2.1ZM161,442.7c0,1.3.9,2.3,2,2.3s.2-.1.2-.2v-12.9c0-.1,0-.2-.2-.2-1.1,0-2,1-2,2.3v8.8h0Z"/>
  <path id="F3_x5F_30" class="st0" d="M173.7,464.4c-.3.4-.8.4-1.8.4h-5.8c-1,0-1.5,0-1.8-.4s-.3-1-.3-2.1v-10c0-1.2,0-1.8.3-2.1s.8-.4,1.8-.4h5.8c1,0,1.5,0,1.8.4s.3,1,.3,2.1v10c0,1.2,0,1.8-.3,2.1ZM161,461.7c0,1.3.9,2.3,2,2.3s.2-.1.2-.2v-12.9c0-.1,0-.2-.2-.2-1.1,0-2,1-2,2.3v8.8h0Z"/>
  <path id="F3_x5F_31" class="st0" d="M173.7,483.4c-.3.4-.8.4-1.8.4h-5.8c-1,0-1.5,0-1.8-.4s-.3-1-.3-2.1v-10c0-1.2,0-1.8.3-2.1s.8-.4,1.8-.4h5.8c1,0,1.5,0,1.8.4s.3,1,.3,2.1v10c0,1.2,0,1.8-.3,2.1ZM161,480.7c0,1.3.9,2.3,2,2.3s.2-.1.2-.2v-12.9c0-.1,0-.2-.2-.2-1.1,0-2,1-2,2.3v8.8h0Z"/>
  <path id="F3_x5F_32" class="st0" d="M173.7,502.4c-.3.4-.8.4-1.8.4h-5.8c-1,0-1.5,0-1.8-.4s-.3-1-.3-2.1v-10c0-1.2,0-1.8.3-2.1s.8-.4,1.8-.4h5.8c1,0,1.5,0,1.8.4s.3,1,.3,2.1v10c0,1.2,0,1.8-.3,2.1ZM161,499.7c0,1.3.9,2.3,2,2.3s.2-.1.2-.2v-12.9c0-.1,0-.2-.2-.2-1.1,0-2,1-2,2.3v8.8h0Z"/>
  <path id="F3_x5F_33" class="st0" d="M173.7,519.5c-.3.3-.8.3-1.8.3h-5.8c-1,0-1.5,0-1.8-.3s-.3-.8-.3-1.8v-8.7c0-1,0-1.5.3-1.9.3-.3.8-.3,1.8-.3h5.8c1,0,1.5,0,1.8.3s.3.8.3,1.9v8.7c0,1,0,1.5-.3,1.8ZM161,517.1c0,1.1.9,2,2,2s.2,0,.2-.2v-11.2c0-.1,0-.2-.2-.2-1.1,0-2,.9-2,2v7.6h0Z"/>
  <path id="F3_x5F_34" class="st0" d="M173.7,537.4c-.3.3-.8.3-1.8.3h-5.8c-1,0-1.5,0-1.8-.3s-.3-.9-.3-2v-9.3c0-1.1,0-1.7.3-2s.8-.3,1.8-.3h5.8c1,0,1.5,0,1.8.3s.3.9.3,2v9.3c0,1.1,0,1.6-.3,2ZM161,534.9c0,1.2.9,2.1,2,2.1s.2,0,.2-.2v-12c0,0,0-.2-.2-.2-1.1,0-2,1-2,2.1v8.2h0Z"/>
  <path id="F3_x5F_35" class="st0" d="M173.7,556.4c-.3.4-.8.4-1.8.4h-5.8c-1,0-1.5,0-1.8-.4s-.3-1-.3-2.1v-10c0-1.2,0-1.8.3-2.1.3-.4.8-.4,1.8-.4h5.8c1,0,1.5,0,1.8.4s.3,1,.3,2.1v10c0,1.2,0,1.8-.3,2.1ZM161,553.7c0,1.3.9,2.3,2,2.3s.2,0,.2-.2v-12.9c0,0,0-.2-.2-.2-1.1,0-2,1-2,2.3v8.8h0Z"/>
  <path id="F3_x5F_36" class="st0" d="M173.7,575.4c-.3.4-.8.4-1.8.4h-5.8c-1,0-1.5,0-1.8-.4s-.3-1-.3-2.1v-10c0-1.2,0-1.8.3-2.1s.8-.4,1.8-.4h5.8c1,0,1.5,0,1.8.4s.3,1,.3,2.1v10c0,1.2,0,1.8-.3,2.1ZM161,572.7c0,1.3.9,2.3,2,2.3s.2,0,.2-.2v-12.9c0,0,0-.2-.2-.2-1.1,0-2,1-2,2.3v8.8h0Z"/>
  <path id="F3_x5F_37" class="st0" d="M173.7,594.4c-.3.4-.8.4-1.8.4h-5.8c-1,0-1.5,0-1.8-.4s-.3-1-.3-2.1v-10c0-1.2,0-1.8.3-2.1s.8-.4,1.8-.4h5.8c1,0,1.5,0,1.8.4s.3,1,.3,2.1v10c0,1.2,0,1.8-.3,2.1ZM161,591.7c0,1.3.9,2.3,2,2.3s.2,0,.2-.2v-12.9c0,0,0-.2-.2-.2-1.1,0-2,1-2,2.3v8.8h0Z"/>
  <path id="F3_x5F_38" class="st0" d="M173.7,612.4c-.3.3-.8.3-1.8.3h-5.8c-1,0-1.5,0-1.8-.3s-.3-.9-.3-2v-9.3c0-1.1,0-1.6.3-2,.3-.3.8-.3,1.8-.3h5.8c1,0,1.5,0,1.8.3s.3.9.3,2v9.3c0,1.1,0,1.6-.3,2ZM161,609.9c0,1.2.9,2.1,2,2.1s.2,0,.2-.2v-12c0,0,0-.2-.2-.2-1.1,0-2,1-2,2.1v8.2h0Z"/>
  <path id="F3_x5F_39" class="st0" d="M173.7,630.4c-.3.3-.8.3-1.8.3h-5.8c-1,0-1.5,0-1.8-.3s-.3-.9-.3-2v-9.3c0-1.1,0-1.6.3-2,.3-.3.8-.3,1.8-.3h5.8c1,0,1.5,0,1.8.3s.3.9.3,2v9.3c0,1.1,0,1.6-.3,2ZM161,627.9c0,1.2.9,2.1,2,2.1s.2,0,.2-.2v-12c0,0,0-.2-.2-.2-1.1,0-2,1-2,2.1v8.2h0Z"/>
  <path id="F3_x5F_40" class="st0" d="M173.7,647.5c-.3.3-.8.3-1.8.3h-5.8c-1,0-1.5,0-1.8-.3s-.3-.8-.3-1.9v-8.7c0-1,0-1.5.3-1.9.3-.3.8-.3,1.8-.3h5.8c1,0,1.5,0,1.8.3s.3.8.3,1.9v8.7c0,1,0,1.5-.3,1.9ZM161,645.1c0,1.1.9,2,2,2s.2,0,.2-.2v-11.2c0,0,0-.2-.2-.2-1.1,0-2,.9-2,2v7.6h0Z"/>
  <path id="F3_x5F_41" class="st0" d="M253.3,732.1c-.3-.3-.3-.8-.3-1.9v-5.8c0-1,0-1.5.3-1.8s.8-.3,1.9-.3h8.7c1,0,1.5,0,1.9.3.3.3.3.8.3,1.8v5.8c0,1,0,1.5-.3,1.9-.3.3-.8.3-1.9.3h-8.7c-1,0-1.5,0-1.9-.3ZM255.7,719.4c-1.1,0-2,.9-2,2s0,.2.2.2h11.2c.1,0,.2,0,.2-.2,0-1.1-.9-2-2-2h-7.6Z"/>
  <path id="F3_x5F_42" class="st0" d="M270.3,732.1c-.3-.3-.3-.8-.3-1.9v-5.8c0-1,0-1.5.3-1.8s.8-.3,1.9-.3h8.7c1,0,1.5,0,1.9.3.3.3.3.8.3,1.8v5.8c0,1,0,1.5-.3,1.9-.3.3-.8.3-1.9.3h-8.7c-1,0-1.5,0-1.9-.3ZM272.7,719.4c-1.1,0-2,.9-2,2s0,.2.2.2h11.2c.1,0,.2,0,.2-.2,0-1.1-.9-2-2-2h-7.6Z"/>
  <path id="F3_x5F_43" class="st0" d="M287.3,732.1c-.3-.3-.3-.8-.3-1.9v-5.8c0-1,0-1.5.3-1.8s.8-.3,1.9-.3h8.7c1,0,1.5,0,1.9.3.3.3.3.8.3,1.8v5.8c0,1,0,1.5-.3,1.9-.3.3-.8.3-1.9.3h-8.7c-1,0-1.5,0-1.9-.3ZM289.7,719.4c-1.1,0-2,.9-2,2s0,.2.2.2h11.2c.1,0,.2,0,.2-.2,0-1.1-.9-2-2-2h-7.6Z"/>
  <path id="F3_x5F_44" class="st0" d="M304.4,732.1c-.4-.3-.4-.8-.4-1.9v-5.8c0-1,0-1.5.4-1.8s1-.3,2.1-.3h10c1.2,0,1.8,0,2.1.3.4.3.4.8.4,1.8v5.8c0,1,0,1.5-.4,1.9-.4.3-1,.3-2.1.3h-10c-1.2,0-1.8,0-2.1-.3ZM307.1,719.4c-1.3,0-2.3.9-2.3,2s.1.2.2.2h12.9c.1,0,.2,0,.2-.2,0-1.1-1-2-2.3-2h-8.8,0Z"/>
  <path id="F3_x5F_45" class="st0" d="M323.4,732.1c-.4-.3-.4-.8-.4-1.9v-5.8c0-1,0-1.5.4-1.8s1-.3,2.1-.3h10c1.2,0,1.8,0,2.1.3.4.3.4.8.4,1.8v5.8c0,1,0,1.5-.4,1.9-.4.3-1,.3-2.1.3h-10c-1.2,0-1.8,0-2.1-.3ZM326.1,719.4c-1.3,0-2.3.9-2.3,2s.1.2.2.2h12.9c.1,0,.2,0,.2-.2,0-1.1-1-2-2.3-2h-8.8,0Z"/>
  <path id="F3_x5F_46" class="st0" d="M342.4,732.1c-.4-.3-.4-.8-.4-1.9v-5.8c0-1,0-1.5.4-1.8s1-.3,2.1-.3h10c1.2,0,1.8,0,2.1.3.4.3.4.8.4,1.8v5.8c0,1,0,1.5-.4,1.9-.4.3-1,.3-2.1.3h-10c-1.2,0-1.8,0-2.1-.3ZM345.1,719.4c-1.3,0-2.3.9-2.3,2s.1.2.2.2h12.9c.1,0,.2,0,.2-.2,0-1.1-1-2-2.3-2h-8.8,0Z"/>
  <path id="F3_x5F_47" class="st0" d="M361.4,732.1c-.4-.3-.4-.8-.4-1.9v-5.8c0-1,0-1.5.4-1.8s1-.3,2.1-.3h10c1.2,0,1.8,0,2.1.3.4.3.4.8.4,1.8v5.8c0,1,0,1.5-.4,1.9-.4.3-1,.3-2.1.3h-10c-1.2,0-1.8,0-2.1-.3ZM364.1,719.4c-1.3,0-2.3.9-2.3,2s.1.2.2.2h12.9c.1,0,.2,0,.2-.2,0-1.1-1-2-2.3-2h-8.8,0Z"/>
  <path id="F3_x5F_48" class="st0" d="M380.4,732.1c-.4-.3-.4-.8-.4-1.9v-5.8c0-1,0-1.5.4-1.8s1-.3,2.1-.3h10c1.2,0,1.8,0,2.1.3.4.3.4.8.4,1.8v5.8c0,1,0,1.5-.4,1.9-.4.3-1,.3-2.1.3h-10c-1.2,0-1.8,0-2.1-.3ZM383.1,719.4c-1.3,0-2.3.9-2.3,2s.1.2.2.2h12.9c.1,0,.2,0,.2-.2,0-1.1-1-2-2.3-2h-8.8,0Z"/>
  <path id="F3_x5F_49" class="st0" d="M399.4,732.1c-.4-.3-.4-.8-.4-1.9v-5.8c0-1,0-1.5.4-1.8s1-.3,2.1-.3h10c1.2,0,1.8,0,2.1.3.4.3.4.8.4,1.8v5.8c0,1,0,1.5-.4,1.9-.4.3-1,.3-2.1.3h-10c-1.2,0-1.8,0-2.1-.3ZM402.1,719.4c-1.3,0-2.3.9-2.3,2s.1.2.2.2h12.9c.1,0,.2,0,.2-.2,0-1.1-1-2-2.3-2h-8.8,0Z"/>
  <path id="F3_x5F_50" class="st0" d="M418.4,732.1c-.4-.3-.4-.8-.4-1.9v-5.8c0-1,0-1.5.4-1.8s1-.3,2.1-.3h10c1.2,0,1.8,0,2.1.3.4.3.4.8.4,1.8v5.8c0,1,0,1.5-.4,1.9-.4.3-1,.3-2.1.3h-10c-1.2,0-1.8,0-2.1-.3ZM421.1,719.4c-1.3,0-2.3.9-2.3,2s.1.2.2.2h12.9c.1,0,.2,0,.2-.2,0-1.1-1-2-2.3-2h-8.8,0Z"/>
  <path id="F3_x5F_51" class="st0" d="M437.4,732.1c-.4-.3-.4-.8-.4-1.9v-5.8c0-1,0-1.5.4-1.8s1-.3,2.1-.3h10c1.2,0,1.8,0,2.1.3.4.3.4.8.4,1.8v5.8c0,1,0,1.5-.4,1.9-.4.3-1,.3-2.1.3h-10c-1.2,0-1.8,0-2.1-.3ZM440.1,719.4c-1.3,0-2.3.9-2.3,2s.1.2.2.2h12.9c.1,0,.2,0,.2-.2,0-1.1-1-2-2.3-2h-8.8,0Z"/>
  <g id="MV_x5F_1">
    <path class="st0" d="M637.6,315.4c.2.2.2.5.2,1.1v3.6c0,.7,0,1-.2,1.1-.2.2-.5.2-1.1.2h-5.5c-.7,0-1,0-1.1-.2s-.2-.5-.2-1.1v-3.6c0-.7,0-1,.2-1.1.2-.2.5-.2,1.1-.2h5.5c.7,0,1,0,1.1.2ZM636,323.4c.7,0,1.2-.6,1.2-1.2s0-.2-.2-.2h-7s-.2,0-.2.2c0,.7.6,1.2,1.2,1.2h5Z"/>
    <path class="st0" d="M649.8,315.4c.2.2.2.5.2,1.1v3.6c0,.7,0,1-.2,1.1-.2.2-.5.2-1.1.2h-5.5c-.7,0-1,0-1.1-.2s-.2-.5-.2-1.1v-3.6c0-.7,0-1,.2-1.1.2-.2.5-.2,1.1-.2h5.5c.7,0,1,0,1.1.2ZM648.3,323.4c.7,0,1.2-.6,1.2-1.2s0-.2-.2-.2h-7s-.2,0-.2.2c0,.7.6,1.2,1.2,1.2h5Z"/>
    <path class="st0" d="M615.5,331.3c.2-.2.5-.2,1.1-.2h3.6c.7,0,1,0,1.1.2s.2.5.2,1.1v5.5c0,.7,0,1-.2,1.1-.2.2-.5.2-1.1.2h-3.6c-.7,0-1,0-1.1-.2s-.2-.5-.2-1.1v-5.5c0-.7,0-1,.2-1.1ZM623.5,332.8c0-.7-.6-1.2-1.2-1.2s-.2,0-.2.2v7s0,.2.2.2c.7,0,1.2-.6,1.2-1.2v-4.8h0v-.2Z"/>
    <path class="st0" d="M615.5,343.6c.2-.2.5-.2,1.1-.2h3.6c.7,0,1,0,1.1.2s.2.5.2,1.1v5.5c0,.7,0,1-.2,1.1-.2.2-.5.2-1.1.2h-3.6c-.7,0-1,0-1.1-.2s-.2-.5-.2-1.1v-5.5c0-.7,0-1,.2-1.1ZM623.5,345c0-.7-.6-1.2-1.2-1.2s-.2,0-.2.2v7s0,.2.2.2c.7,0,1.2-.6,1.2-1.2v-4.8h0v-.2Z"/>
    <rect class="st1" x="627.6" y="329.1" width="24.5" height="24.5" rx="1.6" ry="1.6"/>
    <path class="st0" d="M664.1,339.1c-.2.2-.5.2-1.1.2h-3.6c-.7,0-1,0-1.1-.2s-.2-.5-.2-1.1v-5.5c0-.7,0-1,.2-1.1.2-.2.5-.2,1.1-.2h3.6c.7,0,1,0,1.1.2s.2.5.2,1.1v5.5c0,.7,0,1-.2,1.1ZM656.1,337.6c0,.7.6,1.2,1.2,1.2s.2,0,.2-.2v-7s0-.2-.2-.2c-.7,0-1.2.6-1.2,1.2v4.8h0v.2Z"/>
    <path class="st0" d="M664.1,351.3c-.2.2-.5.2-1.1.2h-3.6c-.7,0-1,0-1.1-.2s-.2-.5-.2-1.1v-5.5c0-.7,0-1,.2-1.1.2-.2.5-.2,1.1-.2h3.6c.7,0,1,0,1.1.2s.2.5.2,1.1v5.5c0,.7,0,1-.2,1.1ZM656.1,349.8c0,.7.6,1.2,1.2,1.2s.2,0,.2-.2v-7s0-.2-.2-.2c-.7,0-1.2.6-1.2,1.2v4.8h0v.2Z"/>
    <path class="st0" d="M629.8,367.2c-.2-.2-.2-.5-.2-1.1v-3.6c0-.7,0-1,.2-1.1.2-.2.5-.2,1.1-.2h5.5c.7,0,1,0,1.1.2s.2.5.2,1.1v3.6c0,.7,0,1-.2,1.1-.2.2-.5.2-1.1.2h-5.5c-.7,0-1,0-1.1-.2ZM631.3,359.3c-.7,0-1.2.6-1.2,1.2s0,.2.2.2h7s.2,0,.2-.2c0-.7-.6-1.2-1.2-1.2h-5Z"/>
    <path class="st0" d="M642,367.2c-.2-.2-.2-.5-.2-1.1v-3.6c0-.7,0-1,.2-1.1.2-.2.5-.2,1.1-.2h5.5c.7,0,1,0,1.1.2s.2.5.2,1.1v3.6c0,.7,0,1-.2,1.1-.2.2-.5.2-1.1.2h-5.5c-.7,0-1,0-1.1-.2ZM643.6,359.3c-.7,0-1.2.6-1.2,1.2s0,.2.2.2h7s.2,0,.2-.2c0-.7-.6-1.2-1.2-1.2h-5Z"/>
  </g>
  <g id="MV_x5F_2">
    <path class="st0" d="M637.6,393.8c.2.2.2.5.2,1.1v3.6c0,.7,0,1-.2,1.1-.2.2-.5.2-1.1.2h-5.5c-.7,0-1,0-1.1-.2s-.2-.5-.2-1.1v-3.6c0-.7,0-1,.2-1.1.2-.2.5-.2,1.1-.2h5.5c.7,0,1,0,1.1.2ZM636,401.8c.7,0,1.2-.6,1.2-1.2s0-.2-.2-.2h-7s-.2,0-.2.2c0,.7.6,1.2,1.2,1.2h5Z"/>
    <path class="st0" d="M649.8,393.8c.2.2.2.5.2,1.1v3.6c0,.7,0,1-.2,1.1-.2.2-.5.2-1.1.2h-5.5c-.7,0-1,0-1.1-.2s-.2-.5-.2-1.1v-3.6c0-.7,0-1,.2-1.1.2-.2.5-.2,1.1-.2h5.5c.7,0,1,0,1.1.2ZM648.3,401.8c.7,0,1.2-.6,1.2-1.2s0-.2-.2-.2h-7s-.2,0-.2.2c0,.7.6,1.2,1.2,1.2h5Z"/>
    <path class="st0" d="M615.5,409.7c.2-.2.5-.2,1.1-.2h3.6c.7,0,1,0,1.1.2s.2.5.2,1.1v5.5c0,.7,0,1-.2,1.1-.2.2-.5.2-1.1.2h-3.6c-.7,0-1,0-1.1-.2s-.2-.5-.2-1.1v-5.5c0-.7,0-1,.2-1.1ZM623.5,411.1c0-.7-.6-1.2-1.2-1.2s-.2,0-.2.2v7s0,.2.2.2c.7,0,1.2-.6,1.2-1.2v-4.8h0v-.2Z"/>
    <path class="st0" d="M615.5,421.9c.2-.2.5-.2,1.1-.2h3.6c.7,0,1,0,1.1.2s.2.5.2,1.1v5.5c0,.7,0,1-.2,1.1-.2.2-.5.2-1.1.2h-3.6c-.7,0-1,0-1.1-.2s-.2-.5-.2-1.1v-5.5c0-.7,0-1,.2-1.1ZM623.5,423.4c0-.7-.6-1.2-1.2-1.2s-.2,0-.2.2v7s0,.2.2.2c.7,0,1.2-.6,1.2-1.2v-4.8h0v-.2Z"/>
    <rect class="st1" x="627.6" y="407.5" width="24.5" height="24.5" rx="1.6" ry="1.6"/>
    <path class="st0" d="M664.1,417.4c-.2.2-.5.2-1.1.2h-3.6c-.7,0-1,0-1.1-.2s-.2-.5-.2-1.1v-5.5c0-.7,0-1,.2-1.1.2-.2.5-.2,1.1-.2h3.6c.7,0,1,0,1.1.2s.2.5.2,1.1v5.5c0,.7,0,1-.2,1.1ZM656.1,416c0,.7.6,1.2,1.2,1.2s.2,0,.2-.2v-7s0-.2-.2-.2c-.7,0-1.2.6-1.2,1.2v4.8h0v.2Z"/>
    <path class="st0" d="M664.1,429.7c-.2.2-.5.2-1.1.2h-3.6c-.7,0-1,0-1.1-.2s-.2-.5-.2-1.1v-5.5c0-.7,0-1,.2-1.1.2-.2.5-.2,1.1-.2h3.6c.7,0,1,0,1.1.2s.2.5.2,1.1v5.5c0,.7,0,1-.2,1.1ZM656.1,428.2c0,.7.6,1.2,1.2,1.2s.2,0,.2-.2v-7s0-.2-.2-.2c-.7,0-1.2.6-1.2,1.2v4.8h0v.2Z"/>
    <path class="st0" d="M629.8,445.6c-.2-.2-.2-.5-.2-1.1v-3.6c0-.7,0-1,.2-1.1.2-.2.5-.2,1.1-.2h5.5c.7,0,1,0,1.1.2s.2.5.2,1.1v3.6c0,.7,0,1-.2,1.1-.2.2-.5.2-1.1.2h-5.5c-.7,0-1,0-1.1-.2ZM631.3,437.7c-.7,0-1.2.6-1.2,1.2s0,.2.2.2h7s.2,0,.2-.2c0-.7-.6-1.2-1.2-1.2h-5Z"/>
    <path class="st0" d="M642,445.6c-.2-.2-.2-.5-.2-1.1v-3.6c0-.7,0-1,.2-1.1.2-.2.5-.2,1.1-.2h5.5c.7,0,1,0,1.1.2s.2.5.2,1.1v3.6c0,.7,0,1-.2,1.1-.2.2-.5.2-1.1.2h-5.5c-.7,0-1,0-1.1-.2ZM643.6,437.7c-.7,0-1.2.6-1.2,1.2s0,.2.2.2h7s.2,0,.2-.2c0-.7-.6-1.2-1.2-1.2h-5Z"/>
  </g>
  <g id="MV_x5F_3">
    <path class="st0" d="M637.6,472.1c.2.2.2.5.2,1.1v3.6c0,.7,0,1-.2,1.1-.2.2-.5.2-1.1.2h-5.5c-.7,0-1,0-1.1-.2s-.2-.5-.2-1.1v-3.6c0-.7,0-1,.2-1.1.2-.2.5-.2,1.1-.2h5.5c.7,0,1,0,1.1.2ZM636,480.1c.7,0,1.2-.6,1.2-1.2s0-.2-.2-.2h-7s-.2,0-.2.2c0,.7.6,1.2,1.2,1.2h5Z"/>
    <path class="st0" d="M649.8,472.1c.2.2.2.5.2,1.1v3.6c0,.7,0,1-.2,1.1-.2.2-.5.2-1.1.2h-5.5c-.7,0-1,0-1.1-.2s-.2-.5-.2-1.1v-3.6c0-.7,0-1,.2-1.1.2-.2.5-.2,1.1-.2h5.5c.7,0,1,0,1.1.2ZM648.3,480.1c.7,0,1.2-.6,1.2-1.2s0-.2-.2-.2h-7s-.2,0-.2.2c0,.7.6,1.2,1.2,1.2h5Z"/>
    <path class="st0" d="M615.5,488c.2-.2.5-.2,1.1-.2h3.6c.7,0,1,0,1.1.2s.2.5.2,1.1v5.5c0,.7,0,1-.2,1.1-.2.2-.5.2-1.1.2h-3.6c-.7,0-1,0-1.1-.2s-.2-.5-.2-1.1v-5.5c0-.7,0-1,.2-1.1ZM623.5,489.5c0-.7-.6-1.2-1.2-1.2s-.2,0-.2.2v7s0,.2.2.2c.7,0,1.2-.6,1.2-1.2v-4.8h0v-.2Z"/>
    <path class="st0" d="M615.5,500.3c.2-.2.5-.2,1.1-.2h3.6c.7,0,1,0,1.1.2s.2.5.2,1.1v5.5c0,.7,0,1-.2,1.1-.2.2-.5.2-1.1.2h-3.6c-.7,0-1,0-1.1-.2s-.2-.5-.2-1.1v-5.5c0-.7,0-1,.2-1.1ZM623.5,501.7c0-.7-.6-1.2-1.2-1.2s-.2,0-.2.2v7s0,.2.2.2c.7,0,1.2-.6,1.2-1.2v-4.8h0v-.2Z"/>
    <rect class="st1" x="627.6" y="485.8" width="24.5" height="24.5" rx="1.6" ry="1.6"/>
    <path class="st0" d="M664.1,495.8c-.2.2-.5.2-1.1.2h-3.6c-.7,0-1,0-1.1-.2s-.2-.5-.2-1.1v-5.5c0-.7,0-1,.2-1.1.2-.2.5-.2,1.1-.2h3.6c.7,0,1,0,1.1.2s.2.5.2,1.1v5.5c0,.7,0,1-.2,1.1ZM656.1,494.3c0,.7.6,1.2,1.2,1.2s.2,0,.2-.2v-7s0-.2-.2-.2c-.7,0-1.2.6-1.2,1.2v4.8h0v.2Z"/>
    <path class="st0" d="M664.1,508c-.2.2-.5.2-1.1.2h-3.6c-.7,0-1,0-1.1-.2s-.2-.5-.2-1.1v-5.5c0-.7,0-1,.2-1.1.2-.2.5-.2,1.1-.2h3.6c.7,0,1,0,1.1.2s.2.5.2,1.1v5.5c0,.7,0,1-.2,1.1ZM656.1,506.6c0,.7.6,1.2,1.2,1.2s.2,0,.2-.2v-7s0-.2-.2-.2c-.7,0-1.2.6-1.2,1.2v4.8h0v.2Z"/>
    <path class="st0" d="M629.8,523.9c-.2-.2-.2-.5-.2-1.1v-3.6c0-.7,0-1,.2-1.1.2-.2.5-.2,1.1-.2h5.5c.7,0,1,0,1.1.2s.2.5.2,1.1v3.6c0,.7,0,1-.2,1.1s-.5.2-1.1.2h-5.5c-.7,0-1,0-1.1-.2ZM631.3,516c-.7,0-1.2.6-1.2,1.2s0,.2.2.2h7s.2,0,.2-.2c0-.7-.6-1.2-1.2-1.2h-5Z"/>
    <path class="st0" d="M642,523.9c-.2-.2-.2-.5-.2-1.1v-3.6c0-.7,0-1,.2-1.1.2-.2.5-.2,1.1-.2h5.5c.7,0,1,0,1.1.2s.2.5.2,1.1v3.6c0,.7,0,1-.2,1.1s-.5.2-1.1.2h-5.5c-.7,0-1,0-1.1-.2ZM643.6,516c-.7,0-1.2.6-1.2,1.2s0,.2.2.2h7s.2,0,.2-.2c0-.7-.6-1.2-1.2-1.2h-5Z"/>
  </g>
  <g id="MV_x5F_4">
    <path class="st0" d="M637.6,550.5c.2.2.2.5.2,1.1v3.6c0,.7,0,1-.2,1.1s-.5.2-1.1.2h-5.5c-.7,0-1,0-1.1-.2s-.2-.5-.2-1.1v-3.6c0-.7,0-1,.2-1.1s.5-.2,1.1-.2h5.5c.7,0,1,0,1.1.2ZM636,558.5c.7,0,1.2-.6,1.2-1.2s0-.2-.2-.2h-7s-.2,0-.2.2c0,.7.6,1.2,1.2,1.2h5Z"/>
    <path class="st0" d="M649.8,550.5c.2.2.2.5.2,1.1v3.6c0,.7,0,1-.2,1.1s-.5.2-1.1.2h-5.5c-.7,0-1,0-1.1-.2s-.2-.5-.2-1.1v-3.6c0-.7,0-1,.2-1.1s.5-.2,1.1-.2h5.5c.7,0,1,0,1.1.2ZM648.3,558.5c.7,0,1.2-.6,1.2-1.2s0-.2-.2-.2h-7s-.2,0-.2.2c0,.7.6,1.2,1.2,1.2h5Z"/>
    <path class="st0" d="M615.5,566.4c.2-.2.5-.2,1.1-.2h3.6c.7,0,1,0,1.1.2s.2.5.2,1.1v5.5c0,.7,0,1-.2,1.1s-.5.2-1.1.2h-3.6c-.7,0-1,0-1.1-.2s-.2-.5-.2-1.1v-5.5c0-.7,0-1,.2-1.1ZM623.5,567.9c0-.7-.6-1.2-1.2-1.2s-.2,0-.2.2v7s0,.2.2.2c.7,0,1.2-.6,1.2-1.2v-4.8h0v-.2Z"/>
    <path class="st0" d="M615.5,578.6c.2-.2.5-.2,1.1-.2h3.6c.7,0,1,0,1.1.2s.2.5.2,1.1v5.5c0,.7,0,1-.2,1.1s-.5.2-1.1.2h-3.6c-.7,0-1,0-1.1-.2s-.2-.5-.2-1.1v-5.5c0-.7,0-1,.2-1.1ZM623.5,580.1c0-.7-.6-1.2-1.2-1.2s-.2,0-.2.2v7s0,.2.2.2c.7,0,1.2-.6,1.2-1.2v-4.8h0v-.2Z"/>
    <rect class="st1" x="627.6" y="564.2" width="24.5" height="24.5" rx="1.6" ry="1.6"/>
    <path class="st0" d="M664.1,574.1c-.2.2-.5.2-1.1.2h-3.6c-.7,0-1,0-1.1-.2s-.2-.5-.2-1.1v-5.5c0-.7,0-1,.2-1.1s.5-.2,1.1-.2h3.6c.7,0,1,0,1.1.2s.2.5.2,1.1v5.5c0,.7,0,1-.2,1.1ZM656.1,572.7c0,.7.6,1.2,1.2,1.2s.2,0,.2-.2v-7s0-.2-.2-.2c-.7,0-1.2.6-1.2,1.2v4.8h0v.2Z"/>
    <path class="st0" d="M664.1,586.4c-.2.2-.5.2-1.1.2h-3.6c-.7,0-1,0-1.1-.2s-.2-.5-.2-1.1v-5.5c0-.7,0-1,.2-1.1s.5-.2,1.1-.2h3.6c.7,0,1,0,1.1.2s.2.5.2,1.1v5.5c0,.7,0,1-.2,1.1ZM656.1,584.9c0,.7.6,1.2,1.2,1.2s.2,0,.2-.2v-7s0-.2-.2-.2c-.7,0-1.2.6-1.2,1.2v4.8h0v.2Z"/>
    <path class="st0" d="M629.8,602.3c-.2-.2-.2-.5-.2-1.1v-3.6c0-.7,0-1,.2-1.1s.5-.2,1.1-.2h5.5c.7,0,1,0,1.1.2s.2.5.2,1.1v3.6c0,.7,0,1-.2,1.1s-.5.2-1.1.2h-5.5c-.7,0-1,0-1.1-.2ZM631.3,594.4c-.7,0-1.2.6-1.2,1.2s0,.2.2.2h7s.2,0,.2-.2c0-.7-.6-1.2-1.2-1.2h-5Z"/>
    <path class="st0" d="M642,602.3c-.2-.2-.2-.5-.2-1.1v-3.6c0-.7,0-1,.2-1.1s.5-.2,1.1-.2h5.5c.7,0,1,0,1.1.2s.2.5.2,1.1v3.6c0,.7,0,1-.2,1.1s-.5.2-1.1.2h-5.5c-.7,0-1,0-1.1-.2ZM643.6,594.4c-.7,0-1.2.6-1.2,1.2s0,.2.2.2h7s.2,0,.2-.2c0-.7-.6-1.2-1.2-1.2h-5Z"/>
  </g>
  <g id="MV_x5F_5">
    <path class="st0" d="M630.8,681.1c.2.2.2.5.2,1.1v3.6c0,.7,0,1-.2,1.1s-.5.2-1.1.2h-5.5c-.7,0-1,0-1.1-.2s-.2-.5-.2-1.1v-3.6c0-.7,0-1,.2-1.1s.5-.2,1.1-.2h5.5c.7,0,1,0,1.1.2ZM629.3,689.1c.7,0,1.2-.6,1.2-1.2s0-.2-.2-.2h-7s-.2,0-.2.2c0,.7.6,1.2,1.2,1.2h5Z"/>
    <path class="st0" d="M643.1,681.1c.2.2.2.5.2,1.1v3.6c0,.7,0,1-.2,1.1s-.5.2-1.1.2h-5.5c-.7,0-1,0-1.1-.2s-.2-.5-.2-1.1v-3.6c0-.7,0-1,.2-1.1s.5-.2,1.1-.2h5.5c.7,0,1,0,1.1.2ZM641.5,689.1c.7,0,1.2-.6,1.2-1.2s0-.2-.2-.2h-7s-.2,0-.2.2c0,.7.6,1.2,1.2,1.2h5Z"/>
    <path class="st0" d="M608.7,697c.2-.2.5-.2,1.1-.2h3.6c.7,0,1,0,1.1.2s.2.5.2,1.1v5.5c0,.7,0,1-.2,1.1s-.5.2-1.1.2h-3.6c-.7,0-1,0-1.1-.2s-.2-.5-.2-1.1v-5.5c0-.7,0-1,.2-1.1ZM616.7,698.4c0-.7-.6-1.2-1.2-1.2s-.2,0-.2.2v7s0,.2.2.2c.7,0,1.2-.6,1.2-1.2v-4.8h0v-.2Z"/>
    <path class="st0" d="M608.7,709.2c.2-.2.5-.2,1.1-.2h3.6c.7,0,1,0,1.1.2s.2.5.2,1.1v5.5c0,.7,0,1-.2,1.1s-.5.2-1.1.2h-3.6c-.7,0-1,0-1.1-.2s-.2-.5-.2-1.1v-5.5c0-.7,0-1,.2-1.1ZM616.7,710.7c0-.7-.6-1.2-1.2-1.2s-.2,0-.2.2v7s0,.2.2.2c.7,0,1.2-.6,1.2-1.2v-4.8h0v-.2Z"/>
    <rect class="st1" x="620.8" y="694.8" width="24.5" height="24.5" rx="1.6" ry="1.6"/>
    <path class="st0" d="M657.4,704.7c-.2.2-.5.2-1.1.2h-3.6c-.7,0-1,0-1.1-.2s-.2-.5-.2-1.1v-5.5c0-.7,0-1,.2-1.1s.5-.2,1.1-.2h3.6c.7,0,1,0,1.1.2s.2.5.2,1.1v5.5c0,.7,0,1-.2,1.1ZM649.4,703.3c0,.7.6,1.2,1.2,1.2s.2,0,.2-.2v-7s0-.2-.2-.2c-.7,0-1.2.6-1.2,1.2v4.8h0v.2Z"/>
    <path class="st0" d="M657.4,717c-.2.2-.5.2-1.1.2h-3.6c-.7,0-1,0-1.1-.2s-.2-.5-.2-1.1v-5.5c0-.7,0-1,.2-1.1s.5-.2,1.1-.2h3.6c.7,0,1,0,1.1.2s.2.5.2,1.1v5.5c0,.7,0,1-.2,1.1ZM649.4,715.5c0,.7.6,1.2,1.2,1.2s.2,0,.2-.2v-7s0-.2-.2-.2c-.7,0-1.2.6-1.2,1.2v4.8h0v.2Z"/>
    <path class="st0" d="M623,732.9c-.2-.2-.2-.5-.2-1.1v-3.6c0-.7,0-1,.2-1.1s.5-.2,1.1-.2h5.5c.7,0,1,0,1.1.2s.2.5.2,1.1v3.6c0,.7,0,1-.2,1.1s-.5.2-1.1.2h-5.5c-.7,0-1,0-1.1-.2ZM624.6,725c-.7,0-1.2.6-1.2,1.2s0,.2.2.2h7s.2,0,.2-.2c0-.7-.6-1.2-1.2-1.2h-5Z"/>
    <path class="st0" d="M635.3,732.9c-.2-.2-.2-.5-.2-1.1v-3.6c0-.7,0-1,.2-1.1s.5-.2,1.1-.2h5.5c.7,0,1,0,1.1.2s.2.5.2,1.1v3.6c0,.7,0,1-.2,1.1s-.5.2-1.1.2h-5.5c-.7,0-1,0-1.1-.2ZM636.8,725c-.7,0-1.2.6-1.2,1.2s0,.2.2.2h7s.2,0,.2-.2c0-.7-.6-1.2-1.2-1.2h-5Z"/>
  </g>
  <g id="MV_x5F_6">
    <path class="st0" d="M566.4,681.1c.2.2.2.5.2,1.1v3.6c0,.7,0,1-.2,1.1s-.5.2-1.1.2h-5.5c-.7,0-1,0-1.1-.2s-.2-.5-.2-1.1v-3.6c0-.7,0-1,.2-1.1s.5-.2,1.1-.2h5.5c.7,0,1,0,1.1.2ZM564.8,689.1c.7,0,1.2-.6,1.2-1.2s0-.2-.2-.2h-7s-.2,0-.2.2c0,.7.6,1.2,1.2,1.2h5Z"/>
    <path class="st0" d="M578.6,681.1c.2.2.2.5.2,1.1v3.6c0,.7,0,1-.2,1.1s-.5.2-1.1.2h-5.5c-.7,0-1,0-1.1-.2s-.2-.5-.2-1.1v-3.6c0-.7,0-1,.2-1.1s.5-.2,1.1-.2h5.5c.7,0,1,0,1.1.2ZM577.1,689.1c.7,0,1.2-.6,1.2-1.2s0-.2-.2-.2h-7s-.2,0-.2.2c0,.7.6,1.2,1.2,1.2h5Z"/>
    <path class="st0" d="M544.2,697c.2-.2.5-.2,1.1-.2h3.6c.7,0,1,0,1.1.2s.2.5.2,1.1v5.5c0,.7,0,1-.2,1.1s-.5.2-1.1.2h-3.6c-.7,0-1,0-1.1-.2s-.2-.5-.2-1.1v-5.5c0-.7,0-1,.2-1.1ZM552.2,698.4c0-.7-.6-1.2-1.2-1.2s-.2,0-.2.2v7s0,.2.2.2c.7,0,1.2-.6,1.2-1.2v-4.8h0v-.2Z"/>
    <path class="st0" d="M544.2,709.2c.2-.2.5-.2,1.1-.2h3.6c.7,0,1,0,1.1.2s.2.5.2,1.1v5.5c0,.7,0,1-.2,1.1s-.5.2-1.1.2h-3.6c-.7,0-1,0-1.1-.2s-.2-.5-.2-1.1v-5.5c0-.7,0-1,.2-1.1ZM552.2,710.7c0-.7-.6-1.2-1.2-1.2s-.2,0-.2.2v7s0,.2.2.2c.7,0,1.2-.6,1.2-1.2v-4.8h0v-.2Z"/>
    <rect class="st1" x="556.3" y="694.8" width="24.5" height="24.5" rx="1.6" ry="1.6"/>
    <path class="st0" d="M592.9,704.7c-.2.2-.5.2-1.1.2h-3.6c-.7,0-1,0-1.1-.2s-.2-.5-.2-1.1v-5.5c0-.7,0-1,.2-1.1s.5-.2,1.1-.2h3.6c.7,0,1,0,1.1.2s.2.5.2,1.1v5.5c0,.7,0,1-.2,1.1ZM584.9,703.3c0,.7.6,1.2,1.2,1.2s.2,0,.2-.2v-7s0-.2-.2-.2c-.7,0-1.2.6-1.2,1.2v4.8h0v.2Z"/>
    <path class="st0" d="M592.9,717c-.2.2-.5.2-1.1.2h-3.6c-.7,0-1,0-1.1-.2s-.2-.5-.2-1.1v-5.5c0-.7,0-1,.2-1.1s.5-.2,1.1-.2h3.6c.7,0,1,0,1.1.2s.2.5.2,1.1v5.5c0,.7,0,1-.2,1.1ZM584.9,715.5c0,.7.6,1.2,1.2,1.2s.2,0,.2-.2v-7s0-.2-.2-.2c-.7,0-1.2.6-1.2,1.2v4.8h0v.2Z"/>
    <path class="st0" d="M558.5,732.9c-.2-.2-.2-.5-.2-1.1v-3.6c0-.7,0-1,.2-1.1s.5-.2,1.1-.2h5.5c.7,0,1,0,1.1.2s.2.5.2,1.1v3.6c0,.7,0,1-.2,1.1s-.5.2-1.1.2h-5.5c-.7,0-1,0-1.1-.2ZM560.1,725c-.7,0-1.2.6-1.2,1.2s0,.2.2.2h7s.2,0,.2-.2c0-.7-.6-1.2-1.2-1.2h-5Z"/>
    <path class="st0" d="M570.8,732.9c-.2-.2-.2-.5-.2-1.1v-3.6c0-.7,0-1,.2-1.1s.5-.2,1.1-.2h5.5c.7,0,1,0,1.1.2s.2.5.2,1.1v3.6c0,.7,0,1-.2,1.1s-.5.2-1.1.2h-5.5c-.7,0-1,0-1.1-.2ZM572.3,725c-.7,0-1.2.6-1.2,1.2s0,.2.2.2h7s.2,0,.2-.2c0-.7-.6-1.2-1.2-1.2h-5Z"/>
  </g>
  <g id="MV_x5F_7">
    <path class="st0" d="M702.1,237c.2.2.2.5.2,1.1v3.6c0,.7,0,1-.2,1.1s-.5.2-1.1.2h-5.5c-.7,0-1,0-1.1-.2s-.2-.5-.2-1.1v-3.6c0-.7,0-1,.2-1.1s.5-.2,1.1-.2h5.5c.7,0,1,0,1.1.2ZM700.5,245c.7,0,1.2-.6,1.2-1.2s0-.2-.2-.2h-7s-.2,0-.2.2c0,.7.6,1.2,1.2,1.2h5Z"/>
    <path class="st0" d="M714.3,237c.2.2.2.5.2,1.1v3.6c0,.7,0,1-.2,1.1s-.5.2-1.1.2h-5.5c-.7,0-1,0-1.1-.2s-.2-.5-.2-1.1v-3.6c0-.7,0-1,.2-1.1s.5-.2,1.1-.2h5.5c.7,0,1,0,1.1.2ZM712.8,245c.7,0,1.2-.6,1.2-1.2s0-.2-.2-.2h-7s-.2,0-.2.2c0,.7.6,1.2,1.2,1.2h5Z"/>
    <path class="st0" d="M680,253c.2-.2.5-.2,1.1-.2h3.6c.7,0,1,0,1.1.2s.2.5.2,1.1v5.5c0,.7,0,1-.2,1.1s-.5.2-1.1.2h-3.6c-.7,0-1,0-1.1-.2s-.2-.5-.2-1.1v-5.5c0-.7,0-1,.2-1.1ZM688,254.4c0-.7-.6-1.2-1.2-1.2s-.2,0-.2.2v7s0,.2.2.2c.7,0,1.2-.6,1.2-1.2v-4.8h0v-.2Z"/>
    <path class="st0" d="M680,265.2c.2-.2.5-.2,1.1-.2h3.6c.7,0,1,0,1.1.2s.2.5.2,1.1v5.5c0,.7,0,1-.2,1.1s-.5.2-1.1.2h-3.6c-.7,0-1,0-1.1-.2s-.2-.5-.2-1.1v-5.5c0-.7,0-1,.2-1.1ZM688,266.7c0-.7-.6-1.2-1.2-1.2s-.2,0-.2.2v7s0,.2.2.2c.7,0,1.2-.6,1.2-1.2v-4.8h0v-.2Z"/>
    <rect class="st1" x="692" y="250.8" width="24.5" height="24.5" rx="1.6" ry="1.6"/>
    <path class="st0" d="M728.6,260.7c-.2.2-.5.2-1.1.2h-3.6c-.7,0-1,0-1.1-.2s-.2-.5-.2-1.1v-5.5c0-.7,0-1,.2-1.1s.5-.2,1.1-.2h3.6c.7,0,1,0,1.1.2s.2.5.2,1.1v5.5c0,.7,0,1-.2,1.1ZM720.6,259.2c0,.7.6,1.2,1.2,1.2s.2,0,.2-.2v-7s0-.2-.2-.2c-.7,0-1.2.6-1.2,1.2v4.8h0v.2Z"/>
    <path class="st0" d="M728.6,273c-.2.2-.5.2-1.1.2h-3.6c-.7,0-1,0-1.1-.2s-.2-.5-.2-1.1v-5.5c0-.7,0-1,.2-1.1s.5-.2,1.1-.2h3.6c.7,0,1,0,1.1.2s.2.5.2,1.1v5.5c0,.7,0,1-.2,1.1ZM720.6,271.5c0,.7.6,1.2,1.2,1.2s.2,0,.2-.2v-7s0-.2-.2-.2c-.7,0-1.2.6-1.2,1.2v4.8h0v.2Z"/>
    <path class="st0" d="M694.2,288.9c-.2-.2-.2-.5-.2-1.1v-3.6c0-.7,0-1,.2-1.1s.5-.2,1.1-.2h5.5c.7,0,1,0,1.1.2s.2.5.2,1.1v3.6c0,.7,0,1-.2,1.1s-.5.2-1.1.2h-5.5c-.7,0-1,0-1.1-.2ZM695.8,281c-.7,0-1.2.6-1.2,1.2s0,.2.2.2h7s.2,0,.2-.2c0-.7-.6-1.2-1.2-1.2h-5Z"/>
    <path class="st0" d="M706.5,288.9c-.2-.2-.2-.5-.2-1.1v-3.6c0-.7,0-1,.2-1.1s.5-.2,1.1-.2h5.5c.7,0,1,0,1.1.2s.2.5.2,1.1v3.6c0,.7,0,1-.2,1.1s-.5.2-1.1.2h-5.5c-.7,0-1,0-1.1-.2ZM708,281c-.7,0-1.2.6-1.2,1.2s0,.2.2.2h7s.2,0,.2-.2c0-.7-.6-1.2-1.2-1.2h-5Z"/>
  </g>
  <g id="MV_x5F_8">
    <path class="st0" d="M702.1,315.4c.2.2.2.5.2,1.1v3.6c0,.7,0,1-.2,1.1-.2.2-.5.2-1.1.2h-5.5c-.7,0-1,0-1.1-.2s-.2-.5-.2-1.1v-3.6c0-.7,0-1,.2-1.1.2-.2.5-.2,1.1-.2h5.5c.7,0,1,0,1.1.2ZM700.5,323.4c.7,0,1.2-.6,1.2-1.2s0-.2-.2-.2h-7s-.2,0-.2.2c0,.7.6,1.2,1.2,1.2h5Z"/>
    <path class="st0" d="M714.3,315.4c.2.2.2.5.2,1.1v3.6c0,.7,0,1-.2,1.1-.2.2-.5.2-1.1.2h-5.5c-.7,0-1,0-1.1-.2s-.2-.5-.2-1.1v-3.6c0-.7,0-1,.2-1.1.2-.2.5-.2,1.1-.2h5.5c.7,0,1,0,1.1.2ZM712.8,323.4c.7,0,1.2-.6,1.2-1.2s0-.2-.2-.2h-7s-.2,0-.2.2c0,.7.6,1.2,1.2,1.2h5Z"/>
    <path class="st0" d="M680,331.3c.2-.2.5-.2,1.1-.2h3.6c.7,0,1,0,1.1.2s.2.5.2,1.1v5.5c0,.7,0,1-.2,1.1-.2.2-.5.2-1.1.2h-3.6c-.7,0-1,0-1.1-.2s-.2-.5-.2-1.1v-5.5c0-.7,0-1,.2-1.1ZM688,332.8c0-.7-.6-1.2-1.2-1.2s-.2,0-.2.2v7s0,.2.2.2c.7,0,1.2-.6,1.2-1.2v-4.8h0v-.2Z"/>
    <path class="st0" d="M680,343.6c.2-.2.5-.2,1.1-.2h3.6c.7,0,1,0,1.1.2s.2.5.2,1.1v5.5c0,.7,0,1-.2,1.1-.2.2-.5.2-1.1.2h-3.6c-.7,0-1,0-1.1-.2s-.2-.5-.2-1.1v-5.5c0-.7,0-1,.2-1.1ZM688,345c0-.7-.6-1.2-1.2-1.2s-.2,0-.2.2v7s0,.2.2.2c.7,0,1.2-.6,1.2-1.2v-4.8h0v-.2Z"/>
    <rect class="st1" x="692" y="329.1" width="24.5" height="24.5" rx="1.6" ry="1.6"/>
    <path class="st0" d="M728.6,339.1c-.2.2-.5.2-1.1.2h-3.6c-.7,0-1,0-1.1-.2s-.2-.5-.2-1.1v-5.5c0-.7,0-1,.2-1.1.2-.2.5-.2,1.1-.2h3.6c.7,0,1,0,1.1.2s.2.5.2,1.1v5.5c0,.7,0,1-.2,1.1ZM720.6,337.6c0,.7.6,1.2,1.2,1.2s.2,0,.2-.2v-7s0-.2-.2-.2c-.7,0-1.2.6-1.2,1.2v4.8h0v.2Z"/>
    <path class="st0" d="M728.6,351.3c-.2.2-.5.2-1.1.2h-3.6c-.7,0-1,0-1.1-.2s-.2-.5-.2-1.1v-5.5c0-.7,0-1,.2-1.1.2-.2.5-.2,1.1-.2h3.6c.7,0,1,0,1.1.2s.2.5.2,1.1v5.5c0,.7,0,1-.2,1.1ZM720.6,349.8c0,.7.6,1.2,1.2,1.2s.2,0,.2-.2v-7s0-.2-.2-.2c-.7,0-1.2.6-1.2,1.2v4.8h0v.2Z"/>
    <path class="st0" d="M694.2,367.2c-.2-.2-.2-.5-.2-1.1v-3.6c0-.7,0-1,.2-1.1.2-.2.5-.2,1.1-.2h5.5c.7,0,1,0,1.1.2s.2.5.2,1.1v3.6c0,.7,0,1-.2,1.1-.2.2-.5.2-1.1.2h-5.5c-.7,0-1,0-1.1-.2ZM695.8,359.3c-.7,0-1.2.6-1.2,1.2s0,.2.2.2h7s.2,0,.2-.2c0-.7-.6-1.2-1.2-1.2h-5Z"/>
    <path class="st0" d="M706.5,367.2c-.2-.2-.2-.5-.2-1.1v-3.6c0-.7,0-1,.2-1.1.2-.2.5-.2,1.1-.2h5.5c.7,0,1,0,1.1.2s.2.5.2,1.1v3.6c0,.7,0,1-.2,1.1-.2.2-.5.2-1.1.2h-5.5c-.7,0-1,0-1.1-.2ZM708,359.3c-.7,0-1.2.6-1.2,1.2s0,.2.2.2h7s.2,0,.2-.2c0-.7-.6-1.2-1.2-1.2h-5Z"/>
  </g>
  <g id="MV_x5F_9">
    <path class="st0" d="M702.1,393.8c.2.2.2.5.2,1.1v3.6c0,.7,0,1-.2,1.1-.2.2-.5.2-1.1.2h-5.5c-.7,0-1,0-1.1-.2s-.2-.5-.2-1.1v-3.6c0-.7,0-1,.2-1.1.2-.2.5-.2,1.1-.2h5.5c.7,0,1,0,1.1.2ZM700.5,401.8c.7,0,1.2-.6,1.2-1.2s0-.2-.2-.2h-7s-.2,0-.2.2c0,.7.6,1.2,1.2,1.2h5Z"/>
    <path class="st0" d="M714.3,393.8c.2.2.2.5.2,1.1v3.6c0,.7,0,1-.2,1.1-.2.2-.5.2-1.1.2h-5.5c-.7,0-1,0-1.1-.2s-.2-.5-.2-1.1v-3.6c0-.7,0-1,.2-1.1.2-.2.5-.2,1.1-.2h5.5c.7,0,1,0,1.1.2ZM712.8,401.8c.7,0,1.2-.6,1.2-1.2s0-.2-.2-.2h-7s-.2,0-.2.2c0,.7.6,1.2,1.2,1.2h5Z"/>
    <path class="st0" d="M680,409.7c.2-.2.5-.2,1.1-.2h3.6c.7,0,1,0,1.1.2s.2.5.2,1.1v5.5c0,.7,0,1-.2,1.1-.2.2-.5.2-1.1.2h-3.6c-.7,0-1,0-1.1-.2s-.2-.5-.2-1.1v-5.5c0-.7,0-1,.2-1.1ZM688,411.1c0-.7-.6-1.2-1.2-1.2s-.2,0-.2.2v7s0,.2.2.2c.7,0,1.2-.6,1.2-1.2v-4.8h0v-.2Z"/>
    <path class="st0" d="M680,421.9c.2-.2.5-.2,1.1-.2h3.6c.7,0,1,0,1.1.2s.2.5.2,1.1v5.5c0,.7,0,1-.2,1.1-.2.2-.5.2-1.1.2h-3.6c-.7,0-1,0-1.1-.2s-.2-.5-.2-1.1v-5.5c0-.7,0-1,.2-1.1ZM688,423.4c0-.7-.6-1.2-1.2-1.2s-.2,0-.2.2v7s0,.2.2.2c.7,0,1.2-.6,1.2-1.2v-4.8h0v-.2Z"/>
    <rect class="st1" x="692" y="407.5" width="24.5" height="24.5" rx="1.6" ry="1.6"/>
    <path class="st0" d="M728.6,417.4c-.2.2-.5.2-1.1.2h-3.6c-.7,0-1,0-1.1-.2s-.2-.5-.2-1.1v-5.5c0-.7,0-1,.2-1.1.2-.2.5-.2,1.1-.2h3.6c.7,0,1,0,1.1.2s.2.5.2,1.1v5.5c0,.7,0,1-.2,1.1ZM720.6,416c0,.7.6,1.2,1.2,1.2s.2,0,.2-.2v-7s0-.2-.2-.2c-.7,0-1.2.6-1.2,1.2v4.8h0v.2Z"/>
    <path class="st0" d="M728.6,429.7c-.2.2-.5.2-1.1.2h-3.6c-.7,0-1,0-1.1-.2s-.2-.5-.2-1.1v-5.5c0-.7,0-1,.2-1.1.2-.2.5-.2,1.1-.2h3.6c.7,0,1,0,1.1.2s.2.5.2,1.1v5.5c0,.7,0,1-.2,1.1ZM720.6,428.2c0,.7.6,1.2,1.2,1.2s.2,0,.2-.2v-7s0-.2-.2-.2c-.7,0-1.2.6-1.2,1.2v4.8h0v.2Z"/>
    <path class="st0" d="M694.2,445.6c-.2-.2-.2-.5-.2-1.1v-3.6c0-.7,0-1,.2-1.1.2-.2.5-.2,1.1-.2h5.5c.7,0,1,0,1.1.2s.2.5.2,1.1v3.6c0,.7,0,1-.2,1.1-.2.2-.5.2-1.1.2h-5.5c-.7,0-1,0-1.1-.2ZM695.8,437.7c-.7,0-1.2.6-1.2,1.2s0,.2.2.2h7s.2,0,.2-.2c0-.7-.6-1.2-1.2-1.2h-5Z"/>
    <path class="st0" d="M706.5,445.6c-.2-.2-.2-.5-.2-1.1v-3.6c0-.7,0-1,.2-1.1.2-.2.5-.2,1.1-.2h5.5c.7,0,1,0,1.1.2s.2.5.2,1.1v3.6c0,.7,0,1-.2,1.1-.2.2-.5.2-1.1.2h-5.5c-.7,0-1,0-1.1-.2ZM708,437.7c-.7,0-1.2.6-1.2,1.2s0,.2.2.2h7s.2,0,.2-.2c0-.7-.6-1.2-1.2-1.2h-5Z"/>
  </g>
  <g id="MV_x5F_10">
    <path class="st0" d="M702.1,472.1c.2.2.2.5.2,1.1v3.6c0,.7,0,1-.2,1.1-.2.2-.5.2-1.1.2h-5.5c-.7,0-1,0-1.1-.2s-.2-.5-.2-1.1v-3.6c0-.7,0-1,.2-1.1.2-.2.5-.2,1.1-.2h5.5c.7,0,1,0,1.1.2ZM700.5,480.1c.7,0,1.2-.6,1.2-1.2s0-.2-.2-.2h-7s-.2,0-.2.2c0,.7.6,1.2,1.2,1.2h5Z"/>
    <path class="st0" d="M714.3,472.1c.2.2.2.5.2,1.1v3.6c0,.7,0,1-.2,1.1-.2.2-.5.2-1.1.2h-5.5c-.7,0-1,0-1.1-.2s-.2-.5-.2-1.1v-3.6c0-.7,0-1,.2-1.1.2-.2.5-.2,1.1-.2h5.5c.7,0,1,0,1.1.2ZM712.8,480.1c.7,0,1.2-.6,1.2-1.2s0-.2-.2-.2h-7s-.2,0-.2.2c0,.7.6,1.2,1.2,1.2h5Z"/>
    <path class="st0" d="M680,488c.2-.2.5-.2,1.1-.2h3.6c.7,0,1,0,1.1.2s.2.5.2,1.1v5.5c0,.7,0,1-.2,1.1-.2.2-.5.2-1.1.2h-3.6c-.7,0-1,0-1.1-.2s-.2-.5-.2-1.1v-5.5c0-.7,0-1,.2-1.1ZM688,489.5c0-.7-.6-1.2-1.2-1.2s-.2,0-.2.2v7s0,.2.2.2c.7,0,1.2-.6,1.2-1.2v-4.8h0v-.2Z"/>
    <path class="st0" d="M680,500.3c.2-.2.5-.2,1.1-.2h3.6c.7,0,1,0,1.1.2s.2.5.2,1.1v5.5c0,.7,0,1-.2,1.1-.2.2-.5.2-1.1.2h-3.6c-.7,0-1,0-1.1-.2s-.2-.5-.2-1.1v-5.5c0-.7,0-1,.2-1.1ZM688,501.7c0-.7-.6-1.2-1.2-1.2s-.2,0-.2.2v7s0,.2.2.2c.7,0,1.2-.6,1.2-1.2v-4.8h0v-.2Z"/>
    <rect class="st1" x="692" y="485.8" width="24.5" height="24.5" rx="1.6" ry="1.6"/>
    <path class="st0" d="M728.6,495.8c-.2.2-.5.2-1.1.2h-3.6c-.7,0-1,0-1.1-.2s-.2-.5-.2-1.1v-5.5c0-.7,0-1,.2-1.1.2-.2.5-.2,1.1-.2h3.6c.7,0,1,0,1.1.2s.2.5.2,1.1v5.5c0,.7,0,1-.2,1.1ZM720.6,494.3c0,.7.6,1.2,1.2,1.2s.2,0,.2-.2v-7s0-.2-.2-.2c-.7,0-1.2.6-1.2,1.2v4.8h0v.2Z"/>
    <path class="st0" d="M728.6,508c-.2.2-.5.2-1.1.2h-3.6c-.7,0-1,0-1.1-.2s-.2-.5-.2-1.1v-5.5c0-.7,0-1,.2-1.1.2-.2.5-.2,1.1-.2h3.6c.7,0,1,0,1.1.2s.2.5.2,1.1v5.5c0,.7,0,1-.2,1.1ZM720.6,506.6c0,.7.6,1.2,1.2,1.2s.2,0,.2-.2v-7s0-.2-.2-.2c-.7,0-1.2.6-1.2,1.2v4.8h0v.2Z"/>
    <path class="st0" d="M694.2,523.9c-.2-.2-.2-.5-.2-1.1v-3.6c0-.7,0-1,.2-1.1.2-.2.5-.2,1.1-.2h5.5c.7,0,1,0,1.1.2s.2.5.2,1.1v3.6c0,.7,0,1-.2,1.1s-.5.2-1.1.2h-5.5c-.7,0-1,0-1.1-.2ZM695.8,516c-.7,0-1.2.6-1.2,1.2s0,.2.2.2h7s.2,0,.2-.2c0-.7-.6-1.2-1.2-1.2h-5Z"/>
    <path class="st0" d="M706.5,523.9c-.2-.2-.2-.5-.2-1.1v-3.6c0-.7,0-1,.2-1.1.2-.2.5-.2,1.1-.2h5.5c.7,0,1,0,1.1.2s.2.5.2,1.1v3.6c0,.7,0,1-.2,1.1s-.5.2-1.1.2h-5.5c-.7,0-1,0-1.1-.2ZM708,516c-.7,0-1.2.6-1.2,1.2s0,.2.2.2h7s.2,0,.2-.2c0-.7-.6-1.2-1.2-1.2h-5Z"/>
  </g>
  <g id="MV_x5F_11">
    <path class="st0" d="M702.1,550.5c.2.2.2.5.2,1.1v3.6c0,.7,0,1-.2,1.1s-.5.2-1.1.2h-5.5c-.7,0-1,0-1.1-.2s-.2-.5-.2-1.1v-3.6c0-.7,0-1,.2-1.1s.5-.2,1.1-.2h5.5c.7,0,1,0,1.1.2ZM700.5,558.5c.7,0,1.2-.6,1.2-1.2s0-.2-.2-.2h-7s-.2,0-.2.2c0,.7.6,1.2,1.2,1.2h5Z"/>
    <path class="st0" d="M714.3,550.5c.2.2.2.5.2,1.1v3.6c0,.7,0,1-.2,1.1s-.5.2-1.1.2h-5.5c-.7,0-1,0-1.1-.2s-.2-.5-.2-1.1v-3.6c0-.7,0-1,.2-1.1s.5-.2,1.1-.2h5.5c.7,0,1,0,1.1.2ZM712.8,558.5c.7,0,1.2-.6,1.2-1.2s0-.2-.2-.2h-7s-.2,0-.2.2c0,.7.6,1.2,1.2,1.2h5Z"/>
    <path class="st0" d="M680,566.4c.2-.2.5-.2,1.1-.2h3.6c.7,0,1,0,1.1.2s.2.5.2,1.1v5.5c0,.7,0,1-.2,1.1s-.5.2-1.1.2h-3.6c-.7,0-1,0-1.1-.2s-.2-.5-.2-1.1v-5.5c0-.7,0-1,.2-1.1ZM688,567.9c0-.7-.6-1.2-1.2-1.2s-.2,0-.2.2v7s0,.2.2.2c.7,0,1.2-.6,1.2-1.2v-4.8h0v-.2Z"/>
    <path class="st0" d="M680,578.6c.2-.2.5-.2,1.1-.2h3.6c.7,0,1,0,1.1.2s.2.5.2,1.1v5.5c0,.7,0,1-.2,1.1s-.5.2-1.1.2h-3.6c-.7,0-1,0-1.1-.2s-.2-.5-.2-1.1v-5.5c0-.7,0-1,.2-1.1ZM688,580.1c0-.7-.6-1.2-1.2-1.2s-.2,0-.2.2v7s0,.2.2.2c.7,0,1.2-.6,1.2-1.2v-4.8h0v-.2Z"/>
    <rect class="st1" x="692" y="564.2" width="24.5" height="24.5" rx="1.6" ry="1.6"/>
    <path class="st0" d="M728.6,574.1c-.2.2-.5.2-1.1.2h-3.6c-.7,0-1,0-1.1-.2s-.2-.5-.2-1.1v-5.5c0-.7,0-1,.2-1.1s.5-.2,1.1-.2h3.6c.7,0,1,0,1.1.2s.2.5.2,1.1v5.5c0,.7,0,1-.2,1.1ZM720.6,572.7c0,.7.6,1.2,1.2,1.2s.2,0,.2-.2v-7s0-.2-.2-.2c-.7,0-1.2.6-1.2,1.2v4.8h0v.2Z"/>
    <path class="st0" d="M728.6,586.4c-.2.2-.5.2-1.1.2h-3.6c-.7,0-1,0-1.1-.2s-.2-.5-.2-1.1v-5.5c0-.7,0-1,.2-1.1s.5-.2,1.1-.2h3.6c.7,0,1,0,1.1.2s.2.5.2,1.1v5.5c0,.7,0,1-.2,1.1ZM720.6,584.9c0,.7.6,1.2,1.2,1.2s.2,0,.2-.2v-7s0-.2-.2-.2c-.7,0-1.2.6-1.2,1.2v4.8h0v.2Z"/>
    <path class="st0" d="M694.2,602.3c-.2-.2-.2-.5-.2-1.1v-3.6c0-.7,0-1,.2-1.1s.5-.2,1.1-.2h5.5c.7,0,1,0,1.1.2s.2.5.2,1.1v3.6c0,.7,0,1-.2,1.1s-.5.2-1.1.2h-5.5c-.7,0-1,0-1.1-.2ZM695.8,594.4c-.7,0-1.2.6-1.2,1.2s0,.2.2.2h7s.2,0,.2-.2c0-.7-.6-1.2-1.2-1.2h-5Z"/>
    <path class="st0" d="M706.5,602.3c-.2-.2-.2-.5-.2-1.1v-3.6c0-.7,0-1,.2-1.1s.5-.2,1.1-.2h5.5c.7,0,1,0,1.1.2s.2.5.2,1.1v3.6c0,.7,0,1-.2,1.1s-.5.2-1.1.2h-5.5c-.7,0-1,0-1.1-.2ZM708,594.4c-.7,0-1.2.6-1.2,1.2s0,.2.2.2h7s.2,0,.2-.2c0-.7-.6-1.2-1.2-1.2h-5Z"/>
  </g>
  <g id="MV_x5F_12">
    <path class="st0" d="M702.1,628.8c.2.2.2.5.2,1.1v3.6c0,.7,0,1-.2,1.1s-.5.2-1.1.2h-5.5c-.7,0-1,0-1.1-.2s-.2-.5-.2-1.1v-3.6c0-.7,0-1,.2-1.1s.5-.2,1.1-.2h5.5c.7,0,1,0,1.1.2ZM700.5,636.8c.7,0,1.2-.6,1.2-1.2s0-.2-.2-.2h-7s-.2,0-.2.2c0,.7.6,1.2,1.2,1.2h5Z"/>
    <path class="st0" d="M714.3,628.8c.2.2.2.5.2,1.1v3.6c0,.7,0,1-.2,1.1s-.5.2-1.1.2h-5.5c-.7,0-1,0-1.1-.2s-.2-.5-.2-1.1v-3.6c0-.7,0-1,.2-1.1s.5-.2,1.1-.2h5.5c.7,0,1,0,1.1.2ZM712.8,636.8c.7,0,1.2-.6,1.2-1.2s0-.2-.2-.2h-7s-.2,0-.2.2c0,.7.6,1.2,1.2,1.2h5Z"/>
    <path class="st0" d="M680,644.7c.2-.2.5-.2,1.1-.2h3.6c.7,0,1,0,1.1.2s.2.5.2,1.1v5.5c0,.7,0,1-.2,1.1s-.5.2-1.1.2h-3.6c-.7,0-1,0-1.1-.2s-.2-.5-.2-1.1v-5.5c0-.7,0-1,.2-1.1ZM688,646.2c0-.7-.6-1.2-1.2-1.2s-.2,0-.2.2v7s0,.2.2.2c.7,0,1.2-.6,1.2-1.2v-4.8h0v-.2Z"/>
    <path class="st0" d="M680,657c.2-.2.5-.2,1.1-.2h3.6c.7,0,1,0,1.1.2s.2.5.2,1.1v5.5c0,.7,0,1-.2,1.1s-.5.2-1.1.2h-3.6c-.7,0-1,0-1.1-.2s-.2-.5-.2-1.1v-5.5c0-.7,0-1,.2-1.1ZM688,658.5c0-.7-.6-1.2-1.2-1.2s-.2,0-.2.2v7s0,.2.2.2c.7,0,1.2-.6,1.2-1.2v-4.8h0v-.2Z"/>
    <rect class="st1" x="692" y="642.5" width="24.5" height="24.5" rx="1.6" ry="1.6"/>
    <path class="st0" d="M728.6,652.5c-.2.2-.5.2-1.1.2h-3.6c-.7,0-1,0-1.1-.2s-.2-.5-.2-1.1v-5.5c0-.7,0-1,.2-1.1s.5-.2,1.1-.2h3.6c.7,0,1,0,1.1.2s.2.5.2,1.1v5.5c0,.7,0,1-.2,1.1ZM720.6,651c0,.7.6,1.2,1.2,1.2s.2,0,.2-.2v-7s0-.2-.2-.2c-.7,0-1.2.6-1.2,1.2v4.8h0v.2Z"/>
    <path class="st0" d="M728.6,664.7c-.2.2-.5.2-1.1.2h-3.6c-.7,0-1,0-1.1-.2s-.2-.5-.2-1.1v-5.5c0-.7,0-1,.2-1.1s.5-.2,1.1-.2h3.6c.7,0,1,0,1.1.2s.2.5.2,1.1v5.5c0,.7,0,1-.2,1.1ZM720.6,663.3c0,.7.6,1.2,1.2,1.2s.2,0,.2-.2v-7s0-.2-.2-.2c-.7,0-1.2.6-1.2,1.2v4.8h0v.2Z"/>
    <path class="st0" d="M694.2,680.7c-.2-.2-.2-.5-.2-1.1v-3.6c0-.7,0-1,.2-1.1s.5-.2,1.1-.2h5.5c.7,0,1,0,1.1.2s.2.5.2,1.1v3.6c0,.7,0,1-.2,1.1s-.5.2-1.1.2h-5.5c-.7,0-1,0-1.1-.2ZM695.8,672.7c-.7,0-1.2.6-1.2,1.2s0,.2.2.2h7s.2,0,.2-.2c0-.7-.6-1.2-1.2-1.2h-5Z"/>
    <path class="st0" d="M706.5,680.7c-.2-.2-.2-.5-.2-1.1v-3.6c0-.7,0-1,.2-1.1s.5-.2,1.1-.2h5.5c.7,0,1,0,1.1.2s.2.5.2,1.1v3.6c0,.7,0,1-.2,1.1s-.5.2-1.1.2h-5.5c-.7,0-1,0-1.1-.2ZM708,672.7c-.7,0-1.2.6-1.2,1.2s0,.2.2.2h7s.2,0,.2-.2c0-.7-.6-1.2-1.2-1.2h-5Z"/>
  </g>
  <g id="MV_x5F_13">
    <path class="st0" d="M630.8,759.4c.2.2.2.5.2,1.1v3.6c0,.7,0,1-.2,1.1s-.5.2-1.1.2h-5.5c-.7,0-1,0-1.1-.2s-.2-.5-.2-1.1v-3.6c0-.7,0-1,.2-1.1s.5-.2,1.1-.2h5.5c.7,0,1,0,1.1.2ZM629.3,767.4c.7,0,1.2-.6,1.2-1.2s0-.2-.2-.2h-7s-.2,0-.2.2c0,.7.6,1.2,1.2,1.2h5Z"/>
    <path class="st0" d="M643.1,759.4c.2.2.2.5.2,1.1v3.6c0,.7,0,1-.2,1.1s-.5.2-1.1.2h-5.5c-.7,0-1,0-1.1-.2s-.2-.5-.2-1.1v-3.6c0-.7,0-1,.2-1.1s.5-.2,1.1-.2h5.5c.7,0,1,0,1.1.2ZM641.5,767.4c.7,0,1.2-.6,1.2-1.2s0-.2-.2-.2h-7s-.2,0-.2.2c0,.7.6,1.2,1.2,1.2h5Z"/>
    <path class="st0" d="M608.7,775.3c.2-.2.5-.2,1.1-.2h3.6c.7,0,1,0,1.1.2s.2.5.2,1.1v5.5c0,.7,0,1-.2,1.1s-.5.2-1.1.2h-3.6c-.7,0-1,0-1.1-.2s-.2-.5-.2-1.1v-5.5c0-.7,0-1,.2-1.1ZM616.7,776.8c0-.7-.6-1.2-1.2-1.2s-.2,0-.2.2v7s0,.2.2.2c.7,0,1.2-.6,1.2-1.2v-4.8h0v-.2Z"/>
    <path class="st0" d="M608.7,787.6c.2-.2.5-.2,1.1-.2h3.6c.7,0,1,0,1.1.2s.2.5.2,1.1v5.5c0,.7,0,1-.2,1.1s-.5.2-1.1.2h-3.6c-.7,0-1,0-1.1-.2s-.2-.5-.2-1.1v-5.5c0-.7,0-1,.2-1.1ZM616.7,789c0-.7-.6-1.2-1.2-1.2s-.2,0-.2.2v7s0,.2.2.2c.7,0,1.2-.6,1.2-1.2v-4.8h0v-.2Z"/>
    <rect class="st1" x="620.8" y="773.1" width="24.5" height="24.5" rx="1.6" ry="1.6"/>
    <path class="st0" d="M657.4,783.1c-.2.2-.5.2-1.1.2h-3.6c-.7,0-1,0-1.1-.2s-.2-.5-.2-1.1v-5.5c0-.7,0-1,.2-1.1s.5-.2,1.1-.2h3.6c.7,0,1,0,1.1.2s.2.5.2,1.1v5.5c0,.7,0,1-.2,1.1ZM649.4,781.6c0,.7.6,1.2,1.2,1.2s.2,0,.2-.2v-7s0-.2-.2-.2c-.7,0-1.2.6-1.2,1.2v4.8h0v.2Z"/>
    <path class="st0" d="M657.4,795.3c-.2.2-.5.2-1.1.2h-3.6c-.7,0-1,0-1.1-.2s-.2-.5-.2-1.1v-5.5c0-.7,0-1,.2-1.1s.5-.2,1.1-.2h3.6c.7,0,1,0,1.1.2s.2.5.2,1.1v5.5c0,.7,0,1-.2,1.1ZM649.4,793.9c0,.7.6,1.2,1.2,1.2s.2,0,.2-.2v-7s0-.2-.2-.2c-.7,0-1.2.6-1.2,1.2v4.8h0v.2Z"/>
    <path class="st0" d="M623,811.2c-.2-.2-.2-.5-.2-1.1v-3.6c0-.7,0-1,.2-1.1s.5-.2,1.1-.2h5.5c.7,0,1,0,1.1.2s.2.5.2,1.1v3.6c0,.7,0,1-.2,1.1s-.5.2-1.1.2h-5.5c-.7,0-1,0-1.1-.2ZM624.6,803.3c-.7,0-1.2.6-1.2,1.2s0,.2.2.2h7s.2,0,.2-.2c0-.7-.6-1.2-1.2-1.2h-5Z"/>
    <path class="st0" d="M635.3,811.2c-.2-.2-.2-.5-.2-1.1v-3.6c0-.7,0-1,.2-1.1s.5-.2,1.1-.2h5.5c.7,0,1,0,1.1.2s.2.5.2,1.1v3.6c0,.7,0,1-.2,1.1s-.5.2-1.1.2h-5.5c-.7,0-1,0-1.1-.2ZM636.8,803.3c-.7,0-1.2.6-1.2,1.2s0,.2.2.2h7s.2,0,.2-.2c0-.7-.6-1.2-1.2-1.2h-5Z"/>
  </g>
  <g id="MV_x5F_14">
    <path class="st0" d="M566.4,759.4c.2.2.2.5.2,1.1v3.6c0,.7,0,1-.2,1.1s-.5.2-1.1.2h-5.5c-.7,0-1,0-1.1-.2s-.2-.5-.2-1.1v-3.6c0-.7,0-1,.2-1.1s.5-.2,1.1-.2h5.5c.7,0,1,0,1.1.2ZM564.8,767.4c.7,0,1.2-.6,1.2-1.2s0-.2-.2-.2h-7s-.2,0-.2.2c0,.7.6,1.2,1.2,1.2h5Z"/>
    <path class="st0" d="M578.6,759.4c.2.2.2.5.2,1.1v3.6c0,.7,0,1-.2,1.1s-.5.2-1.1.2h-5.5c-.7,0-1,0-1.1-.2s-.2-.5-.2-1.1v-3.6c0-.7,0-1,.2-1.1s.5-.2,1.1-.2h5.5c.7,0,1,0,1.1.2ZM577.1,767.4c.7,0,1.2-.6,1.2-1.2s0-.2-.2-.2h-7s-.2,0-.2.2c0,.7.6,1.2,1.2,1.2h5Z"/>
    <path class="st0" d="M544.2,775.3c.2-.2.5-.2,1.1-.2h3.6c.7,0,1,0,1.1.2s.2.5.2,1.1v5.5c0,.7,0,1-.2,1.1s-.5.2-1.1.2h-3.6c-.7,0-1,0-1.1-.2s-.2-.5-.2-1.1v-5.5c0-.7,0-1,.2-1.1ZM552.2,776.8c0-.7-.6-1.2-1.2-1.2s-.2,0-.2.2v7s0,.2.2.2c.7,0,1.2-.6,1.2-1.2v-4.8h0v-.2Z"/>
    <path class="st0" d="M544.2,787.6c.2-.2.5-.2,1.1-.2h3.6c.7,0,1,0,1.1.2s.2.5.2,1.1v5.5c0,.7,0,1-.2,1.1s-.5.2-1.1.2h-3.6c-.7,0-1,0-1.1-.2s-.2-.5-.2-1.1v-5.5c0-.7,0-1,.2-1.1ZM552.2,789c0-.7-.6-1.2-1.2-1.2s-.2,0-.2.2v7s0,.2.2.2c.7,0,1.2-.6,1.2-1.2v-4.8h0v-.2Z"/>
    <path class="st0" d="M592.9,795.3c-.2.2-.5.2-1.1.2h-3.6c-.7,0-1,0-1.1-.2s-.2-.5-.2-1.1v-5.5c0-.7,0-1,.2-1.1s.5-.2,1.1-.2h3.6c.7,0,1,0,1.1.2s.2.5.2,1.1v5.5c0,.7,0,1-.2,1.1ZM584.9,793.9c0,.7.6,1.2,1.2,1.2s.2,0,.2-.2v-7s0-.2-.2-.2c-.7,0-1.2.6-1.2,1.2v4.8h0v.2Z"/>
    <path class="st0" d="M592.9,783.1c-.2.2-.5.2-1.1.2h-3.6c-.7,0-1,0-1.1-.2s-.2-.5-.2-1.1v-5.5c0-.7,0-1,.2-1.1s.5-.2,1.1-.2h3.6c.7,0,1,0,1.1.2s.2.5.2,1.1v5.5c0,.7,0,1-.2,1.1ZM584.9,781.6c0,.7.6,1.2,1.2,1.2s.2,0,.2-.2v-7s0-.2-.2-.2c-.7,0-1.2.6-1.2,1.2v4.8h0v.2Z"/>
    <rect class="st1" x="556.3" y="773.1" width="24.5" height="24.5" rx="1.6" ry="1.6"/>
    <path class="st0" d="M558.5,811.2c-.2-.2-.2-.5-.2-1.1v-3.6c0-.7,0-1,.2-1.1s.5-.2,1.1-.2h5.5c.7,0,1,0,1.1.2s.2.5.2,1.1v3.6c0,.7,0,1-.2,1.1s-.5.2-1.1.2h-5.5c-.7,0-1,0-1.1-.2ZM560.1,803.3c-.7,0-1.2.6-1.2,1.2s0,.2.2.2h7s.2,0,.2-.2c0-.7-.6-1.2-1.2-1.2h-5Z"/>
    <path class="st0" d="M570.8,811.2c-.2-.2-.2-.5-.2-1.1v-3.6c0-.7,0-1,.2-1.1s.5-.2,1.1-.2h5.5c.7,0,1,0,1.1.2s.2.5.2,1.1v3.6c0,.7,0,1-.2,1.1s-.5.2-1.1.2h-5.5c-.7,0-1,0-1.1-.2ZM572.3,803.3c-.7,0-1.2.6-1.2,1.2s0,.2.2.2h7s.2,0,.2-.2c0-.7-.6-1.2-1.2-1.2h-5Z"/>
  </g>
  <g id="MV_x5F_15">
    <path class="st0" d="M501.9,759.4c.2.2.2.5.2,1.1v3.6c0,.7,0,1-.2,1.1s-.5.2-1.1.2h-5.5c-.7,0-1,0-1.1-.2-.2-.2-.2-.5-.2-1.1v-3.6c0-.7,0-1,.2-1.1s.5-.2,1.1-.2h5.5c.7,0,1,0,1.1.2ZM500.3,767.4c.7,0,1.2-.6,1.2-1.2s0-.2-.2-.2h-7s-.2,0-.2.2c0,.7.6,1.2,1.2,1.2h5Z"/>
    <path class="st0" d="M514.1,759.4c.2.2.2.5.2,1.1v3.6c0,.7,0,1-.2,1.1s-.5.2-1.1.2h-5.5c-.7,0-1,0-1.1-.2-.2-.2-.2-.5-.2-1.1v-3.6c0-.7,0-1,.2-1.1s.5-.2,1.1-.2h5.5c.7,0,1,0,1.1.2ZM512.6,767.4c.7,0,1.2-.6,1.2-1.2s0-.2-.2-.2h-7s-.2,0-.2.2c0,.7.6,1.2,1.2,1.2h5Z"/>
    <path class="st0" d="M479.8,775.3c.2-.2.5-.2,1.1-.2h3.6c.7,0,1,0,1.1.2.2.2.2.5.2,1.1v5.5c0,.7,0,1-.2,1.1s-.5.2-1.1.2h-3.6c-.7,0-1,0-1.1-.2-.2-.2-.2-.5-.2-1.1v-5.5c0-.7,0-1,.2-1.1ZM487.8,776.8c0-.7-.6-1.2-1.2-1.2s-.2,0-.2.2v7s0,.2.2.2c.7,0,1.2-.6,1.2-1.2v-4.8h0v-.2Z"/>
    <path class="st0" d="M479.8,787.6c.2-.2.5-.2,1.1-.2h3.6c.7,0,1,0,1.1.2.2.2.2.5.2,1.1v5.5c0,.7,0,1-.2,1.1s-.5.2-1.1.2h-3.6c-.7,0-1,0-1.1-.2-.2-.2-.2-.5-.2-1.1v-5.5c0-.7,0-1,.2-1.1ZM487.8,789c0-.7-.6-1.2-1.2-1.2s-.2,0-.2.2v7s0,.2.2.2c.7,0,1.2-.6,1.2-1.2v-4.8h0v-.2Z"/>
    <rect class="st1" x="491.8" y="773.1" width="24.5" height="24.5" rx="1.6" ry="1.6"/>
    <path class="st0" d="M528.4,783.1c-.2.2-.5.2-1.1.2h-3.6c-.7,0-1,0-1.1-.2-.2-.2-.2-.5-.2-1.1v-5.5c0-.7,0-1,.2-1.1s.5-.2,1.1-.2h3.6c.7,0,1,0,1.1.2.2.2.2.5.2,1.1v5.5c0,.7,0,1-.2,1.1ZM520.4,781.6c0,.7.6,1.2,1.2,1.2s.2,0,.2-.2v-7s0-.2-.2-.2c-.7,0-1.2.6-1.2,1.2v4.8h0v.2Z"/>
    <path class="st0" d="M528.4,795.3c-.2.2-.5.2-1.1.2h-3.6c-.7,0-1,0-1.1-.2-.2-.2-.2-.5-.2-1.1v-5.5c0-.7,0-1,.2-1.1s.5-.2,1.1-.2h3.6c.7,0,1,0,1.1.2.2.2.2.5.2,1.1v5.5c0,.7,0,1-.2,1.1ZM520.4,793.9c0,.7.6,1.2,1.2,1.2s.2,0,.2-.2v-7s0-.2-.2-.2c-.7,0-1.2.6-1.2,1.2v4.8h0v.2Z"/>
    <path class="st0" d="M494,811.2c-.2-.2-.2-.5-.2-1.1v-3.6c0-.7,0-1,.2-1.1s.5-.2,1.1-.2h5.5c.7,0,1,0,1.1.2.2.2.2.5.2,1.1v3.6c0,.7,0,1-.2,1.1s-.5.2-1.1.2h-5.5c-.7,0-1,0-1.1-.2ZM495.6,803.3c-.7,0-1.2.6-1.2,1.2s0,.2.2.2h7s.2,0,.2-.2c0-.7-.6-1.2-1.2-1.2h-5Z"/>
    <path class="st0" d="M506.3,811.2c-.2-.2-.2-.5-.2-1.1v-3.6c0-.7,0-1,.2-1.1s.5-.2,1.1-.2h5.5c.7,0,1,0,1.1.2.2.2.2.5.2,1.1v3.6c0,.7,0,1-.2,1.1s-.5.2-1.1.2h-5.5c-.7,0-1,0-1.1-.2h0ZM507.8,803.3c-.7,0-1.2.6-1.2,1.2s0,.2.2.2h7s.2,0,.2-.2c0-.7-.6-1.2-1.2-1.2h-5Z"/>
  </g>
  <g id="MV_x5F_16">
    <path class="st0" d="M766.6,237c.2.2.2.5.2,1.1v3.6c0,.7,0,1-.2,1.1s-.5.2-1.1.2h-5.5c-.7,0-1,0-1.1-.2s-.2-.5-.2-1.1v-3.6c0-.7,0-1,.2-1.1s.5-.2,1.1-.2h5.5c.7,0,1,0,1.1.2ZM765,245c.7,0,1.2-.6,1.2-1.2s0-.2-.2-.2h-7s-.2,0-.2.2c0,.7.6,1.2,1.2,1.2h5Z"/>
    <path class="st0" d="M778.8,237c.2.2.2.5.2,1.1v3.6c0,.7,0,1-.2,1.1s-.5.2-1.1.2h-5.5c-.7,0-1,0-1.1-.2s-.2-.5-.2-1.1v-3.6c0-.7,0-1,.2-1.1s.5-.2,1.1-.2h5.5c.7,0,1,0,1.1.2ZM777.2,245c.7,0,1.2-.6,1.2-1.2s0-.2-.2-.2h-7s-.2,0-.2.2c0,.7.6,1.2,1.2,1.2h5Z"/>
    <path class="st0" d="M744.4,253c.2-.2.5-.2,1.1-.2h3.6c.7,0,1,0,1.1.2s.2.5.2,1.1v5.5c0,.7,0,1-.2,1.1s-.5.2-1.1.2h-3.6c-.7,0-1,0-1.1-.2s-.2-.5-.2-1.1v-5.5c0-.7,0-1,.2-1.1ZM752.4,254.4c0-.7-.6-1.2-1.2-1.2s-.2,0-.2.2v7s0,.2.2.2c.7,0,1.2-.6,1.2-1.2v-4.8h0v-.2Z"/>
    <path class="st0" d="M744.4,265.2c.2-.2.5-.2,1.1-.2h3.6c.7,0,1,0,1.1.2s.2.5.2,1.1v5.5c0,.7,0,1-.2,1.1s-.5.2-1.1.2h-3.6c-.7,0-1,0-1.1-.2s-.2-.5-.2-1.1v-5.5c0-.7,0-1,.2-1.1ZM752.4,266.7c0-.7-.6-1.2-1.2-1.2s-.2,0-.2.2v7s0,.2.2.2c.7,0,1.2-.6,1.2-1.2v-4.8h0v-.2Z"/>
    <rect class="st1" x="756.5" y="250.8" width="24.5" height="24.5" rx="1.6" ry="1.6"/>
    <path class="st0" d="M793.1,260.7c-.2.2-.5.2-1.1.2h-3.6c-.7,0-1,0-1.1-.2s-.2-.5-.2-1.1v-5.5c0-.7,0-1,.2-1.1s.5-.2,1.1-.2h3.6c.7,0,1,0,1.1.2s.2.5.2,1.1v5.5c0,.7,0,1-.2,1.1ZM785.1,259.2c0,.7.6,1.2,1.2,1.2s.2,0,.2-.2v-7s0-.2-.2-.2c-.7,0-1.2.6-1.2,1.2v4.8h0v.2Z"/>
    <path class="st0" d="M793.1,273c-.2.2-.5.2-1.1.2h-3.6c-.7,0-1,0-1.1-.2s-.2-.5-.2-1.1v-5.5c0-.7,0-1,.2-1.1s.5-.2,1.1-.2h3.6c.7,0,1,0,1.1.2s.2.5.2,1.1v5.5c0,.7,0,1-.2,1.1ZM785.1,271.5c0,.7.6,1.2,1.2,1.2s.2,0,.2-.2v-7s0-.2-.2-.2c-.7,0-1.2.6-1.2,1.2v4.8h0v.2Z"/>
    <path class="st0" d="M758.7,288.9c-.2-.2-.2-.5-.2-1.1v-3.6c0-.7,0-1,.2-1.1s.5-.2,1.1-.2h5.5c.7,0,1,0,1.1.2s.2.5.2,1.1v3.6c0,.7,0,1-.2,1.1s-.5.2-1.1.2h-5.5c-.7,0-1,0-1.1-.2ZM760.3,281c-.7,0-1.2.6-1.2,1.2s0,.2.2.2h7s.2,0,.2-.2c0-.7-.6-1.2-1.2-1.2h-5Z"/>
    <path class="st0" d="M771,288.9c-.2-.2-.2-.5-.2-1.1v-3.6c0-.7,0-1,.2-1.1s.5-.2,1.1-.2h5.5c.7,0,1,0,1.1.2s.2.5.2,1.1v3.6c0,.7,0,1-.2,1.1s-.5.2-1.1.2h-5.5c-.7,0-1,0-1.1-.2ZM772.5,281c-.7,0-1.2.6-1.2,1.2s0,.2.2.2h7s.2,0,.2-.2c0-.7-.6-1.2-1.2-1.2h-5Z"/>
  </g>
  <g id="MV_x5F_17">
    <path class="st0" d="M766.6,315.4c.2.2.2.5.2,1.1v3.6c0,.7,0,1-.2,1.1-.2.2-.5.2-1.1.2h-5.5c-.7,0-1,0-1.1-.2s-.2-.5-.2-1.1v-3.6c0-.7,0-1,.2-1.1.2-.2.5-.2,1.1-.2h5.5c.7,0,1,0,1.1.2ZM765,323.4c.7,0,1.2-.6,1.2-1.2s0-.2-.2-.2h-7s-.2,0-.2.2c0,.7.6,1.2,1.2,1.2h5Z"/>
    <path class="st0" d="M778.8,315.4c.2.2.2.5.2,1.1v3.6c0,.7,0,1-.2,1.1-.2.2-.5.2-1.1.2h-5.5c-.7,0-1,0-1.1-.2s-.2-.5-.2-1.1v-3.6c0-.7,0-1,.2-1.1.2-.2.5-.2,1.1-.2h5.5c.7,0,1,0,1.1.2ZM777.2,323.4c.7,0,1.2-.6,1.2-1.2s0-.2-.2-.2h-7s-.2,0-.2.2c0,.7.6,1.2,1.2,1.2h5Z"/>
    <path class="st0" d="M744.4,331.3c.2-.2.5-.2,1.1-.2h3.6c.7,0,1,0,1.1.2s.2.5.2,1.1v5.5c0,.7,0,1-.2,1.1-.2.2-.5.2-1.1.2h-3.6c-.7,0-1,0-1.1-.2s-.2-.5-.2-1.1v-5.5c0-.7,0-1,.2-1.1ZM752.4,332.8c0-.7-.6-1.2-1.2-1.2s-.2,0-.2.2v7s0,.2.2.2c.7,0,1.2-.6,1.2-1.2v-4.8h0v-.2Z"/>
    <path class="st0" d="M744.4,343.6c.2-.2.5-.2,1.1-.2h3.6c.7,0,1,0,1.1.2s.2.5.2,1.1v5.5c0,.7,0,1-.2,1.1-.2.2-.5.2-1.1.2h-3.6c-.7,0-1,0-1.1-.2s-.2-.5-.2-1.1v-5.5c0-.7,0-1,.2-1.1ZM752.4,345c0-.7-.6-1.2-1.2-1.2s-.2,0-.2.2v7s0,.2.2.2c.7,0,1.2-.6,1.2-1.2v-4.8h0v-.2Z"/>
    <rect class="st1" x="756.5" y="329.1" width="24.5" height="24.5" rx="1.6" ry="1.6"/>
    <path class="st0" d="M793.1,339.1c-.2.2-.5.2-1.1.2h-3.6c-.7,0-1,0-1.1-.2s-.2-.5-.2-1.1v-5.5c0-.7,0-1,.2-1.1.2-.2.5-.2,1.1-.2h3.6c.7,0,1,0,1.1.2s.2.5.2,1.1v5.5c0,.7,0,1-.2,1.1ZM785.1,337.6c0,.7.6,1.2,1.2,1.2s.2,0,.2-.2v-7s0-.2-.2-.2c-.7,0-1.2.6-1.2,1.2v4.8h0v.2Z"/>
    <path class="st0" d="M793.1,351.3c-.2.2-.5.2-1.1.2h-3.6c-.7,0-1,0-1.1-.2s-.2-.5-.2-1.1v-5.5c0-.7,0-1,.2-1.1.2-.2.5-.2,1.1-.2h3.6c.7,0,1,0,1.1.2s.2.5.2,1.1v5.5c0,.7,0,1-.2,1.1ZM785.1,349.8c0,.7.6,1.2,1.2,1.2s.2,0,.2-.2v-7s0-.2-.2-.2c-.7,0-1.2.6-1.2,1.2v4.8h0v.2Z"/>
    <path class="st0" d="M758.7,367.2c-.2-.2-.2-.5-.2-1.1v-3.6c0-.7,0-1,.2-1.1.2-.2.5-.2,1.1-.2h5.5c.7,0,1,0,1.1.2s.2.5.2,1.1v3.6c0,.7,0,1-.2,1.1-.2.2-.5.2-1.1.2h-5.5c-.7,0-1,0-1.1-.2ZM760.3,359.3c-.7,0-1.2.6-1.2,1.2s0,.2.2.2h7s.2,0,.2-.2c0-.7-.6-1.2-1.2-1.2h-5Z"/>
    <path class="st0" d="M771,367.2c-.2-.2-.2-.5-.2-1.1v-3.6c0-.7,0-1,.2-1.1.2-.2.5-.2,1.1-.2h5.5c.7,0,1,0,1.1.2s.2.5.2,1.1v3.6c0,.7,0,1-.2,1.1-.2.2-.5.2-1.1.2h-5.5c-.7,0-1,0-1.1-.2ZM772.5,359.3c-.7,0-1.2.6-1.2,1.2s0,.2.2.2h7s.2,0,.2-.2c0-.7-.6-1.2-1.2-1.2h-5Z"/>
  </g>
  <g id="MV_x5F_18">
    <path class="st0" d="M766.6,393.8c.2.2.2.5.2,1.1v3.6c0,.7,0,1-.2,1.1-.2.2-.5.2-1.1.2h-5.5c-.7,0-1,0-1.1-.2s-.2-.5-.2-1.1v-3.6c0-.7,0-1,.2-1.1.2-.2.5-.2,1.1-.2h5.5c.7,0,1,0,1.1.2ZM765,401.8c.7,0,1.2-.6,1.2-1.2s0-.2-.2-.2h-7s-.2,0-.2.2c0,.7.6,1.2,1.2,1.2h5Z"/>
    <path class="st0" d="M778.8,393.8c.2.2.2.5.2,1.1v3.6c0,.7,0,1-.2,1.1-.2.2-.5.2-1.1.2h-5.5c-.7,0-1,0-1.1-.2s-.2-.5-.2-1.1v-3.6c0-.7,0-1,.2-1.1.2-.2.5-.2,1.1-.2h5.5c.7,0,1,0,1.1.2ZM777.2,401.8c.7,0,1.2-.6,1.2-1.2s0-.2-.2-.2h-7s-.2,0-.2.2c0,.7.6,1.2,1.2,1.2h5Z"/>
    <path class="st0" d="M744.4,409.7c.2-.2.5-.2,1.1-.2h3.6c.7,0,1,0,1.1.2s.2.5.2,1.1v5.5c0,.7,0,1-.2,1.1-.2.2-.5.2-1.1.2h-3.6c-.7,0-1,0-1.1-.2s-.2-.5-.2-1.1v-5.5c0-.7,0-1,.2-1.1ZM752.4,411.1c0-.7-.6-1.2-1.2-1.2s-.2,0-.2.2v7s0,.2.2.2c.7,0,1.2-.6,1.2-1.2v-4.8h0v-.2Z"/>
    <path class="st0" d="M744.4,421.9c.2-.2.5-.2,1.1-.2h3.6c.7,0,1,0,1.1.2s.2.5.2,1.1v5.5c0,.7,0,1-.2,1.1-.2.2-.5.2-1.1.2h-3.6c-.7,0-1,0-1.1-.2s-.2-.5-.2-1.1v-5.5c0-.7,0-1,.2-1.1ZM752.4,423.4c0-.7-.6-1.2-1.2-1.2s-.2,0-.2.2v7s0,.2.2.2c.7,0,1.2-.6,1.2-1.2v-4.8h0v-.2Z"/>
    <rect class="st1" x="756.5" y="407.5" width="24.5" height="24.5" rx="1.6" ry="1.6"/>
    <path class="st0" d="M793.1,417.4c-.2.2-.5.2-1.1.2h-3.6c-.7,0-1,0-1.1-.2s-.2-.5-.2-1.1v-5.5c0-.7,0-1,.2-1.1.2-.2.5-.2,1.1-.2h3.6c.7,0,1,0,1.1.2s.2.5.2,1.1v5.5c0,.7,0,1-.2,1.1ZM785.1,416c0,.7.6,1.2,1.2,1.2s.2,0,.2-.2v-7s0-.2-.2-.2c-.7,0-1.2.6-1.2,1.2v4.8h0v.2Z"/>
    <path class="st0" d="M793.1,429.7c-.2.2-.5.2-1.1.2h-3.6c-.7,0-1,0-1.1-.2s-.2-.5-.2-1.1v-5.5c0-.7,0-1,.2-1.1.2-.2.5-.2,1.1-.2h3.6c.7,0,1,0,1.1.2s.2.5.2,1.1v5.5c0,.7,0,1-.2,1.1ZM785.1,428.2c0,.7.6,1.2,1.2,1.2s.2,0,.2-.2v-7s0-.2-.2-.2c-.7,0-1.2.6-1.2,1.2v4.8h0v.2Z"/>
    <path class="st0" d="M758.7,445.6c-.2-.2-.2-.5-.2-1.1v-3.6c0-.7,0-1,.2-1.1.2-.2.5-.2,1.1-.2h5.5c.7,0,1,0,1.1.2s.2.5.2,1.1v3.6c0,.7,0,1-.2,1.1-.2.2-.5.2-1.1.2h-5.5c-.7,0-1,0-1.1-.2ZM760.3,437.7c-.7,0-1.2.6-1.2,1.2s0,.2.2.2h7s.2,0,.2-.2c0-.7-.6-1.2-1.2-1.2h-5Z"/>
    <path class="st0" d="M771,445.6c-.2-.2-.2-.5-.2-1.1v-3.6c0-.7,0-1,.2-1.1.2-.2.5-.2,1.1-.2h5.5c.7,0,1,0,1.1.2s.2.5.2,1.1v3.6c0,.7,0,1-.2,1.1-.2.2-.5.2-1.1.2h-5.5c-.7,0-1,0-1.1-.2ZM772.5,437.7c-.7,0-1.2.6-1.2,1.2s0,.2.2.2h7s.2,0,.2-.2c0-.7-.6-1.2-1.2-1.2h-5Z"/>
  </g>
  <g id="MV_x5F_19">
    <path class="st0" d="M766.6,472.1c.2.2.2.5.2,1.1v3.6c0,.7,0,1-.2,1.1-.2.2-.5.2-1.1.2h-5.5c-.7,0-1,0-1.1-.2s-.2-.5-.2-1.1v-3.6c0-.7,0-1,.2-1.1.2-.2.5-.2,1.1-.2h5.5c.7,0,1,0,1.1.2ZM765,480.1c.7,0,1.2-.6,1.2-1.2s0-.2-.2-.2h-7s-.2,0-.2.2c0,.7.6,1.2,1.2,1.2h5Z"/>
    <path class="st0" d="M778.8,472.1c.2.2.2.5.2,1.1v3.6c0,.7,0,1-.2,1.1-.2.2-.5.2-1.1.2h-5.5c-.7,0-1,0-1.1-.2s-.2-.5-.2-1.1v-3.6c0-.7,0-1,.2-1.1.2-.2.5-.2,1.1-.2h5.5c.7,0,1,0,1.1.2ZM777.2,480.1c.7,0,1.2-.6,1.2-1.2s0-.2-.2-.2h-7s-.2,0-.2.2c0,.7.6,1.2,1.2,1.2h5Z"/>
    <path class="st0" d="M744.4,488c.2-.2.5-.2,1.1-.2h3.6c.7,0,1,0,1.1.2s.2.5.2,1.1v5.5c0,.7,0,1-.2,1.1-.2.2-.5.2-1.1.2h-3.6c-.7,0-1,0-1.1-.2s-.2-.5-.2-1.1v-5.5c0-.7,0-1,.2-1.1ZM752.4,489.5c0-.7-.6-1.2-1.2-1.2s-.2,0-.2.2v7s0,.2.2.2c.7,0,1.2-.6,1.2-1.2v-4.8h0v-.2Z"/>
    <path class="st0" d="M744.4,500.3c.2-.2.5-.2,1.1-.2h3.6c.7,0,1,0,1.1.2s.2.5.2,1.1v5.5c0,.7,0,1-.2,1.1-.2.2-.5.2-1.1.2h-3.6c-.7,0-1,0-1.1-.2s-.2-.5-.2-1.1v-5.5c0-.7,0-1,.2-1.1ZM752.4,501.7c0-.7-.6-1.2-1.2-1.2s-.2,0-.2.2v7s0,.2.2.2c.7,0,1.2-.6,1.2-1.2v-4.8h0v-.2Z"/>
    <rect class="st1" x="756.5" y="485.8" width="24.5" height="24.5" rx="1.6" ry="1.6"/>
    <path class="st0" d="M793.1,495.8c-.2.2-.5.2-1.1.2h-3.6c-.7,0-1,0-1.1-.2s-.2-.5-.2-1.1v-5.5c0-.7,0-1,.2-1.1.2-.2.5-.2,1.1-.2h3.6c.7,0,1,0,1.1.2s.2.5.2,1.1v5.5c0,.7,0,1-.2,1.1ZM785.1,494.3c0,.7.6,1.2,1.2,1.2s.2,0,.2-.2v-7s0-.2-.2-.2c-.7,0-1.2.6-1.2,1.2v4.8h0v.2Z"/>
    <path class="st0" d="M793.1,508c-.2.2-.5.2-1.1.2h-3.6c-.7,0-1,0-1.1-.2s-.2-.5-.2-1.1v-5.5c0-.7,0-1,.2-1.1.2-.2.5-.2,1.1-.2h3.6c.7,0,1,0,1.1.2s.2.5.2,1.1v5.5c0,.7,0,1-.2,1.1ZM785.1,506.6c0,.7.6,1.2,1.2,1.2s.2,0,.2-.2v-7s0-.2-.2-.2c-.7,0-1.2.6-1.2,1.2v4.8h0v.2Z"/>
    <path class="st0" d="M758.7,523.9c-.2-.2-.2-.5-.2-1.1v-3.6c0-.7,0-1,.2-1.1.2-.2.5-.2,1.1-.2h5.5c.7,0,1,0,1.1.2s.2.5.2,1.1v3.6c0,.7,0,1-.2,1.1s-.5.2-1.1.2h-5.5c-.7,0-1,0-1.1-.2ZM760.3,516c-.7,0-1.2.6-1.2,1.2s0,.2.2.2h7s.2,0,.2-.2c0-.7-.6-1.2-1.2-1.2h-5Z"/>
    <path class="st0" d="M771,523.9c-.2-.2-.2-.5-.2-1.1v-3.6c0-.7,0-1,.2-1.1.2-.2.5-.2,1.1-.2h5.5c.7,0,1,0,1.1.2s.2.5.2,1.1v3.6c0,.7,0,1-.2,1.1s-.5.2-1.1.2h-5.5c-.7,0-1,0-1.1-.2ZM772.5,516c-.7,0-1.2.6-1.2,1.2s0,.2.2.2h7s.2,0,.2-.2c0-.7-.6-1.2-1.2-1.2h-5Z"/>
  </g>
  <g id="MV_x5F_20">
    <path class="st0" d="M766.6,550.5c.2.2.2.5.2,1.1v3.6c0,.7,0,1-.2,1.1s-.5.2-1.1.2h-5.5c-.7,0-1,0-1.1-.2s-.2-.5-.2-1.1v-3.6c0-.7,0-1,.2-1.1s.5-.2,1.1-.2h5.5c.7,0,1,0,1.1.2ZM765,558.5c.7,0,1.2-.6,1.2-1.2s0-.2-.2-.2h-7s-.2,0-.2.2c0,.7.6,1.2,1.2,1.2h5Z"/>
    <path class="st0" d="M778.8,550.5c.2.2.2.5.2,1.1v3.6c0,.7,0,1-.2,1.1s-.5.2-1.1.2h-5.5c-.7,0-1,0-1.1-.2s-.2-.5-.2-1.1v-3.6c0-.7,0-1,.2-1.1s.5-.2,1.1-.2h5.5c.7,0,1,0,1.1.2ZM777.2,558.5c.7,0,1.2-.6,1.2-1.2s0-.2-.2-.2h-7s-.2,0-.2.2c0,.7.6,1.2,1.2,1.2h5Z"/>
    <path class="st0" d="M744.4,566.4c.2-.2.5-.2,1.1-.2h3.6c.7,0,1,0,1.1.2s.2.5.2,1.1v5.5c0,.7,0,1-.2,1.1s-.5.2-1.1.2h-3.6c-.7,0-1,0-1.1-.2s-.2-.5-.2-1.1v-5.5c0-.7,0-1,.2-1.1ZM752.4,567.9c0-.7-.6-1.2-1.2-1.2s-.2,0-.2.2v7s0,.2.2.2c.7,0,1.2-.6,1.2-1.2v-4.8h0v-.2Z"/>
    <path class="st0" d="M744.4,578.6c.2-.2.5-.2,1.1-.2h3.6c.7,0,1,0,1.1.2s.2.5.2,1.1v5.5c0,.7,0,1-.2,1.1s-.5.2-1.1.2h-3.6c-.7,0-1,0-1.1-.2s-.2-.5-.2-1.1v-5.5c0-.7,0-1,.2-1.1ZM752.4,580.1c0-.7-.6-1.2-1.2-1.2s-.2,0-.2.2v7s0,.2.2.2c.7,0,1.2-.6,1.2-1.2v-4.8h0v-.2Z"/>
    <rect class="st1" x="756.5" y="564.2" width="24.5" height="24.5" rx="1.6" ry="1.6"/>
    <path class="st0" d="M793.1,574.1c-.2.2-.5.2-1.1.2h-3.6c-.7,0-1,0-1.1-.2s-.2-.5-.2-1.1v-5.5c0-.7,0-1,.2-1.1s.5-.2,1.1-.2h3.6c.7,0,1,0,1.1.2s.2.5.2,1.1v5.5c0,.7,0,1-.2,1.1ZM785.1,572.7c0,.7.6,1.2,1.2,1.2s.2,0,.2-.2v-7s0-.2-.2-.2c-.7,0-1.2.6-1.2,1.2v4.8h0v.2Z"/>
    <path class="st0" d="M793.1,586.4c-.2.2-.5.2-1.1.2h-3.6c-.7,0-1,0-1.1-.2s-.2-.5-.2-1.1v-5.5c0-.7,0-1,.2-1.1s.5-.2,1.1-.2h3.6c.7,0,1,0,1.1.2s.2.5.2,1.1v5.5c0,.7,0,1-.2,1.1ZM785.1,584.9c0,.7.6,1.2,1.2,1.2s.2,0,.2-.2v-7s0-.2-.2-.2c-.7,0-1.2.6-1.2,1.2v4.8h0v.2Z"/>
    <path class="st0" d="M758.7,602.3c-.2-.2-.2-.5-.2-1.1v-3.6c0-.7,0-1,.2-1.1s.5-.2,1.1-.2h5.5c.7,0,1,0,1.1.2s.2.5.2,1.1v3.6c0,.7,0,1-.2,1.1s-.5.2-1.1.2h-5.5c-.7,0-1,0-1.1-.2ZM760.3,594.4c-.7,0-1.2.6-1.2,1.2s0,.2.2.2h7s.2,0,.2-.2c0-.7-.6-1.2-1.2-1.2h-5Z"/>
    <path class="st0" d="M771,602.3c-.2-.2-.2-.5-.2-1.1v-3.6c0-.7,0-1,.2-1.1s.5-.2,1.1-.2h5.5c.7,0,1,0,1.1.2s.2.5.2,1.1v3.6c0,.7,0,1-.2,1.1s-.5.2-1.1.2h-5.5c-.7,0-1,0-1.1-.2ZM772.5,594.4c-.7,0-1.2.6-1.2,1.2s0,.2.2.2h7s.2,0,.2-.2c0-.7-.6-1.2-1.2-1.2h-5Z"/>
  </g>
  <g id="MV_x5F_21">
    <path class="st0" d="M766.6,628.8c.2.2.2.5.2,1.1v3.6c0,.7,0,1-.2,1.1s-.5.2-1.1.2h-5.5c-.7,0-1,0-1.1-.2s-.2-.5-.2-1.1v-3.6c0-.7,0-1,.2-1.1s.5-.2,1.1-.2h5.5c.7,0,1,0,1.1.2ZM765,636.8c.7,0,1.2-.6,1.2-1.2s0-.2-.2-.2h-7s-.2,0-.2.2c0,.7.6,1.2,1.2,1.2h5Z"/>
    <path class="st0" d="M778.8,628.8c.2.2.2.5.2,1.1v3.6c0,.7,0,1-.2,1.1s-.5.2-1.1.2h-5.5c-.7,0-1,0-1.1-.2s-.2-.5-.2-1.1v-3.6c0-.7,0-1,.2-1.1s.5-.2,1.1-.2h5.5c.7,0,1,0,1.1.2ZM777.2,636.8c.7,0,1.2-.6,1.2-1.2s0-.2-.2-.2h-7s-.2,0-.2.2c0,.7.6,1.2,1.2,1.2h5Z"/>
    <path class="st0" d="M744.4,644.7c.2-.2.5-.2,1.1-.2h3.6c.7,0,1,0,1.1.2s.2.5.2,1.1v5.5c0,.7,0,1-.2,1.1s-.5.2-1.1.2h-3.6c-.7,0-1,0-1.1-.2s-.2-.5-.2-1.1v-5.5c0-.7,0-1,.2-1.1ZM752.4,646.2c0-.7-.6-1.2-1.2-1.2s-.2,0-.2.2v7s0,.2.2.2c.7,0,1.2-.6,1.2-1.2v-4.8h0v-.2Z"/>
    <path class="st0" d="M744.4,657c.2-.2.5-.2,1.1-.2h3.6c.7,0,1,0,1.1.2s.2.5.2,1.1v5.5c0,.7,0,1-.2,1.1s-.5.2-1.1.2h-3.6c-.7,0-1,0-1.1-.2s-.2-.5-.2-1.1v-5.5c0-.7,0-1,.2-1.1ZM752.4,658.5c0-.7-.6-1.2-1.2-1.2s-.2,0-.2.2v7s0,.2.2.2c.7,0,1.2-.6,1.2-1.2v-4.8h0v-.2Z"/>
    <rect class="st1" x="756.5" y="642.5" width="24.5" height="24.5" rx="1.6" ry="1.6"/>
    <path class="st0" d="M793.1,652.5c-.2.2-.5.2-1.1.2h-3.6c-.7,0-1,0-1.1-.2s-.2-.5-.2-1.1v-5.5c0-.7,0-1,.2-1.1s.5-.2,1.1-.2h3.6c.7,0,1,0,1.1.2s.2.5.2,1.1v5.5c0,.7,0,1-.2,1.1ZM785.1,651c0,.7.6,1.2,1.2,1.2s.2,0,.2-.2v-7s0-.2-.2-.2c-.7,0-1.2.6-1.2,1.2v4.8h0v.2Z"/>
    <path class="st0" d="M793.1,664.7c-.2.2-.5.2-1.1.2h-3.6c-.7,0-1,0-1.1-.2s-.2-.5-.2-1.1v-5.5c0-.7,0-1,.2-1.1s.5-.2,1.1-.2h3.6c.7,0,1,0,1.1.2s.2.5.2,1.1v5.5c0,.7,0,1-.2,1.1ZM785.1,663.3c0,.7.6,1.2,1.2,1.2s.2,0,.2-.2v-7s0-.2-.2-.2c-.7,0-1.2.6-1.2,1.2v4.8h0v.2Z"/>
    <path class="st0" d="M758.7,680.7c-.2-.2-.2-.5-.2-1.1v-3.6c0-.7,0-1,.2-1.1s.5-.2,1.1-.2h5.5c.7,0,1,0,1.1.2s.2.5.2,1.1v3.6c0,.7,0,1-.2,1.1s-.5.2-1.1.2h-5.5c-.7,0-1,0-1.1-.2ZM760.3,672.7c-.7,0-1.2.6-1.2,1.2s0,.2.2.2h7s.2,0,.2-.2c0-.7-.6-1.2-1.2-1.2h-5Z"/>
    <path class="st0" d="M771,680.7c-.2-.2-.2-.5-.2-1.1v-3.6c0-.7,0-1,.2-1.1s.5-.2,1.1-.2h5.5c.7,0,1,0,1.1.2s.2.5.2,1.1v3.6c0,.7,0,1-.2,1.1s-.5.2-1.1.2h-5.5c-.7,0-1,0-1.1-.2ZM772.5,672.7c-.7,0-1.2.6-1.2,1.2s0,.2.2.2h7s.2,0,.2-.2c0-.7-.6-1.2-1.2-1.2h-5Z"/>
  </g>
  <g id="MV_x5F_22">
    <path class="st0" d="M630.8,837.8c.2.2.2.5.2,1.1v3.6c0,.7,0,1-.2,1.1s-.5.2-1.1.2h-5.5c-.7,0-1,0-1.1-.2s-.2-.5-.2-1.1v-3.6c0-.7,0-1,.2-1.1s.5-.2,1.1-.2h5.5c.7,0,1,0,1.1.2ZM629.3,845.8c.7,0,1.2-.6,1.2-1.2s0-.2-.2-.2h-7s-.2,0-.2.2c0,.7.6,1.2,1.2,1.2h5Z"/>
    <path class="st0" d="M643.1,837.8c.2.2.2.5.2,1.1v3.6c0,.7,0,1-.2,1.1s-.5.2-1.1.2h-5.5c-.7,0-1,0-1.1-.2s-.2-.5-.2-1.1v-3.6c0-.7,0-1,.2-1.1s.5-.2,1.1-.2h5.5c.7,0,1,0,1.1.2ZM641.5,845.8c.7,0,1.2-.6,1.2-1.2s0-.2-.2-.2h-7s-.2,0-.2.2c0,.7.6,1.2,1.2,1.2h5Z"/>
    <path class="st0" d="M608.7,853.7c.2-.2.5-.2,1.1-.2h3.6c.7,0,1,0,1.1.2s.2.5.2,1.1v5.5c0,.7,0,1-.2,1.1s-.5.2-1.1.2h-3.6c-.7,0-1,0-1.1-.2s-.2-.5-.2-1.1v-5.5c0-.7,0-1,.2-1.1ZM616.7,855.2c0-.7-.6-1.2-1.2-1.2s-.2,0-.2.2v7s0,.2.2.2c.7,0,1.2-.6,1.2-1.2v-4.8h0v-.2Z"/>
    <path class="st0" d="M608.7,865.9c.2-.2.5-.2,1.1-.2h3.6c.7,0,1,0,1.1.2s.2.5.2,1.1v5.5c0,.7,0,1-.2,1.1s-.5.2-1.1.2h-3.6c-.7,0-1,0-1.1-.2s-.2-.5-.2-1.1v-5.5c0-.7,0-1,.2-1.1ZM616.7,867.4c0-.7-.6-1.2-1.2-1.2s-.2,0-.2.2v7s0,.2.2.2c.7,0,1.2-.6,1.2-1.2v-4.8h0v-.2Z"/>
    <rect class="st1" x="620.8" y="851.5" width="24.5" height="24.5" rx="1.6" ry="1.6"/>
    <path class="st0" d="M657.4,861.4c-.2.2-.5.2-1.1.2h-3.6c-.7,0-1,0-1.1-.2s-.2-.5-.2-1.1v-5.5c0-.7,0-1,.2-1.1s.5-.2,1.1-.2h3.6c.7,0,1,0,1.1.2s.2.5.2,1.1v5.5c0,.7,0,1-.2,1.1ZM649.4,860c0,.7.6,1.2,1.2,1.2s.2,0,.2-.2v-7s0-.2-.2-.2c-.7,0-1.2.6-1.2,1.2v4.8h0v.2Z"/>
    <path class="st0" d="M657.4,873.7c-.2.2-.5.2-1.1.2h-3.6c-.7,0-1,0-1.1-.2s-.2-.5-.2-1.1v-5.5c0-.7,0-1,.2-1.1s.5-.2,1.1-.2h3.6c.7,0,1,0,1.1.2s.2.5.2,1.1v5.5c0,.7,0,1-.2,1.1ZM649.4,872.2c0,.7.6,1.2,1.2,1.2s.2,0,.2-.2v-7s0-.2-.2-.2c-.7,0-1.2.6-1.2,1.2v4.8h0v.2Z"/>
    <path class="st0" d="M623,889.6c-.2-.2-.2-.5-.2-1.1v-3.6c0-.7,0-1,.2-1.1s.5-.2,1.1-.2h5.5c.7,0,1,0,1.1.2s.2.5.2,1.1v3.6c0,.7,0,1-.2,1.1s-.5.2-1.1.2h-5.5c-.7,0-1,0-1.1-.2ZM624.6,881.7c-.7,0-1.2.6-1.2,1.2s0,.2.2.2h7s.2,0,.2-.2c0-.7-.6-1.2-1.2-1.2h-5Z"/>
    <path class="st0" d="M635.3,889.6c-.2-.2-.2-.5-.2-1.1v-3.6c0-.7,0-1,.2-1.1s.5-.2,1.1-.2h5.5c.7,0,1,0,1.1.2s.2.5.2,1.1v3.6c0,.7,0,1-.2,1.1s-.5.2-1.1.2h-5.5c-.7,0-1,0-1.1-.2ZM636.8,881.7c-.7,0-1.2.6-1.2,1.2s0,.2.2.2h7s.2,0,.2-.2c0-.7-.6-1.2-1.2-1.2h-5Z"/>
  </g>
  <g id="MV_x5F_23">
    <path class="st0" d="M566.4,837.8c.2.2.2.5.2,1.1v3.6c0,.7,0,1-.2,1.1s-.5.2-1.1.2h-5.5c-.7,0-1,0-1.1-.2s-.2-.5-.2-1.1v-3.6c0-.7,0-1,.2-1.1s.5-.2,1.1-.2h5.5c.7,0,1,0,1.1.2ZM564.8,845.8c.7,0,1.2-.6,1.2-1.2s0-.2-.2-.2h-7s-.2,0-.2.2c0,.7.6,1.2,1.2,1.2h5Z"/>
    <path class="st0" d="M578.6,837.8c.2.2.2.5.2,1.1v3.6c0,.7,0,1-.2,1.1s-.5.2-1.1.2h-5.5c-.7,0-1,0-1.1-.2s-.2-.5-.2-1.1v-3.6c0-.7,0-1,.2-1.1s.5-.2,1.1-.2h5.5c.7,0,1,0,1.1.2ZM577.1,845.8c.7,0,1.2-.6,1.2-1.2s0-.2-.2-.2h-7s-.2,0-.2.2c0,.7.6,1.2,1.2,1.2h5Z"/>
    <path class="st0" d="M544.2,853.7c.2-.2.5-.2,1.1-.2h3.6c.7,0,1,0,1.1.2s.2.5.2,1.1v5.5c0,.7,0,1-.2,1.1s-.5.2-1.1.2h-3.6c-.7,0-1,0-1.1-.2s-.2-.5-.2-1.1v-5.5c0-.7,0-1,.2-1.1ZM552.2,855.2c0-.7-.6-1.2-1.2-1.2s-.2,0-.2.2v7s0,.2.2.2c.7,0,1.2-.6,1.2-1.2v-4.8h0v-.2Z"/>
    <path class="st0" d="M544.2,865.9c.2-.2.5-.2,1.1-.2h3.6c.7,0,1,0,1.1.2s.2.5.2,1.1v5.5c0,.7,0,1-.2,1.1s-.5.2-1.1.2h-3.6c-.7,0-1,0-1.1-.2s-.2-.5-.2-1.1v-5.5c0-.7,0-1,.2-1.1ZM552.2,867.4c0-.7-.6-1.2-1.2-1.2s-.2,0-.2.2v7s0,.2.2.2c.7,0,1.2-.6,1.2-1.2v-4.8h0v-.2Z"/>
    <rect class="st1" x="556.3" y="851.5" width="24.5" height="24.5" rx="1.6" ry="1.6"/>
    <path class="st0" d="M592.9,861.4c-.2.2-.5.2-1.1.2h-3.6c-.7,0-1,0-1.1-.2s-.2-.5-.2-1.1v-5.5c0-.7,0-1,.2-1.1s.5-.2,1.1-.2h3.6c.7,0,1,0,1.1.2s.2.5.2,1.1v5.5c0,.7,0,1-.2,1.1ZM584.9,860c0,.7.6,1.2,1.2,1.2s.2,0,.2-.2v-7s0-.2-.2-.2c-.7,0-1.2.6-1.2,1.2v4.8h0v.2Z"/>
    <path class="st0" d="M592.9,873.7c-.2.2-.5.2-1.1.2h-3.6c-.7,0-1,0-1.1-.2s-.2-.5-.2-1.1v-5.5c0-.7,0-1,.2-1.1s.5-.2,1.1-.2h3.6c.7,0,1,0,1.1.2s.2.5.2,1.1v5.5c0,.7,0,1-.2,1.1ZM584.9,872.2c0,.7.6,1.2,1.2,1.2s.2,0,.2-.2v-7s0-.2-.2-.2c-.7,0-1.2.6-1.2,1.2v4.8h0v.2Z"/>
    <path class="st0" d="M558.5,889.6c-.2-.2-.2-.5-.2-1.1v-3.6c0-.7,0-1,.2-1.1s.5-.2,1.1-.2h5.5c.7,0,1,0,1.1.2s.2.5.2,1.1v3.6c0,.7,0,1-.2,1.1s-.5.2-1.1.2h-5.5c-.7,0-1,0-1.1-.2ZM560.1,881.7c-.7,0-1.2.6-1.2,1.2s0,.2.2.2h7s.2,0,.2-.2c0-.7-.6-1.2-1.2-1.2h-5Z"/>
    <path class="st0" d="M570.8,889.6c-.2-.2-.2-.5-.2-1.1v-3.6c0-.7,0-1,.2-1.1s.5-.2,1.1-.2h5.5c.7,0,1,0,1.1.2s.2.5.2,1.1v3.6c0,.7,0,1-.2,1.1s-.5.2-1.1.2h-5.5c-.7,0-1,0-1.1-.2ZM572.3,881.7c-.7,0-1.2.6-1.2,1.2s0,.2.2.2h7s.2,0,.2-.2c0-.7-.6-1.2-1.2-1.2h-5Z"/>
  </g>
  <g id="MV_x5F_24">
    <path class="st0" d="M501.9,837.8c.2.2.2.5.2,1.1v3.6c0,.7,0,1-.2,1.1s-.5.2-1.1.2h-5.5c-.7,0-1,0-1.1-.2-.2-.2-.2-.5-.2-1.1v-3.6c0-.7,0-1,.2-1.1s.5-.2,1.1-.2h5.5c.7,0,1,0,1.1.2ZM500.3,845.8c.7,0,1.2-.6,1.2-1.2s0-.2-.2-.2h-7s-.2,0-.2.2c0,.7.6,1.2,1.2,1.2h5Z"/>
    <path class="st0" d="M514.1,837.8c.2.2.2.5.2,1.1v3.6c0,.7,0,1-.2,1.1s-.5.2-1.1.2h-5.5c-.7,0-1,0-1.1-.2-.2-.2-.2-.5-.2-1.1v-3.6c0-.7,0-1,.2-1.1s.5-.2,1.1-.2h5.5c.7,0,1,0,1.1.2ZM512.6,845.8c.7,0,1.2-.6,1.2-1.2s0-.2-.2-.2h-7s-.2,0-.2.2c0,.7.6,1.2,1.2,1.2h5Z"/>
    <path class="st0" d="M479.8,853.7c.2-.2.5-.2,1.1-.2h3.6c.7,0,1,0,1.1.2.2.2.2.5.2,1.1v5.5c0,.7,0,1-.2,1.1s-.5.2-1.1.2h-3.6c-.7,0-1,0-1.1-.2-.2-.2-.2-.5-.2-1.1v-5.5c0-.7,0-1,.2-1.1ZM487.8,855.2c0-.7-.6-1.2-1.2-1.2s-.2,0-.2.2v7s0,.2.2.2c.7,0,1.2-.6,1.2-1.2v-4.8h0v-.2Z"/>
    <path class="st0" d="M479.8,865.9c.2-.2.5-.2,1.1-.2h3.6c.7,0,1,0,1.1.2.2.2.2.5.2,1.1v5.5c0,.7,0,1-.2,1.1s-.5.2-1.1.2h-3.6c-.7,0-1,0-1.1-.2-.2-.2-.2-.5-.2-1.1v-5.5c0-.7,0-1,.2-1.1ZM487.8,867.4c0-.7-.6-1.2-1.2-1.2s-.2,0-.2.2v7s0,.2.2.2c.7,0,1.2-.6,1.2-1.2v-4.8h0v-.2Z"/>
    <rect class="st1" x="491.8" y="851.5" width="24.5" height="24.5" rx="1.6" ry="1.6"/>
    <path class="st0" d="M528.4,861.4c-.2.2-.5.2-1.1.2h-3.6c-.7,0-1,0-1.1-.2-.2-.2-.2-.5-.2-1.1v-5.5c0-.7,0-1,.2-1.1s.5-.2,1.1-.2h3.6c.7,0,1,0,1.1.2.2.2.2.5.2,1.1v5.5c0,.7,0,1-.2,1.1ZM520.4,860c0,.7.6,1.2,1.2,1.2s.2,0,.2-.2v-7s0-.2-.2-.2c-.7,0-1.2.6-1.2,1.2v4.8h0v.2Z"/>
    <path class="st0" d="M528.4,873.7c-.2.2-.5.2-1.1.2h-3.6c-.7,0-1,0-1.1-.2-.2-.2-.2-.5-.2-1.1v-5.5c0-.7,0-1,.2-1.1s.5-.2,1.1-.2h3.6c.7,0,1,0,1.1.2.2.2.2.5.2,1.1v5.5c0,.7,0,1-.2,1.1ZM520.4,872.2c0,.7.6,1.2,1.2,1.2s.2,0,.2-.2v-7s0-.2-.2-.2c-.7,0-1.2.6-1.2,1.2v4.8h0v.2Z"/>
    <path class="st0" d="M494,889.6c-.2-.2-.2-.5-.2-1.1v-3.6c0-.7,0-1,.2-1.1s.5-.2,1.1-.2h5.5c.7,0,1,0,1.1.2.2.2.2.5.2,1.1v3.6c0,.7,0,1-.2,1.1s-.5.2-1.1.2h-5.5c-.7,0-1,0-1.1-.2ZM495.6,881.7c-.7,0-1.2.6-1.2,1.2s0,.2.2.2h7s.2,0,.2-.2c0-.7-.6-1.2-1.2-1.2h-5Z"/>
    <path class="st0" d="M506.3,889.6c-.2-.2-.2-.5-.2-1.1v-3.6c0-.7,0-1,.2-1.1s.5-.2,1.1-.2h5.5c.7,0,1,0,1.1.2.2.2.2.5.2,1.1v3.6c0,.7,0,1-.2,1.1s-.5.2-1.1.2h-5.5c-.7,0-1,0-1.1-.2h0ZM507.8,881.7c-.7,0-1.2.6-1.2,1.2s0,.2.2.2h7s.2,0,.2-.2c0-.7-.6-1.2-1.2-1.2h-5Z"/>
  </g>
</svg>